; Drill file
; Format: 2.4 (00.0000)
M48
INCH
T01C0.008
T02C0.012
T03C0.018
T04C0.02
T05C0.03
T06C0.035
T07C0.039
T08C0.043
T09C0.051
T10C0.055
T11C0.059
T12C0.075
T13C0.087
T14C0.098
T15C0.13
T16C0.157
%
G05
G90
T01
X005120Y007140
X005810Y008170
X005810Y008760
X007380Y008860
X007480Y012700
X005910Y012750
X005020Y012550
X003440Y013390
X001380Y011710
X003440Y017620
X005220Y018750
X006100Y018010
X006300Y018310
X006690Y018500
X007090Y018700
X007480Y018900
X007870Y019090
X008270Y019290
X008660Y019490
X009050Y019680
X008860Y019980
X008470Y020180
X008070Y020370
X007680Y020570
X007280Y020770
X006890Y020770
X006500Y020770
X009350Y019880
X009450Y016440
X009450Y015650
X009450Y015060
X009450Y014270
X009740Y013190
X010340Y013390
X010830Y013390
X011320Y013190
X011710Y013290
X012200Y013290
X012600Y013680
X012600Y013980
X012700Y014370
X012010Y015060
X012010Y015850
X012010Y016240
X011120Y016340
X010340Y016340
X012700Y015550
X012800Y016900
X013670Y016650
X015750Y017320
X018110Y015550
X017910Y015260
X017720Y014960
X017910Y014660
X018110Y014370
X018310Y015850
X018500Y016140
X018700Y016440
X020080Y016730
X020870Y016730
X021060Y017030
X022340Y016730
X023130Y016730
X024210Y016730
X025000Y016730
X026080Y017320
X027170Y016930
X027170Y015650
X026580Y014860
X026580Y014070
X026580Y013480
X026580Y012700
X025100Y012300
X024900Y010630
X025490Y010630
X026280Y010630
X027170Y010920
X027170Y010140
X027920Y010030
X027290Y009150
X026970Y007480
X026080Y006500
X027760Y006200
X028250Y006890
X029040Y006890
X028640Y006200
X029530Y006200
X029920Y006200
X028040Y004780
X027800Y004400
X024110Y005510
X023620Y008170
X024020Y008270
X023230Y008560
X023130Y008860
X023130Y008270
X024900Y008370
X023520Y010240
X024110Y010630
X022740Y010240
X020870Y011020
X019980Y011420
X020470Y012500
X020470Y013290
X020470Y014470
X020470Y015260
X021550Y015160
X019490Y018010
X020670Y018600
X022540Y019590
X022840Y021460
X024210Y023030
X023820Y024020
X023620Y024310
X023420Y024610
X024020Y024900
X023030Y025300
X022640Y026280
X022840Y026580
X023230Y026770
X022440Y026970
X021850Y027260
X021650Y028050
X022240Y029040
X022050Y029330
X019490Y030910
X019290Y031300
X019000Y028050
X018900Y027260
X019090Y026580
X019680Y026770
X021460Y025980
X019190Y024610
X019000Y024310
X019290Y024020
X019290Y023330
X019090Y023030
X018800Y024900
X017720Y026970
X024800Y027660
X025100Y027950
X025390Y028250
X025690Y028540
X025980Y028840
X026280Y029130
X026580Y029430
X026870Y029720
X027170Y030020
X027460Y030310
X027760Y030610
X028050Y030910
X028350Y031200
X028640Y031500
X031300Y033960
X031000Y034250
X030710Y034550
X030410Y034840
X030120Y035140
X031590Y033660
X033660Y034840
X034050Y034840
X034050Y035240
X034450Y036020
X034450Y036420
X034450Y036810
X034840Y036810
X035240Y036810
X035240Y036420
X034840Y036420
X034840Y036020
X035240Y036020
X035240Y035630
X034840Y035630
X035630Y035630
X035630Y036020
X035630Y036420
X035630Y036810
X035630Y037200
X035240Y037200
X035240Y037600
X034840Y037600
X034840Y037200
X034450Y037200
X034450Y037600
X034450Y037990
X034840Y037990
X034840Y038390
X034840Y038780
X035240Y038780
X034450Y038780
X034450Y038390
X034450Y039570
X034840Y039570
X035240Y039570
X035240Y039960
X035240Y040350
X034840Y040350
X034840Y039960
X034450Y039960
X034450Y040350
X034450Y040750
X034840Y040750
X035240Y040750
X035240Y041140
X035240Y041540
X034840Y041540
X034840Y041140
X034450Y041140
X034450Y041540
X034450Y041930
X034840Y041930
X035240Y041930
X035630Y041930
X035630Y041540
X035630Y041140
X036020Y041540
X036020Y041930
X036420Y041930
X036810Y041930
X037200Y041930
X037600Y041930
X037600Y041540
X038390Y041540
X038390Y041930
X038780Y041930
X039170Y041930
X039170Y042320
X038780Y042320
X038780Y042720
X039170Y042720
X039570Y042720
X039570Y042320
X039960Y042320
X039960Y042720
X040350Y042720
X040350Y042320
X040750Y042320
X040750Y042720
X041140Y042720
X041140Y042320
X041540Y042320
X041540Y041930
X041540Y041540
X041540Y041140
X041140Y041140
X041140Y041540
X041140Y041930
X040750Y041140
X040350Y041140
X040350Y041540
X039960Y041540
X039960Y041930
X039570Y041930
X038390Y042320
X038390Y042720
X037600Y042720
X037600Y042320
X037200Y042320
X037200Y042720
X036810Y042720
X036810Y042320
X036420Y042320
X036420Y042720
X036020Y042720
X036020Y042320
X035630Y042320
X035630Y042720
X035240Y042720
X035240Y042320
X034840Y042320
X034840Y042720
X034450Y042320
X034050Y043500
X033660Y043500
X034050Y041140
X032870Y041140
X032480Y041140
X031300Y039960
X030910Y039960
X030510Y039960
X030510Y039570
X029730Y039570
X029130Y039370
X028670Y042030
X028670Y042400
X027760Y042620
X027670Y041780
X026180Y041040
X026180Y042620
X027170Y047540
X029170Y050780
X023040Y048900
X022800Y049150
X022550Y049400
X022290Y049650
X022040Y049900
X021790Y050150
X021420Y050030
X020920Y050030
X020420Y050030
X019920Y050030
X019420Y050030
X018920Y050030
X015540Y051530
X015300Y051280
X020480Y063150
X019980Y064460
X025230Y064210
X031200Y042420
X035630Y040350
X035630Y039960
X036420Y039960
X036420Y040350
X036810Y040350
X036810Y039960
X037200Y039960
X037200Y040350
X037600Y040350
X037600Y039960
X037600Y039570
X037200Y039570
X036810Y039570
X036810Y038780
X036810Y038390
X037200Y038390
X037200Y038780
X037600Y038780
X037600Y038390
X037600Y037990
X037600Y037600
X037990Y037200
X038390Y037200
X038780Y037200
X039170Y037200
X039170Y036420
X038780Y036420
X038780Y036020
X039170Y036020
X039170Y035630
X038780Y035630
X038390Y035630
X038390Y036020
X038390Y036420
X037990Y036810
X037600Y036020
X037600Y035630
X037200Y035630
X037200Y036020
X036810Y036020
X036420Y036020
X036420Y036420
X036810Y036420
X036810Y035630
X036420Y035630
X036020Y035630
X036020Y036020
X036020Y036420
X036810Y037200
X036810Y037990
X037200Y037990
X038390Y037990
X038780Y037990
X038780Y038390
X038780Y038780
X039170Y038780
X038390Y038780
X038390Y038390
X038390Y039570
X038780Y039570
X039170Y039570
X039170Y039960
X039170Y040350
X038780Y040350
X038780Y039960
X038390Y039960
X038390Y040350
X039960Y039170
X040350Y039170
X040350Y039570
X040350Y039960
X040350Y040350
X040750Y040350
X041140Y040350
X041140Y039960
X041540Y039960
X041540Y040350
X041140Y040750
X040750Y040750
X040350Y040750
X041140Y039570
X041540Y039570
X041540Y038780
X041140Y038780
X041140Y038390
X040750Y038390
X040350Y038390
X040350Y038780
X040350Y037990
X040750Y037990
X040750Y037600
X040350Y037600
X040350Y037200
X040750Y037200
X041140Y037200
X041140Y037600
X041140Y037990
X041540Y037990
X041540Y037600
X041540Y037200
X041540Y036810
X041540Y036420
X041540Y036020
X041540Y035630
X041140Y035630
X041140Y036020
X041140Y036420
X041140Y036810
X040350Y036810
X039960Y036810
X039960Y036420
X039960Y036020
X039960Y035630
X039570Y035630
X039570Y036020
X039570Y036420
X040350Y036020
X040750Y036020
X040750Y035630
X040350Y035630
X041930Y034840
X042320Y034840
X042320Y035240
X043500Y034840
X043900Y034450
X044290Y034840
X044680Y034450
X043310Y037200
X042910Y037200
X042910Y040940
X043310Y040940
X042320Y043500
X041930Y043500
X036020Y038780
X035630Y035240
X035630Y034840
X037670Y028780
X037920Y028530
X038170Y028280
X038420Y028030
X038980Y027950
X039370Y028050
X039670Y028250
X039960Y028440
X040260Y028640
X043670Y025530
X044170Y025030
X044420Y024780
X044670Y024530
X044920Y024280
X045170Y024030
X045420Y023780
X045670Y023530
X045920Y023280
X046170Y023030
X046420Y022780
X046670Y022530
X046920Y022280
X047170Y022030
X047420Y021780
X047670Y021530
X047920Y021280
X048170Y021030
X048420Y020780
X033670Y028030
X033420Y028280
X033170Y028530
X032920Y028780
X032670Y029030
X029230Y025100
X029430Y023330
X026180Y021260
X025980Y021060
X025790Y020870
X025590Y020670
X025390Y020470
X025200Y020280
X024610Y020080
X024410Y019880
X024900Y019590
X025890Y015850
X028540Y014370
X028350Y013780
X028350Y013390
X028350Y012990
X028350Y012600
X028740Y012400
X028740Y012800
X028740Y013190
X028740Y013580
X028940Y011220
X028640Y011020
X028350Y011220
X029230Y010040
X032280Y008660
X020870Y005510
X019290Y006890
X019680Y007680
X019000Y008170
X018900Y008460
X020280Y010240
X018410Y005710
X014070Y010140
X013290Y012840
X009250Y012500
X011520Y004040
X006250Y024020
X025390Y024800
X027560Y036320
X027950Y036610
T02
X005760Y010500
X005760Y011290
X016510Y023710
X016340Y025690
X016510Y027710
X016510Y029710
X018950Y029650
X018950Y027650
X018950Y025650
X018950Y023650
X016950Y034150
X016950Y036150
X016950Y038150
X016950Y040150
X014510Y040210
X014510Y038210
X014510Y036210
X014510Y034210
X014510Y044210
X014510Y046210
X014510Y048210
X014510Y050210
X014540Y052400
X012800Y055090
X011420Y055650
X010670Y052650
X005650Y054270
X005650Y055060
X005290Y057030
X004670Y058400
X004670Y059650
X005170Y061030
X006540Y060530
X006420Y058900
X008670Y061030
X008670Y061530
X009420Y059900
X012170Y062030
X013290Y061400
X013290Y059400
X015170Y058280
X016170Y057280
X015420Y060530
X018170Y060780
X017170Y062900
X016920Y063340
X016670Y063780
X022420Y057280
X021670Y055780
X024670Y052280
X025540Y053030
X025420Y051030
X023420Y051030
X027800Y053530
X029290Y053150
X033290Y052650
X033170Y057280
X031920Y057280
X034420Y057280
X035670Y057280
X036920Y057280
X038170Y057280
X039420Y057280
X040670Y057280
X041920Y057280
X043170Y057280
X044420Y057280
X045670Y057280
X046920Y057280
X048170Y057280
X049670Y058030
X050420Y059780
X051040Y060530
X051670Y059780
X052920Y059780
X053540Y060530
X054170Y059780
X051670Y062110
X050390Y062110
X058880Y062100
X060160Y062100
X059550Y060530
X058920Y059780
X060170Y059780
X061420Y059780
X062050Y060530
X062670Y059780
X060670Y057280
X056040Y053650
X054170Y051780
X056420Y043780
X055670Y034780
X055670Y027150
X063920Y021280
X062670Y017530
X056170Y004030
X056170Y001650
X039170Y012200
X039170Y015710
X039170Y017280
X039920Y017280
X040420Y017280
X041670Y017280
X042170Y017280
X042670Y018780
X042670Y019280
X042730Y020780
X042610Y021780
X042610Y022280
X042610Y022780
X042610Y023710
X042110Y024280
X041670Y024280
X040170Y024280
X039670Y024280
X038670Y024280
X038170Y024280
X036920Y024280
X036420Y024280
X035670Y023530
X035920Y023150
X035670Y022780
X036420Y022900
X035920Y022030
X035920Y021650
X035920Y021150
X035920Y020650
X035670Y019900
X035730Y018780
X035730Y018280
X037040Y017280
X037550Y017280
X038420Y017280
X038230Y018210
X037730Y019340
X038420Y020210
X038420Y020590
X038420Y021900
X038420Y022280
X038420Y023030
X032920Y020150
X034050Y018530
X033670Y018150
X033290Y017780
X035170Y016030
X032040Y003030
X030300Y003030
X026950Y035980
X026250Y036670
X016950Y044150
X016950Y046150
X016950Y048150
X016950Y050150
X000920Y057280
T03
X061540Y036900
X063420Y043030
T04
X006500Y021650
X009940Y021650
X015040Y022030
X017420Y019490
X029530Y011910
X031000Y010730
X038280Y011900
X039570Y047640
X038190Y047840
X041140Y047840
X042720Y049410
X041920Y051280
X050390Y051380
X050390Y052950
X032420Y054530
X029420Y056280
T05
X010160Y006650
X010660Y007030
X011160Y007030
X011660Y006650
X012160Y007030
X012660Y007030
X013160Y006650
T06
X001670Y020780
X001670Y021780
X001670Y022780
X001670Y023780
X001670Y024780
X001670Y025780
X002670Y025280
X002670Y024280
X002670Y023280
X002670Y022280
X002670Y021280
X003670Y020780
X003670Y021780
X003670Y022780
X003670Y023780
X003670Y024780
X003670Y025780
X004670Y025280
X004670Y024280
X004670Y023280
X004670Y022280
X004670Y021280
X007670Y023280
X007670Y024280
X007670Y025280
X007670Y026280
X007670Y027280
X007670Y028280
X007670Y029280
X007670Y030280
X007670Y031280
X009670Y031280
X009670Y030280
X009670Y029280
X009670Y028280
X009670Y027280
X009670Y026280
X009670Y025280
X009670Y024280
X009670Y023280
X011670Y023280
X011670Y024280
X011670Y025280
X011670Y026280
X011670Y027280
X011670Y028280
X011670Y029280
X011670Y030280
X011670Y031280
X009670Y033280
X009670Y034280
X009670Y035280
X009670Y036280
X009670Y037280
X009670Y038280
X009670Y039280
X009670Y040280
X009670Y041280
X007670Y041280
X007670Y040280
X007670Y039280
X007670Y038280
X007670Y037280
X007670Y036280
X007670Y035280
X007670Y034280
X007670Y033280
X004670Y033280
X004670Y034280
X004670Y035280
X004670Y036280
X004670Y037280
X004670Y038280
X004670Y039280
X004670Y040280
X004670Y041280
X004670Y042280
X004670Y043280
X004670Y044280
X004670Y045280
X004670Y046280
X004670Y047280
X004670Y048280
X004670Y049280
X004670Y050280
X004670Y051280
X003670Y050780
X003670Y049780
X003670Y048780
X003670Y047780
X003670Y046780
X003670Y045780
X003670Y044780
X003670Y043780
X003670Y042780
X003670Y041780
X003670Y040780
X003670Y039780
X003670Y038780
X003670Y037780
X003670Y036780
X003670Y035780
X003670Y034780
X003670Y033780
X003670Y032780
X003670Y031780
X003670Y030780
X003670Y029780
X003670Y028780
X003670Y027780
X002670Y028280
X002670Y027280
X001670Y027780
X001670Y028780
X001670Y029780
X001670Y030780
X001670Y031780
X001670Y032780
X001670Y033780
X001670Y034780
X001670Y035780
X001670Y036780
X001670Y037780
X001670Y038780
X001670Y039780
X001670Y040780
X001670Y041780
X001670Y042780
X001670Y043780
X001670Y044780
X001670Y045780
X001670Y046780
X001670Y047780
X001670Y048780
X001670Y049780
X001670Y050780
X002670Y051280
X002670Y050280
X002670Y049280
X002670Y048280
X002670Y047280
X002670Y046280
X002670Y045280
X002670Y044280
X002670Y043280
X002670Y042280
X002670Y041280
X002670Y040280
X002670Y039280
X002670Y038280
X002670Y037280
X002670Y036280
X002670Y035280
X002670Y034280
X002670Y033280
X002670Y032280
X002670Y031280
X002670Y030280
X002670Y029280
X004670Y029280
X004670Y028280
X004670Y027280
X004670Y030280
X004670Y031280
X004670Y032280
X007670Y043280
X007670Y044280
X007670Y045280
X007670Y046280
X007670Y047280
X007670Y048280
X007670Y049280
X007670Y050280
X007670Y051280
X009670Y051280
X009670Y050280
X009670Y049280
X009670Y048280
X009670Y047280
X009670Y046280
X009670Y045280
X009670Y044280
X009670Y043280
X057670Y042780
X058420Y042280
X057670Y041780
X058420Y041280
X057670Y040780
X058420Y040280
X057670Y039780
X058420Y039280
X057670Y038780
X058420Y038280
X057670Y037780
X058420Y037280
X057670Y036780
X058420Y036280
X057670Y035780
X058420Y035280
X057670Y034780
X058420Y034280
X057670Y033780
X058420Y033280
X057670Y032780
X059170Y032780
X059920Y033280
X059170Y033780
X059920Y034280
X059170Y034780
X059920Y035280
X059170Y035780
X059920Y036280
X059170Y036780
X059920Y037280
X059170Y037780
X059920Y038280
X059170Y038780
X059920Y039280
X059170Y039780
X059920Y040280
X059170Y040780
X059920Y041280
X059170Y041780
X059920Y042280
X059170Y042780
X059920Y043280
X059170Y043780
X059920Y044280
X059170Y044780
X059920Y045280
X059170Y045780
X059920Y046280
X059170Y046780
X059920Y047280
X059170Y047780
X059920Y048280
X059170Y048780
X059920Y049280
X059170Y049780
X059920Y050280
X059170Y050780
X059920Y051280
X059170Y051780
X059920Y052280
X059170Y052780
X059920Y053280
X059170Y053780
X059920Y054280
X058420Y054280
X057670Y053780
X058420Y053280
X057670Y052780
X058420Y052280
X057670Y051780
X058420Y051280
X057670Y050780
X058420Y050280
X057670Y049780
X058420Y049280
X057670Y048780
X058420Y048280
X057670Y047780
X058420Y047280
X057670Y046780
X058420Y046280
X057670Y045780
X058420Y045280
X057670Y044780
X058420Y044280
X057670Y043780
X058420Y043280
X058420Y030280
X057670Y029780
X058420Y029280
X057670Y028780
X058420Y028280
X057670Y027780
X058420Y027280
X057670Y026780
X058420Y026280
X057670Y025780
X058420Y025280
X057670Y024780
X058420Y024280
X057670Y023780
X058420Y023280
X057670Y022780
X058420Y022280
X057670Y021780
X058420Y021280
X057670Y020780
X058420Y020280
X057670Y019780
X058420Y019280
X057670Y018780
X058420Y018280
X057670Y017780
X058420Y017280
X057670Y016780
X058420Y016280
X057670Y015780
X059170Y015780
X059920Y016280
X059170Y016780
X059920Y017280
X059170Y017780
X059920Y018280
X059170Y018780
X059920Y019280
X059170Y019780
X059920Y020280
X059170Y020780
X059920Y021280
X059170Y021780
X059920Y022280
X059170Y022780
X059920Y023280
X059170Y023780
X059920Y024280
X059170Y024780
X059920Y025280
X059170Y025780
X059920Y026280
X059170Y026780
X059920Y027280
X059170Y027780
X059920Y028280
X059170Y028780
X059920Y029280
X059170Y029780
X059920Y030280
X059920Y013280
X059170Y012780
X059920Y012280
X059170Y011780
X059920Y011280
X059170Y010780
X059920Y010280
X059170Y009780
X059920Y009280
X059170Y008780
X058420Y009280
X057670Y008780
X057670Y009780
X058420Y010280
X057670Y010780
X058420Y011280
X057670Y011780
X058420Y012280
X057670Y012780
X058420Y013280
T07
X002170Y005590
X002170Y006590
X003170Y006590
X003170Y005590
X002170Y007590
X002170Y008590
X002170Y009590
X003170Y009590
X003170Y008590
X002090Y011730
X002090Y013480
X002090Y015950
X002090Y017700
X005520Y016080
X005520Y015080
X007530Y011880
X007530Y009880
X007390Y005960
X006390Y005960
X006920Y003280
X006920Y002280
X007920Y002280
X007920Y003280
X008920Y003280
X009920Y003280
X009920Y002280
X008920Y002280
X010920Y002280
X011920Y002280
X011920Y003280
X012920Y003280
X012920Y002280
X013920Y002280
X014920Y002280
X014920Y003280
X015920Y003280
X015920Y002280
X016920Y002280
X017920Y002280
X017920Y003280
X018920Y003280
X018920Y002280
X019920Y002280
X020920Y002280
X020920Y003280
X021920Y003280
X021920Y002280
X022920Y002280
X022920Y003280
X019920Y003280
X016920Y003280
X013920Y003280
X010920Y003280
X016180Y006980
X017180Y006980
X030180Y008730
X031180Y008730
X035210Y009190
X035210Y008190
X037670Y008190
X037670Y009190
X040130Y009190
X040130Y008190
X042590Y008190
X042590Y009190
X045050Y009190
X045050Y008190
X041920Y012530
X041920Y013530
X025790Y022340
X024790Y022340
X020330Y022140
X019330Y022140
X018330Y022140
X017330Y022140
X028170Y047780
X028170Y048780
X029170Y048780
X030170Y048780
X030170Y047780
X031170Y047780
X031170Y048780
X032170Y048780
X032170Y047780
X029170Y047780
X031420Y051900
X032420Y051900
X026170Y059030
X025170Y059030
X023420Y058530
X023420Y059530
X023420Y060530
X023420Y061530
X025170Y061530
X026170Y061530
X027550Y064530
X029050Y064530
X022310Y064530
X022310Y065530
X020420Y061530
X020420Y060530
X020420Y059530
X020420Y058530
X009210Y063750
X009210Y064750
X008210Y064750
X008210Y063750
X007420Y055650
X007420Y053650
X001450Y054170
X001450Y055920
X038800Y064030
X039670Y064030
X040540Y064030
X041420Y064030
X042290Y064030
X041920Y063030
X042790Y063030
X041040Y063030
X040170Y063030
X039290Y063030
X039290Y065030
X040170Y065030
X041040Y065030
X041920Y065030
X042790Y065030
X050920Y064780
X051900Y064780
X052690Y064780
X053670Y064780
X053670Y063750
X052690Y063750
X051900Y063750
X050920Y063750
X059420Y063750
X060400Y063750
X061190Y063750
X062180Y063750
X062180Y064780
X061190Y064780
X060400Y064780
X059420Y064780
X052420Y054650
X052420Y053650
X064170Y014780
X064170Y013780
X064170Y012780
X064170Y011780
X059420Y001530
X058420Y001530
X057420Y001530
T08
X020280Y007280
X021280Y007280
X023420Y007280
X024920Y007280
T09
X045340Y012340
X053340Y012340
T10
X009090Y006840
X014220Y006840
T11
X002920Y011090
X002920Y014090
X002920Y015340
X002920Y018340
X027510Y001570
X030660Y001570
X002330Y053550
X002330Y056550
X014800Y065980
X017950Y065980
X031920Y066030
X032710Y065240
X031920Y063660
X032710Y062880
X031920Y061300
T12
X003170Y026530
X003170Y052030
T13
X031670Y006900
X035230Y004720
X036880Y004720
X038540Y004720
X040190Y004720
X041840Y004720
X043500Y004720
X045150Y004720
X046810Y004720
X048460Y004720
X050110Y004720
X051770Y004720
X053420Y004720
X053420Y002660
X051770Y002660
X050110Y002660
X048460Y002660
X046810Y002660
X045150Y002660
X043500Y002660
X041840Y002660
X040190Y002660
X038540Y002660
X036880Y002660
X035230Y002660
T14
X058800Y007530
X058800Y014530
X058800Y031530
X058800Y055530
X058190Y063620
X058190Y065870
X054880Y065870
X054880Y063620
X049690Y063620
X049690Y065870
X063380Y065870
X063380Y063620
X011210Y065620
X006210Y065620
T15
X035790Y064030
X045800Y064030
T16
X002420Y002280
X002420Y063280
X064420Y054280
X064420Y002280
M30
