%FSLAX34Y34*%
%MOMM*%
%LNSOLDERMASK_BOTTOM*%
G71*
G01*
%ADD10C, 2.20*%
%ADD11C, 2.00*%
%ADD12C, 2.70*%
%ADD13C, 1.90*%
%ADD14C, 2.80*%
%ADD15C, 1.50*%
%ADD16C, 2.70*%
%ADD17C, 1.40*%
%ADD18C, 2.90*%
%ADD19C, 0.86*%
%ADD20C, 2.20*%
%ADD21C, 2.80*%
%ADD22C, 2.10*%
%ADD23C, 2.69*%
%ADD24C, 1.10*%
%ADD25C, 3.90*%
%ADD26C, 4.00*%
%ADD27C, 4.40*%
%ADD28C, 6.40*%
%ADD29C, 2.40*%
%ADD30R, 1.82X1.92*%
%ADD31R, 0.82X1.90*%
%ADD32R, 1.90X0.82*%
%ADD33R, 1.92X1.82*%
%LPD*%
X55118Y167335D02*
G54D10*
D03*
X80518Y167335D02*
G54D10*
D03*
X55118Y192735D02*
G54D10*
D03*
G36*
X44114Y254538D02*
X66122Y254538D01*
X66122Y232530D01*
X44114Y232530D01*
X44114Y254538D01*
G37*
G36*
X69514Y254538D02*
X91522Y254538D01*
X91522Y232530D01*
X69514Y232530D01*
X69514Y254538D01*
G37*
X53086Y298044D02*
G54D11*
D03*
X53086Y342493D02*
G54D11*
D03*
X74168Y389585D02*
G54D12*
D03*
X53086Y405079D02*
G54D11*
D03*
X74168Y465784D02*
G54D12*
D03*
X53086Y449529D02*
G54D11*
D03*
X93218Y527710D02*
G54D13*
D03*
X67818Y565810D02*
G54D13*
D03*
X93218Y553110D02*
G54D13*
D03*
X93218Y578510D02*
G54D13*
D03*
X67818Y540410D02*
G54D13*
D03*
X93218Y603910D02*
G54D13*
D03*
X67818Y642010D02*
G54D13*
D03*
X93218Y629310D02*
G54D13*
D03*
X93218Y654710D02*
G54D13*
D03*
X67818Y616610D02*
G54D13*
D03*
X67818Y718210D02*
G54D13*
D03*
X93218Y730910D02*
G54D13*
D03*
X93218Y705510D02*
G54D13*
D03*
X67818Y692810D02*
G54D13*
D03*
X93218Y756310D02*
G54D13*
D03*
X67818Y794410D02*
G54D13*
D03*
X93218Y807110D02*
G54D13*
D03*
X67818Y769010D02*
G54D13*
D03*
X93218Y781710D02*
G54D13*
D03*
X93218Y832510D02*
G54D13*
D03*
X93218Y883310D02*
G54D13*
D03*
X67818Y870610D02*
G54D13*
D03*
X67818Y845210D02*
G54D13*
D03*
X93218Y857910D02*
G54D13*
D03*
X93218Y908710D02*
G54D13*
D03*
X67818Y946810D02*
G54D13*
D03*
X93218Y959510D02*
G54D13*
D03*
X67818Y921410D02*
G54D13*
D03*
X93218Y934110D02*
G54D13*
D03*
X93218Y984910D02*
G54D13*
D03*
X67818Y1023010D02*
G54D13*
D03*
X93218Y1035710D02*
G54D13*
D03*
X93218Y1010310D02*
G54D13*
D03*
X67818Y997610D02*
G54D13*
D03*
X93218Y1061110D02*
G54D13*
D03*
X67818Y1099210D02*
G54D13*
D03*
X93218Y1111910D02*
G54D13*
D03*
X67818Y1073810D02*
G54D13*
D03*
X93218Y1086510D02*
G54D13*
D03*
X93218Y1137310D02*
G54D13*
D03*
X67818Y1175410D02*
G54D13*
D03*
X93218Y1188110D02*
G54D13*
D03*
X67818Y1150010D02*
G54D13*
D03*
X93218Y1162710D02*
G54D13*
D03*
X93218Y1213510D02*
G54D13*
D03*
X93218Y1264310D02*
G54D13*
D03*
X67818Y1251610D02*
G54D13*
D03*
X67818Y1226210D02*
G54D13*
D03*
X93218Y1238910D02*
G54D13*
D03*
X93218Y1289710D02*
G54D13*
D03*
X67818Y1302410D02*
G54D13*
D03*
X80518Y1321460D02*
G54D14*
D03*
X175768Y83210D02*
G54D10*
D03*
G36*
X151302Y162490D02*
X173311Y162490D01*
X173311Y140482D01*
X151302Y140482D01*
X151302Y162490D01*
G37*
X140335Y408457D02*
G54D10*
D03*
G36*
X129331Y394061D02*
X151339Y394061D01*
X151339Y372053D01*
X129331Y372053D01*
X129331Y394061D01*
G37*
X251968Y83210D02*
G54D10*
D03*
X226568Y83210D02*
G54D10*
D03*
X257988Y168960D02*
G54D15*
D03*
X230988Y173735D02*
G54D16*
D03*
X252501Y549986D02*
G54D17*
D03*
X245618Y642010D02*
G54D13*
D03*
X245618Y616610D02*
G54D13*
D03*
X245618Y718210D02*
G54D13*
D03*
X245618Y692810D02*
G54D13*
D03*
X245618Y794410D02*
G54D13*
D03*
X245618Y769010D02*
G54D13*
D03*
X245618Y845210D02*
G54D13*
D03*
X245618Y870610D02*
G54D13*
D03*
X245618Y921410D02*
G54D13*
D03*
X245618Y946810D02*
G54D13*
D03*
X245618Y997610D02*
G54D13*
D03*
X245618Y1023010D02*
G54D13*
D03*
X245618Y1099210D02*
G54D13*
D03*
X245618Y1175410D02*
G54D13*
D03*
X245618Y1150010D02*
G54D13*
D03*
X245618Y1251610D02*
G54D13*
D03*
X245618Y1226210D02*
G54D13*
D03*
X245618Y1302410D02*
G54D13*
D03*
X233959Y1644624D02*
G54D10*
D03*
X233959Y1619225D02*
G54D10*
D03*
X208560Y1644624D02*
G54D10*
D03*
X208560Y1619225D02*
G54D10*
D03*
X328168Y83210D02*
G54D10*
D03*
X302768Y83210D02*
G54D10*
D03*
X283388Y178485D02*
G54D15*
D03*
X321488Y178485D02*
G54D15*
D03*
X308788Y178485D02*
G54D15*
D03*
X334188Y168960D02*
G54D15*
D03*
X296088Y168960D02*
G54D15*
D03*
X296418Y616610D02*
G54D13*
D03*
X296418Y642010D02*
G54D13*
D03*
X296418Y692810D02*
G54D13*
D03*
X296418Y718210D02*
G54D13*
D03*
X296418Y769010D02*
G54D13*
D03*
X296418Y794410D02*
G54D13*
D03*
X404368Y83210D02*
G54D10*
D03*
X378968Y83210D02*
G54D10*
D03*
X411048Y177241D02*
G54D10*
D03*
X376022Y1675866D02*
G54D18*
D03*
X480568Y83210D02*
G54D10*
D03*
X455168Y83210D02*
G54D10*
D03*
G36*
X425444Y188245D02*
X447453Y188245D01*
X447453Y166237D01*
X425444Y166237D01*
X425444Y188245D01*
G37*
X440258Y562254D02*
G54D10*
D03*
X465658Y562254D02*
G54D10*
D03*
X450012Y684987D02*
G54D19*
D03*
X456032Y1675866D02*
G54D18*
D03*
X556768Y83210D02*
G54D10*
D03*
X531368Y83210D02*
G54D10*
D03*
X515112Y184988D02*
G54D20*
D03*
X540512Y184988D02*
G54D20*
D03*
G36*
X505454Y573258D02*
X527462Y573258D01*
X527462Y551250D01*
X505454Y551250D01*
X505454Y573258D01*
G37*
X518668Y1486560D02*
G54D10*
D03*
G36*
X507664Y1573764D02*
X529672Y1573764D01*
X529672Y1551756D01*
X507664Y1551756D01*
X507664Y1573764D01*
G37*
X518668Y1537360D02*
G54D10*
D03*
X594944Y184988D02*
G54D20*
D03*
X633044Y184988D02*
G54D20*
D03*
X629616Y567486D02*
G54D10*
D03*
X594868Y1486560D02*
G54D10*
D03*
X594868Y1562760D02*
G54D10*
D03*
X594868Y1537360D02*
G54D10*
D03*
G36*
X628314Y1573764D02*
X650322Y1573764D01*
X650322Y1551756D01*
X628314Y1551756D01*
X628314Y1573764D01*
G37*
X698754Y39929D02*
G54D18*
D03*
X715518Y1213510D02*
G54D10*
D03*
X715518Y1238910D02*
G54D10*
D03*
X664718Y1562760D02*
G54D10*
D03*
G36*
X688639Y1649964D02*
X710647Y1649964D01*
X710647Y1627956D01*
X688639Y1627956D01*
X688639Y1649964D01*
G37*
X778764Y39929D02*
G54D18*
D03*
X766648Y221691D02*
G54D10*
D03*
G36*
X781044Y232695D02*
X803052Y232695D01*
X803052Y210687D01*
X781044Y210687D01*
X781044Y232695D01*
G37*
X766318Y1213510D02*
G54D10*
D03*
X766318Y1238910D02*
G54D10*
D03*
X791718Y1213510D02*
G54D10*
D03*
X791718Y1238910D02*
G54D10*
D03*
X740918Y1213510D02*
G54D10*
D03*
X740918Y1238910D02*
G54D10*
D03*
X817118Y1213510D02*
G54D10*
D03*
G36*
X806114Y1249914D02*
X828122Y1249914D01*
X828122Y1227906D01*
X806114Y1227906D01*
X806114Y1249914D01*
G37*
G36*
X812464Y1329289D02*
X834472Y1329289D01*
X834472Y1307281D01*
X812464Y1307281D01*
X812464Y1329289D01*
G37*
X830758Y1597050D02*
G54D21*
D03*
X894207Y233350D02*
G54D10*
D03*
X1019200Y233350D02*
G54D10*
D03*
X985393Y1626260D02*
G54D22*
D03*
X1007618Y1626260D02*
G54D22*
D03*
X998093Y1600860D02*
G54D22*
D03*
X1020318Y1600860D02*
G54D22*
D03*
X1081710Y233350D02*
G54D10*
D03*
X1064768Y318160D02*
G54D10*
D03*
G36*
X1053764Y354564D02*
X1075772Y354564D01*
X1075772Y332556D01*
X1053764Y332556D01*
X1053764Y354564D01*
G37*
X1052068Y1626260D02*
G54D22*
D03*
X1074293Y1626260D02*
G54D22*
D03*
X1064768Y1600860D02*
G54D22*
D03*
X1086993Y1600860D02*
G54D22*
D03*
X1144194Y233350D02*
G54D10*
D03*
X1151534Y313410D02*
G54D23*
D03*
X1293368Y1619300D02*
G54D11*
D03*
X1293368Y1645310D02*
G54D11*
D03*
X1318362Y1619300D02*
G54D11*
D03*
X1318362Y1645310D02*
G54D11*
D03*
X1354734Y313410D02*
G54D23*
D03*
X1363345Y1619300D02*
G54D11*
D03*
X1363345Y1645310D02*
G54D11*
D03*
X1458468Y38760D02*
G54D10*
D03*
X1464818Y222910D02*
G54D13*
D03*
X1464818Y248310D02*
G54D13*
D03*
X1464818Y273710D02*
G54D13*
D03*
X1464818Y299110D02*
G54D13*
D03*
X1464818Y324510D02*
G54D13*
D03*
X1464818Y400710D02*
G54D13*
D03*
X1464818Y426110D02*
G54D13*
D03*
X1464818Y451510D02*
G54D13*
D03*
X1464818Y476910D02*
G54D13*
D03*
X1464818Y502310D02*
G54D13*
D03*
X1464818Y527710D02*
G54D13*
D03*
X1464818Y553110D02*
G54D13*
D03*
X1464818Y578510D02*
G54D13*
D03*
X1464818Y603910D02*
G54D13*
D03*
X1464818Y629310D02*
G54D13*
D03*
X1464818Y654710D02*
G54D13*
D03*
X1464818Y680110D02*
G54D13*
D03*
X1464818Y705510D02*
G54D13*
D03*
X1464818Y730910D02*
G54D13*
D03*
X1464818Y756310D02*
G54D13*
D03*
X1464818Y832510D02*
G54D13*
D03*
X1464818Y857910D02*
G54D13*
D03*
X1464818Y883310D02*
G54D13*
D03*
X1464818Y908710D02*
G54D13*
D03*
X1464818Y934110D02*
G54D13*
D03*
X1464818Y959510D02*
G54D13*
D03*
X1464818Y984910D02*
G54D13*
D03*
X1464818Y1010310D02*
G54D13*
D03*
X1464818Y1035710D02*
G54D13*
D03*
X1464818Y1061110D02*
G54D13*
D03*
X1464818Y1086510D02*
G54D13*
D03*
X1464818Y1111910D02*
G54D13*
D03*
X1464818Y1137310D02*
G54D13*
D03*
X1464818Y1162710D02*
G54D13*
D03*
X1464818Y1188110D02*
G54D13*
D03*
X1464818Y1213510D02*
G54D13*
D03*
X1464818Y1238910D02*
G54D13*
D03*
X1464818Y1264310D02*
G54D13*
D03*
X1464818Y1289710D02*
G54D13*
D03*
X1464818Y1315110D02*
G54D13*
D03*
X1464818Y1340510D02*
G54D13*
D03*
X1464818Y1365910D02*
G54D13*
D03*
G36*
X1498264Y49764D02*
X1520272Y49764D01*
X1520272Y27756D01*
X1498264Y27756D01*
X1498264Y49764D01*
G37*
X1502918Y222910D02*
G54D13*
D03*
X1521968Y235610D02*
G54D13*
D03*
X1502918Y248310D02*
G54D13*
D03*
X1502918Y273710D02*
G54D13*
D03*
X1521968Y261010D02*
G54D13*
D03*
X1502918Y299110D02*
G54D13*
D03*
X1521968Y311810D02*
G54D13*
D03*
X1502918Y324510D02*
G54D13*
D03*
X1521968Y337210D02*
G54D13*
D03*
X1502918Y400710D02*
G54D13*
D03*
X1502918Y426110D02*
G54D13*
D03*
X1521968Y413410D02*
G54D13*
D03*
X1502918Y451510D02*
G54D13*
D03*
X1521968Y464210D02*
G54D13*
D03*
X1502918Y476910D02*
G54D13*
D03*
X1502918Y502310D02*
G54D13*
D03*
X1521968Y489610D02*
G54D13*
D03*
X1502918Y527710D02*
G54D13*
D03*
X1521968Y540410D02*
G54D13*
D03*
X1502918Y553110D02*
G54D13*
D03*
X1502918Y578510D02*
G54D13*
D03*
X1521968Y565810D02*
G54D13*
D03*
X1502918Y603910D02*
G54D13*
D03*
X1521968Y616610D02*
G54D13*
D03*
X1502918Y629310D02*
G54D13*
D03*
X1502918Y654710D02*
G54D13*
D03*
X1521968Y642010D02*
G54D13*
D03*
X1502918Y680110D02*
G54D13*
D03*
X1521968Y692810D02*
G54D13*
D03*
X1502918Y705510D02*
G54D13*
D03*
X1502918Y730910D02*
G54D13*
D03*
X1521968Y718210D02*
G54D13*
D03*
X1502918Y756310D02*
G54D13*
D03*
X1521968Y769010D02*
G54D13*
D03*
X1502918Y832510D02*
G54D13*
D03*
X1521968Y845210D02*
G54D13*
D03*
X1502918Y857910D02*
G54D13*
D03*
X1502918Y883310D02*
G54D13*
D03*
X1521968Y870610D02*
G54D13*
D03*
X1502918Y908710D02*
G54D13*
D03*
X1521968Y921410D02*
G54D13*
D03*
X1502918Y934110D02*
G54D13*
D03*
X1502918Y959510D02*
G54D13*
D03*
X1521968Y946810D02*
G54D13*
D03*
X1502918Y984910D02*
G54D13*
D03*
X1521968Y997610D02*
G54D13*
D03*
X1502918Y1010310D02*
G54D13*
D03*
X1502918Y1035710D02*
G54D13*
D03*
X1521968Y1023010D02*
G54D13*
D03*
X1502918Y1061110D02*
G54D13*
D03*
X1521968Y1073810D02*
G54D13*
D03*
X1502918Y1086510D02*
G54D13*
D03*
X1502918Y1111910D02*
G54D13*
D03*
X1521968Y1099210D02*
G54D13*
D03*
X1502918Y1137310D02*
G54D13*
D03*
X1521968Y1150010D02*
G54D13*
D03*
X1502918Y1162710D02*
G54D13*
D03*
X1502918Y1188110D02*
G54D13*
D03*
X1521968Y1175410D02*
G54D13*
D03*
X1502918Y1213510D02*
G54D13*
D03*
X1521968Y1226210D02*
G54D13*
D03*
X1502918Y1238910D02*
G54D13*
D03*
X1502918Y1264310D02*
G54D13*
D03*
X1521968Y1251610D02*
G54D13*
D03*
X1502918Y1289710D02*
G54D13*
D03*
X1521968Y1302410D02*
G54D13*
D03*
X1502918Y1315110D02*
G54D13*
D03*
X1502918Y1340510D02*
G54D13*
D03*
X1521968Y1327810D02*
G54D13*
D03*
X1502918Y1365910D02*
G54D13*
D03*
X1521968Y1378610D02*
G54D13*
D03*
X1541018Y1454810D02*
G54D24*
D03*
X1509268Y1619300D02*
G54D11*
D03*
X1509268Y1645310D02*
G54D11*
D03*
X1534262Y1619300D02*
G54D11*
D03*
X1534262Y1645310D02*
G54D11*
D03*
X1554251Y1619300D02*
G54D11*
D03*
X1554251Y1645310D02*
G54D11*
D03*
X1629918Y349910D02*
G54D10*
D03*
X1629918Y324510D02*
G54D10*
D03*
G36*
X1618914Y310114D02*
X1640922Y310114D01*
X1640922Y288106D01*
X1618914Y288106D01*
X1618914Y310114D01*
G37*
X1629918Y375310D02*
G54D10*
D03*
X1579245Y1619300D02*
G54D11*
D03*
X1579245Y1645310D02*
G54D11*
D03*
X1609877Y1615897D02*
G54D25*
D03*
X55118Y141935D02*
G54D10*
D03*
X80518Y141935D02*
G54D10*
D03*
X55118Y218135D02*
G54D10*
D03*
X80518Y218135D02*
G54D10*
D03*
X74168Y281635D02*
G54D12*
D03*
X74168Y357835D02*
G54D12*
D03*
X67818Y743610D02*
G54D13*
D03*
X67818Y591210D02*
G54D13*
D03*
X80518Y673760D02*
G54D14*
D03*
X67818Y819810D02*
G54D13*
D03*
X67818Y896010D02*
G54D13*
D03*
X67818Y972210D02*
G54D13*
D03*
X67818Y1048410D02*
G54D13*
D03*
X67818Y1124610D02*
G54D13*
D03*
X67818Y1200810D02*
G54D13*
D03*
X67818Y1277010D02*
G54D13*
D03*
X59157Y1360068D02*
G54D12*
D03*
X59157Y1436268D02*
G54D12*
D03*
G36*
X164764Y68814D02*
X186772Y68814D01*
X186772Y46806D01*
X164764Y46806D01*
X164764Y68814D01*
G37*
X157760Y1666850D02*
G54D25*
D03*
X251968Y57810D02*
G54D10*
D03*
X226568Y57810D02*
G54D10*
D03*
X245618Y591210D02*
G54D13*
D03*
X245618Y667410D02*
G54D13*
D03*
X245618Y743610D02*
G54D13*
D03*
X245618Y896010D02*
G54D13*
D03*
X245618Y972210D02*
G54D13*
D03*
X245618Y1048410D02*
G54D13*
D03*
X245618Y1124610D02*
G54D13*
D03*
X245618Y1200810D02*
G54D13*
D03*
X245618Y1277010D02*
G54D13*
D03*
X328168Y57810D02*
G54D10*
D03*
X302768Y57810D02*
G54D10*
D03*
X296418Y591210D02*
G54D13*
D03*
X296418Y667410D02*
G54D13*
D03*
X296418Y743610D02*
G54D13*
D03*
X404368Y57810D02*
G54D10*
D03*
X378968Y57810D02*
G54D10*
D03*
X480568Y57810D02*
G54D10*
D03*
X455168Y57810D02*
G54D10*
D03*
X556768Y57810D02*
G54D10*
D03*
X531368Y57810D02*
G54D10*
D03*
X518668Y1511960D02*
G54D10*
D03*
X594868Y1511960D02*
G54D10*
D03*
G36*
X628314Y1510264D02*
X650322Y1510264D01*
X650322Y1488256D01*
X628314Y1488256D01*
X628314Y1510264D01*
G37*
X664718Y1499260D02*
G54D10*
D03*
X830758Y1657045D02*
G54D21*
D03*
G36*
X883203Y218953D02*
X905211Y218953D01*
X905211Y196945D01*
X883203Y196945D01*
X883203Y218953D01*
G37*
X978866Y67513D02*
G54D26*
D03*
X978866Y120015D02*
G54D26*
D03*
G36*
X1008196Y218953D02*
X1030205Y218953D01*
X1030205Y196945D01*
X1008196Y196945D01*
X1008196Y218953D01*
G37*
X998093Y1651660D02*
G54D22*
D03*
X1020318Y1651660D02*
G54D22*
D03*
X1062863Y67513D02*
G54D26*
D03*
X1062863Y120015D02*
G54D26*
D03*
G36*
X1070706Y218953D02*
X1092714Y218953D01*
X1092714Y196945D01*
X1070706Y196945D01*
X1070706Y218953D01*
G37*
X1064768Y1651660D02*
G54D22*
D03*
X1086993Y1651660D02*
G54D22*
D03*
X1146861Y67513D02*
G54D26*
D03*
X1146861Y120015D02*
G54D26*
D03*
G36*
X1133190Y218953D02*
X1155198Y218953D01*
X1155198Y196945D01*
X1133190Y196945D01*
X1133190Y218953D01*
G37*
X1230858Y67513D02*
G54D26*
D03*
X1230858Y120015D02*
G54D26*
D03*
X1314856Y67513D02*
G54D26*
D03*
X1314856Y120015D02*
G54D26*
D03*
X1521968Y286410D02*
G54D13*
D03*
X1521968Y438810D02*
G54D13*
D03*
X1521968Y515010D02*
G54D13*
D03*
X1521968Y591210D02*
G54D13*
D03*
X1521968Y667410D02*
G54D13*
D03*
X1521968Y743610D02*
G54D13*
D03*
X1521968Y896010D02*
G54D13*
D03*
X1521968Y972210D02*
G54D13*
D03*
X1521968Y1048410D02*
G54D13*
D03*
X1521968Y1124610D02*
G54D13*
D03*
X1521968Y1200810D02*
G54D13*
D03*
X1521968Y1277010D02*
G54D13*
D03*
X1521968Y1353210D02*
G54D13*
D03*
X1609877Y1673047D02*
G54D25*
D03*
X42418Y527710D02*
G54D13*
D03*
X42418Y553110D02*
G54D13*
D03*
X42418Y578510D02*
G54D13*
D03*
X42418Y603910D02*
G54D13*
D03*
X42418Y629310D02*
G54D13*
D03*
X42418Y654710D02*
G54D13*
D03*
X42418Y730910D02*
G54D13*
D03*
X42418Y705510D02*
G54D13*
D03*
X42418Y756310D02*
G54D13*
D03*
X42418Y807110D02*
G54D13*
D03*
X42418Y781710D02*
G54D13*
D03*
X42418Y832510D02*
G54D13*
D03*
X42418Y883310D02*
G54D13*
D03*
X42418Y857910D02*
G54D13*
D03*
X42418Y908710D02*
G54D13*
D03*
X42418Y959510D02*
G54D13*
D03*
X42418Y934110D02*
G54D13*
D03*
X42418Y984910D02*
G54D13*
D03*
X42418Y1035710D02*
G54D13*
D03*
X42418Y1010310D02*
G54D13*
D03*
X42418Y1061110D02*
G54D13*
D03*
X42418Y1111910D02*
G54D13*
D03*
X42418Y1086510D02*
G54D13*
D03*
X42418Y1137310D02*
G54D13*
D03*
X42418Y1188110D02*
G54D13*
D03*
X42418Y1162710D02*
G54D13*
D03*
X42418Y1213510D02*
G54D13*
D03*
X42418Y1264310D02*
G54D13*
D03*
X42418Y1238910D02*
G54D13*
D03*
X42418Y1289710D02*
G54D13*
D03*
X36932Y1375943D02*
G54D11*
D03*
X201168Y83210D02*
G54D10*
D03*
X277368Y83210D02*
G54D10*
D03*
X353568Y83210D02*
G54D10*
D03*
X361162Y173735D02*
G54D16*
D03*
X270688Y178485D02*
G54D15*
D03*
X187706Y151486D02*
G54D10*
D03*
X191364Y250901D02*
G54D11*
D03*
X191364Y301700D02*
G54D11*
D03*
X118618Y565810D02*
G54D13*
D03*
X118618Y540410D02*
G54D13*
D03*
X118618Y642010D02*
G54D13*
D03*
X118618Y616610D02*
G54D13*
D03*
X194818Y642010D02*
G54D13*
D03*
X194818Y616610D02*
G54D13*
D03*
X118618Y718210D02*
G54D13*
D03*
X118618Y692810D02*
G54D13*
D03*
X194818Y718210D02*
G54D13*
D03*
X194818Y692810D02*
G54D13*
D03*
X118618Y794410D02*
G54D13*
D03*
X118618Y769010D02*
G54D13*
D03*
X194818Y794410D02*
G54D13*
D03*
X194818Y769010D02*
G54D13*
D03*
X118618Y870610D02*
G54D13*
D03*
X118618Y845210D02*
G54D13*
D03*
X194818Y845210D02*
G54D13*
D03*
X194818Y870610D02*
G54D13*
D03*
X118618Y946810D02*
G54D13*
D03*
X118618Y921410D02*
G54D13*
D03*
X194818Y921410D02*
G54D13*
D03*
X194818Y946810D02*
G54D13*
D03*
X118618Y1023010D02*
G54D13*
D03*
X118618Y997610D02*
G54D13*
D03*
X194818Y997610D02*
G54D13*
D03*
X194818Y1023010D02*
G54D13*
D03*
X118618Y1099210D02*
G54D13*
D03*
X118618Y1073810D02*
G54D13*
D03*
X194818Y1099210D02*
G54D13*
D03*
X118618Y1175410D02*
G54D13*
D03*
X118618Y1150010D02*
G54D13*
D03*
X194818Y1175410D02*
G54D13*
D03*
X194818Y1150010D02*
G54D13*
D03*
X118618Y1251610D02*
G54D13*
D03*
X118618Y1226210D02*
G54D13*
D03*
X194818Y1251610D02*
G54D13*
D03*
X194818Y1226210D02*
G54D13*
D03*
X118618Y1302410D02*
G54D13*
D03*
X194818Y1302410D02*
G54D13*
D03*
X188468Y1413535D02*
G54D11*
D03*
X429768Y83210D02*
G54D10*
D03*
X505968Y83210D02*
G54D10*
D03*
X582168Y83210D02*
G54D10*
D03*
X491058Y562254D02*
G54D10*
D03*
X580009Y545007D02*
G54D19*
D03*
G36*
X644011Y578490D02*
X666020Y578490D01*
X666020Y556482D01*
X644011Y556482D01*
X644011Y578490D01*
G37*
X566776Y1639138D02*
G54D10*
D03*
X804418Y175285D02*
G54D26*
D03*
X956716Y233350D02*
G54D10*
D03*
X798068Y1318285D02*
G54D10*
D03*
X810768Y1557045D02*
G54D21*
D03*
X810768Y1617040D02*
G54D21*
D03*
X737743Y1638960D02*
G54D10*
D03*
X810768Y1677060D02*
G54D21*
D03*
X1262202Y1615897D02*
G54D25*
D03*
X1029843Y1626260D02*
G54D22*
D03*
X1042543Y1600860D02*
G54D22*
D03*
X1483868Y38760D02*
G54D10*
D03*
X1483868Y235610D02*
G54D13*
D03*
X1483868Y261010D02*
G54D13*
D03*
X1483868Y311810D02*
G54D13*
D03*
X1483868Y337210D02*
G54D13*
D03*
X1483868Y413410D02*
G54D13*
D03*
X1483868Y464210D02*
G54D13*
D03*
X1483868Y489610D02*
G54D13*
D03*
X1483868Y540410D02*
G54D13*
D03*
X1483868Y565810D02*
G54D13*
D03*
X1483868Y616610D02*
G54D13*
D03*
X1483868Y642010D02*
G54D13*
D03*
X1483868Y692810D02*
G54D13*
D03*
X1483868Y718210D02*
G54D13*
D03*
X1483868Y769010D02*
G54D13*
D03*
X1483868Y845210D02*
G54D13*
D03*
X1483868Y870610D02*
G54D13*
D03*
X1483868Y921410D02*
G54D13*
D03*
X1483868Y946810D02*
G54D13*
D03*
X1483868Y997610D02*
G54D13*
D03*
X1483868Y1023010D02*
G54D13*
D03*
X1483868Y1073810D02*
G54D13*
D03*
X1483868Y1099210D02*
G54D13*
D03*
X1483868Y1150010D02*
G54D13*
D03*
X1483868Y1175410D02*
G54D13*
D03*
X1483868Y1226210D02*
G54D13*
D03*
X1483868Y1251610D02*
G54D13*
D03*
X1483868Y1302410D02*
G54D13*
D03*
X1483868Y1327810D02*
G54D13*
D03*
X1483868Y1378610D02*
G54D13*
D03*
G36*
X1320464Y1399139D02*
X1342472Y1399139D01*
X1342472Y1377131D01*
X1320464Y1377131D01*
X1320464Y1399139D01*
G37*
X1338352Y1619300D02*
G54D11*
D03*
X1338352Y1645310D02*
G54D11*
D03*
X1393978Y1615897D02*
G54D25*
D03*
X1478102Y1615897D02*
G54D25*
D03*
X36932Y1420393D02*
G54D11*
D03*
X201168Y57810D02*
G54D10*
D03*
X277368Y57810D02*
G54D10*
D03*
X353568Y57810D02*
G54D10*
D03*
X118618Y743610D02*
G54D13*
D03*
X118618Y591210D02*
G54D13*
D03*
X194818Y591210D02*
G54D13*
D03*
X194818Y667410D02*
G54D13*
D03*
X194818Y743610D02*
G54D13*
D03*
X118618Y819810D02*
G54D13*
D03*
X118618Y896010D02*
G54D13*
D03*
X118618Y972210D02*
G54D13*
D03*
X118618Y1048410D02*
G54D13*
D03*
X194818Y896010D02*
G54D13*
D03*
X194818Y972210D02*
G54D13*
D03*
X194818Y1048410D02*
G54D13*
D03*
X118618Y1124610D02*
G54D13*
D03*
X118618Y1200810D02*
G54D13*
D03*
X118618Y1277010D02*
G54D13*
D03*
X194818Y1124610D02*
G54D13*
D03*
X194818Y1200810D02*
G54D13*
D03*
X194818Y1277010D02*
G54D13*
D03*
X188468Y1362735D02*
G54D11*
D03*
X284760Y1666850D02*
G54D25*
D03*
X429768Y57810D02*
G54D10*
D03*
X505968Y57810D02*
G54D10*
D03*
X582168Y57810D02*
G54D10*
D03*
G36*
X555771Y1675542D02*
X577780Y1675542D01*
X577780Y1653534D01*
X555771Y1653534D01*
X555771Y1675542D01*
G37*
X936879Y67513D02*
G54D26*
D03*
X894868Y67513D02*
G54D26*
D03*
X894868Y120015D02*
G54D26*
D03*
X936879Y120015D02*
G54D26*
D03*
G36*
X945712Y218953D02*
X967721Y218953D01*
X967721Y196945D01*
X945712Y196945D01*
X945712Y218953D01*
G37*
X909193Y1626260D02*
G54D27*
D03*
X1188872Y67513D02*
G54D26*
D03*
X1272870Y67513D02*
G54D26*
D03*
X1020877Y67513D02*
G54D26*
D03*
X1104874Y67513D02*
G54D26*
D03*
X1020877Y120015D02*
G54D26*
D03*
X1104874Y120015D02*
G54D26*
D03*
X1188872Y120015D02*
G54D26*
D03*
X1272870Y120015D02*
G54D26*
D03*
X1042543Y1651660D02*
G54D22*
D03*
X1163193Y1626260D02*
G54D27*
D03*
X1356868Y67513D02*
G54D26*
D03*
X1356868Y120015D02*
G54D26*
D03*
X1483868Y286410D02*
G54D13*
D03*
X1493393Y368960D02*
G54D25*
D03*
X1483868Y438810D02*
G54D13*
D03*
X1483868Y515010D02*
G54D13*
D03*
X1483868Y591210D02*
G54D13*
D03*
X1483868Y667410D02*
G54D13*
D03*
X1483868Y743610D02*
G54D13*
D03*
X1483868Y896010D02*
G54D13*
D03*
X1483868Y972210D02*
G54D13*
D03*
X1483868Y1048410D02*
G54D13*
D03*
X1483868Y1124610D02*
G54D13*
D03*
X1483868Y1200810D02*
G54D13*
D03*
X1483868Y1277010D02*
G54D13*
D03*
X1483868Y1353210D02*
G54D13*
D03*
X1331468Y1362735D02*
G54D10*
D03*
X1262202Y1673047D02*
G54D25*
D03*
X1493393Y191160D02*
G54D25*
D03*
X1493393Y800760D02*
G54D25*
D03*
X1393978Y1673047D02*
G54D25*
D03*
X1478102Y1673047D02*
G54D25*
D03*
X1493393Y1410360D02*
G54D25*
D03*
X61468Y57810D02*
G54D28*
D03*
X61468Y1607210D02*
G54D28*
D03*
X1636268Y57810D02*
G54D28*
D03*
X1636268Y1378610D02*
G54D28*
D03*
G36*
X28937Y273551D02*
X41065Y273551D01*
X41065Y261423D01*
X28937Y261423D01*
X28937Y273551D01*
G37*
G36*
X11436Y273551D02*
X23564Y273551D01*
X23564Y261423D01*
X11436Y261423D01*
X11436Y273551D01*
G37*
X29718Y1607210D02*
G54D29*
D03*
X83490Y35077D02*
G54D29*
D03*
X61265Y25552D02*
G54D29*
D03*
X83490Y79984D02*
G54D29*
D03*
X61265Y89052D02*
G54D29*
D03*
G36*
X63938Y316071D02*
X76066Y316071D01*
X76066Y303943D01*
X63938Y303943D01*
X63938Y316071D01*
G37*
G36*
X81439Y316071D02*
X93567Y316071D01*
X93567Y303943D01*
X81439Y303943D01*
X81439Y316071D01*
G37*
G36*
X63938Y336060D02*
X76066Y336060D01*
X76066Y323932D01*
X63938Y323932D01*
X63938Y336060D01*
G37*
G36*
X81439Y336060D02*
X93567Y336060D01*
X93567Y323932D01*
X81439Y323932D01*
X81439Y336060D01*
G37*
G36*
X63938Y423563D02*
X76066Y423563D01*
X76066Y411435D01*
X63938Y411435D01*
X63938Y423563D01*
G37*
G36*
X81439Y423563D02*
X93567Y423563D01*
X93567Y411435D01*
X81439Y411435D01*
X81439Y423563D01*
G37*
X83693Y1629866D02*
G54D29*
D03*
X93218Y1607210D02*
G54D29*
D03*
X61468Y1638960D02*
G54D29*
D03*
G36*
X161220Y261816D02*
X181476Y261816D01*
X181476Y241560D01*
X161220Y241560D01*
X161220Y261816D01*
G37*
G36*
X136226Y261816D02*
X156482Y261816D01*
X156482Y241560D01*
X136226Y241560D01*
X136226Y261816D01*
G37*
G36*
X161220Y311828D02*
X181476Y311828D01*
X181476Y291572D01*
X161220Y291572D01*
X161220Y311828D01*
G37*
G36*
X136226Y311828D02*
X156482Y311828D01*
X156482Y291572D01*
X136226Y291572D01*
X136226Y311828D01*
G37*
G36*
X133331Y1373650D02*
X153587Y1373650D01*
X153587Y1353394D01*
X133331Y1353394D01*
X133331Y1373650D01*
G37*
G36*
X158325Y1373650D02*
X178581Y1373650D01*
X178581Y1353394D01*
X158325Y1353394D01*
X158325Y1373650D01*
G37*
G36*
X133331Y1423663D02*
X153587Y1423663D01*
X153587Y1403407D01*
X133331Y1403407D01*
X133331Y1423663D01*
G37*
G36*
X158325Y1423663D02*
X178581Y1423663D01*
X178581Y1403407D01*
X158325Y1403407D01*
X158325Y1423663D01*
G37*
X175768Y1492910D02*
G54D30*
D03*
X147193Y1492910D02*
G54D30*
D03*
X147193Y1448460D02*
G54D30*
D03*
X147193Y1473860D02*
G54D30*
D03*
X175768Y1448460D02*
G54D30*
D03*
X175768Y1473860D02*
G54D30*
D03*
X175768Y1518310D02*
G54D30*
D03*
X147193Y1518310D02*
G54D30*
D03*
X169418Y1600123D02*
G54D31*
D03*
X188468Y1600123D02*
G54D31*
D03*
X169418Y1628699D02*
G54D31*
D03*
X178943Y1628699D02*
G54D31*
D03*
X188468Y1628699D02*
G54D31*
D03*
X178943Y1600123D02*
G54D31*
D03*
G36*
X248952Y353561D02*
X261080Y353561D01*
X261080Y341433D01*
X248952Y341433D01*
X248952Y353561D01*
G37*
G36*
X241434Y423563D02*
X253562Y423563D01*
X253562Y411435D01*
X241434Y411435D01*
X241434Y423563D01*
G37*
G36*
X241434Y403573D02*
X253562Y403573D01*
X253562Y391445D01*
X241434Y391445D01*
X241434Y403573D01*
G37*
G36*
X241434Y388562D02*
X253562Y388562D01*
X253562Y376434D01*
X241434Y376434D01*
X241434Y388562D01*
G37*
G36*
X256445Y413555D02*
X268573Y413555D01*
X268573Y401427D01*
X256445Y401427D01*
X256445Y413555D01*
G37*
G36*
X318675Y109619D02*
X330803Y109619D01*
X330803Y97491D01*
X318675Y97491D01*
X318675Y109619D01*
G37*
G36*
X298660Y109619D02*
X310788Y109619D01*
X310788Y97491D01*
X298660Y97491D01*
X298660Y109619D01*
G37*
G36*
X283954Y351072D02*
X296082Y351072D01*
X296082Y338944D01*
X283954Y338944D01*
X283954Y351072D01*
G37*
G36*
X303943Y351072D02*
X316071Y351072D01*
X316071Y338944D01*
X303943Y338944D01*
X303943Y351072D01*
G37*
G36*
X276435Y413555D02*
X288563Y413555D01*
X288563Y401427D01*
X276435Y401427D01*
X276435Y413555D01*
G37*
G36*
X308947Y418560D02*
X321075Y418560D01*
X321075Y406432D01*
X308947Y406432D01*
X308947Y418560D01*
G37*
G36*
X308947Y398570D02*
X321075Y398570D01*
X321075Y386442D01*
X308947Y386442D01*
X308947Y398570D01*
G37*
G36*
X291446Y408552D02*
X303574Y408552D01*
X303574Y396424D01*
X291446Y396424D01*
X291446Y408552D01*
G37*
G36*
X291446Y388562D02*
X303574Y388562D01*
X303574Y376434D01*
X291446Y376434D01*
X291446Y388562D01*
G37*
G36*
X331172Y430320D02*
X343300Y430320D01*
X343300Y418192D01*
X331172Y418192D01*
X331172Y430320D01*
G37*
G36*
X321164Y642664D02*
X335172Y642664D01*
X335172Y628656D01*
X321164Y628656D01*
X321164Y642664D01*
G37*
G36*
X321164Y769664D02*
X335172Y769664D01*
X335172Y755656D01*
X321164Y755656D01*
X321164Y769664D01*
G37*
G36*
X387839Y655364D02*
X401847Y655364D01*
X401847Y641356D01*
X387839Y641356D01*
X387839Y655364D01*
G37*
G36*
X365614Y655364D02*
X379622Y655364D01*
X379622Y641356D01*
X365614Y641356D01*
X365614Y655364D01*
G37*
G36*
X387839Y782364D02*
X401847Y782364D01*
X401847Y768356D01*
X387839Y768356D01*
X387839Y782364D01*
G37*
G36*
X365614Y782364D02*
X379622Y782364D01*
X379622Y768356D01*
X365614Y768356D01*
X365614Y782364D01*
G37*
X398780Y1482445D02*
G54D30*
D03*
X398780Y1457452D02*
G54D30*
D03*
X464693Y651535D02*
G54D32*
D03*
X436118Y651535D02*
G54D32*
D03*
X436118Y661060D02*
G54D32*
D03*
X436118Y642010D02*
G54D32*
D03*
X464693Y642010D02*
G54D32*
D03*
X464693Y661060D02*
G54D32*
D03*
X464693Y753135D02*
G54D32*
D03*
X436118Y753135D02*
G54D32*
D03*
X436118Y762660D02*
G54D32*
D03*
X464693Y762660D02*
G54D32*
D03*
G36*
X504882Y175126D02*
X525138Y175126D01*
X525138Y154870D01*
X504882Y154870D01*
X504882Y175126D01*
G37*
G36*
X537369Y175126D02*
X557625Y175126D01*
X557625Y154870D01*
X537369Y154870D01*
X537369Y175126D01*
G37*
G36*
X516440Y286073D02*
X528568Y286073D01*
X528568Y273945D01*
X516440Y273945D01*
X516440Y286073D01*
G37*
G36*
X516440Y266058D02*
X528568Y266058D01*
X528568Y253930D01*
X516440Y253930D01*
X516440Y266058D01*
G37*
G36*
X521443Y343554D02*
X533571Y343554D01*
X533571Y331426D01*
X521443Y331426D01*
X521443Y343554D01*
G37*
G36*
X521443Y323564D02*
X533571Y323564D01*
X533571Y311436D01*
X521443Y311436D01*
X521443Y323564D01*
G37*
G36*
X521443Y393566D02*
X533571Y393566D01*
X533571Y381438D01*
X521443Y381438D01*
X521443Y393566D01*
G37*
G36*
X561448Y423563D02*
X573576Y423563D01*
X573576Y411435D01*
X561448Y411435D01*
X561448Y423563D01*
G37*
G36*
X503943Y423563D02*
X516071Y423563D01*
X516071Y411435D01*
X503943Y411435D01*
X503943Y423563D01*
G37*
G36*
X523932Y423563D02*
X536060Y423563D01*
X536060Y411435D01*
X523932Y411435D01*
X523932Y423563D01*
G37*
X547319Y397027D02*
G54D30*
D03*
X547319Y428777D02*
G54D30*
D03*
X557530Y1545945D02*
G54D30*
D03*
X557530Y1520952D02*
G54D30*
D03*
G36*
X619868Y175126D02*
X640124Y175126D01*
X640124Y154870D01*
X619868Y154870D01*
X619868Y175126D01*
G37*
G36*
X584867Y175126D02*
X605123Y175126D01*
X605123Y154870D01*
X584867Y154870D01*
X584867Y175126D01*
G37*
G36*
X626447Y283558D02*
X638575Y283558D01*
X638575Y271430D01*
X626447Y271430D01*
X626447Y283558D01*
G37*
G36*
X606432Y283558D02*
X618560Y283558D01*
X618560Y271430D01*
X606432Y271430D01*
X606432Y283558D01*
G37*
G36*
X591446Y273551D02*
X603574Y273551D01*
X603574Y261423D01*
X591446Y261423D01*
X591446Y273551D01*
G37*
X636219Y302311D02*
G54D33*
D03*
G36*
X581438Y423563D02*
X593566Y423563D01*
X593566Y411435D01*
X581438Y411435D01*
X581438Y423563D01*
G37*
G36*
X608946Y423563D02*
X621074Y423563D01*
X621074Y411435D01*
X608946Y411435D01*
X608946Y423563D01*
G37*
G36*
X628936Y423563D02*
X641064Y423563D01*
X641064Y411435D01*
X628936Y411435D01*
X628936Y423563D01*
G37*
G36*
X661448Y283558D02*
X673576Y283558D01*
X673576Y271430D01*
X661448Y271430D01*
X661448Y283558D01*
G37*
G36*
X676434Y263568D02*
X688562Y263568D01*
X688562Y251440D01*
X676434Y251440D01*
X676434Y263568D01*
G37*
G36*
X676434Y283558D02*
X688562Y283558D01*
X688562Y271430D01*
X676434Y271430D01*
X676434Y283558D01*
G37*
G36*
X661448Y348557D02*
X673576Y348557D01*
X673576Y336429D01*
X661448Y336429D01*
X661448Y348557D01*
G37*
G36*
X661448Y328567D02*
X673576Y328567D01*
X673576Y316439D01*
X661448Y316439D01*
X661448Y328567D01*
G37*
X667969Y302311D02*
G54D33*
D03*
G36*
X661448Y383558D02*
X673576Y383558D01*
X673576Y371430D01*
X661448Y371430D01*
X661448Y383558D01*
G37*
X677316Y397027D02*
G54D30*
D03*
X677316Y428777D02*
G54D30*
D03*
G36*
X658934Y1078554D02*
X671062Y1078554D01*
X671062Y1066426D01*
X658934Y1066426D01*
X658934Y1078554D01*
G37*
G36*
X698938Y1078554D02*
X711066Y1078554D01*
X711066Y1066426D01*
X698938Y1066426D01*
X698938Y1078554D01*
G37*
X715518Y1264310D02*
G54D30*
D03*
X715518Y1289710D02*
G54D30*
D03*
G36*
X743490Y131438D02*
X763746Y131438D01*
X763746Y111182D01*
X743490Y111182D01*
X743490Y131438D01*
G37*
G36*
X743490Y86988D02*
X763746Y86988D01*
X763746Y66732D01*
X743490Y66732D01*
X743490Y86988D01*
G37*
X766318Y1264310D02*
G54D30*
D03*
X766318Y1289710D02*
G54D30*
D03*
G36*
X832390Y131438D02*
X852646Y131438D01*
X852646Y111182D01*
X832390Y111182D01*
X832390Y131438D01*
G37*
G36*
X832390Y86988D02*
X852646Y86988D01*
X852646Y66732D01*
X832390Y66732D01*
X832390Y86988D01*
G37*
G36*
X843947Y881068D02*
X856075Y881068D01*
X856075Y868940D01*
X843947Y868940D01*
X843947Y881068D01*
G37*
G36*
X863937Y881068D02*
X876065Y881068D01*
X876065Y868940D01*
X863937Y868940D01*
X863937Y881068D01*
G37*
G36*
X843947Y1101058D02*
X856075Y1101058D01*
X856075Y1088930D01*
X843947Y1088930D01*
X843947Y1101058D01*
G37*
G36*
X863937Y1101058D02*
X876065Y1101058D01*
X876065Y1088930D01*
X863937Y1088930D01*
X863937Y1101058D01*
G37*
X817118Y1264310D02*
G54D30*
D03*
X817118Y1289710D02*
G54D30*
D03*
G36*
X884866Y195116D02*
X905122Y195116D01*
X905122Y174860D01*
X884866Y174860D01*
X884866Y195116D01*
G37*
G36*
X884866Y170122D02*
X905122Y170122D01*
X905122Y149866D01*
X884866Y149866D01*
X884866Y170122D01*
G37*
G36*
X927589Y458514D02*
X941597Y458514D01*
X941597Y444506D01*
X927589Y444506D01*
X927589Y458514D01*
G37*
G36*
X911714Y464864D02*
X925722Y464864D01*
X925722Y450856D01*
X911714Y450856D01*
X911714Y464864D01*
G37*
G36*
X911714Y487089D02*
X925722Y487089D01*
X925722Y473081D01*
X911714Y473081D01*
X911714Y487089D01*
G37*
G36*
X906939Y502964D02*
X920947Y502964D01*
X920947Y488956D01*
X906939Y488956D01*
X906939Y502964D01*
G37*
G36*
X929164Y502964D02*
X943172Y502964D01*
X943172Y488956D01*
X929164Y488956D01*
X929164Y502964D01*
G37*
G36*
X929164Y487089D02*
X943172Y487089D01*
X943172Y473081D01*
X929164Y473081D01*
X929164Y487089D01*
G37*
X929818Y556285D02*
G54D30*
D03*
X929818Y524535D02*
G54D30*
D03*
G36*
X937114Y610914D02*
X951122Y610914D01*
X951122Y596906D01*
X937114Y596906D01*
X937114Y610914D01*
G37*
G36*
X914889Y610914D02*
X928897Y610914D01*
X928897Y596906D01*
X914889Y596906D01*
X914889Y610914D01*
G37*
G36*
X918954Y961053D02*
X931082Y961053D01*
X931082Y948925D01*
X918954Y948925D01*
X918954Y961053D01*
G37*
G36*
X928936Y941063D02*
X941064Y941063D01*
X941064Y928935D01*
X928936Y928935D01*
X928936Y941063D01*
G37*
G36*
X908946Y941063D02*
X921074Y941063D01*
X921074Y928935D01*
X908946Y928935D01*
X908946Y941063D01*
G37*
G36*
X898938Y961053D02*
X911066Y961053D01*
X911066Y948925D01*
X898938Y948925D01*
X898938Y961053D01*
G37*
G36*
X943947Y931056D02*
X956075Y931056D01*
X956075Y918928D01*
X943947Y918928D01*
X943947Y931056D01*
G37*
G36*
X943947Y951071D02*
X956075Y951071D01*
X956075Y938943D01*
X943947Y938943D01*
X943947Y951071D01*
G37*
G36*
X928936Y1001058D02*
X941064Y1001058D01*
X941064Y988930D01*
X928936Y988930D01*
X928936Y1001058D01*
G37*
G36*
X918954Y1041063D02*
X931082Y1041063D01*
X931082Y1028935D01*
X918954Y1028935D01*
X918954Y1041063D01*
G37*
G36*
X898938Y1011065D02*
X911066Y1011065D01*
X911066Y998937D01*
X898938Y998937D01*
X898938Y1011065D01*
G37*
G36*
X898938Y991050D02*
X911066Y991050D01*
X911066Y978922D01*
X898938Y978922D01*
X898938Y991050D01*
G37*
G36*
X898938Y1041063D02*
X911066Y1041063D01*
X911066Y1028935D01*
X898938Y1028935D01*
X898938Y1041063D01*
G37*
G36*
X918954Y1061053D02*
X931082Y1061053D01*
X931082Y1048925D01*
X918954Y1048925D01*
X918954Y1061053D01*
G37*
G36*
X938943Y1061053D02*
X951071Y1061053D01*
X951071Y1048925D01*
X938943Y1048925D01*
X938943Y1061053D01*
G37*
G36*
X1009885Y195116D02*
X1030141Y195116D01*
X1030141Y174860D01*
X1009885Y174860D01*
X1009885Y195116D01*
G37*
G36*
X1009885Y170122D02*
X1030141Y170122D01*
X1030141Y149866D01*
X1009885Y149866D01*
X1009885Y170122D01*
G37*
G36*
X1000614Y458514D02*
X1014622Y458514D01*
X1014622Y444506D01*
X1000614Y444506D01*
X1000614Y458514D01*
G37*
G36*
X964089Y458514D02*
X978097Y458514D01*
X978097Y444506D01*
X964089Y444506D01*
X964089Y458514D01*
G37*
G36*
X986314Y458514D02*
X1000322Y458514D01*
X1000322Y444506D01*
X986314Y444506D01*
X986314Y458514D01*
G37*
G36*
X997439Y610914D02*
X1011447Y610914D01*
X1011447Y596906D01*
X997439Y596906D01*
X997439Y610914D01*
G37*
G36*
X981564Y610914D02*
X995572Y610914D01*
X995572Y596906D01*
X981564Y596906D01*
X981564Y610914D01*
G37*
G36*
X959339Y610914D02*
X973347Y610914D01*
X973347Y596906D01*
X959339Y596906D01*
X959339Y610914D01*
G37*
G36*
X1003942Y951071D02*
X1016070Y951071D01*
X1016070Y938943D01*
X1003942Y938943D01*
X1003942Y951071D01*
G37*
G36*
X988930Y941063D02*
X1001058Y941063D01*
X1001058Y928935D01*
X988930Y928935D01*
X988930Y941063D01*
G37*
G36*
X968940Y941063D02*
X981068Y941063D01*
X981068Y928935D01*
X968940Y928935D01*
X968940Y941063D01*
G37*
G36*
X958933Y971060D02*
X971061Y971060D01*
X971061Y958932D01*
X958933Y958932D01*
X958933Y971060D01*
G37*
G36*
X1003942Y971060D02*
X1016070Y971060D01*
X1016070Y958932D01*
X1003942Y958932D01*
X1003942Y971060D01*
G37*
G36*
X958933Y1011065D02*
X971061Y1011065D01*
X971061Y998937D01*
X958933Y998937D01*
X958933Y1011065D01*
G37*
G36*
X958933Y991050D02*
X971061Y991050D01*
X971061Y978922D01*
X958933Y978922D01*
X958933Y991050D01*
G37*
G36*
X958933Y1031055D02*
X971061Y1031055D01*
X971061Y1018927D01*
X958933Y1018927D01*
X958933Y1031055D01*
G37*
G36*
X988930Y1001058D02*
X1001058Y1001058D01*
X1001058Y988930D01*
X988930Y988930D01*
X988930Y1001058D01*
G37*
G36*
X968940Y1001058D02*
X981068Y1001058D01*
X981068Y988930D01*
X968940Y988930D01*
X968940Y1001058D01*
G37*
G36*
X1008946Y1047311D02*
X1021074Y1047311D01*
X1021074Y1035183D01*
X1008946Y1035183D01*
X1008946Y1047311D01*
G37*
G36*
X988930Y1047311D02*
X1001058Y1047311D01*
X1001058Y1035183D01*
X988930Y1035183D01*
X988930Y1047311D01*
G37*
G36*
X998938Y1062323D02*
X1011066Y1062323D01*
X1011066Y1050195D01*
X998938Y1050195D01*
X998938Y1062323D01*
G37*
G36*
X978948Y1062323D02*
X991076Y1062323D01*
X991076Y1050195D01*
X978948Y1050195D01*
X978948Y1062323D01*
G37*
X976224Y1182319D02*
G54D33*
D03*
X1007974Y1182319D02*
G54D33*
D03*
G36*
X1072369Y195116D02*
X1092625Y195116D01*
X1092625Y174860D01*
X1072369Y174860D01*
X1072369Y195116D01*
G37*
G36*
X1072369Y170122D02*
X1092625Y170122D01*
X1092625Y149866D01*
X1072369Y149866D01*
X1072369Y170122D01*
G37*
G36*
X1045064Y458514D02*
X1059072Y458514D01*
X1059072Y444506D01*
X1045064Y444506D01*
X1045064Y458514D01*
G37*
G36*
X1067289Y458514D02*
X1081297Y458514D01*
X1081297Y444506D01*
X1067289Y444506D01*
X1067289Y458514D01*
G37*
G36*
X1064114Y499789D02*
X1078122Y499789D01*
X1078122Y485781D01*
X1064114Y485781D01*
X1064114Y499789D01*
G37*
G36*
X1064114Y477564D02*
X1078122Y477564D01*
X1078122Y463556D01*
X1064114Y463556D01*
X1064114Y477564D01*
G37*
G36*
X1062514Y575989D02*
X1076521Y575989D01*
X1076521Y561981D01*
X1062514Y561981D01*
X1062514Y575989D01*
G37*
G36*
X1062514Y590264D02*
X1076521Y590264D01*
X1076521Y576256D01*
X1062514Y576256D01*
X1062514Y590264D01*
G37*
G36*
X1062514Y553764D02*
X1076521Y553764D01*
X1076521Y539756D01*
X1062514Y539756D01*
X1062514Y553764D01*
G37*
G36*
X1062514Y610914D02*
X1076521Y610914D01*
X1076521Y596906D01*
X1062514Y596906D01*
X1062514Y610914D01*
G37*
G36*
X1053928Y881068D02*
X1066056Y881068D01*
X1066056Y868940D01*
X1053928Y868940D01*
X1053928Y881068D01*
G37*
G36*
X1073944Y881068D02*
X1086072Y881068D01*
X1086072Y868940D01*
X1073944Y868940D01*
X1073944Y881068D01*
G37*
G36*
X1053928Y1101058D02*
X1066056Y1101058D01*
X1066056Y1088930D01*
X1053928Y1088930D01*
X1053928Y1101058D01*
G37*
G36*
X1073944Y1101058D02*
X1086072Y1101058D01*
X1086072Y1088930D01*
X1073944Y1088930D01*
X1073944Y1101058D01*
G37*
X1314856Y1546885D02*
G54D32*
D03*
X1314856Y1537360D02*
G54D32*
D03*
X1314856Y1527835D02*
G54D32*
D03*
X1530756Y1537360D02*
G54D32*
D03*
X1530756Y1527835D02*
G54D32*
D03*
X1530756Y1546885D02*
G54D32*
D03*
X1613586Y35585D02*
G54D29*
D03*
X1613586Y80467D02*
G54D29*
D03*
X1604518Y1378610D02*
G54D29*
D03*
X1613586Y1401267D02*
G54D29*
D03*
X1668018Y1378610D02*
G54D29*
D03*
X29515Y57302D02*
G54D29*
D03*
G36*
X28937Y293567D02*
X41065Y293567D01*
X41065Y281439D01*
X28937Y281439D01*
X28937Y293567D01*
G37*
G36*
X11436Y293567D02*
X23564Y293567D01*
X23564Y281439D01*
X11436Y281439D01*
X11436Y293567D01*
G37*
X93015Y57302D02*
G54D29*
D03*
G36*
X63938Y443554D02*
X76066Y443554D01*
X76066Y431426D01*
X63938Y431426D01*
X63938Y443554D01*
G37*
G36*
X81439Y443554D02*
X93567Y443554D01*
X93567Y431426D01*
X81439Y431426D01*
X81439Y443554D01*
G37*
X83693Y1584985D02*
G54D29*
D03*
X61468Y1575460D02*
G54D29*
D03*
G36*
X241434Y368573D02*
X253562Y368573D01*
X253562Y356445D01*
X241434Y356445D01*
X241434Y368573D01*
G37*
X305004Y364998D02*
G54D33*
D03*
G36*
X331172Y450310D02*
X343300Y450310D01*
X343300Y438182D01*
X331172Y438182D01*
X331172Y450310D01*
G37*
G36*
X321164Y744264D02*
X335172Y744264D01*
X335172Y730256D01*
X321164Y730256D01*
X321164Y744264D01*
G37*
G36*
X321164Y668064D02*
X335172Y668064D01*
X335172Y654056D01*
X321164Y654056D01*
X321164Y668064D01*
G37*
G36*
X387839Y756964D02*
X401847Y756964D01*
X401847Y742956D01*
X387839Y742956D01*
X387839Y756964D01*
G37*
G36*
X365614Y756964D02*
X379622Y756964D01*
X379622Y742956D01*
X365614Y742956D01*
X365614Y756964D01*
G37*
G36*
X387839Y680764D02*
X401847Y680764D01*
X401847Y666756D01*
X387839Y666756D01*
X387839Y680764D01*
G37*
G36*
X365614Y680764D02*
X379622Y680764D01*
X379622Y666756D01*
X365614Y666756D01*
X365614Y680764D01*
G37*
X436118Y743610D02*
G54D32*
D03*
X464693Y743610D02*
G54D32*
D03*
G36*
X504882Y150133D02*
X525138Y150133D01*
X525138Y129877D01*
X504882Y129877D01*
X504882Y150133D01*
G37*
G36*
X537369Y150133D02*
X557625Y150133D01*
X557625Y129877D01*
X537369Y129877D01*
X537369Y150133D01*
G37*
G36*
X521443Y373551D02*
X533571Y373551D01*
X533571Y361423D01*
X521443Y361423D01*
X521443Y373551D01*
G37*
G36*
X619868Y150133D02*
X640124Y150133D01*
X640124Y129877D01*
X619868Y129877D01*
X619868Y150133D01*
G37*
G36*
X584867Y150133D02*
X605123Y150133D01*
X605123Y129877D01*
X584867Y129877D01*
X584867Y150133D01*
G37*
G36*
X661448Y363569D02*
X673576Y363569D01*
X673576Y351441D01*
X661448Y351441D01*
X661448Y363569D01*
G37*
G36*
X658934Y1058563D02*
X671062Y1058563D01*
X671062Y1046435D01*
X658934Y1046435D01*
X658934Y1058563D01*
G37*
G36*
X698938Y1058563D02*
X711066Y1058563D01*
X711066Y1046435D01*
X698938Y1046435D01*
X698938Y1058563D01*
G37*
X686004Y1358772D02*
G54D33*
D03*
G36*
X933939Y591864D02*
X947947Y591864D01*
X947947Y577856D01*
X933939Y577856D01*
X933939Y591864D01*
G37*
G36*
X908946Y976065D02*
X921074Y976065D01*
X921074Y963937D01*
X908946Y963937D01*
X908946Y976065D01*
G37*
G36*
X888930Y976065D02*
X901058Y976065D01*
X901058Y963937D01*
X888930Y963937D01*
X888930Y976065D01*
G37*
X1604518Y57810D02*
G54D29*
D03*
X1613586Y1356385D02*
G54D29*
D03*
X1668018Y57810D02*
G54D29*
D03*
X38582Y35077D02*
G54D29*
D03*
X38582Y79984D02*
G54D29*
D03*
X38786Y1629866D02*
G54D29*
D03*
G36*
X268942Y353561D02*
X281070Y353561D01*
X281070Y341433D01*
X268942Y341433D01*
X268942Y353561D01*
G37*
G36*
X343389Y642664D02*
X357397Y642664D01*
X357397Y628656D01*
X343389Y628656D01*
X343389Y642664D01*
G37*
G36*
X343389Y769664D02*
X357397Y769664D01*
X357397Y755656D01*
X343389Y755656D01*
X343389Y769664D01*
G37*
X278130Y1390370D02*
G54D30*
D03*
X278130Y1365377D02*
G54D30*
D03*
X201168Y1492910D02*
G54D30*
D03*
X201168Y1448460D02*
G54D30*
D03*
X201168Y1473860D02*
G54D30*
D03*
X201168Y1518310D02*
G54D30*
D03*
G36*
X641433Y283558D02*
X653561Y283558D01*
X653561Y271430D01*
X641433Y271430D01*
X641433Y283558D01*
G37*
G36*
X571430Y273551D02*
X583558Y273551D01*
X583558Y261423D01*
X571430Y261423D01*
X571430Y273551D01*
G37*
G36*
X651440Y438549D02*
X663568Y438549D01*
X663568Y426421D01*
X651440Y426421D01*
X651440Y438549D01*
G37*
G36*
X651440Y418560D02*
X663568Y418560D01*
X663568Y406432D01*
X651440Y406432D01*
X651440Y418560D01*
G37*
X567055Y1416177D02*
G54D30*
D03*
X567055Y1441171D02*
G54D30*
D03*
G36*
X787940Y131438D02*
X808196Y131438D01*
X808196Y111182D01*
X787940Y111182D01*
X787940Y131438D01*
G37*
G36*
X787940Y86988D02*
X808196Y86988D01*
X808196Y66732D01*
X787940Y66732D01*
X787940Y86988D01*
G37*
G36*
X947376Y195116D02*
X967632Y195116D01*
X967632Y174860D01*
X947376Y174860D01*
X947376Y195116D01*
G37*
G36*
X947376Y170122D02*
X967632Y170122D01*
X967632Y149866D01*
X947376Y149866D01*
X947376Y170122D01*
G37*
G36*
X949814Y458514D02*
X963822Y458514D01*
X963822Y444506D01*
X949814Y444506D01*
X949814Y458514D01*
G37*
G36*
X951389Y487089D02*
X965396Y487089D01*
X965396Y473081D01*
X951389Y473081D01*
X951389Y487089D01*
G37*
G36*
X951440Y572763D02*
X971696Y572763D01*
X971696Y552507D01*
X951440Y552507D01*
X951440Y572763D01*
G37*
G36*
X948950Y1001058D02*
X961078Y1001058D01*
X961078Y988930D01*
X948950Y988930D01*
X948950Y1001058D01*
G37*
G36*
X798938Y1033570D02*
X811066Y1033570D01*
X811066Y1021442D01*
X798938Y1021442D01*
X798938Y1033570D01*
G37*
G36*
X798938Y1013555D02*
X811066Y1013555D01*
X811066Y1001427D01*
X798938Y1001427D01*
X798938Y1013555D01*
G37*
G36*
X1172369Y242614D02*
X1192625Y242614D01*
X1192625Y222358D01*
X1172369Y222358D01*
X1172369Y242614D01*
G37*
G36*
X1022839Y458514D02*
X1036847Y458514D01*
X1036847Y444506D01*
X1022839Y444506D01*
X1022839Y458514D01*
G37*
G36*
X1019664Y610914D02*
X1033672Y610914D01*
X1033672Y596906D01*
X1019664Y596906D01*
X1019664Y610914D01*
G37*
G36*
X1028935Y1001058D02*
X1041063Y1001058D01*
X1041063Y988930D01*
X1028935Y988930D01*
X1028935Y1001058D01*
G37*
G36*
X1028935Y1018558D02*
X1041063Y1018558D01*
X1041063Y1006430D01*
X1028935Y1006430D01*
X1028935Y1018558D01*
G37*
X1559332Y1537360D02*
G54D32*
D03*
X1559332Y1527835D02*
G54D32*
D03*
X1559332Y1546885D02*
G54D32*
D03*
X1343431Y1546885D02*
G54D32*
D03*
X1343431Y1527835D02*
G54D32*
D03*
X1343431Y1537360D02*
G54D32*
D03*
X1658493Y35585D02*
G54D29*
D03*
X1636268Y26060D02*
G54D29*
D03*
X1658493Y80467D02*
G54D29*
D03*
X1636268Y89560D02*
G54D29*
D03*
X1658493Y1401267D02*
G54D29*
D03*
X1636268Y1410360D02*
G54D29*
D03*
X38786Y1584985D02*
G54D29*
D03*
X280010Y364998D02*
G54D33*
D03*
G36*
X343389Y744264D02*
X357397Y744264D01*
X357397Y730256D01*
X343389Y730256D01*
X343389Y744264D01*
G37*
G36*
X343389Y668064D02*
X357397Y668064D01*
X357397Y654056D01*
X343389Y654056D01*
X343389Y668064D01*
G37*
X661010Y1358772D02*
G54D33*
D03*
G36*
X956164Y591864D02*
X970172Y591864D01*
X970172Y577856D01*
X956164Y577856D01*
X956164Y591864D01*
G37*
G36*
X951440Y528313D02*
X971696Y528313D01*
X971696Y508057D01*
X951440Y508057D01*
X951440Y528313D01*
G37*
G36*
X1172369Y217620D02*
X1192625Y217620D01*
X1192625Y197364D01*
X1172369Y197364D01*
X1172369Y217620D01*
G37*
X1658493Y1356385D02*
G54D29*
D03*
X1636268Y1346860D02*
G54D29*
D03*
M02*
