%FSLAX34Y34*%
%MOMM*%
%LNSILK_TOP*%
G71*
G01*
%ADD10C, 0.20*%
%ADD11C, 0.16*%
%ADD12C, 0.30*%
%ADD13C, 0.15*%
%ADD14C, 0.13*%
%ADD15C, 0.15*%
%ADD16C, 0.25*%
%ADD17C, 0.15*%
%ADD18C, 0.60*%
%LPD*%
G54D10*
X34468Y1496085D02*
X34468Y1502435D01*
G54D10*
X34468Y1464335D02*
X34468Y1470685D01*
G54D11*
X31140Y1480337D02*
X34392Y1480337D01*
X35484Y1480692D01*
X35839Y1481073D01*
X36195Y1481784D01*
X36195Y1482522D01*
X35839Y1483233D01*
X35484Y1483588D01*
X34392Y1483944D01*
X31140Y1483944D01*
X31140Y1476375D01*
G54D11*
X33680Y1480337D02*
X36195Y1476375D01*
G54D10*
X34468Y1527835D02*
X34468Y1534185D01*
G54D11*
X31140Y1543837D02*
X34392Y1543837D01*
X35484Y1544192D01*
X35839Y1544573D01*
X36195Y1545284D01*
X36195Y1546022D01*
X35839Y1546733D01*
X35484Y1547088D01*
X34392Y1547444D01*
X31140Y1547444D01*
X31140Y1539875D01*
G54D11*
X33680Y1543837D02*
X36195Y1539875D01*
G54D10*
X42418Y180034D02*
X93218Y180034D01*
X93218Y129235D01*
X42418Y129235D01*
X42418Y256235D01*
X93218Y256235D01*
X93218Y205435D01*
X67818Y205435D01*
G54D12*
X80518Y1505610D02*
X90043Y1499260D01*
X80518Y1492910D01*
X80518Y1505610D01*
G54D12*
X90043Y1467510D02*
X80518Y1461160D01*
X80518Y1473860D01*
X90043Y1467510D01*
G54D12*
X90043Y1461160D02*
X90043Y1473860D01*
G54D12*
X90043Y1531010D02*
X80518Y1524660D01*
X80518Y1537360D01*
X90043Y1531010D01*
G54D12*
X90043Y1524660D02*
X90043Y1537360D01*
G54D10*
X140005Y127482D02*
X140843Y127914D01*
X142088Y129159D01*
X142088Y120421D01*
G54D10*
X147498Y129159D02*
X147498Y120421D01*
G54D10*
X153340Y129159D02*
X147498Y123317D01*
G54D10*
X149581Y125399D02*
X153340Y120421D01*
G54D12*
X164998Y189992D02*
X164998Y199999D01*
G54D12*
X135001Y151257D02*
X124994Y151257D01*
G54D10*
X167158Y226339D02*
X167158Y219989D01*
G54D10*
X164211Y235178D02*
X168046Y235178D01*
X169342Y235610D01*
X169748Y236016D01*
X170180Y236880D01*
X170180Y237744D01*
X169748Y238582D01*
X169342Y239013D01*
X168046Y239445D01*
X164211Y239445D01*
X164211Y230479D01*
G54D10*
X167208Y235178D02*
X170180Y230479D01*
G54D10*
X131242Y339496D02*
X124892Y339496D01*
G54D10*
X160909Y336346D02*
X160909Y329996D01*
G54D10*
X159207Y345186D02*
X163042Y345186D01*
X164338Y345592D01*
X164744Y346024D01*
X165176Y346888D01*
X165176Y347726D01*
X164744Y348589D01*
X164338Y349021D01*
X163042Y349453D01*
X159207Y349453D01*
X159207Y340487D01*
G54D10*
X162204Y345186D02*
X165176Y340487D01*
G54D10*
X137516Y349986D02*
X138328Y350418D01*
X139598Y351662D01*
X139598Y342899D01*
G54D10*
X145009Y351662D02*
X145009Y342899D01*
G54D10*
X150825Y351662D02*
X145009Y345821D01*
G54D10*
X147092Y347903D02*
X150825Y342899D01*
G54D10*
X151232Y496976D02*
X144882Y496976D01*
G54D10*
X155016Y499998D02*
X155829Y500405D01*
X157074Y501649D01*
X157074Y492912D01*
G54D10*
X162509Y501649D02*
X162509Y492912D01*
G54D10*
X168326Y501649D02*
X162509Y495833D01*
G54D10*
X164592Y497916D02*
X168326Y492912D01*
G54D13*
X192735Y558952D02*
X214960Y558952D01*
X214960Y546252D01*
X192735Y546252D01*
X192735Y558952D01*
G54D10*
X152527Y589254D02*
X158877Y589254D01*
G54D10*
X153543Y1538935D02*
X147193Y1538935D01*
G54D11*
X150495Y1564690D02*
X150139Y1565427D01*
X149428Y1566139D01*
X148692Y1566494D01*
X147244Y1566494D01*
X146532Y1566139D01*
X145821Y1565427D01*
X145440Y1564690D01*
X145085Y1563623D01*
X145085Y1561820D01*
X145440Y1560728D01*
X145821Y1560017D01*
X146532Y1559281D01*
X147244Y1558925D01*
X148692Y1558925D01*
X149428Y1559281D01*
X150139Y1560017D01*
X150495Y1560728D01*
G54D10*
X291110Y1641449D02*
X291110Y1603350D01*
X151410Y1603350D01*
X151410Y1641449D01*
G54D14*
X381812Y207061D02*
X210363Y207061D01*
X210363Y140386D01*
X381812Y140386D01*
X381812Y207061D01*
G54D12*
X217526Y279552D02*
X223876Y279552D01*
G54D10*
X201626Y241833D02*
X201626Y242240D01*
X202032Y243052D01*
X202438Y243459D01*
X203251Y243865D01*
X204876Y243865D01*
X205689Y243459D01*
X206096Y243052D01*
X206502Y242240D01*
X206502Y241427D01*
X206096Y240614D01*
X205283Y239395D01*
X201219Y235330D01*
X206908Y235330D01*
G54D10*
X214224Y243865D02*
X210160Y243865D01*
X209753Y240207D01*
X210160Y240614D01*
X211379Y241020D01*
X212598Y241020D01*
X213817Y240614D01*
X214630Y239801D01*
X215036Y238582D01*
X215036Y237769D01*
X214630Y236550D01*
X213817Y235737D01*
X212598Y235330D01*
X211379Y235330D01*
X210160Y235737D01*
X209753Y236143D01*
X209347Y236956D01*
G54D10*
X229667Y235330D02*
X229667Y243865D01*
X226416Y235330D01*
X223164Y243865D01*
X223164Y235330D01*
G54D10*
X232918Y243865D02*
X232918Y235330D01*
G54D10*
X238608Y243865D02*
X238608Y235330D01*
G54D10*
X232918Y239801D02*
X238608Y239801D01*
G54D10*
X241452Y241020D02*
X245923Y241020D01*
X241452Y235330D01*
X245923Y235330D01*
G54D10*
X215950Y219380D02*
X215950Y227914D01*
X211887Y222225D01*
X217983Y222225D01*
G54D10*
X225298Y225069D02*
X229768Y219380D01*
G54D10*
X229768Y225069D02*
X225298Y219380D01*
G54D10*
X238710Y226288D02*
X239522Y226694D01*
X240741Y227914D01*
X240741Y219380D01*
G54D10*
X248869Y227914D02*
X248056Y227914D01*
X246837Y227507D01*
X246024Y226288D01*
X245618Y224256D01*
X245618Y223037D01*
X246024Y221005D01*
X246837Y219786D01*
X248056Y219380D01*
X248869Y219380D01*
X250088Y219786D01*
X250901Y221005D01*
X251308Y223037D01*
X251308Y224256D01*
X250901Y226288D01*
X250088Y227507D01*
X248869Y227914D01*
G54D10*
X250901Y226288D02*
X246024Y221005D01*
G54D10*
X254152Y225069D02*
X254152Y219380D01*
G54D10*
X254152Y223443D02*
X255372Y224662D01*
X256184Y225069D01*
X257404Y225069D01*
X258216Y224662D01*
X258623Y223443D01*
X258623Y219380D01*
G54D10*
X209677Y326338D02*
X209677Y319989D01*
G54D10*
X201702Y335178D02*
X205562Y335178D01*
X206832Y335610D01*
X207264Y336016D01*
X207696Y336879D01*
X207696Y337744D01*
X207264Y338582D01*
X206832Y339013D01*
X205562Y339445D01*
X201702Y339445D01*
X201702Y330479D01*
G54D10*
X204698Y335178D02*
X207696Y330479D01*
G54D10*
X220015Y424992D02*
X224993Y424992D01*
X224993Y419989D01*
X220015Y419989D01*
X220015Y424992D01*
G54D10*
X237515Y422503D02*
X322504Y422503D01*
X322504Y332485D01*
X232512Y332485D01*
X232512Y417499D01*
X237515Y422503D01*
G54D13*
X208610Y558952D02*
X208610Y546252D01*
G54D13*
X211785Y558952D02*
X211785Y546252D01*
G54D12*
X214630Y1404060D02*
X220980Y1404060D01*
G54D10*
X288138Y234061D02*
X281788Y234061D01*
G54D10*
X326238Y234061D02*
X319888Y234061D01*
G54D10*
X310362Y234061D02*
X304012Y234061D01*
G54D10*
X328778Y290932D02*
X335128Y290932D01*
G54D10*
X339268Y613435D02*
X339268Y619785D01*
G54D10*
X339268Y638835D02*
X339268Y645185D01*
G54D10*
X339268Y689635D02*
X339268Y695985D01*
G54D10*
X339268Y715035D02*
X339268Y721385D01*
G54D10*
X339268Y765835D02*
X339268Y772185D01*
G54D10*
X288468Y854735D02*
X288468Y861085D01*
G54D10*
X332918Y842035D02*
X332918Y848385D01*
G54D10*
X288468Y880135D02*
X288468Y886485D01*
G54D10*
X332918Y867435D02*
X332918Y873785D01*
G54D10*
X288468Y930935D02*
X288468Y937285D01*
G54D10*
X332918Y918235D02*
X332918Y924585D01*
G54D10*
X288468Y905535D02*
X288468Y911885D01*
G54D10*
X288468Y956335D02*
X288468Y962685D01*
G54D10*
X332918Y943635D02*
X332918Y949985D01*
G54D10*
X288468Y1007135D02*
X288468Y1013485D01*
G54D10*
X332918Y994435D02*
X332918Y1000785D01*
G54D10*
X288468Y981735D02*
X288468Y988085D01*
G54D10*
X288468Y1032535D02*
X288468Y1038885D01*
G54D10*
X332918Y1019835D02*
X332918Y1026185D01*
G54D10*
X288468Y1108735D02*
X288468Y1115085D01*
G54D10*
X332918Y1096035D02*
X332918Y1102385D01*
G54D10*
X288468Y1184935D02*
X288468Y1191285D01*
G54D10*
X332918Y1172235D02*
X332918Y1178585D01*
G54D10*
X288468Y1159535D02*
X288468Y1165885D01*
G54D10*
X332918Y1146835D02*
X332918Y1153185D01*
G54D10*
X288468Y1134135D02*
X288468Y1140485D01*
G54D10*
X288468Y1261135D02*
X288468Y1267485D01*
G54D10*
X332918Y1248435D02*
X332918Y1254785D01*
G54D10*
X288468Y1235735D02*
X288468Y1242085D01*
G54D10*
X332918Y1223035D02*
X332918Y1229385D01*
G54D10*
X288468Y1210335D02*
X288468Y1216685D01*
G54D10*
X288468Y1286535D02*
X288468Y1292885D01*
G54D12*
X278917Y1453438D02*
X278917Y1443456D01*
G54D12*
X322580Y1445336D02*
X328930Y1445336D01*
G54D12*
X322580Y1492961D02*
X328930Y1492961D01*
G54D10*
X282118Y1572285D02*
X282118Y1578635D01*
G54D10*
X275768Y1540535D02*
X275768Y1546885D01*
G54D11*
X275616Y1556537D02*
X278866Y1556537D01*
X279959Y1556892D01*
X280314Y1557274D01*
X280670Y1557985D01*
X280670Y1558721D01*
X280314Y1559433D01*
X279959Y1559788D01*
X278866Y1560144D01*
X275616Y1560144D01*
X275616Y1552575D01*
G54D11*
X278155Y1556537D02*
X280670Y1552575D01*
G54D12*
X331343Y1543710D02*
X321818Y1537360D01*
X321818Y1550060D01*
X331343Y1543710D01*
G54D12*
X331343Y1537360D02*
X331343Y1550060D01*
G54D12*
X332943Y1589176D02*
X332943Y1630451D01*
X323418Y1639976D01*
X323418Y1655851D01*
G54D10*
X383718Y575335D02*
X383718Y581685D01*
G54D13*
X393548Y517728D02*
X393548Y539953D01*
X406248Y539953D01*
X406248Y517728D01*
X393548Y517728D01*
G54D13*
X393548Y533603D02*
X406248Y533603D01*
G54D13*
X393548Y536778D02*
X406248Y536778D01*
G54D10*
X383718Y600735D02*
X383718Y607085D01*
G54D10*
X383718Y651535D02*
X383718Y657885D01*
G54D10*
X383718Y626135D02*
X383718Y632485D01*
G54D10*
X383718Y676935D02*
X383718Y683285D01*
G54D10*
X383718Y727735D02*
X383718Y734085D01*
G54D10*
X383718Y702335D02*
X383718Y708685D01*
G54D10*
X383718Y753135D02*
X383718Y759485D01*
G54D10*
X374650Y883437D02*
X374650Y885444D01*
X376656Y885444D01*
X376656Y883437D01*
X374650Y883437D01*
G54D10*
X374650Y934237D02*
X374650Y936244D01*
X376656Y936244D01*
X376656Y934237D01*
X374650Y934237D01*
G54D10*
X374650Y985037D02*
X374650Y987043D01*
X376656Y987043D01*
X376656Y985037D01*
X374650Y985037D01*
G54D10*
X374650Y1035837D02*
X374650Y1037843D01*
X376656Y1037843D01*
X376656Y1035837D01*
X374650Y1035837D01*
G54D10*
X374650Y1188237D02*
X374650Y1190244D01*
X376656Y1190244D01*
X376656Y1188237D01*
X374650Y1188237D01*
G54D10*
X374650Y1137437D02*
X374650Y1139444D01*
X376656Y1139444D01*
X376656Y1137437D01*
X374650Y1137437D01*
G54D10*
X374650Y1239037D02*
X374650Y1241043D01*
X376656Y1241043D01*
X376656Y1239037D01*
X374650Y1239037D01*
G54D10*
X374650Y1289837D02*
X374650Y1291843D01*
X376656Y1291843D01*
X376656Y1289837D01*
X374650Y1289837D01*
G54D10*
X385318Y1340510D02*
X429768Y1340510D01*
X429768Y1480210D01*
X417068Y1480210D01*
X410718Y1473860D01*
X404368Y1473860D01*
X398018Y1480210D01*
X385318Y1480210D01*
X385318Y1340510D01*
G54D10*
X471246Y166548D02*
X464896Y166548D01*
G54D10*
X477494Y170002D02*
X478333Y170408D01*
X479578Y171653D01*
X479578Y162915D01*
G54D10*
X484988Y171653D02*
X484988Y162915D01*
G54D10*
X490830Y171653D02*
X484988Y165837D01*
G54D10*
X487070Y167919D02*
X490830Y162915D01*
G54D10*
X458444Y263728D02*
X458444Y257377D01*
G54D10*
X454203Y275184D02*
X458038Y275184D01*
X459334Y275590D01*
X459765Y276022D01*
X460172Y276885D01*
X460172Y277723D01*
X459765Y278586D01*
X459334Y279019D01*
X458038Y279451D01*
X454203Y279451D01*
X454203Y270484D01*
G54D10*
X457200Y275184D02*
X460172Y270484D01*
G54D10*
X529996Y549986D02*
X427508Y549986D01*
X427508Y575004D01*
X529996Y575004D01*
X529996Y549986D01*
G54D10*
X425450Y616737D02*
X425450Y618744D01*
X427456Y618744D01*
X427456Y616737D01*
X425450Y616737D01*
G54D10*
X425450Y667537D02*
X425450Y669543D01*
X427456Y669543D01*
X427456Y667537D01*
X425450Y667537D01*
G54D10*
X425450Y718337D02*
X425450Y720343D01*
X427456Y720343D01*
X427456Y718337D01*
X425450Y718337D01*
G54D10*
X425450Y769137D02*
X425450Y771144D01*
X427456Y771144D01*
X427456Y769137D01*
X425450Y769137D01*
G54D12*
X428193Y1532356D02*
X428193Y1542339D01*
G54D12*
X485343Y1655851D02*
X485343Y1589176D01*
G54D10*
X538506Y564134D02*
X543509Y564134D01*
X543509Y559129D01*
X538506Y559129D01*
X538506Y564134D01*
G54D15*
X540893Y1394485D02*
X566293Y1394485D01*
X566293Y1356385D01*
X540893Y1356385D01*
X540893Y1394485D01*
G54D11*
X546151Y1406042D02*
X546862Y1406372D01*
X547903Y1407439D01*
X547903Y1400098D01*
G54D11*
X554888Y1407439D02*
X554202Y1407439D01*
X553136Y1407083D01*
X552450Y1406042D01*
X552094Y1404289D01*
X552094Y1403248D01*
X552450Y1401496D01*
X553136Y1400454D01*
X554202Y1400098D01*
X554888Y1400098D01*
X555930Y1400454D01*
X556641Y1401496D01*
X556996Y1403248D01*
X556996Y1404289D01*
X556641Y1406042D01*
X555930Y1407083D01*
X554888Y1407439D01*
G54D11*
X556641Y1406042D02*
X552450Y1401496D01*
G54D11*
X559435Y1407439D02*
X559435Y1400098D01*
G54D11*
X564338Y1407439D02*
X559435Y1402537D01*
G54D11*
X561188Y1404289D02*
X564338Y1400098D01*
G54D16*
X514858Y1463700D02*
X516128Y1463700D01*
G54D16*
X517398Y1462430D02*
X517398Y1466240D01*
X513588Y1466240D01*
X513588Y1462430D01*
X517398Y1462430D01*
G54D11*
X545440Y1470889D02*
X545440Y1463573D01*
X549631Y1463573D01*
G54D11*
X551714Y1470889D02*
X555548Y1470889D01*
X553466Y1468119D01*
X554508Y1468119D01*
X555193Y1467764D01*
X555548Y1467408D01*
X555904Y1466367D01*
X555904Y1465682D01*
X555548Y1464640D01*
X554863Y1463929D01*
X553796Y1463573D01*
X552754Y1463573D01*
X551714Y1463929D01*
X551358Y1464284D01*
X551028Y1464970D01*
G54D11*
X562153Y1470889D02*
X558673Y1470889D01*
X558343Y1467764D01*
X558673Y1468119D01*
X559740Y1468450D01*
X560782Y1468450D01*
X561822Y1468119D01*
X562508Y1467408D01*
X562864Y1466367D01*
X562864Y1465682D01*
X562508Y1464640D01*
X561822Y1463929D01*
X560782Y1463573D01*
X559740Y1463573D01*
X558673Y1463929D01*
X558343Y1464284D01*
X557988Y1464970D01*
G54D11*
X568096Y1470889D02*
X566700Y1470889D01*
X565658Y1470558D01*
X565302Y1469847D01*
X565302Y1469161D01*
X565658Y1468450D01*
X566344Y1468119D01*
X567740Y1467764D01*
X568782Y1467408D01*
X569468Y1466722D01*
X569824Y1466011D01*
X569824Y1464970D01*
X569468Y1464284D01*
X569138Y1463929D01*
X568096Y1463573D01*
X566700Y1463573D01*
X565658Y1463929D01*
X565302Y1464284D01*
X564947Y1464970D01*
X564947Y1466011D01*
X565302Y1466722D01*
X565988Y1467408D01*
X567030Y1467764D01*
X568426Y1468119D01*
X569138Y1468450D01*
X569468Y1469161D01*
X569468Y1469847D01*
X569138Y1470558D01*
X568096Y1470889D01*
G54D10*
X575818Y1480210D02*
X575818Y1569110D01*
X563118Y1569110D01*
X556768Y1562760D01*
X550418Y1569110D01*
X537718Y1569110D01*
X537718Y1480210D01*
X575818Y1480210D01*
G54D10*
X504368Y1616735D02*
X510718Y1616735D01*
G54D16*
X592861Y486333D02*
X587426Y486333D01*
X587426Y473634D01*
X592861Y473634D01*
X594665Y474243D01*
X595274Y474853D01*
X595884Y476046D01*
X595884Y477876D01*
X595274Y479069D01*
X594665Y479679D01*
X592861Y480288D01*
X594665Y480898D01*
X595274Y481482D01*
X595884Y482701D01*
X595884Y483921D01*
X595274Y485115D01*
X594665Y485724D01*
X592861Y486333D01*
G54D16*
X587426Y480288D02*
X592861Y480288D01*
G54D16*
X609778Y473634D02*
X609778Y486333D01*
X604952Y473634D01*
X600126Y486333D01*
X600126Y473634D01*
G54D16*
X623088Y483310D02*
X622478Y484505D01*
X621284Y485724D01*
X620065Y486333D01*
X617652Y486333D01*
X616432Y485724D01*
X615239Y484505D01*
X614630Y483310D01*
X614020Y481482D01*
X614020Y478459D01*
X614630Y476656D01*
X615239Y475437D01*
X616432Y474243D01*
X617652Y473634D01*
X620065Y473634D01*
X621284Y474243D01*
X622478Y475437D01*
X623088Y476656D01*
G54D12*
X603224Y825093D02*
X600990Y822858D01*
X598728Y825093D01*
X600990Y827353D01*
X603224Y825093D01*
G54D12*
X594233Y847547D02*
X583032Y858774D01*
G54D12*
X639140Y865505D02*
X621182Y847547D01*
G54D10*
X582066Y1070864D02*
X582066Y1064513D01*
G54D10*
X621843Y1292885D02*
X621843Y1299235D01*
G54D16*
X616458Y1393850D02*
X617728Y1393850D01*
G54D16*
X618998Y1392580D02*
X618998Y1396390D01*
X615188Y1396390D01*
X615188Y1392580D01*
X618998Y1392580D01*
G54D12*
X641122Y1437361D02*
X631140Y1437361D01*
G54D11*
X609651Y1440967D02*
X610362Y1441323D01*
X611403Y1442364D01*
X611403Y1435024D01*
G54D11*
X619786Y1442364D02*
X616280Y1442364D01*
X615950Y1439214D01*
X616280Y1439570D01*
X617347Y1439925D01*
X618388Y1439925D01*
X619430Y1439570D01*
X620141Y1438859D01*
X620496Y1437817D01*
X620496Y1437132D01*
X620141Y1436065D01*
X619430Y1435379D01*
X618388Y1435024D01*
X617347Y1435024D01*
X616280Y1435379D01*
X615950Y1435735D01*
X615594Y1436421D01*
G54D11*
X622935Y1442364D02*
X622935Y1435024D01*
G54D11*
X627838Y1442364D02*
X622935Y1437461D01*
G54D11*
X624688Y1439214D02*
X627838Y1435024D01*
G54D10*
X618668Y1627835D02*
X618668Y1634185D01*
G54D10*
X617194Y1618056D02*
X621030Y1618056D01*
X622326Y1618487D01*
X622732Y1618894D01*
X623164Y1619757D01*
X623164Y1620621D01*
X622732Y1621459D01*
X622326Y1621891D01*
X621030Y1622323D01*
X617194Y1622323D01*
X617194Y1613357D01*
G54D10*
X620192Y1618056D02*
X623164Y1613357D01*
G54D12*
X669442Y59944D02*
X669442Y126619D01*
G54D10*
X690118Y176860D02*
X696468Y176860D01*
G54D10*
X679222Y177673D02*
X683057Y177673D01*
X684326Y178104D01*
X684758Y178536D01*
X685190Y179374D01*
X685190Y180238D01*
X684758Y181076D01*
X684326Y181508D01*
X683057Y181940D01*
X679222Y181940D01*
X679222Y172974D01*
G54D10*
X682193Y177673D02*
X685190Y172974D01*
G54D10*
X664998Y619988D02*
X665836Y620420D01*
X667080Y621664D01*
X667080Y612901D01*
G54D10*
X672490Y621664D02*
X672490Y612901D01*
G54D10*
X678332Y621664D02*
X672490Y615823D01*
G54D10*
X674574Y617906D02*
X678332Y612901D01*
G54D12*
X709168Y1445285D02*
X709168Y1432585D01*
X699643Y1432585D01*
X699643Y1445285D01*
X709168Y1445285D01*
G54D12*
X674243Y1445285D02*
X674243Y1432585D01*
X664718Y1432585D01*
X664718Y1445285D01*
X674243Y1445285D01*
G54D11*
X673151Y1479067D02*
X673862Y1479423D01*
X674903Y1480464D01*
X674903Y1473123D01*
G54D11*
X681888Y1480464D02*
X681202Y1480464D01*
X680136Y1480108D01*
X679450Y1479067D01*
X679094Y1477315D01*
X679094Y1476273D01*
X679450Y1474520D01*
X680136Y1473479D01*
X681202Y1473123D01*
X681888Y1473123D01*
X682955Y1473479D01*
X683641Y1474520D01*
X683996Y1476273D01*
X683996Y1477315D01*
X683641Y1479067D01*
X682955Y1480108D01*
X681888Y1480464D01*
G54D11*
X683641Y1479067D02*
X679450Y1474520D01*
G54D11*
X686435Y1478026D02*
X686435Y1474520D01*
X686790Y1473479D01*
X687502Y1473123D01*
X688544Y1473123D01*
X689229Y1473479D01*
X690296Y1474520D01*
G54D11*
X690296Y1478026D02*
X690296Y1473123D01*
G54D11*
X698551Y1479067D02*
X699262Y1479423D01*
X700304Y1480464D01*
X700304Y1473123D01*
G54D11*
X707288Y1480464D02*
X706602Y1480464D01*
X705536Y1480108D01*
X704850Y1479067D01*
X704494Y1477315D01*
X704494Y1476273D01*
X704850Y1474520D01*
X705536Y1473479D01*
X706602Y1473123D01*
X707288Y1473123D01*
X708355Y1473479D01*
X709041Y1474520D01*
X709397Y1476273D01*
X709397Y1477315D01*
X709041Y1479067D01*
X708355Y1480108D01*
X707288Y1480464D01*
G54D11*
X709041Y1479067D02*
X704850Y1474520D01*
G54D11*
X711835Y1478026D02*
X711835Y1474520D01*
X712190Y1473479D01*
X712902Y1473123D01*
X713943Y1473123D01*
X714629Y1473479D01*
X715696Y1474520D01*
G54D11*
X715696Y1478026D02*
X715696Y1473123D01*
G54D11*
X669976Y1526692D02*
X670687Y1527048D01*
X671728Y1528089D01*
X671728Y1520748D01*
G54D11*
X678714Y1528089D02*
X678028Y1528089D01*
X676961Y1527733D01*
X676275Y1526692D01*
X675920Y1524940D01*
X675920Y1523898D01*
X676275Y1522145D01*
X676961Y1521104D01*
X678028Y1520748D01*
X678714Y1520748D01*
X679780Y1521104D01*
X680466Y1522145D01*
X680822Y1523898D01*
X680822Y1524940D01*
X680466Y1526692D01*
X679780Y1527733D01*
X678714Y1528089D01*
G54D11*
X680466Y1526692D02*
X676275Y1522145D01*
G54D11*
X683260Y1525651D02*
X683260Y1522145D01*
X683616Y1521104D01*
X684326Y1520748D01*
X685368Y1520748D01*
X686054Y1521104D01*
X687121Y1522145D01*
G54D11*
X687121Y1525651D02*
X687121Y1520748D01*
G54D12*
X714146Y1534210D02*
X704164Y1534210D01*
G54D10*
X765252Y175945D02*
X771602Y175945D01*
G54D10*
X747496Y187503D02*
X748335Y187909D01*
X749580Y189153D01*
X749580Y180416D01*
G54D10*
X754990Y189153D02*
X754990Y180416D01*
G54D10*
X760832Y189153D02*
X754990Y183336D01*
G54D10*
X757072Y185420D02*
X760832Y180416D01*
G54D10*
X739902Y213131D02*
X733552Y213131D01*
G54D13*
X776452Y306552D02*
X776452Y284327D01*
X763752Y284327D01*
X763752Y306552D01*
X776452Y306552D01*
G54D10*
X759994Y332410D02*
X760806Y332841D01*
X762051Y334061D01*
X762051Y325399D01*
G54D10*
X770306Y334061D02*
X769493Y334061D01*
X768248Y333654D01*
X767436Y332410D01*
X767004Y330352D01*
X767004Y329108D01*
X767436Y327050D01*
X768248Y325805D01*
X769493Y325399D01*
X770306Y325399D01*
X771550Y325805D01*
X772388Y327050D01*
X772795Y329108D01*
X772795Y330352D01*
X772388Y332410D01*
X771550Y333654D01*
X770306Y334061D01*
G54D10*
X772388Y332410D02*
X767436Y327050D01*
G54D10*
X775690Y331165D02*
X775690Y327050D01*
X776097Y325805D01*
X776936Y325399D01*
X778180Y325399D01*
X778993Y325805D01*
X780238Y327050D01*
G54D10*
X780238Y331165D02*
X780238Y325399D01*
G54D13*
X763752Y303378D02*
X776452Y303378D01*
G54D13*
X763752Y300202D02*
X776452Y300202D01*
G54D10*
X757733Y1078382D02*
X757733Y1072032D01*
G54D10*
X752044Y1093876D02*
X756514Y1093876D01*
X754075Y1090625D01*
X755294Y1090625D01*
X756107Y1090218D01*
X756514Y1089812D01*
X756920Y1088593D01*
X756920Y1087780D01*
X756514Y1086560D01*
X755700Y1085748D01*
X754482Y1085341D01*
X753262Y1085341D01*
X752044Y1085748D01*
X751637Y1086154D01*
X751230Y1086967D01*
G54D10*
X760172Y1093876D02*
X764642Y1093876D01*
X762203Y1090625D01*
X763422Y1090625D01*
X764235Y1090218D01*
X764642Y1089812D01*
X765048Y1088593D01*
X765048Y1087780D01*
X764642Y1086560D01*
X763829Y1085748D01*
X762610Y1085341D01*
X761390Y1085341D01*
X760172Y1085748D01*
X759765Y1086154D01*
X759358Y1086967D01*
G54D10*
X740918Y1270660D02*
X664718Y1270660D01*
X664718Y1181760D01*
X867918Y1181760D01*
X867918Y1270660D01*
X791718Y1270660D01*
X791718Y1264310D01*
X740918Y1264310D01*
X740918Y1270660D01*
G54D12*
X761314Y1370634D02*
X771296Y1370634D01*
G54D11*
X760603Y1404213D02*
X759918Y1404213D01*
X758876Y1403858D01*
X758164Y1402816D01*
X757834Y1401089D01*
X757834Y1400048D01*
X758164Y1398295D01*
X758876Y1397254D01*
X759918Y1396923D01*
X760603Y1396923D01*
X761644Y1397254D01*
X762356Y1398295D01*
X762686Y1400048D01*
X762686Y1401089D01*
X762356Y1402816D01*
X761644Y1403858D01*
X760603Y1404213D01*
G54D11*
X762356Y1402816D02*
X758164Y1398295D01*
G54D11*
X765835Y1397254D02*
X765480Y1397609D01*
X765124Y1397254D01*
X765480Y1396923D01*
X765835Y1397254D01*
G54D11*
X771042Y1404213D02*
X770331Y1404213D01*
X769290Y1403858D01*
X768604Y1402816D01*
X768248Y1401089D01*
X768248Y1400048D01*
X768604Y1398295D01*
X769290Y1397254D01*
X770331Y1396923D01*
X771042Y1396923D01*
X772084Y1397254D01*
X772770Y1398295D01*
X773126Y1400048D01*
X773126Y1401089D01*
X772770Y1402816D01*
X772084Y1403858D01*
X771042Y1404213D01*
G54D11*
X772770Y1402816D02*
X768604Y1398295D01*
G54D11*
X776250Y1402816D02*
X776960Y1403172D01*
X778002Y1404213D01*
X778002Y1396923D01*
G54D11*
X782523Y1401775D02*
X782523Y1398295D01*
X782854Y1397254D01*
X783564Y1396923D01*
X784606Y1396923D01*
X785292Y1397254D01*
X786333Y1398295D01*
G54D11*
X786333Y1401775D02*
X786333Y1396923D01*
G54D12*
X821842Y126619D02*
X821842Y85343D01*
X831368Y75819D01*
X831368Y59944D01*
G54D10*
X869899Y180645D02*
X863549Y180645D01*
G54D10*
X818083Y180441D02*
X818083Y174091D01*
G54D10*
X858393Y837260D02*
X852043Y837260D01*
G54D10*
X832028Y841375D02*
X836498Y841375D01*
X834060Y838123D01*
X835279Y838123D01*
X836092Y837717D01*
X836498Y837311D01*
X836904Y836091D01*
X836904Y835278D01*
X836498Y834059D01*
X835686Y833246D01*
X834466Y832840D01*
X833247Y832840D01*
X832028Y833246D01*
X831622Y833653D01*
X831215Y834466D01*
G54D10*
X840156Y841375D02*
X844626Y841375D01*
X842188Y838123D01*
X843407Y838123D01*
X844220Y837717D01*
X844626Y837311D01*
X845032Y836091D01*
X845032Y835278D01*
X844626Y834059D01*
X843814Y833246D01*
X842594Y832840D01*
X841375Y832840D01*
X840156Y833246D01*
X839750Y833653D01*
X839343Y834466D01*
G54D10*
X846810Y1114602D02*
X842798Y1114602D01*
X842798Y1118590D01*
X846810Y1118590D01*
X846810Y1114602D01*
G54D10*
X863142Y1321460D02*
X863142Y1315110D01*
G54D12*
X807593Y1318285D02*
X817118Y1324635D01*
X817118Y1311935D01*
X807593Y1318285D01*
G54D12*
X807593Y1324635D02*
X807593Y1311935D01*
G54D11*
X857326Y1333068D02*
X858012Y1333423D01*
X859079Y1334490D01*
X859079Y1327099D01*
G54D11*
X863651Y1334490D02*
X863651Y1327099D01*
G54D11*
X868604Y1334490D02*
X863651Y1329563D01*
G54D11*
X865429Y1331315D02*
X868604Y1327099D01*
G54D13*
X838048Y1419097D02*
X850748Y1419097D01*
X850748Y1396873D01*
X838048Y1396873D01*
X838048Y1419097D01*
G54D13*
X838048Y1412748D02*
X850748Y1412748D01*
G54D13*
X838048Y1415923D02*
X850748Y1415923D01*
G54D11*
X812876Y1409294D02*
X813588Y1409649D01*
X814628Y1410690D01*
X814628Y1403299D01*
G54D11*
X819226Y1408227D02*
X819226Y1404696D01*
X819582Y1403654D01*
X820293Y1403299D01*
X821334Y1403299D01*
X822046Y1403654D01*
X823112Y1404696D01*
G54D11*
X823112Y1408227D02*
X823112Y1403299D01*
G54D11*
X854126Y1406042D02*
X854837Y1406397D01*
X855878Y1407439D01*
X855878Y1400098D01*
G54D11*
X862863Y1407439D02*
X862178Y1407439D01*
X861111Y1407083D01*
X860425Y1406042D01*
X860070Y1404289D01*
X860070Y1403248D01*
X860425Y1401496D01*
X861111Y1400454D01*
X862178Y1400098D01*
X862863Y1400098D01*
X863930Y1400454D01*
X864616Y1401496D01*
X864972Y1403248D01*
X864972Y1404289D01*
X864616Y1406042D01*
X863930Y1407083D01*
X862863Y1407439D01*
G54D11*
X864616Y1406042D02*
X860425Y1401496D01*
G54D11*
X867410Y1405000D02*
X867410Y1401496D01*
X867766Y1400454D01*
X868476Y1400098D01*
X869518Y1400098D01*
X870204Y1400454D01*
X871270Y1401496D01*
G54D11*
X871270Y1405000D02*
X871270Y1400098D01*
G54D12*
X807593Y1481784D02*
X813943Y1481784D01*
G54D12*
X839343Y1481784D02*
X845693Y1481784D01*
G54D12*
X871093Y1481784D02*
X877443Y1481784D01*
G54D11*
X835050Y1447164D02*
X835736Y1447520D01*
X836752Y1448536D01*
X836752Y1441323D01*
G54D11*
X845007Y1448536D02*
X841578Y1448536D01*
X841222Y1445463D01*
X841578Y1445793D01*
X842594Y1446149D01*
X843636Y1446149D01*
X844677Y1445793D01*
X845363Y1445107D01*
X845693Y1444091D01*
X845693Y1443380D01*
X845363Y1442364D01*
X844677Y1441678D01*
X843636Y1441323D01*
X842594Y1441323D01*
X841578Y1441678D01*
X841222Y1442009D01*
X840892Y1442695D01*
G54D11*
X850519Y1448536D02*
X849833Y1448536D01*
X848792Y1448206D01*
X848106Y1447164D01*
X847750Y1445463D01*
X847750Y1444421D01*
X848106Y1442695D01*
X848792Y1441678D01*
X849833Y1441323D01*
X850519Y1441323D01*
X851535Y1441678D01*
X852221Y1442695D01*
X852576Y1444421D01*
X852576Y1445463D01*
X852221Y1447164D01*
X851535Y1448206D01*
X850519Y1448536D01*
G54D11*
X852221Y1447164D02*
X848106Y1442695D01*
G54D11*
X924840Y18846D02*
X931037Y18846D01*
G54D11*
X934466Y21590D02*
X935152Y21945D01*
X936193Y22962D01*
X936193Y15748D01*
G54D11*
X940664Y21259D02*
X940664Y21590D01*
X940994Y22276D01*
X941349Y22631D01*
X942035Y22962D01*
X943406Y22962D01*
X944092Y22631D01*
X944448Y22276D01*
X944778Y21590D01*
X944778Y20904D01*
X944448Y20218D01*
X943737Y19202D01*
X940308Y15748D01*
X945134Y15748D01*
G54D11*
X946506Y22962D02*
X949249Y15748D01*
X951992Y22962D01*
G54D11*
X921588Y167995D02*
X921588Y161798D01*
G54D11*
X918490Y164897D02*
X924687Y164897D01*
G54D11*
X927786Y169011D02*
X931545Y169011D01*
X929488Y166268D01*
X930529Y166268D01*
X931214Y165938D01*
X931545Y165582D01*
X931900Y164566D01*
X931900Y163855D01*
X931545Y162839D01*
X930859Y162154D01*
X929843Y161798D01*
X928802Y161798D01*
X927786Y162154D01*
X927430Y162483D01*
X927074Y163169D01*
G54D11*
X935000Y162154D02*
X934644Y162483D01*
X934314Y162154D01*
X934644Y161798D01*
X935000Y162154D01*
G54D11*
X938098Y169011D02*
X941858Y169011D01*
X939800Y166268D01*
X940842Y166268D01*
X941527Y165938D01*
X941858Y165582D01*
X942213Y164566D01*
X942213Y163855D01*
X941858Y162839D01*
X941172Y162154D01*
X940156Y161798D01*
X939114Y161798D01*
X938098Y162154D01*
X937743Y162483D01*
X937387Y163169D01*
G54D11*
X943584Y169011D02*
X946328Y161798D01*
X949096Y169011D01*
G54D13*
X961466Y314325D02*
X948766Y314325D01*
X948766Y336550D01*
X961466Y336550D01*
X961466Y314325D01*
G54D10*
X886968Y445160D02*
X886968Y419760D01*
X912368Y419760D01*
G54D10*
X904418Y391185D02*
X904418Y397535D01*
G54D10*
X901370Y405206D02*
X905205Y405206D01*
X906476Y405638D01*
X906907Y406069D01*
X907338Y406908D01*
X907338Y407771D01*
X906907Y408610D01*
X906476Y409042D01*
X905205Y409473D01*
X901370Y409473D01*
X901370Y400506D01*
G54D10*
X904342Y405206D02*
X907338Y400506D01*
G54D10*
X912368Y635660D02*
X899668Y635660D01*
X886968Y622960D01*
X886968Y610260D01*
G54D11*
X948740Y1420571D02*
X948740Y1412900D01*
X953135Y1412900D01*
G54D12*
X902843Y1481784D02*
X909193Y1481784D01*
G54D12*
X934593Y1481784D02*
X940943Y1481784D01*
G54D11*
X901776Y1447368D02*
X902462Y1447723D01*
X903529Y1448790D01*
X903529Y1441399D01*
G54D11*
X908100Y1448790D02*
X908100Y1441399D01*
G54D11*
X913054Y1448790D02*
X908100Y1443862D01*
G54D11*
X909878Y1445615D02*
X913054Y1441399D01*
G54D11*
X932815Y1447037D02*
X932815Y1447368D01*
X933170Y1448079D01*
X933526Y1448435D01*
X934212Y1448790D01*
X935634Y1448790D01*
X936346Y1448435D01*
X936701Y1448079D01*
X937032Y1447368D01*
X937032Y1446682D01*
X936701Y1445971D01*
X935990Y1444904D01*
X932459Y1441399D01*
X937387Y1441399D01*
G54D11*
X939850Y1448790D02*
X939850Y1441399D01*
G54D11*
X944804Y1448790D02*
X939850Y1443862D01*
G54D11*
X941628Y1445615D02*
X944804Y1441399D01*
G54D11*
X974116Y21259D02*
X973760Y21945D01*
X973074Y22631D01*
X972388Y22962D01*
X971016Y22962D01*
X970331Y22631D01*
X969645Y21945D01*
X969290Y21259D01*
X968960Y20218D01*
X968960Y18516D01*
X969290Y17474D01*
X969645Y16789D01*
X970331Y16103D01*
X971016Y15748D01*
X972388Y15748D01*
X973074Y16103D01*
X973760Y16789D01*
X974116Y17474D01*
X974116Y18516D01*
X972388Y18516D01*
G54D11*
X981329Y22962D02*
X981329Y15748D01*
X976503Y22962D01*
X976503Y15748D01*
G54D11*
X986485Y22962D02*
X984072Y22962D01*
X984072Y15748D01*
X986485Y15748D01*
X987502Y16103D01*
X988187Y16789D01*
X988542Y17474D01*
X988898Y18516D01*
X988898Y20218D01*
X988542Y21259D01*
X988187Y21945D01*
X987502Y22631D01*
X986485Y22962D01*
G54D11*
X974116Y167309D02*
X973760Y167995D01*
X973074Y168681D01*
X972388Y169011D01*
X971016Y169011D01*
X970331Y168681D01*
X969645Y167995D01*
X969290Y167309D01*
X968960Y166268D01*
X968960Y164566D01*
X969290Y163525D01*
X969645Y162839D01*
X970331Y162154D01*
X971016Y161798D01*
X972388Y161798D01*
X973074Y162154D01*
X973760Y162839D01*
X974116Y163525D01*
X974116Y164566D01*
X972388Y164566D01*
G54D11*
X981329Y169011D02*
X981329Y161798D01*
X976503Y169011D01*
X976503Y161798D01*
G54D11*
X986485Y169011D02*
X984072Y169011D01*
X984072Y161798D01*
X986485Y161798D01*
X987502Y162154D01*
X988187Y162839D01*
X988542Y163525D01*
X988898Y164566D01*
X988898Y166268D01*
X988542Y167309D01*
X988187Y167995D01*
X987502Y168681D01*
X986485Y169011D01*
G54D11*
X1010488Y167995D02*
X1010488Y161798D01*
G54D11*
X1007389Y164897D02*
X1013587Y164897D01*
G54D11*
X1020114Y169011D02*
X1016686Y169011D01*
X1016330Y165938D01*
X1016686Y166268D01*
X1017702Y166623D01*
X1018743Y166623D01*
X1019759Y166268D01*
X1020445Y165582D01*
X1020800Y164566D01*
X1020800Y163855D01*
X1020445Y162839D01*
X1019759Y162154D01*
X1018743Y161798D01*
X1017702Y161798D01*
X1016686Y162154D01*
X1016330Y162483D01*
X1015974Y163169D01*
G54D11*
X1022172Y169011D02*
X1024916Y161798D01*
X1027684Y169011D01*
G54D13*
X1022502Y332485D02*
X1022502Y317500D01*
G54D13*
X1007516Y332485D02*
X1022502Y324993D01*
X1007516Y317500D01*
X1007516Y332485D01*
G54D10*
X1008938Y302565D02*
X1008507Y303403D01*
X1007644Y304266D01*
X1006805Y304698D01*
X1005104Y304698D01*
X1004240Y304266D01*
X1003376Y303403D01*
X1002970Y302565D01*
X1002538Y301269D01*
X1002538Y299136D01*
X1002970Y297865D01*
X1003376Y297002D01*
X1004240Y296164D01*
X1005104Y295732D01*
X1006805Y295732D01*
X1007644Y296164D01*
X1008507Y297002D01*
X1008938Y297865D01*
G54D13*
X978434Y1231240D02*
X978434Y1243939D01*
X1000658Y1243939D01*
X1000658Y1231240D01*
X978434Y1231240D01*
G54D13*
X984784Y1231240D02*
X984784Y1243939D01*
G54D13*
X981608Y1231240D02*
X981608Y1243939D01*
G54D16*
X973150Y1259179D02*
X974344Y1259789D01*
X976172Y1261618D01*
X976172Y1248893D01*
G54D16*
X988288Y1261618D02*
X987070Y1261618D01*
X985240Y1261008D01*
X984046Y1259179D01*
X983437Y1256157D01*
X983437Y1254353D01*
X984046Y1251305D01*
X985240Y1249502D01*
X987070Y1248893D01*
X988288Y1248893D01*
X990092Y1249502D01*
X991311Y1251305D01*
X991920Y1254353D01*
X991920Y1256157D01*
X991311Y1259179D01*
X990092Y1261008D01*
X988288Y1261618D01*
G54D16*
X991311Y1259179D02*
X984046Y1251305D01*
G54D16*
X996162Y1257376D02*
X996162Y1251305D01*
X996747Y1249502D01*
X997966Y1248893D01*
X999794Y1248893D01*
X1000988Y1249502D01*
X1002818Y1251305D01*
G54D16*
X1002818Y1257376D02*
X1002818Y1248893D01*
G54D12*
X966343Y1481784D02*
X972693Y1481784D01*
G54D12*
X998093Y1481784D02*
X1004443Y1481784D01*
G54D11*
X996899Y1448562D02*
X993445Y1448562D01*
X993114Y1445463D01*
X993445Y1445793D01*
X994486Y1446149D01*
X995528Y1446149D01*
X996544Y1445793D01*
X997230Y1445107D01*
X997585Y1444091D01*
X997585Y1443406D01*
X997230Y1442364D01*
X996544Y1441678D01*
X995528Y1441323D01*
X994486Y1441323D01*
X993445Y1441678D01*
X993114Y1442009D01*
X992759Y1442720D01*
G54D11*
X1000684Y1447190D02*
X1001370Y1447520D01*
X1002386Y1448562D01*
X1002386Y1441323D01*
G54D11*
X1009269Y1448562D02*
X1008583Y1448562D01*
X1007542Y1448206D01*
X1006856Y1447190D01*
X1006526Y1445463D01*
X1006526Y1444421D01*
X1006856Y1442720D01*
X1007542Y1441678D01*
X1008583Y1441323D01*
X1009269Y1441323D01*
X1010310Y1441678D01*
X1010996Y1442720D01*
X1011326Y1444421D01*
X1011326Y1445463D01*
X1010996Y1447190D01*
X1010310Y1448206D01*
X1009269Y1448562D01*
G54D11*
X1010996Y1447190D02*
X1006856Y1442720D01*
G54D17*
X859968Y156235D02*
X1393368Y156235D01*
X1393368Y29235D01*
X1164768Y29235D01*
X1164768Y16535D01*
X1088568Y16535D01*
X1088568Y29235D01*
X859968Y29235D01*
X859968Y156235D01*
G54D11*
X1056666Y21259D02*
X1056310Y21945D01*
X1055624Y22631D01*
X1054938Y22962D01*
X1053566Y22962D01*
X1052880Y22631D01*
X1052195Y21945D01*
X1051840Y21259D01*
X1051509Y20218D01*
X1051509Y18516D01*
X1051840Y17474D01*
X1052195Y16789D01*
X1052880Y16103D01*
X1053566Y15748D01*
X1054938Y15748D01*
X1055624Y16103D01*
X1056310Y16789D01*
X1056666Y17474D01*
X1056666Y18516D01*
X1054938Y18516D01*
G54D11*
X1063879Y22962D02*
X1063879Y15748D01*
X1059053Y22962D01*
X1059053Y15748D01*
G54D11*
X1069035Y22962D02*
X1066622Y22962D01*
X1066622Y15748D01*
X1069035Y15748D01*
X1070051Y16103D01*
X1070737Y16789D01*
X1071092Y17474D01*
X1071448Y18516D01*
X1071448Y20218D01*
X1071092Y21259D01*
X1070737Y21945D01*
X1070051Y22631D01*
X1069035Y22962D01*
G54D11*
X1056666Y167309D02*
X1056310Y167995D01*
X1055624Y168681D01*
X1054938Y169011D01*
X1053566Y169011D01*
X1052880Y168681D01*
X1052195Y167995D01*
X1051840Y167309D01*
X1051509Y166268D01*
X1051509Y164566D01*
X1051840Y163525D01*
X1052195Y162839D01*
X1052880Y162154D01*
X1053566Y161798D01*
X1054938Y161798D01*
X1055624Y162154D01*
X1056310Y162839D01*
X1056666Y163525D01*
X1056666Y164566D01*
X1054938Y164566D01*
G54D11*
X1063879Y169011D02*
X1063879Y161798D01*
X1059053Y169011D01*
X1059053Y161798D01*
G54D11*
X1069035Y169011D02*
X1066622Y169011D01*
X1066622Y161798D01*
X1069035Y161798D01*
X1070051Y162154D01*
X1070737Y162839D01*
X1071092Y163525D01*
X1071448Y164566D01*
X1071448Y166268D01*
X1071092Y167309D01*
X1070737Y167995D01*
X1070051Y168681D01*
X1069035Y169011D01*
G54D13*
X1067511Y282498D02*
X1052500Y289992D01*
X1067511Y297510D01*
X1067511Y282498D01*
G54D13*
X1052068Y305460D02*
X1052068Y356260D01*
X1077468Y356260D01*
X1077468Y305460D01*
X1052068Y305460D01*
G54D10*
X1077468Y419760D02*
X1102868Y419760D01*
X1102868Y445160D01*
G54D10*
X1102868Y610260D02*
X1102868Y635660D01*
X1077468Y635660D01*
G54D13*
X1059790Y1231240D02*
X1059790Y1243939D01*
G54D13*
X1056614Y1231240D02*
X1056614Y1243939D01*
G54D13*
X1053440Y1243939D02*
X1075664Y1243939D01*
X1075664Y1231240D01*
X1053440Y1231240D01*
X1053440Y1243939D01*
G54D16*
X1046175Y1259179D02*
X1047369Y1259789D01*
X1049198Y1261618D01*
X1049198Y1248893D01*
G54D16*
X1061314Y1261618D02*
X1060094Y1261618D01*
X1058266Y1261008D01*
X1057072Y1259179D01*
X1056462Y1256157D01*
X1056462Y1254353D01*
X1057072Y1251305D01*
X1058266Y1249502D01*
X1060094Y1248893D01*
X1061314Y1248893D01*
X1063117Y1249502D01*
X1064336Y1251305D01*
X1064946Y1254353D01*
X1064946Y1256157D01*
X1064336Y1259179D01*
X1063117Y1261008D01*
X1061314Y1261618D01*
G54D16*
X1064336Y1259179D02*
X1057072Y1251305D01*
G54D16*
X1069188Y1257376D02*
X1069188Y1251305D01*
X1069772Y1249502D01*
X1070991Y1248893D01*
X1072820Y1248893D01*
X1074014Y1249502D01*
X1075842Y1251305D01*
G54D16*
X1075842Y1257376D02*
X1075842Y1248893D01*
G54D13*
X1041248Y1336548D02*
X1053948Y1336548D01*
X1053948Y1314323D01*
X1041248Y1314323D01*
X1041248Y1336548D01*
G54D13*
X1041248Y1330198D02*
X1053948Y1330198D01*
G54D13*
X1041248Y1333373D02*
X1053948Y1333373D01*
G54D16*
X1060831Y1328420D02*
X1060831Y1329029D01*
X1061440Y1330248D01*
X1062050Y1330858D01*
X1063244Y1331468D01*
X1065682Y1331468D01*
X1066876Y1330858D01*
X1067486Y1330248D01*
X1068096Y1329029D01*
X1068096Y1327835D01*
X1067486Y1326616D01*
X1066266Y1324787D01*
X1060222Y1318742D01*
X1068705Y1318742D01*
G54D16*
X1072947Y1328420D02*
X1072947Y1329029D01*
X1073556Y1330248D01*
X1074140Y1330858D01*
X1075360Y1331468D01*
X1077773Y1331468D01*
X1078992Y1330858D01*
X1079602Y1330248D01*
X1080212Y1329029D01*
X1080212Y1327835D01*
X1079602Y1326616D01*
X1078382Y1324787D01*
X1072338Y1318742D01*
X1080821Y1318742D01*
G54D16*
X1085063Y1327226D02*
X1085063Y1321156D01*
X1085646Y1319351D01*
X1086866Y1318742D01*
X1088695Y1318742D01*
X1089888Y1319351D01*
X1091718Y1321156D01*
G54D16*
X1091718Y1327226D02*
X1091718Y1318742D01*
G54D12*
X1061593Y1481784D02*
X1067943Y1481784D01*
G54D12*
X1093343Y1481784D02*
X1099693Y1481784D01*
G54D11*
X1059815Y1447037D02*
X1059815Y1447368D01*
X1060170Y1448079D01*
X1060526Y1448435D01*
X1061212Y1448790D01*
X1062634Y1448790D01*
X1063346Y1448435D01*
X1063701Y1448079D01*
X1064032Y1447368D01*
X1064032Y1446682D01*
X1063701Y1445971D01*
X1062990Y1444904D01*
X1059459Y1441399D01*
X1064387Y1441399D01*
G54D11*
X1066850Y1448790D02*
X1066850Y1441399D01*
G54D11*
X1071804Y1448790D02*
X1066850Y1443862D01*
G54D11*
X1068628Y1445615D02*
X1071804Y1441399D01*
G54D11*
X1145566Y13563D02*
X1145210Y14249D01*
X1144524Y14935D01*
X1143838Y15265D01*
X1142466Y15265D01*
X1141780Y14935D01*
X1141095Y14249D01*
X1140740Y13563D01*
X1140409Y12522D01*
X1140409Y10795D01*
X1140740Y9778D01*
X1141095Y9093D01*
X1141780Y8407D01*
X1142466Y8052D01*
X1143838Y8052D01*
X1144524Y8407D01*
X1145210Y9093D01*
X1145566Y9778D01*
X1145566Y10795D01*
X1143838Y10795D01*
G54D11*
X1152779Y15265D02*
X1152779Y8052D01*
X1147953Y15265D01*
X1147953Y8052D01*
G54D11*
X1157936Y15265D02*
X1155522Y15265D01*
X1155522Y8052D01*
X1157936Y8052D01*
X1158951Y8407D01*
X1159637Y9093D01*
X1159993Y9778D01*
X1160348Y10795D01*
X1160348Y12522D01*
X1159993Y13563D01*
X1159637Y14249D01*
X1158951Y14935D01*
X1157936Y15265D01*
G54D11*
X1145566Y167309D02*
X1145210Y167995D01*
X1144524Y168681D01*
X1143838Y169011D01*
X1142466Y169011D01*
X1141780Y168681D01*
X1141095Y167995D01*
X1140740Y167309D01*
X1140409Y166268D01*
X1140409Y164566D01*
X1140740Y163525D01*
X1141095Y162839D01*
X1141780Y162154D01*
X1142466Y161798D01*
X1143838Y161798D01*
X1144524Y162154D01*
X1145210Y162839D01*
X1145566Y163525D01*
X1145566Y164566D01*
X1143838Y164566D01*
G54D11*
X1152779Y169011D02*
X1152779Y161798D01*
X1147953Y169011D01*
X1147953Y161798D01*
G54D11*
X1157936Y169011D02*
X1155522Y169011D01*
X1155522Y161798D01*
X1157936Y161798D01*
X1158951Y162154D01*
X1159637Y162839D01*
X1159993Y163525D01*
X1160348Y164566D01*
X1160348Y166268D01*
X1159993Y167309D01*
X1159637Y167995D01*
X1158951Y168681D01*
X1157936Y169011D01*
G54D11*
X1126972Y269850D02*
X1126972Y263651D01*
G54D11*
X1123874Y266750D02*
X1130071Y266750D01*
G54D11*
X1133170Y270865D02*
X1136955Y270865D01*
X1134872Y268122D01*
X1135914Y268122D01*
X1136600Y267766D01*
X1136955Y267436D01*
X1137285Y266394D01*
X1137285Y265709D01*
X1136955Y264693D01*
X1136244Y264007D01*
X1135228Y263651D01*
X1134186Y263651D01*
X1133170Y264007D01*
X1132814Y264337D01*
X1132484Y265023D01*
G54D11*
X1140384Y264007D02*
X1140028Y264337D01*
X1139698Y264007D01*
X1140028Y263651D01*
X1140384Y264007D01*
G54D11*
X1143482Y270865D02*
X1147268Y270865D01*
X1145184Y268122D01*
X1146226Y268122D01*
X1146912Y267766D01*
X1147268Y267436D01*
X1147597Y266394D01*
X1147597Y265709D01*
X1147268Y264693D01*
X1146556Y264007D01*
X1145540Y263651D01*
X1144498Y263651D01*
X1143482Y264007D01*
X1143127Y264337D01*
X1142796Y265023D01*
G54D11*
X1148969Y270865D02*
X1151712Y263651D01*
X1154481Y270865D01*
G54D11*
X1135914Y257124D02*
X1132814Y257124D01*
X1132814Y249910D01*
X1135914Y249910D01*
X1136955Y250240D01*
X1137285Y250596D01*
X1137640Y251282D01*
X1137640Y252297D01*
X1137285Y253009D01*
X1136955Y253339D01*
X1135914Y253695D01*
X1136955Y254025D01*
X1137285Y254381D01*
X1137640Y255067D01*
X1137640Y255753D01*
X1137285Y256438D01*
X1136955Y256768D01*
X1135914Y257124D01*
G54D11*
X1132814Y253695D02*
X1135914Y253695D01*
G54D11*
X1145540Y249910D02*
X1145540Y257124D01*
X1142796Y249910D01*
X1140028Y257124D01*
X1140028Y249910D01*
G54D11*
X1153109Y255397D02*
X1152754Y256082D01*
X1152068Y256768D01*
X1151382Y257124D01*
X1150010Y257124D01*
X1149324Y256768D01*
X1148639Y256082D01*
X1148284Y255397D01*
X1147953Y254381D01*
X1147953Y252653D01*
X1148284Y251612D01*
X1148639Y250926D01*
X1149324Y250240D01*
X1150010Y249910D01*
X1151382Y249910D01*
X1152068Y250240D01*
X1152754Y250926D01*
X1153109Y251612D01*
G54D10*
X1176934Y288010D02*
X1126134Y288010D01*
X1126134Y338810D01*
X1176934Y338810D01*
G54D12*
X1125093Y1481784D02*
X1131443Y1481784D01*
G54D12*
X1156843Y1481784D02*
X1163193Y1481784D01*
G54D11*
X1123899Y1448562D02*
X1120445Y1448562D01*
X1120114Y1445463D01*
X1120445Y1445793D01*
X1121486Y1446149D01*
X1122528Y1446149D01*
X1123544Y1445793D01*
X1124230Y1445107D01*
X1124585Y1444091D01*
X1124585Y1443406D01*
X1124230Y1442364D01*
X1123544Y1441678D01*
X1122528Y1441323D01*
X1121486Y1441323D01*
X1120445Y1441678D01*
X1120114Y1442009D01*
X1119759Y1442720D01*
G54D11*
X1127684Y1447190D02*
X1128370Y1447520D01*
X1129386Y1448562D01*
X1129386Y1441323D01*
G54D11*
X1136269Y1448562D02*
X1135583Y1448562D01*
X1134542Y1448206D01*
X1133856Y1447190D01*
X1133526Y1445463D01*
X1133526Y1444421D01*
X1133856Y1442720D01*
X1134542Y1441678D01*
X1135583Y1441323D01*
X1136269Y1441323D01*
X1137310Y1441678D01*
X1137996Y1442720D01*
X1138326Y1444421D01*
X1138326Y1445463D01*
X1137996Y1447190D01*
X1137310Y1448206D01*
X1136269Y1448562D01*
G54D11*
X1137996Y1447190D02*
X1133856Y1442720D01*
G54D11*
X1155776Y1447368D02*
X1156462Y1447723D01*
X1157529Y1448790D01*
X1157529Y1441399D01*
G54D11*
X1162100Y1448790D02*
X1162100Y1441399D01*
G54D11*
X1167054Y1448790D02*
X1162100Y1443862D01*
G54D11*
X1163878Y1445615D02*
X1167054Y1441399D01*
G54D11*
X1226388Y21945D02*
X1226388Y15748D01*
G54D11*
X1223290Y18846D02*
X1229487Y18846D01*
G54D11*
X1236015Y22962D02*
X1232586Y22962D01*
X1232230Y19888D01*
X1232586Y20218D01*
X1233602Y20573D01*
X1234644Y20573D01*
X1235659Y20218D01*
X1236345Y19532D01*
X1236701Y18516D01*
X1236701Y17805D01*
X1236345Y16789D01*
X1235659Y16103D01*
X1234644Y15748D01*
X1233602Y15748D01*
X1232586Y16103D01*
X1232230Y16434D01*
X1231874Y17119D01*
G54D11*
X1238072Y22962D02*
X1240816Y15748D01*
X1243584Y22962D01*
G54D11*
X1220089Y168072D02*
X1220089Y161823D01*
G54D11*
X1216964Y164947D02*
X1223214Y164947D01*
G54D11*
X1229792Y169113D02*
X1226338Y169113D01*
X1225982Y165989D01*
X1226338Y166344D01*
X1227378Y166675D01*
X1228420Y166675D01*
X1229462Y166344D01*
X1230148Y165633D01*
X1230503Y164591D01*
X1230503Y163905D01*
X1230148Y162865D01*
X1229462Y162179D01*
X1228420Y161823D01*
X1227378Y161823D01*
X1226338Y162179D01*
X1225982Y162509D01*
X1225626Y163220D01*
G54D11*
X1231874Y169113D02*
X1234644Y161823D01*
X1237437Y169113D01*
G54D11*
X1243686Y168072D02*
X1242974Y168757D01*
X1241933Y169113D01*
X1240562Y169113D01*
X1239520Y168757D01*
X1238808Y168072D01*
X1238808Y167386D01*
X1239164Y166675D01*
X1239520Y166344D01*
X1240206Y165989D01*
X1242288Y165303D01*
X1242974Y164947D01*
X1243330Y164591D01*
X1243686Y163905D01*
X1243686Y162865D01*
X1242974Y162179D01*
X1241933Y161823D01*
X1240562Y161823D01*
X1239520Y162179D01*
X1238808Y162865D01*
G54D11*
X1249223Y169113D02*
X1246098Y169113D01*
X1246098Y161823D01*
X1249223Y161823D01*
X1250264Y162179D01*
X1250620Y162509D01*
X1250976Y163220D01*
X1250976Y164261D01*
X1250620Y164947D01*
X1250264Y165303D01*
X1249223Y165633D01*
X1250264Y165989D01*
X1250620Y166344D01*
X1250976Y167030D01*
X1250976Y167716D01*
X1250620Y168427D01*
X1250264Y168757D01*
X1249223Y169113D01*
G54D11*
X1246098Y165633D02*
X1249223Y165633D01*
G54D13*
X1251254Y1336548D02*
X1263955Y1336548D01*
X1263955Y1314323D01*
X1251254Y1314323D01*
X1251254Y1336548D01*
G54D12*
X1188593Y1481784D02*
X1194943Y1481784D01*
G54D12*
X1220343Y1481784D02*
X1226693Y1481784D01*
G54D11*
X1212546Y1448688D02*
X1216381Y1448688D01*
X1214298Y1445895D01*
X1215339Y1445895D01*
X1216025Y1445539D01*
X1216381Y1445209D01*
X1216736Y1444142D01*
X1216736Y1443456D01*
X1216381Y1442415D01*
X1215695Y1441703D01*
X1214628Y1441373D01*
X1213586Y1441373D01*
X1212546Y1441703D01*
X1212190Y1442059D01*
X1211860Y1442745D01*
G54D11*
X1219860Y1441703D02*
X1219530Y1442059D01*
X1219175Y1441703D01*
X1219530Y1441373D01*
X1219860Y1441703D01*
G54D11*
X1226490Y1447647D02*
X1226846Y1446251D01*
X1226490Y1445209D01*
X1225804Y1444498D01*
X1224762Y1444142D01*
X1224407Y1444142D01*
X1223366Y1444498D01*
X1222654Y1445209D01*
X1222298Y1446251D01*
X1222298Y1446580D01*
X1222654Y1447647D01*
X1223366Y1448333D01*
X1224407Y1448688D01*
X1224762Y1448688D01*
X1225804Y1448333D01*
X1226490Y1447647D01*
G54D11*
X1226846Y1446251D02*
X1226846Y1444498D01*
X1226490Y1442745D01*
X1225804Y1441703D01*
X1224762Y1441373D01*
X1224052Y1441373D01*
X1223010Y1441703D01*
X1222654Y1442415D01*
G54D11*
X1229639Y1448688D02*
X1229639Y1441373D01*
G54D11*
X1234516Y1448688D02*
X1229639Y1443812D01*
G54D11*
X1231366Y1445539D02*
X1234516Y1441373D01*
G54D11*
X1308938Y21945D02*
X1308938Y15748D01*
G54D11*
X1305840Y18846D02*
X1312037Y18846D01*
G54D11*
X1318565Y22962D02*
X1315136Y22962D01*
X1314780Y19888D01*
X1315136Y20218D01*
X1316152Y20573D01*
X1317193Y20573D01*
X1318210Y20218D01*
X1318895Y19532D01*
X1319250Y18516D01*
X1319250Y17805D01*
X1318895Y16789D01*
X1318210Y16103D01*
X1317193Y15748D01*
X1316152Y15748D01*
X1315136Y16103D01*
X1314780Y16434D01*
X1314425Y17119D01*
G54D11*
X1320622Y22962D02*
X1323366Y15748D01*
X1326134Y22962D01*
G54D11*
X1302588Y167995D02*
X1302588Y161798D01*
G54D11*
X1299490Y164897D02*
X1305687Y164897D01*
G54D11*
X1309116Y167640D02*
X1309802Y167995D01*
X1310843Y169011D01*
X1310843Y161798D01*
G54D11*
X1315314Y167309D02*
X1315314Y167640D01*
X1315644Y168326D01*
X1316000Y168681D01*
X1316686Y169011D01*
X1318057Y169011D01*
X1318743Y168681D01*
X1319098Y168326D01*
X1319428Y167640D01*
X1319428Y166954D01*
X1319098Y166268D01*
X1318387Y165252D01*
X1314958Y161798D01*
X1319784Y161798D01*
G54D11*
X1321156Y169011D02*
X1323899Y161798D01*
X1326642Y169011D01*
G54D16*
X1270381Y1328420D02*
X1270381Y1329029D01*
X1270990Y1330248D01*
X1271600Y1330858D01*
X1272794Y1331468D01*
X1275232Y1331468D01*
X1276426Y1330858D01*
X1277036Y1330248D01*
X1277646Y1329029D01*
X1277646Y1327835D01*
X1277036Y1326616D01*
X1275816Y1324787D01*
X1269772Y1318742D01*
X1278255Y1318742D01*
G54D16*
X1282497Y1328420D02*
X1282497Y1329029D01*
X1283106Y1330248D01*
X1283690Y1330858D01*
X1284910Y1331468D01*
X1287322Y1331468D01*
X1288542Y1330858D01*
X1289152Y1330248D01*
X1289761Y1329029D01*
X1289761Y1327835D01*
X1289152Y1326616D01*
X1287932Y1324787D01*
X1281887Y1318742D01*
X1290371Y1318742D01*
G54D16*
X1294612Y1327226D02*
X1294612Y1321156D01*
X1295197Y1319351D01*
X1296416Y1318742D01*
X1298245Y1318742D01*
X1299439Y1319351D01*
X1301268Y1321156D01*
G54D16*
X1301268Y1327226D02*
X1301268Y1318742D01*
G54D10*
X1312418Y1313510D02*
X1318768Y1313510D01*
G54D11*
X1295476Y1310843D02*
X1296162Y1311199D01*
X1297228Y1312266D01*
X1297228Y1304874D01*
G54D11*
X1301801Y1312266D02*
X1301801Y1304874D01*
G54D11*
X1306754Y1312266D02*
X1301801Y1307338D01*
G54D11*
X1303579Y1309090D02*
X1306754Y1304874D01*
G54D12*
X1277493Y1486560D02*
X1283843Y1486560D01*
G54D12*
X1309243Y1486560D02*
X1315593Y1486560D01*
G54D12*
X1277493Y1550060D02*
X1283843Y1550060D01*
G54D12*
X1309243Y1550060D02*
X1315593Y1550060D01*
G54D11*
X1355116Y21259D02*
X1354760Y21945D01*
X1354074Y22631D01*
X1353388Y22962D01*
X1352016Y22962D01*
X1351331Y22631D01*
X1350645Y21945D01*
X1350290Y21259D01*
X1349960Y20218D01*
X1349960Y18516D01*
X1350290Y17474D01*
X1350645Y16789D01*
X1351331Y16103D01*
X1352016Y15748D01*
X1353388Y15748D01*
X1354074Y16103D01*
X1354760Y16789D01*
X1355116Y17474D01*
X1355116Y18516D01*
X1353388Y18516D01*
G54D11*
X1362329Y22962D02*
X1362329Y15748D01*
X1357503Y22962D01*
X1357503Y15748D01*
G54D11*
X1367485Y22962D02*
X1365072Y22962D01*
X1365072Y15748D01*
X1367485Y15748D01*
X1368502Y16103D01*
X1369187Y16789D01*
X1369542Y17474D01*
X1369898Y18516D01*
X1369898Y20218D01*
X1369542Y21259D01*
X1369187Y21945D01*
X1368502Y22631D01*
X1367485Y22962D01*
G54D11*
X1347038Y167995D02*
X1347038Y161798D01*
G54D11*
X1343940Y164897D02*
X1350137Y164897D01*
G54D11*
X1356665Y169011D02*
X1353236Y169011D01*
X1352880Y165938D01*
X1353236Y166268D01*
X1354252Y166623D01*
X1355294Y166623D01*
X1356310Y166268D01*
X1356995Y165582D01*
X1357350Y164566D01*
X1357350Y163855D01*
X1356995Y162839D01*
X1356310Y162154D01*
X1355294Y161798D01*
X1354252Y161798D01*
X1353236Y162154D01*
X1352880Y162483D01*
X1352524Y163169D01*
G54D11*
X1358722Y169011D02*
X1361466Y161798D01*
X1364234Y169011D01*
G54D10*
X1352093Y1299235D02*
X1352093Y1292885D01*
G54D10*
X1399718Y1365910D02*
X1399718Y1359560D01*
G54D11*
X1393901Y1377517D02*
X1394587Y1377873D01*
X1395654Y1378940D01*
X1395654Y1371549D01*
G54D11*
X1400226Y1378940D02*
X1400226Y1371549D01*
G54D11*
X1405179Y1378940D02*
X1400226Y1374013D01*
G54D11*
X1402004Y1375766D02*
X1405179Y1371549D01*
G54D12*
X1340993Y1486560D02*
X1347343Y1486560D01*
G54D12*
X1372743Y1486560D02*
X1379093Y1486560D01*
G54D12*
X1340993Y1550060D02*
X1347343Y1550060D01*
G54D12*
X1372743Y1550060D02*
X1379093Y1550060D01*
G54D10*
X1437030Y105333D02*
X1442034Y105333D01*
X1442034Y100330D01*
X1437030Y100330D01*
X1437030Y105333D01*
G54D10*
X1420444Y1550543D02*
X1439494Y1550543D01*
X1439494Y1563243D01*
X1420444Y1563243D01*
X1420444Y1550543D01*
G54D10*
X1423619Y1550543D02*
X1423619Y1563243D01*
G54D11*
X1442110Y1573378D02*
X1442796Y1573733D01*
X1443863Y1574800D01*
X1443863Y1567433D01*
G54D11*
X1450848Y1574800D02*
X1450137Y1574800D01*
X1449096Y1574444D01*
X1448410Y1573378D01*
X1448054Y1571650D01*
X1448054Y1570583D01*
X1448410Y1568856D01*
X1449096Y1567789D01*
X1450137Y1567433D01*
X1450848Y1567433D01*
X1451889Y1567789D01*
X1452600Y1568856D01*
X1452931Y1570583D01*
X1452931Y1571650D01*
X1452600Y1573378D01*
X1451889Y1574444D01*
X1450848Y1574800D01*
G54D11*
X1452600Y1573378D02*
X1448410Y1568856D01*
G54D11*
X1455395Y1572336D02*
X1455395Y1568856D01*
X1455750Y1567789D01*
X1456436Y1567433D01*
X1457478Y1567433D01*
X1458189Y1567789D01*
X1459230Y1568856D01*
G54D11*
X1459230Y1572336D02*
X1459230Y1567433D01*
G54D11*
X1438986Y1528038D02*
X1434440Y1528038D01*
X1434440Y1520723D01*
G54D11*
X1434440Y1524559D02*
X1437234Y1524559D01*
G54D11*
X1440714Y1528038D02*
X1440714Y1522831D01*
X1441069Y1521790D01*
X1441754Y1521078D01*
X1442796Y1520723D01*
X1443508Y1520723D01*
X1444548Y1521078D01*
X1445234Y1521790D01*
X1445590Y1522831D01*
X1445590Y1528038D01*
G54D11*
X1452905Y1526997D02*
X1452194Y1527708D01*
X1451153Y1528038D01*
X1449756Y1528038D01*
X1448714Y1527708D01*
X1448028Y1526997D01*
X1448028Y1526311D01*
X1448384Y1525599D01*
X1448714Y1525270D01*
X1449426Y1524914D01*
X1451508Y1524228D01*
X1452194Y1523873D01*
X1452550Y1523517D01*
X1452905Y1522831D01*
X1452905Y1521790D01*
X1452194Y1521078D01*
X1451153Y1520723D01*
X1449756Y1520723D01*
X1448714Y1521078D01*
X1448028Y1521790D01*
G54D11*
X1459865Y1528038D02*
X1455344Y1528038D01*
X1455344Y1520723D01*
X1459865Y1520723D01*
G54D11*
X1455344Y1524559D02*
X1458112Y1524559D01*
G54D12*
X1556893Y1467510D02*
X1563243Y1467510D01*
G54D12*
X1493393Y1550060D02*
X1499743Y1550060D01*
G54D12*
X1525143Y1550060D02*
X1531493Y1550060D01*
G54D12*
X1556893Y1550060D02*
X1563243Y1550060D01*
G54D12*
X1596796Y1123035D02*
X1586814Y1123035D01*
G54D12*
X1596796Y1056309D02*
X1586814Y1056309D01*
G54D11*
X1602791Y1058062D02*
X1606016Y1058062D01*
X1607109Y1058418D01*
X1607464Y1058799D01*
X1607820Y1059510D01*
X1607820Y1060246D01*
X1607464Y1060957D01*
X1607109Y1061313D01*
X1606016Y1061668D01*
X1602791Y1061668D01*
X1602791Y1054099D01*
G54D11*
X1605306Y1058062D02*
X1607820Y1054099D01*
G54D12*
X1596796Y1189710D02*
X1586814Y1189710D01*
G54D11*
X1602791Y1191412D02*
X1606016Y1191412D01*
X1607109Y1191767D01*
X1607464Y1192149D01*
X1607820Y1192860D01*
X1607820Y1193596D01*
X1607464Y1194308D01*
X1607109Y1194663D01*
X1606016Y1195019D01*
X1602791Y1195019D01*
X1602791Y1187450D01*
G54D11*
X1605306Y1191412D02*
X1607820Y1187450D01*
G54D12*
X1588643Y1467510D02*
X1594993Y1467510D01*
G54D12*
X1620393Y1467510D02*
X1626743Y1467510D01*
G54D12*
X1588643Y1550060D02*
X1594993Y1550060D01*
G54D10*
X1635912Y1550289D02*
X1654962Y1550289D01*
X1654962Y1562989D01*
X1635912Y1562989D01*
X1635912Y1550289D01*
G54D10*
X1639088Y1550289D02*
X1639088Y1562989D01*
G54D12*
X1652143Y1467510D02*
X1658493Y1467510D01*
G54D11*
X1657553Y1573149D02*
X1658264Y1573478D01*
X1659306Y1574545D01*
X1659306Y1567205D01*
G54D11*
X1666291Y1574545D02*
X1665605Y1574545D01*
X1664538Y1574190D01*
X1663852Y1573149D01*
X1663497Y1571396D01*
X1663497Y1570354D01*
X1663852Y1568602D01*
X1664538Y1567535D01*
X1665605Y1567205D01*
X1666291Y1567205D01*
X1667332Y1567535D01*
X1668043Y1568602D01*
X1668399Y1570354D01*
X1668399Y1571396D01*
X1668043Y1573149D01*
X1667332Y1574190D01*
X1666291Y1574545D01*
G54D11*
X1668043Y1573149D02*
X1663852Y1568602D01*
G54D11*
X1670838Y1572082D02*
X1670838Y1568602D01*
X1671193Y1567535D01*
X1671878Y1567205D01*
X1672946Y1567205D01*
X1673632Y1567535D01*
X1674698Y1568602D01*
G54D11*
X1674698Y1572082D02*
X1674698Y1567205D01*
G54D12*
X1657248Y1524304D02*
X1657248Y1514297D01*
G54D11*
X31140Y1512087D02*
X34392Y1512087D01*
X35484Y1512442D01*
X35839Y1512823D01*
X36195Y1513534D01*
X36195Y1514272D01*
X35839Y1514983D01*
X35484Y1515338D01*
X34392Y1515694D01*
X31140Y1515694D01*
X31140Y1508125D01*
G54D11*
X33680Y1512087D02*
X36195Y1508125D01*
G54D16*
X104623Y457606D02*
X104623Y452196D01*
X105232Y450393D01*
X105816Y449782D01*
X107036Y449173D01*
X108839Y449173D01*
X110033Y449782D01*
X110642Y450393D01*
X111227Y452196D01*
X111227Y457606D01*
X98628Y457606D01*
G54D16*
X111227Y439572D02*
X111227Y441959D01*
X110642Y443179D01*
X109423Y444373D01*
X108230Y444982D01*
X106426Y445567D01*
X103429Y445567D01*
X101626Y444982D01*
X100432Y444373D01*
X99212Y443179D01*
X98628Y441959D01*
X98628Y439572D01*
X99212Y438353D01*
X100432Y437159D01*
X101626Y436550D01*
X103429Y435965D01*
X106426Y435965D01*
X108230Y436550D01*
X109423Y437159D01*
X110642Y438353D01*
X111227Y439572D01*
G54D16*
X111227Y432968D02*
X98628Y429945D01*
X111227Y426949D01*
X98628Y423951D01*
X111227Y420929D01*
G54D16*
X111227Y409524D02*
X111227Y417321D01*
X98628Y417321D01*
X98628Y409524D01*
G54D16*
X105232Y417321D02*
X105232Y412521D01*
G54D16*
X105232Y405917D02*
X105232Y400506D01*
X105816Y398703D01*
X106426Y398094D01*
X107620Y397509D01*
X108839Y397509D01*
X110033Y398094D01*
X110642Y398703D01*
X111227Y400506D01*
X111227Y405917D01*
X98628Y405917D01*
G54D16*
X105232Y401701D02*
X98628Y397509D01*
G54D16*
X105232Y342595D02*
X105232Y337185D01*
X105842Y335381D01*
X106452Y334772D01*
X107645Y334162D01*
X108839Y334162D01*
X110058Y334772D01*
X110642Y335381D01*
X111252Y337185D01*
X111252Y342595D01*
X98628Y342595D01*
G54D16*
X105232Y338378D02*
X98628Y334162D01*
G54D16*
X111252Y322123D02*
X111252Y329946D01*
X98628Y329946D01*
X98628Y322123D01*
G54D16*
X105232Y329946D02*
X105232Y325145D01*
G54D16*
X109449Y310692D02*
X110642Y311912D01*
X111252Y313715D01*
X111252Y316128D01*
X110642Y317931D01*
X109449Y319126D01*
X108255Y319126D01*
X107036Y318515D01*
X106452Y317931D01*
X105842Y316712D01*
X104648Y313106D01*
X104038Y311912D01*
X103429Y311302D01*
X102235Y310692D01*
X100432Y310692D01*
X99212Y311912D01*
X98628Y313715D01*
X98628Y316128D01*
X99212Y317931D01*
X100432Y319126D01*
G54D16*
X111252Y298678D02*
X111252Y306501D01*
X98628Y306501D01*
X98628Y298678D01*
G54D16*
X105232Y306501D02*
X105232Y301675D01*
G54D16*
X111252Y292658D02*
X98628Y292658D01*
G54D16*
X111252Y296875D02*
X111252Y288442D01*
G54D12*
X90043Y1492910D02*
X90043Y1505610D01*
G54D10*
X632968Y114960D02*
X124968Y114960D01*
X124968Y26060D01*
X632968Y26060D01*
X632968Y114960D01*
G54D10*
X154152Y211988D02*
X154152Y212395D01*
X154559Y213207D01*
X154991Y213639D01*
X155804Y214046D01*
X157455Y214046D01*
X158268Y213639D01*
X158699Y213207D01*
X159106Y212395D01*
X159106Y211557D01*
X158699Y210744D01*
X157861Y209499D01*
X153746Y205384D01*
X159512Y205384D01*
G54D10*
X163220Y205791D02*
X162814Y206196D01*
X162408Y205791D01*
X162814Y205384D01*
X163220Y205791D01*
G54D10*
X166522Y211988D02*
X166522Y212395D01*
X166929Y213207D01*
X167336Y213639D01*
X168174Y214046D01*
X169824Y214046D01*
X170637Y213639D01*
X171044Y213207D01*
X171476Y212395D01*
X171476Y211557D01*
X171044Y210744D01*
X170231Y209499D01*
X166116Y205384D01*
X171882Y205384D01*
G54D10*
X174777Y211150D02*
X174777Y207035D01*
X175184Y205791D01*
X175997Y205384D01*
X177241Y205384D01*
X178054Y205791D01*
X179299Y207035D01*
G54D10*
X179299Y211150D02*
X179299Y205384D01*
G54D10*
X164211Y590168D02*
X168046Y590168D01*
X169342Y590600D01*
X169748Y591032D01*
X170180Y591871D01*
X170180Y592734D01*
X169748Y593597D01*
X169342Y594004D01*
X168046Y594435D01*
X164211Y594435D01*
X164211Y585495D01*
G54D10*
X167208Y590168D02*
X170180Y585495D01*
G54D10*
X232436Y282244D02*
X233248Y282651D01*
X234468Y283870D01*
X234468Y275336D01*
G54D10*
X246253Y275336D02*
X246253Y283870D01*
X243002Y275336D01*
X239750Y283870D01*
X239750Y275336D01*
G54D11*
X212750Y1434465D02*
X213436Y1434820D01*
X214452Y1435837D01*
X214452Y1428623D01*
G54D11*
X224434Y1428623D02*
X224434Y1435837D01*
X221691Y1428623D01*
X218923Y1435837D01*
X218923Y1428623D01*
G54D15*
X251968Y1511960D02*
X277368Y1511960D01*
X277368Y1473860D01*
X251968Y1473860D01*
X251968Y1511960D01*
G54D10*
X339268Y588035D02*
X339268Y594385D01*
G54D10*
X339268Y664235D02*
X339268Y670585D01*
G54D10*
X339268Y740435D02*
X339268Y746785D01*
G54D10*
X332918Y892835D02*
X332918Y899185D01*
G54D10*
X332918Y969035D02*
X332918Y975385D01*
G54D10*
X332918Y1273835D02*
X332918Y1280185D01*
G54D10*
X332918Y1197635D02*
X332918Y1203985D01*
G54D10*
X332918Y1121435D02*
X332918Y1127785D01*
G54D11*
X298399Y1435862D02*
X294945Y1435862D01*
X294614Y1432763D01*
X294945Y1433093D01*
X295986Y1433448D01*
X297028Y1433448D01*
X298044Y1433093D01*
X298730Y1432407D01*
X299085Y1431391D01*
X299085Y1430705D01*
X298730Y1429664D01*
X298044Y1428978D01*
X297028Y1428623D01*
X295986Y1428623D01*
X294945Y1428978D01*
X294614Y1429309D01*
X294259Y1430020D01*
G54D11*
X302184Y1434490D02*
X302870Y1434820D01*
X303886Y1435862D01*
X303886Y1428623D01*
G54D11*
X310769Y1435862D02*
X310083Y1435862D01*
X309042Y1435506D01*
X308356Y1434490D01*
X308026Y1432763D01*
X308026Y1431721D01*
X308356Y1430020D01*
X309042Y1428978D01*
X310083Y1428623D01*
X310769Y1428623D01*
X311810Y1428978D01*
X312496Y1430020D01*
X312826Y1431721D01*
X312826Y1432763D01*
X312496Y1434490D01*
X311810Y1435506D01*
X310769Y1435862D01*
G54D11*
X312496Y1434490D02*
X308356Y1430020D01*
G54D11*
X283845Y1590091D02*
X283490Y1590827D01*
X282778Y1591538D01*
X282042Y1591894D01*
X280594Y1591894D01*
X279883Y1591538D01*
X279172Y1590827D01*
X278790Y1590091D01*
X278434Y1589024D01*
X278434Y1587220D01*
X278790Y1586128D01*
X279172Y1585417D01*
X279883Y1584680D01*
X280594Y1584325D01*
X282042Y1584325D01*
X282778Y1584680D01*
X283490Y1585417D01*
X283845Y1586128D01*
G54D10*
X359207Y282676D02*
X363042Y282676D01*
X364338Y283108D01*
X364770Y283540D01*
X365176Y284378D01*
X365176Y285242D01*
X364770Y286080D01*
X364338Y286511D01*
X363042Y286943D01*
X359207Y286943D01*
X359207Y277977D01*
G54D10*
X362204Y282676D02*
X365176Y277977D01*
G54D10*
X507034Y206375D02*
X511506Y206375D01*
X509067Y203123D01*
X510286Y203123D01*
X511099Y202717D01*
X511506Y202311D01*
X511912Y201091D01*
X511912Y200278D01*
X511506Y199059D01*
X510692Y198246D01*
X509474Y197840D01*
X508254Y197840D01*
X507034Y198246D01*
X506628Y198653D01*
X506222Y199466D01*
G54D10*
X514756Y204343D02*
X514756Y204749D01*
X515163Y205562D01*
X515569Y205968D01*
X516382Y206375D01*
X518008Y206375D01*
X518820Y205968D01*
X519226Y205562D01*
X519633Y204749D01*
X519633Y203936D01*
X519226Y203123D01*
X518414Y201904D01*
X514350Y197840D01*
X520040Y197840D01*
G54D10*
X524104Y197840D02*
X528168Y206375D01*
X522478Y206375D01*
G54D10*
X535890Y205156D02*
X535483Y205968D01*
X534264Y206375D01*
X533450Y206375D01*
X532232Y205968D01*
X531419Y204749D01*
X531012Y202717D01*
X531012Y200685D01*
X531419Y199059D01*
X532232Y198246D01*
X533450Y197840D01*
X533857Y197840D01*
X535076Y198246D01*
X535890Y199059D01*
X536296Y200278D01*
X536296Y200685D01*
X535890Y201904D01*
X535076Y202717D01*
X533857Y203123D01*
X533450Y203123D01*
X532232Y202717D01*
X531419Y201904D01*
X531012Y200685D01*
G54D10*
X542392Y206375D02*
X540766Y206375D01*
X539546Y205968D01*
X539140Y205156D01*
X539140Y204343D01*
X539546Y203530D01*
X540360Y203123D01*
X541985Y202717D01*
X543204Y202311D01*
X544018Y201498D01*
X544424Y200685D01*
X544424Y199466D01*
X544018Y198653D01*
X543611Y198246D01*
X542392Y197840D01*
X540766Y197840D01*
X539546Y198246D01*
X539140Y198653D01*
X538734Y199466D01*
X538734Y200685D01*
X539140Y201498D01*
X539953Y202311D01*
X541172Y202717D01*
X542798Y203123D01*
X543611Y203530D01*
X544018Y204343D01*
X544018Y205156D01*
X543611Y205968D01*
X542392Y206375D01*
G54D10*
X552526Y206375D02*
X552526Y197840D01*
G54D10*
X558216Y206375D02*
X558216Y197840D01*
G54D10*
X552526Y202311D02*
X558216Y202311D01*
G54D10*
X561060Y203530D02*
X565531Y203530D01*
X561060Y197840D01*
X565531Y197840D01*
G54D11*
X531698Y1591513D02*
X534467Y1588033D01*
X534467Y1584223D01*
G54D11*
X537261Y1591513D02*
X534467Y1588033D01*
G54D11*
X539318Y1591513D02*
X543154Y1591513D01*
X541071Y1588719D01*
X542112Y1588719D01*
X542798Y1588388D01*
X543154Y1588033D01*
X543484Y1586992D01*
X543484Y1586306D01*
X543154Y1585264D01*
X542442Y1584578D01*
X541401Y1584223D01*
X540360Y1584223D01*
X539318Y1584578D01*
X538988Y1584909D01*
X538632Y1585620D01*
G54D11*
X548336Y1591513D02*
X547650Y1591513D01*
X546608Y1591157D01*
X545922Y1590116D01*
X545566Y1588388D01*
X545566Y1587348D01*
X545922Y1585620D01*
X546608Y1584578D01*
X547650Y1584223D01*
X548336Y1584223D01*
X549376Y1584578D01*
X550062Y1585620D01*
X550418Y1587348D01*
X550418Y1588388D01*
X550062Y1590116D01*
X549376Y1591157D01*
X548336Y1591513D01*
G54D11*
X550062Y1590116D02*
X545922Y1585620D01*
G54D11*
X553542Y1590116D02*
X554228Y1590471D01*
X555270Y1591513D01*
X555270Y1584223D01*
G54D11*
X562889Y1584223D02*
X562889Y1591513D01*
X559435Y1586662D01*
X564642Y1586662D01*
G54D11*
X569824Y1591513D02*
X566725Y1591513D01*
X566725Y1584223D01*
X569824Y1584223D01*
X570865Y1584578D01*
X571220Y1584909D01*
X571576Y1585620D01*
X571576Y1586662D01*
X571220Y1587348D01*
X570865Y1587703D01*
X569824Y1588033D01*
X570865Y1588388D01*
X571220Y1588719D01*
X571576Y1589430D01*
X571576Y1590116D01*
X571220Y1590802D01*
X570865Y1591157D01*
X569824Y1591513D01*
G54D11*
X566725Y1588033D02*
X569824Y1588033D01*
G54D16*
X605307Y132613D02*
X597434Y132613D01*
X597434Y119888D01*
G54D16*
X597434Y126542D02*
X602260Y126542D01*
G54D16*
X612572Y132613D02*
X608330Y132613D01*
X608330Y119888D01*
X612572Y119888D01*
X614376Y120497D01*
X615594Y121716D01*
X616204Y122910D01*
X616788Y124739D01*
X616788Y127761D01*
X616204Y129565D01*
X615594Y130784D01*
X614376Y132003D01*
X612572Y132613D01*
G54D16*
X625272Y132613D02*
X621030Y132613D01*
X621030Y119888D01*
X625272Y119888D01*
X627100Y120497D01*
X628294Y121716D01*
X628904Y122910D01*
X629514Y124739D01*
X629514Y127761D01*
X628904Y129565D01*
X628294Y130784D01*
X627100Y132003D01*
X625272Y132613D01*
G54D12*
X627914Y903681D02*
X639140Y892454D01*
G54D12*
X583032Y885723D02*
X600990Y903681D01*
G54D11*
X612826Y1285392D02*
X613537Y1285723D01*
X614578Y1286789D01*
X614578Y1279449D01*
G54D11*
X621564Y1286789D02*
X620878Y1286789D01*
X619810Y1286434D01*
X619125Y1285392D01*
X618770Y1283639D01*
X618770Y1282598D01*
X619125Y1280845D01*
X619810Y1279804D01*
X620878Y1279449D01*
X621564Y1279449D01*
X622604Y1279804D01*
X623316Y1280845D01*
X623672Y1282598D01*
X623672Y1283639D01*
X623316Y1285392D01*
X622604Y1286434D01*
X621564Y1286789D01*
G54D11*
X623316Y1285392D02*
X619125Y1280845D01*
G54D11*
X626110Y1286789D02*
X626110Y1279449D01*
G54D11*
X631012Y1286789D02*
X626110Y1281887D01*
G54D11*
X627862Y1283639D02*
X631012Y1279449D01*
G54D10*
X693140Y205104D02*
X693140Y211455D01*
G54D16*
X680364Y588238D02*
X674929Y588238D01*
X674929Y575538D01*
X680364Y575538D01*
X682168Y576148D01*
X682778Y576757D01*
X683387Y577951D01*
X683387Y579780D01*
X682778Y580974D01*
X682168Y581583D01*
X680364Y582193D01*
X682168Y582802D01*
X682778Y583387D01*
X683387Y584606D01*
X683387Y585825D01*
X682778Y587019D01*
X682168Y587629D01*
X680364Y588238D01*
G54D16*
X674929Y582193D02*
X680364Y582193D01*
G54D16*
X697280Y575538D02*
X697280Y588238D01*
X692455Y575538D01*
X687628Y588238D01*
X687628Y575538D01*
G54D16*
X710590Y585216D02*
X709981Y586410D01*
X708762Y587629D01*
X707568Y588238D01*
X705155Y588238D01*
X703936Y587629D01*
X702716Y586410D01*
X702132Y585216D01*
X701522Y583387D01*
X701522Y580365D01*
X702132Y578560D01*
X702716Y577367D01*
X703936Y576148D01*
X705155Y575538D01*
X707568Y575538D01*
X708762Y576148D01*
X709981Y577367D01*
X710590Y578560D01*
G54D16*
X682778Y551738D02*
X677952Y564413D01*
X673100Y551738D01*
G54D16*
X674929Y555955D02*
X680974Y555955D01*
G54D16*
X694258Y561390D02*
X693674Y562610D01*
X692455Y563829D01*
X691236Y564413D01*
X688822Y564413D01*
X687628Y563829D01*
X686410Y562610D01*
X685800Y561390D01*
X685190Y559587D01*
X685190Y556565D01*
X685800Y554761D01*
X686410Y553542D01*
X687628Y552323D01*
X688822Y551738D01*
X691236Y551738D01*
X692455Y552323D01*
X693674Y553542D01*
X694258Y554761D01*
G54D16*
X700913Y564413D02*
X700913Y551738D01*
G54D16*
X696696Y564413D02*
X705155Y564413D01*
G54D11*
X675589Y1581074D02*
X675589Y1588414D01*
X672110Y1583512D01*
X677342Y1583512D01*
G54D11*
X680492Y1581074D02*
X683996Y1588414D01*
X679094Y1588414D01*
G54D11*
X686435Y1585976D02*
X686435Y1582470D01*
X686790Y1581429D01*
X687502Y1581074D01*
X688544Y1581074D01*
X689229Y1581429D01*
X690296Y1582470D01*
G54D11*
X690296Y1585976D02*
X690296Y1581074D01*
G54D10*
X746710Y210185D02*
X750544Y210185D01*
X751840Y210591D01*
X752246Y211023D01*
X752678Y211886D01*
X752678Y212724D01*
X752246Y213588D01*
X751840Y214020D01*
X750544Y214452D01*
X746710Y214452D01*
X746710Y205485D01*
G54D10*
X749706Y210185D02*
X752678Y205485D01*
G54D10*
X770763Y1692046D02*
X850748Y1692046D01*
X850748Y1532052D01*
X770763Y1532052D01*
X770763Y1692046D01*
G54D10*
X845414Y284149D02*
X841680Y284149D01*
X841680Y275412D01*
X845414Y275412D01*
X846658Y275818D01*
X847090Y276250D01*
X847496Y277088D01*
X847496Y278333D01*
X847090Y279171D01*
X846658Y279578D01*
X845414Y279984D01*
X846658Y280416D01*
X847090Y280822D01*
X847496Y281660D01*
X847496Y282498D01*
X847090Y283311D01*
X846658Y283743D01*
X845414Y284149D01*
G54D10*
X841680Y279984D02*
X845414Y279984D01*
G54D10*
X853338Y284149D02*
X852500Y284149D01*
X851256Y283743D01*
X850417Y282498D01*
X850011Y280416D01*
X850011Y279171D01*
X850417Y277088D01*
X851256Y275818D01*
X852500Y275412D01*
X853338Y275412D01*
X854583Y275818D01*
X855422Y277088D01*
X855828Y279171D01*
X855828Y280416D01*
X855422Y282498D01*
X854583Y283743D01*
X853338Y284149D01*
G54D10*
X855422Y282498D02*
X850417Y277088D01*
G54D10*
X820420Y284149D02*
X816660Y284149D01*
X816660Y275412D01*
X820420Y275412D01*
X821664Y275818D01*
X822096Y276250D01*
X822502Y277088D01*
X822502Y278333D01*
X822096Y279171D01*
X821664Y279578D01*
X820420Y279984D01*
X821664Y280416D01*
X822096Y280822D01*
X822502Y281660D01*
X822502Y282498D01*
X822096Y283311D01*
X821664Y283743D01*
X820420Y284149D01*
G54D10*
X816660Y279984D02*
X820420Y279984D01*
G54D10*
X826236Y282498D02*
X827074Y282905D01*
X828320Y284149D01*
X828320Y275412D01*
G54D16*
X834492Y1290599D02*
X834492Y1280947D01*
X833908Y1279144D01*
X833298Y1278534D01*
X832078Y1277925D01*
X830885Y1277925D01*
X829666Y1278534D01*
X829056Y1279144D01*
X828472Y1280947D01*
X828472Y1282167D01*
G54D16*
X841756Y1290599D02*
X841756Y1277925D01*
G54D16*
X837514Y1290599D02*
X845972Y1290599D01*
G54D16*
X856844Y1277925D02*
X852018Y1290599D01*
X847192Y1277925D01*
G54D16*
X848995Y1282167D02*
X855040Y1282167D01*
G54D16*
X868324Y1287601D02*
X867714Y1288795D01*
X866496Y1290015D01*
X865302Y1290599D01*
X862889Y1290599D01*
X861670Y1290015D01*
X860476Y1288795D01*
X859866Y1287601D01*
X859257Y1285773D01*
X859257Y1282750D01*
X859866Y1280947D01*
X860476Y1279728D01*
X861670Y1278534D01*
X862889Y1277925D01*
X865302Y1277925D01*
X866496Y1278534D01*
X867714Y1279728D01*
X868324Y1280947D01*
X868324Y1282750D01*
X865302Y1282750D01*
G54D12*
X809142Y1361363D02*
X809142Y1351381D01*
G54D12*
X878942Y1678152D02*
X878942Y1570202D01*
X1193266Y1570202D01*
X1193266Y1678152D01*
G54D10*
X1005637Y285089D02*
X1005637Y291439D01*
G54D17*
X1108075Y216864D02*
X1108202Y219405D01*
X1108075Y221919D01*
X1107720Y224434D01*
X1107110Y226898D01*
X1106272Y229285D01*
X1105205Y231597D01*
X1103910Y233781D01*
X1102410Y235839D01*
X1100734Y237744D01*
X1098880Y239471D01*
X1096874Y240995D01*
X1094715Y242341D01*
X1092428Y243459D01*
X1090066Y244373D01*
X1087628Y245033D01*
X1085113Y245465D01*
X1082599Y245643D01*
X1080058Y245567D01*
X1077544Y245262D01*
X1075055Y244729D01*
X1072642Y243941D01*
X1070330Y242925D01*
X1068096Y241706D01*
X1066012Y240258D01*
X1064082Y238607D01*
X1062304Y236804D01*
X1060730Y234823D01*
X1059332Y232714D01*
X1058138Y230454D01*
X1057198Y228117D01*
X1056462Y225679D01*
X1055980Y223190D01*
X1055726Y220675D01*
X1055726Y218135D01*
X1055980Y215595D01*
X1056462Y213106D01*
X1057198Y210692D01*
X1058138Y208330D01*
X1059332Y206095D01*
X1060730Y203961D01*
X1062304Y201981D01*
X1064082Y200177D01*
X1066012Y198552D01*
X1068096Y197104D01*
X1070330Y195859D01*
X1072642Y194843D01*
X1075055Y194081D01*
X1077544Y193522D01*
X1080058Y193218D01*
X1082599Y193166D01*
X1085113Y193345D01*
X1087628Y193776D01*
X1090066Y194437D01*
X1092428Y195326D01*
X1094715Y196443D01*
X1096874Y197789D01*
X1098880Y199338D01*
X1100734Y201066D01*
X1102410Y202971D01*
X1103910Y205003D01*
X1105205Y207188D01*
X1106272Y209499D01*
X1107110Y211886D01*
X1107720Y214350D01*
X1108075Y216864D01*
G54D13*
X1052500Y282498D02*
X1052500Y297510D01*
G54D17*
X1170584Y216864D02*
X1170712Y219405D01*
X1170584Y221919D01*
X1170228Y224434D01*
X1169619Y226898D01*
X1168756Y229285D01*
X1167688Y231597D01*
X1166419Y233781D01*
X1164920Y235839D01*
X1163244Y237744D01*
X1161390Y239471D01*
X1159358Y240995D01*
X1157224Y242341D01*
X1154938Y243459D01*
X1152576Y244373D01*
X1150112Y245033D01*
X1147623Y245465D01*
X1145083Y245643D01*
X1142543Y245567D01*
X1140028Y245262D01*
X1137564Y244729D01*
X1135152Y243941D01*
X1132814Y242925D01*
X1130604Y241706D01*
X1128522Y240258D01*
X1126566Y238607D01*
X1124814Y236804D01*
X1123214Y234823D01*
X1121816Y232714D01*
X1120648Y230454D01*
X1119683Y228117D01*
X1118972Y225679D01*
X1118489Y223190D01*
X1118235Y220675D01*
X1118235Y218135D01*
X1118489Y215595D01*
X1118972Y213106D01*
X1119683Y210692D01*
X1120648Y208330D01*
X1121816Y206095D01*
X1123214Y203961D01*
X1124814Y201981D01*
X1126566Y200177D01*
X1128522Y198552D01*
X1130604Y197104D01*
X1132814Y195859D01*
X1135152Y194843D01*
X1137564Y194081D01*
X1140028Y193522D01*
X1142543Y193218D01*
X1145083Y193166D01*
X1147623Y193345D01*
X1150112Y193776D01*
X1152576Y194437D01*
X1154938Y195326D01*
X1157224Y196443D01*
X1159358Y197789D01*
X1161390Y199338D01*
X1163244Y201066D01*
X1164920Y202971D01*
X1166419Y205003D01*
X1167688Y207188D01*
X1168756Y209499D01*
X1169619Y211886D01*
X1170228Y214350D01*
X1170584Y216864D01*
G54D11*
X1348765Y1283487D02*
X1352016Y1283487D01*
X1353109Y1283843D01*
X1353464Y1284224D01*
X1353820Y1284935D01*
X1353820Y1285671D01*
X1353464Y1286382D01*
X1353109Y1286738D01*
X1352016Y1287094D01*
X1348765Y1287094D01*
X1348765Y1279524D01*
G54D11*
X1351306Y1283487D02*
X1353820Y1279524D01*
G54D11*
X1451686Y64236D02*
X1451686Y57022D01*
G54D11*
X1449273Y64236D02*
X1454100Y64236D01*
G54D11*
X1455471Y61849D02*
X1459256Y57022D01*
G54D11*
X1459256Y61849D02*
X1455471Y57022D01*
G54D11*
X1464056Y64236D02*
X1461643Y64236D01*
X1461643Y57022D01*
X1464056Y57022D01*
X1465097Y57378D01*
X1465784Y58064D01*
X1466113Y58750D01*
X1466469Y59792D01*
X1466469Y61493D01*
X1466113Y62535D01*
X1465784Y63220D01*
X1465097Y63906D01*
X1464056Y64236D01*
G54D11*
X1505915Y62535D02*
X1505585Y63220D01*
X1504899Y63906D01*
X1504188Y64236D01*
X1502816Y64236D01*
X1502131Y63906D01*
X1501445Y63220D01*
X1501114Y62535D01*
X1500759Y61493D01*
X1500759Y59792D01*
X1501114Y58750D01*
X1501445Y58064D01*
X1502131Y57378D01*
X1502816Y57022D01*
X1504188Y57022D01*
X1504899Y57378D01*
X1505585Y58064D01*
X1505915Y58750D01*
X1505915Y59792D01*
X1504188Y59792D01*
G54D11*
X1513128Y64236D02*
X1513128Y57022D01*
X1508328Y64236D01*
X1508328Y57022D01*
G54D11*
X1518285Y64236D02*
X1515898Y64236D01*
X1515898Y57022D01*
X1518285Y57022D01*
X1519326Y57378D01*
X1520012Y58064D01*
X1520368Y58750D01*
X1520698Y59792D01*
X1520698Y61493D01*
X1520368Y62535D01*
X1520012Y63220D01*
X1519326Y63906D01*
X1518285Y64236D01*
G54D11*
X1574190Y902487D02*
X1577442Y902487D01*
X1578534Y902843D01*
X1578889Y903224D01*
X1579245Y903935D01*
X1579245Y904671D01*
X1578889Y905382D01*
X1578534Y905738D01*
X1577442Y906094D01*
X1574190Y906094D01*
X1574190Y898524D01*
G54D11*
X1576730Y902487D02*
X1579245Y898524D01*
G54D11*
X1602791Y1124737D02*
X1606016Y1124737D01*
X1607109Y1125093D01*
X1607464Y1125474D01*
X1607820Y1126185D01*
X1607820Y1126921D01*
X1607464Y1127632D01*
X1607109Y1127988D01*
X1606016Y1128344D01*
X1602791Y1128344D01*
X1602791Y1120774D01*
G54D11*
X1605306Y1124737D02*
X1607820Y1120774D01*
G54D11*
X1589913Y1431798D02*
X1589913Y1439011D01*
X1586484Y1434211D01*
X1591640Y1434211D01*
G54D11*
X1597838Y1436623D02*
X1601622Y1431798D01*
G54D11*
X1601622Y1436623D02*
X1597838Y1431798D01*
G54D11*
X1609166Y1437640D02*
X1609852Y1437995D01*
X1610894Y1439011D01*
X1610894Y1431798D01*
G54D11*
X1619148Y1439011D02*
X1615694Y1439011D01*
X1615364Y1435938D01*
X1615694Y1436268D01*
X1616736Y1436623D01*
X1617777Y1436623D01*
X1618793Y1436268D01*
X1619479Y1435582D01*
X1619834Y1434566D01*
X1619834Y1433855D01*
X1619479Y1432839D01*
X1618793Y1432154D01*
X1617777Y1431798D01*
X1616736Y1431798D01*
X1615694Y1432154D01*
X1615364Y1432483D01*
X1615008Y1433169D01*
G54D11*
X1622247Y1439011D02*
X1622247Y1431798D01*
G54D11*
X1627048Y1439011D02*
X1622247Y1434211D01*
G54D11*
X1623949Y1435938D02*
X1627048Y1431798D01*
G54D11*
X1667586Y1502639D02*
X1663040Y1502639D01*
X1663040Y1495323D01*
G54D11*
X1663040Y1499158D02*
X1665834Y1499158D01*
G54D11*
X1669314Y1502639D02*
X1669314Y1497432D01*
X1669669Y1496390D01*
X1670354Y1495679D01*
X1671396Y1495323D01*
X1672108Y1495323D01*
X1673149Y1495679D01*
X1673834Y1496390D01*
X1674190Y1497432D01*
X1674190Y1502639D01*
G54D11*
X1681506Y1501597D02*
X1680794Y1502308D01*
X1679752Y1502639D01*
X1678356Y1502639D01*
X1677314Y1502308D01*
X1676628Y1501597D01*
X1676628Y1500911D01*
X1676984Y1500200D01*
X1677314Y1499869D01*
X1678026Y1499514D01*
X1680108Y1498828D01*
X1680794Y1498472D01*
X1681150Y1498117D01*
X1681506Y1497432D01*
X1681506Y1496390D01*
X1680794Y1495679D01*
X1679752Y1495323D01*
X1678356Y1495323D01*
X1677314Y1495679D01*
X1676628Y1496390D01*
G54D11*
X1688465Y1502639D02*
X1683944Y1502639D01*
X1683944Y1495323D01*
X1688465Y1495323D01*
G54D11*
X1683944Y1499158D02*
X1686712Y1499158D01*
G54D10*
X67818Y129235D02*
X67818Y256235D01*
G54D16*
X88418Y1422755D02*
X88418Y1417345D01*
X89002Y1415541D01*
X89611Y1414957D01*
X90805Y1414348D01*
X92024Y1414348D01*
X93218Y1414957D01*
X93828Y1415541D01*
X94412Y1417345D01*
X94412Y1422755D01*
X81814Y1422755D01*
G54D16*
X88418Y1418539D02*
X81814Y1414348D01*
G54D16*
X94412Y1402334D02*
X94412Y1410157D01*
X81814Y1410157D01*
X81814Y1402334D01*
G54D16*
X88418Y1410157D02*
X88418Y1405356D01*
G54D16*
X91414Y1390345D02*
X92608Y1390929D01*
X93828Y1392148D01*
X94412Y1393342D01*
X94412Y1395755D01*
X93828Y1396948D01*
X92608Y1398142D01*
X91414Y1398753D01*
X89611Y1399337D01*
X86614Y1399337D01*
X84810Y1398753D01*
X83617Y1398142D01*
X82423Y1396948D01*
X81814Y1395755D01*
X81814Y1393342D01*
X82423Y1392148D01*
X83617Y1390929D01*
X84810Y1390345D01*
G54D16*
X94412Y1380744D02*
X94412Y1383131D01*
X93828Y1384350D01*
X92608Y1385544D01*
X91414Y1386128D01*
X89611Y1386738D01*
X86614Y1386738D01*
X84810Y1386128D01*
X83617Y1385544D01*
X82423Y1384350D01*
X81814Y1383131D01*
X81814Y1380744D01*
X82423Y1379550D01*
X83617Y1378330D01*
X84810Y1377746D01*
X86614Y1377137D01*
X89611Y1377137D01*
X91414Y1377746D01*
X92608Y1378330D01*
X93828Y1379550D01*
X94412Y1380744D01*
G54D16*
X94412Y1364539D02*
X81814Y1364539D01*
X94412Y1372946D01*
X81814Y1372946D01*
G54D16*
X94412Y1351940D02*
X94412Y1359738D01*
X81814Y1359738D01*
G54D16*
X88418Y1359738D02*
X88418Y1354937D01*
G54D17*
X29718Y1340510D02*
X131318Y1340510D01*
X131318Y492785D01*
X29718Y492785D01*
X29718Y1340510D01*
G54D12*
X850011Y1110005D02*
X1080008Y1110005D01*
X1080008Y880008D01*
X850011Y880008D01*
X850011Y1110005D01*
G54D17*
X1448943Y1505610D02*
X1537843Y1505610D01*
X1537843Y95910D01*
X1448943Y95910D01*
X1448943Y1505610D01*
G54D10*
X272262Y234061D02*
X265913Y234061D01*
G54D10*
X346278Y280924D02*
X352628Y280924D01*
G54D10*
X337007Y315442D02*
X337846Y315849D01*
X339090Y317119D01*
X339090Y308356D01*
G54D10*
X344500Y317119D02*
X344500Y308356D01*
G54D10*
X350317Y317119D02*
X344500Y311276D01*
G54D10*
X346583Y313360D02*
X350317Y308356D01*
G54D17*
X142545Y421132D02*
X140005Y421259D01*
X137465Y421132D01*
X134950Y420750D01*
X132512Y420141D01*
X130099Y419303D01*
X127813Y418236D01*
X125628Y416966D01*
X123571Y415468D01*
X121666Y413791D01*
X119939Y411937D01*
X118390Y409905D01*
X117068Y407746D01*
X115951Y405486D01*
X115036Y403097D01*
X114376Y400659D01*
X113944Y398170D01*
X113767Y395630D01*
X113817Y393090D01*
X114122Y390576D01*
X114681Y388112D01*
X115468Y385698D01*
X116484Y383362D01*
X117704Y381152D01*
X119151Y379070D01*
X120777Y377113D01*
X122606Y375361D01*
X124587Y373761D01*
X126695Y372364D01*
X128956Y371195D01*
X131292Y370230D01*
X133731Y369519D01*
X136220Y369011D01*
X138735Y368782D01*
X141275Y368782D01*
X143789Y369011D01*
X146278Y369519D01*
X148717Y370230D01*
X151079Y371195D01*
X153314Y372364D01*
X155423Y373761D01*
X157404Y375361D01*
X159233Y377113D01*
X160858Y379070D01*
X162306Y381152D01*
X163525Y383362D01*
X164541Y385698D01*
X165329Y388112D01*
X165887Y390576D01*
X166192Y393090D01*
X166243Y395630D01*
X166065Y398170D01*
X165634Y400659D01*
X164973Y403097D01*
X164058Y405486D01*
X162941Y407746D01*
X161620Y409905D01*
X160071Y411937D01*
X158344Y413791D01*
X156439Y415468D01*
X154381Y416966D01*
X152197Y418236D01*
X149910Y419303D01*
X147523Y420141D01*
X145060Y420750D01*
X142545Y421132D01*
G54D16*
X169926Y407847D02*
X175362Y407847D01*
X177165Y408431D01*
X177775Y409042D01*
X178384Y410261D01*
X178384Y412064D01*
X177775Y413283D01*
X177165Y413892D01*
X175362Y414476D01*
X169926Y414476D01*
X169926Y401802D01*
G54D16*
X182626Y414476D02*
X182626Y401802D01*
G54D16*
X191084Y414476D02*
X191084Y401802D01*
G54D16*
X182626Y408431D02*
X191084Y408431D01*
G54D16*
X194107Y414476D02*
X198933Y408431D01*
X198933Y401802D01*
G54D16*
X203784Y414476D02*
X198933Y408431D01*
G54D16*
X169926Y384022D02*
X175362Y384022D01*
X177165Y384631D01*
X177775Y385242D01*
X178384Y386435D01*
X178384Y388264D01*
X177775Y389458D01*
X177165Y390067D01*
X175362Y390677D01*
X169926Y390677D01*
X169926Y377977D01*
G54D16*
X181407Y390677D02*
X184429Y377977D01*
X187452Y390677D01*
X190474Y377977D01*
X193497Y390677D01*
G54D16*
X197130Y384631D02*
X202565Y384631D01*
X204368Y385242D01*
X204978Y385826D01*
X205588Y387045D01*
X205588Y388264D01*
X204978Y389458D01*
X204368Y390067D01*
X202565Y390677D01*
X197130Y390677D01*
X197130Y377977D01*
G54D16*
X201346Y384631D02*
X205588Y377977D01*
G54D10*
X192481Y572414D02*
X193319Y572820D01*
X194539Y574065D01*
X194539Y565378D01*
G54D10*
X202819Y574065D02*
X201981Y574065D01*
X200762Y573659D01*
X199924Y572414D01*
X199517Y570356D01*
X199517Y569112D01*
X199924Y567054D01*
X200762Y565810D01*
X201981Y565378D01*
X202819Y565378D01*
X204064Y565810D01*
X204876Y567054D01*
X205308Y569112D01*
X205308Y570356D01*
X204876Y572414D01*
X204064Y573659D01*
X202819Y574065D01*
G54D10*
X204876Y572414D02*
X199924Y567054D01*
G54D10*
X208178Y571169D02*
X208178Y567054D01*
X208610Y565810D01*
X209423Y565378D01*
X210668Y565378D01*
X211506Y565810D01*
X212725Y567054D01*
G54D10*
X212725Y571169D02*
X212725Y565378D01*
G54D11*
X164770Y1451712D02*
X168554Y1451712D01*
X166497Y1448968D01*
X167513Y1448968D01*
X168224Y1448638D01*
X168554Y1448282D01*
X168910Y1447266D01*
X168910Y1446555D01*
X168554Y1445539D01*
X167869Y1444853D01*
X166827Y1444498D01*
X165811Y1444498D01*
X164770Y1444853D01*
X164440Y1445184D01*
X164084Y1445869D01*
G54D11*
X171983Y1444853D02*
X171654Y1445184D01*
X171298Y1444853D01*
X171654Y1444498D01*
X171983Y1444853D01*
G54D11*
X178537Y1451712D02*
X175082Y1451712D01*
X174752Y1448638D01*
X175082Y1448968D01*
X176124Y1449323D01*
X177140Y1449323D01*
X178181Y1448968D01*
X178867Y1448282D01*
X179222Y1447266D01*
X179222Y1446555D01*
X178867Y1445539D01*
X178181Y1444853D01*
X177140Y1444498D01*
X176124Y1444498D01*
X175082Y1444853D01*
X174752Y1445184D01*
X174396Y1445869D01*
G54D11*
X184378Y1451712D02*
X182982Y1451712D01*
X181966Y1451381D01*
X181610Y1450695D01*
X181610Y1450009D01*
X181966Y1449323D01*
X182651Y1448968D01*
X184023Y1448638D01*
X185064Y1448282D01*
X185750Y1447596D01*
X186080Y1446910D01*
X186080Y1445869D01*
X185750Y1445184D01*
X185395Y1444853D01*
X184378Y1444498D01*
X182982Y1444498D01*
X181966Y1444853D01*
X181610Y1445184D01*
X181280Y1445869D01*
X181280Y1446910D01*
X181610Y1447596D01*
X182296Y1448282D01*
X183337Y1448638D01*
X184709Y1448968D01*
X185395Y1449323D01*
X185750Y1450009D01*
X185750Y1450695D01*
X185395Y1451381D01*
X184378Y1451712D01*
G54D11*
X198450Y1444498D02*
X198450Y1451712D01*
X195707Y1444498D01*
X192964Y1451712D01*
X192964Y1444498D01*
G54D11*
X201219Y1451712D02*
X201219Y1444498D01*
G54D11*
X206020Y1451712D02*
X206020Y1444498D01*
G54D11*
X201219Y1448282D02*
X206020Y1448282D01*
G54D11*
X208432Y1449323D02*
X212217Y1449323D01*
X208432Y1444498D01*
X212217Y1444498D01*
G54D11*
X269926Y1466367D02*
X270637Y1466697D01*
X271678Y1467764D01*
X271678Y1460423D01*
G54D11*
X278664Y1467764D02*
X277978Y1467764D01*
X276910Y1467408D01*
X276225Y1466367D01*
X275870Y1464615D01*
X275870Y1463573D01*
X276225Y1461820D01*
X276910Y1460779D01*
X277978Y1460423D01*
X278664Y1460423D01*
X279705Y1460779D01*
X280416Y1461820D01*
X280772Y1463573D01*
X280772Y1464615D01*
X280416Y1466367D01*
X279705Y1467408D01*
X278664Y1467764D01*
G54D11*
X280416Y1466367D02*
X276225Y1461820D01*
G54D11*
X283210Y1467764D02*
X283210Y1460423D01*
G54D11*
X288112Y1467764D02*
X283210Y1462862D01*
G54D11*
X284962Y1464615D02*
X288112Y1460423D01*
G54D11*
X118237Y1470939D02*
X118237Y1463598D01*
G54D11*
X115773Y1470939D02*
X120676Y1470939D01*
G54D11*
X122072Y1470939D02*
X126975Y1463598D01*
G54D11*
X126975Y1470939D02*
X122072Y1463598D01*
G54D11*
X131877Y1470939D02*
X129438Y1470939D01*
X129438Y1463598D01*
X131877Y1463598D01*
X132918Y1463954D01*
X133629Y1464640D01*
X133985Y1465351D01*
X134340Y1466393D01*
X134340Y1468145D01*
X133985Y1469186D01*
X133629Y1469897D01*
X132918Y1470583D01*
X131877Y1470939D01*
G54D11*
X257226Y1523517D02*
X257937Y1523873D01*
X258978Y1524914D01*
X258978Y1517574D01*
G54D11*
X265964Y1524914D02*
X265278Y1524914D01*
X264211Y1524559D01*
X263525Y1523517D01*
X263170Y1521764D01*
X263170Y1520723D01*
X263525Y1518970D01*
X264211Y1517929D01*
X265278Y1517574D01*
X265964Y1517574D01*
X267005Y1517929D01*
X267716Y1518970D01*
X268072Y1520723D01*
X268072Y1521764D01*
X267716Y1523517D01*
X267005Y1524559D01*
X265964Y1524914D01*
G54D11*
X267716Y1523517D02*
X263525Y1518970D01*
G54D11*
X270510Y1524914D02*
X270510Y1517574D01*
G54D11*
X275412Y1524914D02*
X270510Y1520012D01*
G54D11*
X272262Y1521764D02*
X275412Y1517574D01*
G54D12*
X345644Y1573301D02*
X374218Y1573301D01*
G54D11*
X116840Y1530933D02*
X119990Y1530933D01*
X121031Y1531289D01*
X121387Y1531645D01*
X121717Y1532356D01*
X121717Y1533042D01*
X121387Y1533753D01*
X121031Y1534083D01*
X119990Y1534439D01*
X116840Y1534439D01*
X116840Y1527098D01*
G54D11*
X119278Y1530933D02*
X121717Y1527098D01*
G54D11*
X125578Y1534439D02*
X125578Y1527098D01*
G54D11*
X123139Y1534439D02*
X128016Y1534439D01*
G54D11*
X134315Y1533397D02*
X133629Y1534083D01*
X132562Y1534439D01*
X131166Y1534439D01*
X130124Y1534083D01*
X129438Y1533397D01*
X129438Y1532686D01*
X129769Y1532000D01*
X130124Y1531645D01*
X130836Y1531289D01*
X132918Y1530604D01*
X133629Y1530248D01*
X133985Y1529893D01*
X134315Y1529207D01*
X134315Y1528140D01*
X133629Y1527454D01*
X132562Y1527098D01*
X131166Y1527098D01*
X130124Y1527454D01*
X129438Y1528140D01*
G54D11*
X307213Y1530070D02*
X307213Y1523873D01*
G54D11*
X304140Y1526971D02*
X310312Y1526971D01*
G54D11*
X316840Y1531087D02*
X313411Y1531087D01*
X313080Y1528013D01*
X313411Y1528343D01*
X314452Y1528698D01*
X315468Y1528698D01*
X316510Y1528343D01*
X317196Y1527657D01*
X317526Y1526641D01*
X317526Y1525930D01*
X317196Y1524914D01*
X316510Y1524228D01*
X315468Y1523873D01*
X314452Y1523873D01*
X313411Y1524228D01*
X313080Y1524559D01*
X312725Y1525244D01*
G54D11*
X318922Y1531087D02*
X321666Y1523873D01*
X324408Y1531087D01*
G54D11*
X330606Y1531087D02*
X330606Y1525930D01*
X330937Y1524914D01*
X331622Y1524228D01*
X332664Y1523873D01*
X333350Y1523873D01*
X334391Y1524228D01*
X335076Y1524914D01*
X335407Y1525930D01*
X335407Y1531087D01*
G54D11*
X342620Y1530070D02*
X341934Y1530756D01*
X340919Y1531087D01*
X339547Y1531087D01*
X338506Y1530756D01*
X337820Y1530070D01*
X337820Y1529384D01*
X338150Y1528698D01*
X338506Y1528343D01*
X339192Y1528013D01*
X341249Y1527327D01*
X341934Y1526971D01*
X342290Y1526641D01*
X342620Y1525930D01*
X342620Y1524914D01*
X341934Y1524228D01*
X340919Y1523873D01*
X339547Y1523873D01*
X338506Y1524228D01*
X337820Y1524914D01*
G54D11*
X348132Y1531087D02*
X345034Y1531087D01*
X345034Y1523873D01*
X348132Y1523873D01*
X349174Y1524228D01*
X349504Y1524559D01*
X349860Y1525244D01*
X349860Y1526285D01*
X349504Y1526971D01*
X349174Y1527327D01*
X348132Y1527657D01*
X349174Y1528013D01*
X349504Y1528343D01*
X349860Y1529029D01*
X349860Y1529715D01*
X349504Y1530401D01*
X349174Y1530756D01*
X348132Y1531087D01*
G54D11*
X345034Y1527657D02*
X348132Y1527657D01*
G54D12*
X332943Y1678076D02*
X358343Y1678076D01*
G54D16*
X94514Y1677593D02*
X93929Y1678813D01*
X92710Y1680007D01*
X91516Y1680616D01*
X89103Y1680616D01*
X87884Y1680007D01*
X86690Y1678813D01*
X86081Y1677593D01*
X85496Y1675790D01*
X85496Y1672793D01*
X86081Y1670990D01*
X86690Y1669770D01*
X87884Y1668576D01*
X89103Y1667967D01*
X91516Y1667967D01*
X92710Y1668576D01*
X93929Y1669770D01*
X94514Y1670990D01*
G54D16*
X104165Y1680616D02*
X101752Y1680616D01*
X100533Y1680007D01*
X99339Y1678813D01*
X98730Y1677593D01*
X98146Y1675790D01*
X98146Y1672793D01*
X98730Y1670990D01*
X99339Y1669770D01*
X100533Y1668576D01*
X101752Y1667967D01*
X104165Y1667967D01*
X105359Y1668576D01*
X106553Y1669770D01*
X107163Y1670990D01*
X107772Y1672793D01*
X107772Y1675790D01*
X107163Y1677593D01*
X106553Y1678813D01*
X105359Y1680007D01*
X104165Y1680616D01*
G54D16*
X121615Y1667967D02*
X121615Y1680616D01*
X116815Y1667967D01*
X111989Y1680616D01*
X111989Y1667967D01*
G54D16*
X127635Y1678203D02*
X128854Y1678813D01*
X130658Y1680616D01*
X130658Y1667967D01*
G54D17*
X427532Y203632D02*
X424992Y203759D01*
X422478Y203632D01*
X419964Y203250D01*
X417500Y202641D01*
X415112Y201802D01*
X412801Y200736D01*
X410616Y199466D01*
X408559Y197967D01*
X406680Y196291D01*
X404952Y194437D01*
X403403Y192405D01*
X402056Y190246D01*
X400939Y187985D01*
X400050Y185597D01*
X399364Y183159D01*
X398958Y180670D01*
X398754Y178129D01*
X398831Y175590D01*
X399136Y173075D01*
X399669Y170611D01*
X400456Y168199D01*
X401472Y165862D01*
X402717Y163652D01*
X404139Y161569D01*
X405790Y159613D01*
X407594Y157860D01*
X409575Y156261D01*
X411708Y154863D01*
X413944Y153695D01*
X416280Y152730D01*
X418719Y152019D01*
X421208Y151511D01*
X423748Y151282D01*
X426263Y151282D01*
X428803Y151511D01*
X431292Y152019D01*
X433730Y152730D01*
X436067Y153695D01*
X438302Y154863D01*
X440436Y156261D01*
X442418Y157860D01*
X444220Y159613D01*
X445872Y161569D01*
X447294Y163652D01*
X448538Y165862D01*
X449554Y168199D01*
X450342Y170611D01*
X450875Y173075D01*
X451180Y175590D01*
X451256Y178129D01*
X451053Y180670D01*
X450646Y183159D01*
X449961Y185597D01*
X449072Y187985D01*
X447954Y190246D01*
X446608Y192405D01*
X445058Y194437D01*
X443332Y196291D01*
X441452Y197967D01*
X439395Y199466D01*
X437210Y200736D01*
X434899Y201802D01*
X432511Y202641D01*
X430048Y203250D01*
X427532Y203632D01*
G54D16*
X430276Y543661D02*
X424892Y543661D01*
X424892Y531088D01*
X430276Y531088D01*
X432080Y531698D01*
X432689Y532282D01*
X433273Y533476D01*
X433273Y535279D01*
X432689Y536473D01*
X432080Y537082D01*
X430276Y537667D01*
X432080Y538276D01*
X432689Y538860D01*
X433273Y540054D01*
X433273Y541274D01*
X432689Y542468D01*
X432080Y543052D01*
X430276Y543661D01*
G54D16*
X424892Y537667D02*
X430276Y537667D01*
G54D16*
X447040Y531088D02*
X447040Y543661D01*
X442240Y531088D01*
X437464Y543661D01*
X437464Y531088D01*
G54D16*
X460198Y540664D02*
X459613Y541858D01*
X458420Y543052D01*
X457200Y543661D01*
X454812Y543661D01*
X453619Y543052D01*
X452424Y541858D01*
X451815Y540664D01*
X451231Y538860D01*
X451231Y535889D01*
X451815Y534085D01*
X452424Y532892D01*
X453619Y531698D01*
X454812Y531088D01*
X457200Y531088D01*
X458420Y531698D01*
X459613Y532892D01*
X460198Y534085D01*
G54D16*
X472161Y543661D02*
X472161Y534670D01*
X472770Y532892D01*
X473964Y531698D01*
X475768Y531088D01*
X476962Y531088D01*
X478740Y531698D01*
X479958Y532892D01*
X480542Y534670D01*
X480542Y543661D01*
G54D16*
X485343Y537082D02*
X490728Y537082D01*
X492506Y537667D01*
X493116Y538276D01*
X493700Y539470D01*
X493700Y541274D01*
X493116Y542468D01*
X492506Y543052D01*
X490728Y543661D01*
X485343Y543661D01*
X485343Y531088D01*
G54D16*
X502082Y543661D02*
X497891Y543661D01*
X497891Y531088D01*
X502082Y531088D01*
X503885Y531698D01*
X505079Y532892D01*
X505689Y534085D01*
X506273Y535889D01*
X506273Y538860D01*
X505689Y540664D01*
X505079Y541858D01*
X503885Y543052D01*
X502082Y543661D01*
G54D16*
X518236Y531088D02*
X513461Y543661D01*
X508660Y531088D01*
G54D16*
X510464Y535279D02*
X516458Y535279D01*
G54D16*
X523621Y543661D02*
X523621Y531088D01*
G54D16*
X519430Y543661D02*
X527812Y543661D01*
G54D16*
X538582Y543661D02*
X530810Y543661D01*
X530810Y531088D01*
X538582Y531088D01*
G54D16*
X530810Y537667D02*
X535584Y537667D01*
G54D10*
X657174Y618718D02*
X650824Y618718D01*
G54D10*
X630072Y928827D02*
X629488Y928243D01*
X628904Y927074D01*
X629184Y925626D01*
X630352Y923899D01*
X631240Y923010D01*
X632968Y921867D01*
X634416Y921563D01*
X635584Y922147D01*
X636168Y922731D01*
X636752Y923899D01*
X636448Y925347D01*
X635305Y927074D01*
X634416Y927963D01*
X632689Y929106D01*
X631240Y929411D01*
X630072Y928827D01*
G54D10*
X632689Y929106D02*
X632968Y921867D01*
G54D10*
X640232Y927379D02*
X639648Y927379D01*
X639648Y926795D01*
X640232Y926795D01*
X640232Y927379D01*
G54D10*
X638785Y937539D02*
X638200Y936955D01*
X637616Y935812D01*
X637921Y934339D01*
X639064Y932611D01*
X639953Y931722D01*
X641680Y930580D01*
X643128Y930274D01*
X644296Y930859D01*
X644881Y931443D01*
X645464Y932611D01*
X645186Y934059D01*
X644017Y935812D01*
X643128Y936675D01*
X641401Y937844D01*
X639953Y938123D01*
X638785Y937539D01*
G54D10*
X641401Y937844D02*
X641680Y930580D01*
G54D10*
X644296Y940740D02*
X644602Y941603D01*
X644602Y943356D01*
X650698Y937259D01*
G54D10*
X650392Y945108D02*
X653314Y942187D01*
X654482Y941603D01*
X655346Y941907D01*
X656209Y942772D01*
X656514Y943635D01*
X656514Y945388D01*
G54D10*
X653593Y948283D02*
X657656Y944219D01*
G54D10*
X577824Y1085164D02*
X582295Y1085164D01*
X579856Y1081912D01*
X581076Y1081912D01*
X581888Y1081506D01*
X582295Y1081099D01*
X582702Y1079881D01*
X582702Y1079068D01*
X582295Y1077849D01*
X581482Y1077036D01*
X580263Y1076630D01*
X579044Y1076630D01*
X577824Y1077036D01*
X577418Y1077442D01*
X577012Y1078255D01*
G54D10*
X585952Y1085164D02*
X590423Y1085164D01*
X587984Y1081912D01*
X589204Y1081912D01*
X590016Y1081506D01*
X590423Y1081099D01*
X590830Y1079881D01*
X590830Y1079068D01*
X590423Y1077849D01*
X589610Y1077036D01*
X588391Y1076630D01*
X587172Y1076630D01*
X585952Y1077036D01*
X585546Y1077442D01*
X585140Y1078255D01*
G54D16*
X516077Y1344016D02*
X520878Y1331391D01*
X525678Y1344016D01*
G54D16*
X534086Y1344016D02*
X531698Y1344016D01*
X530479Y1343405D01*
X529285Y1342211D01*
X528676Y1341018D01*
X528092Y1339215D01*
X528092Y1336218D01*
X528676Y1334414D01*
X529285Y1333195D01*
X530479Y1332001D01*
X531698Y1331391D01*
X534086Y1331391D01*
X535280Y1332001D01*
X536499Y1333195D01*
X537083Y1334414D01*
X537692Y1336218D01*
X537692Y1339215D01*
X537083Y1341018D01*
X536499Y1342211D01*
X535280Y1343405D01*
X534086Y1344016D01*
G54D16*
X541884Y1344016D02*
X541884Y1331391D01*
X549098Y1331391D01*
G54D16*
X552094Y1344016D02*
X552094Y1334998D01*
X552704Y1333195D01*
X553898Y1332001D01*
X555701Y1331391D01*
X556895Y1331391D01*
X558698Y1332001D01*
X559892Y1333195D01*
X560502Y1334998D01*
X560502Y1344016D01*
G54D16*
X574904Y1331391D02*
X574904Y1344016D01*
X570103Y1331391D01*
X565302Y1344016D01*
X565302Y1331391D01*
G54D16*
X587502Y1344016D02*
X579704Y1344016D01*
X579704Y1331391D01*
X587502Y1331391D01*
G54D16*
X579704Y1337996D02*
X584504Y1337996D01*
G54D11*
X650215Y1401038D02*
X650215Y1393723D01*
X654406Y1393723D01*
G54D11*
X656488Y1401038D02*
X660324Y1401038D01*
X658241Y1398270D01*
X659282Y1398270D01*
X659968Y1397914D01*
X660324Y1397559D01*
X660680Y1396517D01*
X660680Y1395831D01*
X660324Y1394790D01*
X659638Y1394078D01*
X658572Y1393723D01*
X657530Y1393723D01*
X656488Y1394078D01*
X656132Y1394434D01*
X655802Y1395120D01*
G54D11*
X665886Y1401038D02*
X664515Y1401038D01*
X663448Y1400708D01*
X663118Y1399997D01*
X663118Y1399311D01*
X663448Y1398599D01*
X664159Y1398270D01*
X665556Y1397914D01*
X666598Y1397559D01*
X667284Y1396873D01*
X667639Y1396162D01*
X667639Y1395120D01*
X667284Y1394434D01*
X666928Y1394078D01*
X665886Y1393723D01*
X664515Y1393723D01*
X663448Y1394078D01*
X663118Y1394434D01*
X662762Y1395120D01*
X662762Y1396162D01*
X663118Y1396873D01*
X663804Y1397559D01*
X664845Y1397914D01*
X666242Y1398270D01*
X666928Y1398599D01*
X667284Y1399311D01*
X667284Y1399997D01*
X666928Y1400708D01*
X665886Y1401038D01*
G54D11*
X674243Y1399997D02*
X673913Y1400708D01*
X672872Y1401038D01*
X672160Y1401038D01*
X671118Y1400708D01*
X670433Y1399666D01*
X670078Y1397914D01*
X670078Y1396162D01*
X670433Y1394790D01*
X671118Y1394078D01*
X672160Y1393723D01*
X672516Y1393723D01*
X673558Y1394078D01*
X674243Y1394790D01*
X674598Y1395831D01*
X674598Y1396162D01*
X674243Y1397228D01*
X673558Y1397914D01*
X672516Y1398270D01*
X672160Y1398270D01*
X671118Y1397914D01*
X670433Y1397228D01*
X670078Y1396162D01*
G54D11*
X429895Y1520240D02*
X429540Y1520977D01*
X428828Y1521688D01*
X428092Y1522043D01*
X426644Y1522043D01*
X425932Y1521688D01*
X425222Y1520977D01*
X424840Y1520240D01*
X424485Y1519174D01*
X424485Y1517370D01*
X424840Y1516278D01*
X425222Y1515567D01*
X425932Y1514830D01*
X426644Y1514474D01*
X428092Y1514474D01*
X428828Y1514830D01*
X429540Y1515567D01*
X429895Y1516278D01*
G54D10*
X493471Y1617547D02*
X497306Y1617547D01*
X498602Y1617954D01*
X499008Y1618386D01*
X499440Y1619250D01*
X499440Y1620088D01*
X499008Y1620951D01*
X498602Y1621383D01*
X497306Y1621815D01*
X493471Y1621815D01*
X493471Y1612849D01*
G54D10*
X496468Y1617547D02*
X499440Y1612849D01*
G54D12*
X393268Y1678076D02*
X437718Y1678076D01*
G54D16*
X506730Y1678889D02*
X505511Y1680082D01*
X503682Y1680692D01*
X501269Y1680692D01*
X499466Y1680082D01*
X498246Y1678889D01*
X498246Y1677670D01*
X498856Y1676451D01*
X499466Y1675866D01*
X500660Y1675257D01*
X504292Y1674037D01*
X505511Y1673428D01*
X506120Y1672818D01*
X506730Y1671624D01*
X506730Y1669795D01*
X505511Y1668601D01*
X503682Y1667992D01*
X501269Y1667992D01*
X499466Y1668601D01*
X498246Y1669795D01*
G54D16*
X515188Y1680692D02*
X510946Y1680692D01*
X510946Y1667992D01*
X515188Y1667992D01*
X517017Y1668601D01*
X518211Y1669795D01*
X518820Y1671015D01*
X519430Y1672818D01*
X519430Y1675866D01*
X518820Y1677670D01*
X518211Y1678889D01*
X517017Y1680082D01*
X515188Y1680692D01*
G54D16*
X523672Y1677670D02*
X523672Y1678279D01*
X524282Y1679498D01*
X524866Y1680082D01*
X526085Y1680692D01*
X528498Y1680692D01*
X529717Y1680082D01*
X530327Y1679498D01*
X530936Y1678279D01*
X530936Y1677060D01*
X530327Y1675866D01*
X529108Y1674037D01*
X523062Y1667992D01*
X531546Y1667992D01*
G54D11*
X883488Y21945D02*
X883488Y15748D01*
G54D11*
X880389Y18846D02*
X886587Y18846D01*
G54D11*
X889686Y22962D02*
X893445Y22962D01*
X891388Y20218D01*
X892429Y20218D01*
X893114Y19888D01*
X893445Y19532D01*
X893800Y18516D01*
X893800Y17805D01*
X893445Y16789D01*
X892759Y16103D01*
X891743Y15748D01*
X890702Y15748D01*
X889686Y16103D01*
X889330Y16434D01*
X888974Y17119D01*
G54D11*
X896900Y16103D02*
X896544Y16434D01*
X896214Y16103D01*
X896544Y15748D01*
X896900Y16103D01*
G54D11*
X899998Y22962D02*
X903758Y22962D01*
X901700Y20218D01*
X902742Y20218D01*
X903427Y19888D01*
X903758Y19532D01*
X904113Y18516D01*
X904113Y17805D01*
X903758Y16789D01*
X903072Y16103D01*
X902056Y15748D01*
X901014Y15748D01*
X899998Y16103D01*
X899642Y16434D01*
X899287Y17119D01*
G54D11*
X905484Y22962D02*
X908228Y15748D01*
X910996Y22962D01*
G54D12*
X821842Y37718D02*
X796442Y37718D01*
G54D12*
X761518Y37718D02*
X717068Y37718D01*
G54D11*
X883488Y167995D02*
X883488Y161798D01*
G54D11*
X880389Y164897D02*
X886587Y164897D01*
G54D11*
X889686Y169011D02*
X893445Y169011D01*
X891388Y166268D01*
X892429Y166268D01*
X893114Y165938D01*
X893445Y165582D01*
X893800Y164566D01*
X893800Y163855D01*
X893445Y162839D01*
X892759Y162154D01*
X891743Y161798D01*
X890702Y161798D01*
X889686Y162154D01*
X889330Y162483D01*
X888974Y163169D01*
G54D11*
X896900Y162154D02*
X896544Y162483D01*
X896214Y162154D01*
X896544Y161798D01*
X896900Y162154D01*
G54D11*
X899998Y169011D02*
X903758Y169011D01*
X901700Y166268D01*
X902742Y166268D01*
X903427Y165938D01*
X903758Y165582D01*
X904113Y164566D01*
X904113Y163855D01*
X903758Y162839D01*
X903072Y162154D01*
X902056Y161798D01*
X901014Y161798D01*
X899998Y162154D01*
X899642Y162483D01*
X899287Y163169D01*
G54D11*
X905484Y169011D02*
X908228Y161798D01*
X910996Y169011D01*
G54D12*
X809142Y142494D02*
X780568Y142494D01*
G54D10*
X728446Y169748D02*
X728446Y163398D01*
G54D10*
X730174Y182321D02*
X729768Y183159D01*
X728904Y184022D01*
X728040Y184429D01*
X726338Y184429D01*
X725500Y184022D01*
X724636Y183159D01*
X724205Y182321D01*
X723773Y181026D01*
X723773Y178892D01*
X724205Y177622D01*
X724636Y176758D01*
X725500Y175920D01*
X726338Y175488D01*
X728040Y175488D01*
X728904Y175920D01*
X729768Y176758D01*
X730174Y177622D01*
G54D16*
X792784Y164541D02*
X791591Y165735D01*
X789762Y166344D01*
X787350Y166344D01*
X785520Y165735D01*
X784327Y164541D01*
X784327Y163321D01*
X784936Y162102D01*
X785520Y161518D01*
X786740Y160909D01*
X790372Y159690D01*
X791591Y159080D01*
X792201Y158470D01*
X792784Y157276D01*
X792784Y155448D01*
X791591Y154254D01*
X789762Y153644D01*
X787350Y153644D01*
X785520Y154254D01*
X784327Y155448D01*
G54D16*
X801268Y166344D02*
X797026Y166344D01*
X797026Y153644D01*
X801268Y153644D01*
X803072Y154254D01*
X804291Y155448D01*
X804900Y156667D01*
X805510Y158470D01*
X805510Y161518D01*
X804900Y163321D01*
X804291Y164541D01*
X803072Y165735D01*
X801268Y166344D01*
G54D16*
X810946Y163932D02*
X812165Y164541D01*
X813968Y166344D01*
X813968Y153644D01*
G54D16*
X870331Y264439D02*
X870331Y253619D01*
G54D16*
X864920Y259029D02*
X875742Y259029D01*
G54D16*
X881152Y266242D02*
X887780Y266242D01*
X884174Y261442D01*
X885978Y261442D01*
X887172Y260832D01*
X887780Y260222D01*
X888390Y258419D01*
X888390Y257225D01*
X887780Y255422D01*
X886562Y254228D01*
X884758Y253619D01*
X882955Y253619D01*
X881152Y254228D01*
X880567Y254813D01*
X879958Y256032D01*
G54D16*
X893800Y254228D02*
X893191Y254813D01*
X892582Y254228D01*
X893191Y253619D01*
X893800Y254228D01*
G54D16*
X899211Y266242D02*
X905840Y266242D01*
X902208Y261442D01*
X904012Y261442D01*
X905230Y260832D01*
X905840Y260222D01*
X906424Y258419D01*
X906424Y257225D01*
X905840Y255422D01*
X904621Y254228D01*
X902818Y253619D01*
X901014Y253619D01*
X899211Y254228D01*
X898602Y254813D01*
X898017Y256032D01*
G54D16*
X908838Y266242D02*
X913664Y253619D01*
X918464Y266242D01*
G54D16*
X940232Y264287D02*
X940232Y253568D01*
G54D16*
X934898Y258927D02*
X945591Y258927D01*
G54D16*
X956920Y266065D02*
X950951Y266065D01*
X950366Y260705D01*
X950951Y261315D01*
X952754Y261899D01*
X954532Y261899D01*
X956310Y261315D01*
X957504Y260121D01*
X958113Y258343D01*
X958113Y257149D01*
X957504Y255346D01*
X956310Y254152D01*
X954532Y253568D01*
X952754Y253568D01*
X950951Y254152D01*
X950366Y254761D01*
X949756Y255955D01*
G54D16*
X960476Y266065D02*
X965251Y253568D01*
X970000Y266065D01*
G54D13*
X948766Y333375D02*
X961466Y333375D01*
G54D13*
X948766Y330200D02*
X961466Y330200D01*
G54D11*
X799338Y1339570D02*
X799338Y1333373D01*
G54D11*
X796264Y1336471D02*
X802436Y1336471D01*
G54D11*
X805206Y1338884D02*
X805206Y1339215D01*
X805536Y1339901D01*
X805892Y1340256D01*
X806577Y1340587D01*
X807948Y1340587D01*
X808634Y1340256D01*
X808965Y1339901D01*
X809320Y1339215D01*
X809320Y1338529D01*
X808965Y1337843D01*
X808279Y1336827D01*
X804850Y1333373D01*
X809650Y1333373D01*
G54D11*
X812749Y1333728D02*
X812419Y1334059D01*
X812064Y1333728D01*
X812419Y1333373D01*
X812749Y1333728D01*
G54D11*
X819277Y1340587D02*
X815848Y1340587D01*
X815518Y1337513D01*
X815848Y1337843D01*
X816889Y1338198D01*
X817905Y1338198D01*
X818947Y1337843D01*
X819633Y1337157D01*
X819962Y1336141D01*
X819962Y1335430D01*
X819633Y1334414D01*
X818947Y1333728D01*
X817905Y1333373D01*
X816889Y1333373D01*
X815848Y1333728D01*
X815518Y1334059D01*
X815162Y1334744D01*
G54D11*
X821360Y1340587D02*
X824103Y1333373D01*
X826846Y1340587D01*
G54D16*
X940562Y1378839D02*
X940562Y1379449D01*
X941172Y1380667D01*
X941782Y1381277D01*
X943000Y1381861D01*
X945414Y1381861D01*
X946607Y1381277D01*
X947217Y1380667D01*
X947826Y1379449D01*
X947826Y1378255D01*
X947217Y1377035D01*
X945998Y1375232D01*
X939978Y1369187D01*
X948436Y1369187D01*
G54D16*
X953872Y1369796D02*
X953262Y1370380D01*
X952652Y1369796D01*
X953262Y1369187D01*
X953872Y1369796D01*
G54D16*
X965352Y1381861D02*
X959308Y1381861D01*
X958698Y1376425D01*
X959308Y1377035D01*
X961110Y1377644D01*
X962940Y1377644D01*
X964742Y1377035D01*
X965937Y1375816D01*
X966546Y1374013D01*
X966546Y1372819D01*
X965937Y1370990D01*
X964742Y1369796D01*
X962940Y1369187D01*
X961110Y1369187D01*
X959308Y1369796D01*
X958698Y1370380D01*
X958088Y1371599D01*
G54D16*
X968960Y1381861D02*
X973810Y1369187D01*
X978636Y1381861D01*
G54D12*
X806222Y1405611D02*
X796240Y1405611D01*
G54D11*
X730301Y1412392D02*
X731012Y1412748D01*
X732054Y1413789D01*
X732054Y1406449D01*
G54D11*
X739038Y1413789D02*
X738352Y1413789D01*
X737286Y1413434D01*
X736600Y1412392D01*
X736244Y1410639D01*
X736244Y1409598D01*
X736600Y1407845D01*
X737286Y1406804D01*
X738352Y1406449D01*
X739038Y1406449D01*
X740105Y1406804D01*
X740791Y1407845D01*
X741147Y1409598D01*
X741147Y1410639D01*
X740791Y1412392D01*
X740105Y1413434D01*
X739038Y1413789D01*
G54D11*
X740791Y1412392D02*
X736600Y1407845D01*
G54D11*
X743585Y1411351D02*
X743585Y1407845D01*
X743940Y1406804D01*
X744652Y1406449D01*
X745693Y1406449D01*
X746379Y1406804D01*
X747446Y1407845D01*
G54D11*
X747446Y1411351D02*
X747446Y1406449D01*
G54D11*
X807288Y1368298D02*
X807288Y1375511D01*
X803859Y1370711D01*
X809015Y1370711D01*
G54D11*
X812088Y1368298D02*
X815544Y1375511D01*
X810717Y1375511D01*
G54D11*
X803300Y1447164D02*
X803986Y1447520D01*
X805002Y1448536D01*
X805002Y1441323D01*
G54D11*
X813257Y1448536D02*
X809828Y1448536D01*
X809472Y1445463D01*
X809828Y1445793D01*
X810844Y1446149D01*
X811886Y1446149D01*
X812927Y1445793D01*
X813613Y1445107D01*
X813943Y1444091D01*
X813943Y1443380D01*
X813613Y1442364D01*
X812927Y1441678D01*
X811886Y1441323D01*
X810844Y1441323D01*
X809828Y1441678D01*
X809472Y1442009D01*
X809142Y1442695D01*
G54D11*
X818769Y1448536D02*
X818083Y1448536D01*
X817042Y1448206D01*
X816356Y1447164D01*
X816000Y1445463D01*
X816000Y1444421D01*
X816356Y1442695D01*
X817042Y1441678D01*
X818083Y1441323D01*
X818769Y1441323D01*
X819785Y1441678D01*
X820471Y1442695D01*
X820826Y1444421D01*
X820826Y1445463D01*
X820471Y1447164D01*
X819785Y1448206D01*
X818769Y1448536D01*
G54D11*
X820471Y1447164D02*
X816356Y1442695D01*
G54D11*
X869899Y1448562D02*
X866445Y1448562D01*
X866114Y1445463D01*
X866445Y1445793D01*
X867486Y1446149D01*
X868528Y1446149D01*
X869544Y1445793D01*
X870230Y1445107D01*
X870585Y1444091D01*
X870585Y1443406D01*
X870230Y1442364D01*
X869544Y1441678D01*
X868528Y1441323D01*
X867486Y1441323D01*
X866445Y1441678D01*
X866114Y1442009D01*
X865759Y1442720D01*
G54D11*
X873684Y1447190D02*
X874370Y1447520D01*
X875386Y1448562D01*
X875386Y1441323D01*
G54D11*
X882269Y1448562D02*
X881583Y1448562D01*
X880542Y1448206D01*
X879856Y1447190D01*
X879526Y1445463D01*
X879526Y1444421D01*
X879856Y1442720D01*
X880542Y1441678D01*
X881583Y1441323D01*
X882269Y1441323D01*
X883310Y1441678D01*
X883996Y1442720D01*
X884326Y1444421D01*
X884326Y1445463D01*
X883996Y1447190D01*
X883310Y1448206D01*
X882269Y1448562D01*
G54D11*
X883996Y1447190D02*
X879856Y1442720D01*
G54D11*
X958546Y1448688D02*
X962381Y1448688D01*
X960298Y1445895D01*
X961339Y1445895D01*
X962025Y1445539D01*
X962381Y1445209D01*
X962736Y1444142D01*
X962736Y1443456D01*
X962381Y1442415D01*
X961695Y1441703D01*
X960628Y1441373D01*
X959586Y1441373D01*
X958546Y1441703D01*
X958190Y1442059D01*
X957860Y1442745D01*
G54D11*
X965860Y1441703D02*
X965530Y1442059D01*
X965175Y1441703D01*
X965530Y1441373D01*
X965860Y1441703D01*
G54D11*
X972490Y1447647D02*
X972846Y1446251D01*
X972490Y1445209D01*
X971804Y1444498D01*
X970762Y1444142D01*
X970407Y1444142D01*
X969366Y1444498D01*
X968654Y1445209D01*
X968298Y1446251D01*
X968298Y1446580D01*
X968654Y1447647D01*
X969366Y1448333D01*
X970407Y1448688D01*
X970762Y1448688D01*
X971804Y1448333D01*
X972490Y1447647D01*
G54D11*
X972846Y1446251D02*
X972846Y1444498D01*
X972490Y1442745D01*
X971804Y1441703D01*
X970762Y1441373D01*
X970052Y1441373D01*
X969010Y1441703D01*
X968654Y1442415D01*
G54D11*
X975639Y1448688D02*
X975639Y1441373D01*
G54D11*
X980516Y1448688D02*
X975639Y1443812D01*
G54D11*
X977366Y1445539D02*
X980516Y1441373D01*
G54D16*
X792404Y1515567D02*
X787603Y1528216D01*
X782777Y1515567D01*
G54D16*
X784580Y1519783D02*
X790600Y1519783D01*
G54D16*
X795426Y1528216D02*
X795426Y1519174D01*
X796036Y1517370D01*
X797230Y1516177D01*
X799034Y1515567D01*
X800227Y1515567D01*
X802056Y1516177D01*
X803250Y1517370D01*
X803859Y1519174D01*
X803859Y1528216D01*
G54D16*
X812876Y1528216D02*
X808660Y1528216D01*
X808660Y1515567D01*
X812876Y1515567D01*
X814680Y1516177D01*
X815899Y1517370D01*
X816483Y1518564D01*
X817092Y1520392D01*
X817092Y1523390D01*
X816483Y1525193D01*
X815899Y1526412D01*
X814680Y1527606D01*
X812876Y1528216D01*
G54D16*
X821309Y1528216D02*
X821309Y1515567D01*
G54D16*
X831546Y1528216D02*
X829132Y1528216D01*
X827938Y1527606D01*
X826719Y1526412D01*
X826110Y1525193D01*
X825526Y1523390D01*
X825526Y1520392D01*
X826110Y1518564D01*
X826719Y1517370D01*
X827938Y1516177D01*
X829132Y1515567D01*
X831546Y1515567D01*
X832739Y1516177D01*
X833958Y1517370D01*
X834542Y1518564D01*
X835152Y1520392D01*
X835152Y1523390D01*
X834542Y1525193D01*
X833958Y1526412D01*
X832739Y1527606D01*
X831546Y1528216D01*
G54D11*
X720776Y1552092D02*
X721487Y1552422D01*
X722528Y1553489D01*
X722528Y1546149D01*
G54D11*
X730910Y1553489D02*
X727406Y1553489D01*
X727075Y1550339D01*
X727406Y1550695D01*
X728472Y1551025D01*
X729514Y1551025D01*
X730555Y1550695D01*
X731266Y1549984D01*
X731622Y1548942D01*
X731622Y1548231D01*
X731266Y1547190D01*
X730555Y1546504D01*
X729514Y1546149D01*
X728472Y1546149D01*
X727406Y1546504D01*
X727075Y1546835D01*
X726720Y1547546D01*
G54D11*
X734060Y1553489D02*
X734060Y1546149D01*
G54D11*
X738962Y1553489D02*
X734060Y1548586D01*
G54D11*
X735813Y1550339D02*
X738962Y1546149D01*
G54D11*
X707364Y1685061D02*
X707364Y1685391D01*
X707720Y1686102D01*
X708076Y1686458D01*
X708762Y1686788D01*
X710159Y1686788D01*
X710844Y1686458D01*
X711200Y1686102D01*
X711556Y1685391D01*
X711556Y1684705D01*
X711200Y1684020D01*
X710514Y1682978D01*
X707034Y1679473D01*
X711911Y1679473D01*
G54D11*
X714324Y1685061D02*
X714324Y1685391D01*
X714680Y1686102D01*
X715036Y1686458D01*
X715721Y1686788D01*
X717118Y1686788D01*
X717830Y1686458D01*
X718160Y1686102D01*
X718516Y1685391D01*
X718516Y1684705D01*
X718160Y1684020D01*
X717474Y1682978D01*
X713994Y1679473D01*
X718871Y1679473D01*
G54D11*
X723748Y1686788D02*
X723036Y1686788D01*
X721995Y1686458D01*
X721310Y1685391D01*
X720954Y1683664D01*
X720954Y1682623D01*
X721310Y1680870D01*
X721995Y1679828D01*
X723036Y1679473D01*
X723748Y1679473D01*
X724789Y1679828D01*
X725475Y1680870D01*
X725830Y1682623D01*
X725830Y1683664D01*
X725475Y1685391D01*
X724789Y1686458D01*
X723748Y1686788D01*
G54D11*
X725475Y1685391D02*
X721310Y1680870D01*
G54D11*
X728268Y1684349D02*
X728268Y1680870D01*
X728599Y1679828D01*
X729310Y1679473D01*
X730352Y1679473D01*
X731038Y1679828D01*
X732104Y1680870D01*
G54D11*
X732104Y1684349D02*
X732104Y1679473D01*
G54D11*
X1264488Y21945D02*
X1264488Y15748D01*
G54D11*
X1261389Y18846D02*
X1267587Y18846D01*
G54D11*
X1274114Y22962D02*
X1270686Y22962D01*
X1270330Y19888D01*
X1270686Y20218D01*
X1271702Y20573D01*
X1272743Y20573D01*
X1273759Y20218D01*
X1274445Y19532D01*
X1274800Y18516D01*
X1274800Y17805D01*
X1274445Y16789D01*
X1273759Y16103D01*
X1272743Y15748D01*
X1271702Y15748D01*
X1270686Y16103D01*
X1270330Y16434D01*
X1269974Y17119D01*
G54D11*
X1276172Y22962D02*
X1278916Y15748D01*
X1281684Y22962D01*
G54D11*
X1016914Y23114D02*
X1015518Y23114D01*
X1014806Y22783D01*
X1014120Y22072D01*
X1013765Y21386D01*
X1013409Y20319D01*
X1013409Y18593D01*
X1013765Y17526D01*
X1014120Y16840D01*
X1014806Y16129D01*
X1015518Y15798D01*
X1016914Y15798D01*
X1017600Y16129D01*
X1018312Y16840D01*
X1018642Y17526D01*
X1018997Y18593D01*
X1018997Y20319D01*
X1018642Y21386D01*
X1018312Y22072D01*
X1017600Y22783D01*
X1016914Y23114D01*
G54D11*
X1026338Y23114D02*
X1026338Y15798D01*
X1021436Y23114D01*
X1021436Y15798D01*
G54D11*
X1031570Y24511D02*
X1029132Y13360D01*
G54D11*
X1033653Y24511D02*
X1031215Y13360D01*
G54D11*
X1029132Y19990D02*
X1034008Y19990D01*
G54D11*
X1028776Y17881D02*
X1033653Y17881D01*
G54D11*
X1101116Y13563D02*
X1100760Y14249D01*
X1100074Y14935D01*
X1099388Y15265D01*
X1098016Y15265D01*
X1097331Y14935D01*
X1096645Y14249D01*
X1096290Y13563D01*
X1095960Y12522D01*
X1095960Y10795D01*
X1096290Y9778D01*
X1096645Y9093D01*
X1097331Y8407D01*
X1098016Y8052D01*
X1099388Y8052D01*
X1100074Y8407D01*
X1100760Y9093D01*
X1101116Y9778D01*
X1101116Y10795D01*
X1099388Y10795D01*
G54D11*
X1108329Y15265D02*
X1108329Y8052D01*
X1103503Y15265D01*
X1103503Y8052D01*
G54D11*
X1113485Y15265D02*
X1111072Y15265D01*
X1111072Y8052D01*
X1113485Y8052D01*
X1114502Y8407D01*
X1115187Y9093D01*
X1115542Y9778D01*
X1115898Y10795D01*
X1115898Y12522D01*
X1115542Y13563D01*
X1115187Y14249D01*
X1114502Y14935D01*
X1113485Y15265D01*
G54D11*
X1099388Y167995D02*
X1099388Y161798D01*
G54D11*
X1096290Y164897D02*
X1102487Y164897D01*
G54D11*
X1109015Y169011D02*
X1105586Y169011D01*
X1105230Y165938D01*
X1105586Y166268D01*
X1106602Y166623D01*
X1107644Y166623D01*
X1108659Y166268D01*
X1109345Y165582D01*
X1109701Y164566D01*
X1109701Y163855D01*
X1109345Y162839D01*
X1108659Y162154D01*
X1107644Y161798D01*
X1106602Y161798D01*
X1105586Y162154D01*
X1105230Y162483D01*
X1104874Y163169D01*
G54D11*
X1111072Y169011D02*
X1113816Y161798D01*
X1116584Y169011D01*
G54D11*
X1183666Y167309D02*
X1183310Y167995D01*
X1182624Y168681D01*
X1181938Y169011D01*
X1180566Y169011D01*
X1179880Y168681D01*
X1179195Y167995D01*
X1178840Y167309D01*
X1178509Y166268D01*
X1178509Y164566D01*
X1178840Y163525D01*
X1179195Y162839D01*
X1179880Y162154D01*
X1180566Y161798D01*
X1181938Y161798D01*
X1182624Y162154D01*
X1183310Y162839D01*
X1183666Y163525D01*
X1183666Y164566D01*
X1181938Y164566D01*
G54D11*
X1189152Y169011D02*
X1187780Y169011D01*
X1187094Y168681D01*
X1186409Y167995D01*
X1186053Y167309D01*
X1185723Y166268D01*
X1185723Y164566D01*
X1186053Y163525D01*
X1186409Y162839D01*
X1187094Y162154D01*
X1187780Y161798D01*
X1189152Y161798D01*
X1189838Y162154D01*
X1190524Y162839D01*
X1190879Y163525D01*
X1191210Y164566D01*
X1191210Y166268D01*
X1190879Y167309D01*
X1190524Y167995D01*
X1189838Y168681D01*
X1189152Y169011D01*
G54D11*
X1196721Y169011D02*
X1195349Y169011D01*
X1194664Y168681D01*
X1193978Y167995D01*
X1193622Y167309D01*
X1193292Y166268D01*
X1193292Y164566D01*
X1193622Y163525D01*
X1193978Y162839D01*
X1194664Y162154D01*
X1195349Y161798D01*
X1196721Y161798D01*
X1197406Y162154D01*
X1198092Y162839D01*
X1198448Y163525D01*
X1198778Y164566D01*
X1198778Y166268D01*
X1198448Y167309D01*
X1198092Y167995D01*
X1197406Y168681D01*
X1196721Y169011D01*
G54D11*
X1203604Y169011D02*
X1201192Y169011D01*
X1201192Y161798D01*
X1203604Y161798D01*
X1204620Y162154D01*
X1205306Y162839D01*
X1205662Y163525D01*
X1205992Y164566D01*
X1205992Y166268D01*
X1205662Y167309D01*
X1205306Y167995D01*
X1204620Y168681D01*
X1203604Y169011D01*
G54D11*
X1264488Y167995D02*
X1264488Y161798D01*
G54D11*
X1261389Y164897D02*
X1267587Y164897D01*
G54D11*
X1271016Y167640D02*
X1271702Y167995D01*
X1272743Y169011D01*
X1272743Y161798D01*
G54D11*
X1277214Y167309D02*
X1277214Y167640D01*
X1277544Y168326D01*
X1277900Y168681D01*
X1278586Y169011D01*
X1279957Y169011D01*
X1280642Y168681D01*
X1280998Y168326D01*
X1281328Y167640D01*
X1281328Y166954D01*
X1280998Y166268D01*
X1280287Y165252D01*
X1276858Y161798D01*
X1281684Y161798D01*
G54D11*
X1283056Y169011D02*
X1285798Y161798D01*
X1288542Y169011D01*
G54D16*
X1055167Y178587D02*
X1050392Y191134D01*
X1045591Y178587D01*
G54D16*
X1047394Y182752D02*
X1053363Y182752D01*
G54D16*
X1060526Y191134D02*
X1060526Y178587D01*
G54D16*
X1056360Y191134D02*
X1064717Y191134D01*
G54D16*
X1067104Y191134D02*
X1075462Y178587D01*
G54D16*
X1075462Y191134D02*
X1067104Y178587D01*
G54D16*
X1087424Y184556D02*
X1092784Y184556D01*
X1094588Y185166D01*
X1095172Y185750D01*
X1095782Y186944D01*
X1095782Y188747D01*
X1095172Y189941D01*
X1094588Y190525D01*
X1092784Y191134D01*
X1087424Y191134D01*
X1087424Y178587D01*
G54D16*
X1105332Y191134D02*
X1102944Y191134D01*
X1101750Y190525D01*
X1100556Y189331D01*
X1099972Y188138D01*
X1099363Y186360D01*
X1099363Y183363D01*
X1099972Y181558D01*
X1100556Y180365D01*
X1101750Y179171D01*
X1102944Y178587D01*
X1105332Y178587D01*
X1106526Y179171D01*
X1107720Y180365D01*
X1108329Y181558D01*
X1108913Y183363D01*
X1108913Y186360D01*
X1108329Y188138D01*
X1107720Y189331D01*
X1106526Y190525D01*
X1105332Y191134D01*
G54D16*
X1111910Y191134D02*
X1114908Y178587D01*
X1117880Y191134D01*
X1120876Y178587D01*
X1123848Y191134D01*
G54D16*
X1135202Y191134D02*
X1127430Y191134D01*
X1127430Y178587D01*
X1135202Y178587D01*
G54D16*
X1127430Y185166D02*
X1132230Y185166D01*
G54D16*
X1138784Y185166D02*
X1144168Y185166D01*
X1145972Y185750D01*
X1146556Y186360D01*
X1147166Y187553D01*
X1147166Y188747D01*
X1146556Y189941D01*
X1145972Y190525D01*
X1144168Y191134D01*
X1138784Y191134D01*
X1138784Y178587D01*
G54D16*
X1142974Y185166D02*
X1147166Y178587D01*
G54D16*
X1159104Y188138D02*
X1159104Y188747D01*
X1159688Y189941D01*
X1160298Y190525D01*
X1161492Y191134D01*
X1163878Y191134D01*
X1165072Y190525D01*
X1165682Y189941D01*
X1166266Y188747D01*
X1166266Y187553D01*
X1165682Y186360D01*
X1164488Y184556D01*
X1158494Y178587D01*
X1166876Y178587D01*
G54D16*
X1176426Y178587D02*
X1176426Y191134D01*
X1170458Y182752D01*
X1179424Y182752D01*
G54D16*
X1190752Y184556D02*
X1196137Y184556D01*
X1197940Y185166D01*
X1198524Y185750D01*
X1199134Y186944D01*
X1199134Y188747D01*
X1198524Y189941D01*
X1197940Y190525D01*
X1196137Y191134D01*
X1190752Y191134D01*
X1190752Y178587D01*
G54D16*
X1203300Y191134D02*
X1203300Y178587D01*
G54D16*
X1216457Y191134D02*
X1216457Y178587D01*
X1208074Y191134D01*
X1208074Y178587D01*
G54D16*
X1065326Y264464D02*
X1065326Y253619D01*
G54D16*
X1059916Y259054D02*
X1070762Y259054D01*
G54D16*
X1076782Y263855D02*
X1078001Y264464D01*
X1079805Y266267D01*
X1079805Y253619D01*
G54D16*
X1087628Y263271D02*
X1087628Y263855D01*
X1088238Y265074D01*
X1088822Y265658D01*
X1090041Y266267D01*
X1092454Y266267D01*
X1093648Y265658D01*
X1094258Y265074D01*
X1094867Y263855D01*
X1094867Y262661D01*
X1094258Y261442D01*
X1093064Y259638D01*
X1087018Y253619D01*
X1095451Y253619D01*
G54D16*
X1097864Y266267D02*
X1102690Y253619D01*
X1107516Y266267D01*
G54D13*
X1251254Y1330198D02*
X1263955Y1330198D01*
G54D13*
X1251254Y1333373D02*
X1263955Y1333373D01*
G54D16*
X1103605Y1378763D02*
X1104798Y1379372D01*
X1106602Y1381175D01*
X1106602Y1368602D01*
G54D16*
X1115568Y1369187D02*
X1114984Y1369796D01*
X1114374Y1369187D01*
X1114984Y1368602D01*
X1115568Y1369187D01*
G54D16*
X1120369Y1378178D02*
X1120369Y1378763D01*
X1120953Y1379981D01*
X1121562Y1380566D01*
X1122756Y1381175D01*
X1125170Y1381175D01*
X1126363Y1380566D01*
X1126948Y1379981D01*
X1127557Y1378763D01*
X1127557Y1377569D01*
X1126948Y1376375D01*
X1125754Y1374572D01*
X1119759Y1368602D01*
X1128141Y1368602D01*
G54D16*
X1130554Y1381175D02*
X1135329Y1368602D01*
X1140130Y1381175D01*
G54D16*
X1155090Y1383563D02*
X1153897Y1382369D01*
X1152703Y1380566D01*
X1151509Y1378178D01*
X1150900Y1375181D01*
X1150900Y1372794D01*
X1151509Y1369796D01*
X1152703Y1367409D01*
X1153897Y1365605D01*
X1155090Y1364412D01*
G54D16*
X1159282Y1381175D02*
X1159282Y1368602D01*
G54D16*
X1167664Y1381175D02*
X1167664Y1368602D01*
G54D16*
X1159282Y1375181D02*
X1167664Y1375181D01*
G54D16*
X1177849Y1381175D02*
X1175462Y1381175D01*
X1174268Y1380566D01*
X1173074Y1379372D01*
X1172464Y1378178D01*
X1171880Y1376375D01*
X1171880Y1373377D01*
X1172464Y1371599D01*
X1173074Y1370380D01*
X1174268Y1369187D01*
X1175462Y1368602D01*
X1177849Y1368602D01*
X1179042Y1369187D01*
X1180262Y1370380D01*
X1180846Y1371599D01*
X1181456Y1373377D01*
X1181456Y1376375D01*
X1180846Y1378178D01*
X1180262Y1379372D01*
X1179042Y1380566D01*
X1177849Y1381175D01*
G54D16*
X1188034Y1381175D02*
X1188034Y1368602D01*
G54D16*
X1183843Y1381175D02*
X1192226Y1381175D01*
G54D16*
X1194613Y1383563D02*
X1195832Y1382369D01*
X1197026Y1380566D01*
X1198220Y1378178D01*
X1198804Y1375181D01*
X1198804Y1372794D01*
X1198220Y1369796D01*
X1197026Y1367409D01*
X1195832Y1365605D01*
X1194613Y1364412D01*
G54D12*
X1029843Y1481784D02*
X1036193Y1481784D01*
G54D11*
X1028776Y1447368D02*
X1029462Y1447723D01*
X1030529Y1448790D01*
X1030529Y1441399D01*
G54D11*
X1035100Y1448790D02*
X1035100Y1441399D01*
G54D11*
X1040054Y1448790D02*
X1035100Y1443862D01*
G54D11*
X1036878Y1445615D02*
X1040054Y1441399D01*
G54D11*
X1085546Y1448688D02*
X1089381Y1448688D01*
X1087298Y1445895D01*
X1088339Y1445895D01*
X1089025Y1445539D01*
X1089381Y1445209D01*
X1089736Y1444142D01*
X1089736Y1443456D01*
X1089381Y1442415D01*
X1088695Y1441703D01*
X1087628Y1441373D01*
X1086586Y1441373D01*
X1085546Y1441703D01*
X1085190Y1442059D01*
X1084860Y1442745D01*
G54D11*
X1092860Y1441703D02*
X1092530Y1442059D01*
X1092175Y1441703D01*
X1092530Y1441373D01*
X1092860Y1441703D01*
G54D11*
X1099490Y1447647D02*
X1099846Y1446251D01*
X1099490Y1445209D01*
X1098804Y1444498D01*
X1097762Y1444142D01*
X1097407Y1444142D01*
X1096366Y1444498D01*
X1095654Y1445209D01*
X1095298Y1446251D01*
X1095298Y1446580D01*
X1095654Y1447647D01*
X1096366Y1448333D01*
X1097407Y1448688D01*
X1097762Y1448688D01*
X1098804Y1448333D01*
X1099490Y1447647D01*
G54D11*
X1099846Y1446251D02*
X1099846Y1444498D01*
X1099490Y1442745D01*
X1098804Y1441703D01*
X1097762Y1441373D01*
X1097052Y1441373D01*
X1096010Y1441703D01*
X1095654Y1442415D01*
G54D11*
X1102639Y1448688D02*
X1102639Y1441373D01*
G54D11*
X1107516Y1448688D02*
X1102639Y1443812D01*
G54D11*
X1104366Y1445539D02*
X1107516Y1441373D01*
G54D11*
X1186815Y1447037D02*
X1186815Y1447368D01*
X1187170Y1448079D01*
X1187526Y1448435D01*
X1188212Y1448790D01*
X1189634Y1448790D01*
X1190346Y1448435D01*
X1190701Y1448079D01*
X1191032Y1447368D01*
X1191032Y1446682D01*
X1190701Y1445971D01*
X1189990Y1444904D01*
X1186459Y1441399D01*
X1191387Y1441399D01*
G54D11*
X1193850Y1448790D02*
X1193850Y1441399D01*
G54D11*
X1198804Y1448790D02*
X1193850Y1443862D01*
G54D11*
X1195628Y1445615D02*
X1198804Y1441399D01*
G54D16*
X1157427Y1560067D02*
X1162278Y1547342D01*
X1167130Y1560067D01*
G54D16*
X1178636Y1557045D02*
X1178026Y1558239D01*
X1176833Y1559458D01*
X1175614Y1560067D01*
X1173201Y1560067D01*
X1171982Y1559458D01*
X1170762Y1558239D01*
X1170152Y1557045D01*
X1169543Y1555216D01*
X1169543Y1552194D01*
X1170152Y1550364D01*
X1170762Y1549171D01*
X1171982Y1547952D01*
X1173201Y1547342D01*
X1175614Y1547342D01*
X1176833Y1547952D01*
X1178026Y1549171D01*
X1178636Y1550364D01*
X1178636Y1552194D01*
X1175614Y1552194D01*
G54D16*
X1190752Y1547342D02*
X1185926Y1560067D01*
X1181074Y1547342D01*
G54D16*
X1182878Y1551584D02*
X1188948Y1551584D01*
G54D12*
X1568222Y900735D02*
X1558240Y900735D01*
G54D12*
X1565046Y1123035D02*
X1555064Y1123035D01*
G54D12*
X1565046Y1056309D02*
X1555064Y1056309D01*
G54D11*
X1316863Y1412595D02*
X1316863Y1406397D01*
G54D11*
X1313790Y1409496D02*
X1319962Y1409496D01*
G54D11*
X1323416Y1412239D02*
X1324102Y1412595D01*
X1325118Y1413611D01*
X1325118Y1406397D01*
G54D11*
X1330274Y1406753D02*
X1329944Y1407083D01*
X1329588Y1406753D01*
X1329944Y1406397D01*
X1330274Y1406753D01*
G54D11*
X1333043Y1411910D02*
X1333043Y1412239D01*
X1333373Y1412925D01*
X1333729Y1413281D01*
X1334414Y1413611D01*
X1335786Y1413611D01*
X1336472Y1413281D01*
X1336802Y1412925D01*
X1337158Y1412239D01*
X1337158Y1411554D01*
X1336802Y1410868D01*
X1336116Y1409852D01*
X1332687Y1406397D01*
X1337488Y1406397D01*
G54D11*
X1338885Y1413611D02*
X1341628Y1406397D01*
X1344371Y1413611D01*
G54D11*
X1310513Y1450847D02*
X1310513Y1458061D01*
X1307084Y1453261D01*
X1312240Y1453261D01*
G54D11*
X1318438Y1455674D02*
X1322222Y1450847D01*
G54D11*
X1322222Y1455674D02*
X1318438Y1450847D01*
G54D11*
X1329766Y1456690D02*
X1330452Y1457046D01*
X1331494Y1458061D01*
X1331494Y1450847D01*
G54D11*
X1339748Y1458061D02*
X1336294Y1458061D01*
X1335964Y1454988D01*
X1336294Y1455318D01*
X1337335Y1455674D01*
X1338377Y1455674D01*
X1339392Y1455318D01*
X1340078Y1454632D01*
X1340434Y1453616D01*
X1340434Y1452905D01*
X1340078Y1451889D01*
X1339392Y1451203D01*
X1338377Y1450847D01*
X1337335Y1450847D01*
X1336294Y1451203D01*
X1335964Y1451533D01*
X1335608Y1452219D01*
G54D11*
X1342848Y1458061D02*
X1342848Y1450847D01*
G54D11*
X1347648Y1458061D02*
X1342848Y1453261D01*
G54D11*
X1344549Y1454988D02*
X1347648Y1450847D01*
G54D12*
X1420012Y1510004D02*
X1410004Y1510004D01*
G54D16*
X29794Y253821D02*
X29794Y248437D01*
X30378Y246634D01*
X30988Y246024D01*
X32182Y245440D01*
X33985Y245440D01*
X35179Y246024D01*
X35789Y246634D01*
X36398Y248437D01*
X36398Y253821D01*
X23774Y253821D01*
G54D16*
X36398Y242442D02*
X23774Y239420D01*
X36398Y236422D01*
X23774Y233425D01*
X36398Y230429D01*
G54D16*
X30378Y226821D02*
X30378Y221412D01*
X30988Y219634D01*
X31598Y219024D01*
X32792Y218414D01*
X33985Y218414D01*
X35179Y219024D01*
X35789Y219634D01*
X36398Y221412D01*
X36398Y226821D01*
X23774Y226821D01*
G54D16*
X30378Y222631D02*
X23774Y218414D01*
G54D16*
X36398Y214223D02*
X23774Y214223D01*
X23774Y207009D01*
G54D16*
X36398Y196215D02*
X36398Y204013D01*
X23774Y204013D01*
X23774Y196215D01*
G54D16*
X30378Y204013D02*
X30378Y199211D01*
G54D16*
X36398Y188417D02*
X36398Y192608D01*
X23774Y192608D01*
X23774Y188417D01*
X24384Y186613D01*
X25578Y185420D01*
X26797Y184810D01*
X28600Y184201D01*
X31598Y184201D01*
X33401Y184810D01*
X34595Y185420D01*
X35789Y186613D01*
X36398Y188417D01*
G54D16*
X210210Y133705D02*
X202413Y133705D01*
X202413Y121107D01*
G54D16*
X202413Y127711D02*
X207213Y127711D01*
G54D16*
X217399Y133705D02*
X213208Y133705D01*
X213208Y121107D01*
X217399Y121107D01*
X219202Y121691D01*
X220396Y122910D01*
X221006Y124104D01*
X221615Y125908D01*
X221615Y128905D01*
X221006Y130708D01*
X220396Y131902D01*
X219202Y133095D01*
X217399Y133705D01*
G54D16*
X229997Y133705D02*
X225806Y133705D01*
X225806Y121107D01*
X229997Y121107D01*
X231800Y121691D01*
X232994Y122910D01*
X233604Y124104D01*
X234214Y125908D01*
X234214Y128905D01*
X233604Y130708D01*
X232994Y131902D01*
X231800Y133095D01*
X229997Y133705D01*
G54D16*
X246202Y133705D02*
X246202Y121107D01*
X253390Y121107D01*
G54D16*
X264186Y133705D02*
X256388Y133705D01*
X256388Y121107D01*
X264186Y121107D01*
G54D16*
X256388Y127711D02*
X261188Y127711D01*
G54D16*
X272009Y133705D02*
X267792Y133705D01*
X267792Y121107D01*
X272009Y121107D01*
X273787Y121691D01*
X275006Y122910D01*
X275590Y124104D01*
X276200Y125908D01*
X276200Y128905D01*
X275590Y130708D01*
X275006Y131902D01*
X273787Y133095D01*
X272009Y133705D01*
G54D16*
X112598Y263347D02*
X99974Y263347D01*
G54D16*
X112598Y254965D02*
X99974Y254965D01*
G54D16*
X106578Y263347D02*
X106578Y254965D01*
G54D16*
X112598Y245948D02*
X112598Y250164D01*
X99974Y250164D01*
X99974Y245948D01*
X100584Y244145D01*
X101778Y242951D01*
X102997Y242341D01*
X104800Y241756D01*
X107798Y241756D01*
X109601Y242341D01*
X110795Y242951D01*
X111989Y244145D01*
X112598Y245948D01*
G54D16*
X112598Y233350D02*
X112598Y237541D01*
X99974Y237541D01*
X99974Y233350D01*
X100584Y231546D01*
X101778Y230352D01*
X102997Y229743D01*
X104800Y229133D01*
X107798Y229133D01*
X109601Y229743D01*
X110795Y230352D01*
X111989Y231546D01*
X112598Y233350D01*
G54D16*
X112598Y224942D02*
X99974Y224942D01*
X99974Y217729D01*
G54D16*
X112598Y206934D02*
X112598Y214731D01*
X99974Y214731D01*
X99974Y206934D01*
G54D16*
X106578Y214731D02*
X106578Y209931D01*
G54D16*
X112598Y199136D02*
X112598Y203327D01*
X99974Y203327D01*
X99974Y199136D01*
X100584Y197332D01*
X101778Y196138D01*
X102997Y195529D01*
X104800Y194919D01*
X107798Y194919D01*
X109601Y195529D01*
X110795Y196138D01*
X111989Y197332D01*
X112598Y199136D01*
G54D16*
X347701Y225221D02*
X346506Y226390D01*
X344728Y226999D01*
X342341Y226999D01*
X340563Y226390D01*
X339370Y225221D01*
X339370Y224028D01*
X339954Y222834D01*
X340563Y222225D01*
X341757Y221640D01*
X345313Y220447D01*
X346506Y219862D01*
X347116Y219253D01*
X347701Y218058D01*
X347701Y216280D01*
X346506Y215086D01*
X344728Y214502D01*
X342341Y214502D01*
X340563Y215086D01*
X339370Y216280D01*
G54D16*
X359614Y214502D02*
X354838Y226999D01*
X350088Y214502D01*
G54D16*
X351866Y218669D02*
X357810Y218669D01*
G54D16*
X364972Y226999D02*
X364972Y214502D01*
G54D16*
X360807Y226999D02*
X369138Y226999D01*
G54D16*
X379857Y214502D02*
X375082Y226999D01*
X370332Y214502D01*
G54D16*
X372110Y218669D02*
X378054Y218669D01*
G54D16*
X102438Y1354734D02*
X107899Y1354734D01*
X109728Y1355343D01*
X110338Y1355953D01*
X110947Y1357147D01*
X110947Y1358976D01*
X110338Y1360195D01*
X109728Y1360804D01*
X107899Y1361414D01*
X102438Y1361414D01*
X102438Y1348664D01*
G54D16*
X123698Y1358366D02*
X123088Y1359585D01*
X121869Y1360804D01*
X120650Y1361414D01*
X118237Y1361414D01*
X117018Y1360804D01*
X115798Y1359585D01*
X115189Y1358366D01*
X114580Y1356563D01*
X114580Y1353515D01*
X115189Y1351686D01*
X115798Y1350467D01*
X117018Y1349273D01*
X118237Y1348664D01*
X120650Y1348664D01*
X121869Y1349273D01*
X123088Y1350467D01*
X123698Y1351686D01*
G54D16*
X127940Y1361414D02*
X127940Y1348664D01*
G54D11*
X253340Y1432788D02*
X253340Y1425473D01*
G54D11*
X258216Y1432788D02*
X258216Y1425473D01*
G54D11*
X253340Y1429309D02*
X258216Y1429309D01*
G54D11*
X265862Y1431061D02*
X265532Y1431747D01*
X264820Y1432433D01*
X264135Y1432788D01*
X262738Y1432788D01*
X262052Y1432433D01*
X261341Y1431747D01*
X261010Y1431061D01*
X260655Y1429994D01*
X260655Y1428267D01*
X261010Y1427226D01*
X261341Y1426514D01*
X262052Y1425828D01*
X262738Y1425473D01*
X264135Y1425473D01*
X264820Y1425828D01*
X265532Y1426514D01*
X265862Y1427226D01*
G54D11*
X269011Y1431391D02*
X269697Y1431747D01*
X270738Y1432788D01*
X270738Y1425473D01*
G54D11*
X278410Y1425473D02*
X278410Y1432788D01*
X274930Y1427912D01*
X280136Y1427912D01*
G54D16*
X187147Y1504696D02*
X192557Y1504696D01*
X194361Y1505305D01*
X194945Y1505889D01*
X195554Y1507083D01*
X195554Y1508886D01*
X194945Y1510106D01*
X194361Y1510690D01*
X192557Y1511300D01*
X187147Y1511300D01*
X187147Y1498701D01*
G54D16*
X208153Y1508302D02*
X207569Y1509496D01*
X206350Y1510690D01*
X205156Y1511300D01*
X202742Y1511300D01*
X201549Y1510690D01*
X200355Y1509496D01*
X199746Y1508302D01*
X199162Y1506499D01*
X199162Y1503502D01*
X199746Y1501699D01*
X200355Y1500505D01*
X201549Y1499285D01*
X202742Y1498701D01*
X205156Y1498701D01*
X206350Y1499285D01*
X207569Y1500505D01*
X208153Y1501699D01*
G54D16*
X221970Y1498701D02*
X221970Y1511300D01*
X217170Y1498701D01*
X212370Y1511300D01*
X212370Y1498701D01*
G54D16*
X154127Y1487475D02*
X158928Y1474876D01*
X163728Y1487475D01*
G54D16*
X172136Y1487475D02*
X169748Y1487475D01*
X168529Y1486891D01*
X167336Y1485671D01*
X166751Y1484477D01*
X166141Y1482674D01*
X166141Y1479677D01*
X166751Y1477873D01*
X167336Y1476679D01*
X168529Y1475485D01*
X169748Y1474876D01*
X172136Y1474876D01*
X173355Y1475485D01*
X174548Y1476679D01*
X175133Y1477873D01*
X175743Y1479677D01*
X175743Y1482674D01*
X175133Y1484477D01*
X174548Y1485671D01*
X173355Y1486891D01*
X172136Y1487475D01*
G54D16*
X179934Y1487475D02*
X179934Y1474876D01*
X187147Y1474876D01*
G54D16*
X190144Y1487475D02*
X190144Y1478483D01*
X190754Y1476679D01*
X191948Y1475485D01*
X193752Y1474876D01*
X194945Y1474876D01*
X196748Y1475485D01*
X197942Y1476679D01*
X198552Y1478483D01*
X198552Y1487475D01*
G54D16*
X212954Y1474876D02*
X212954Y1487475D01*
X208153Y1474876D01*
X203352Y1487475D01*
X203352Y1474876D01*
G54D16*
X225552Y1487475D02*
X217754Y1487475D01*
X217754Y1474876D01*
X225552Y1474876D01*
G54D16*
X217754Y1481480D02*
X222555Y1481480D01*
G54D11*
X341528Y1502664D02*
X340817Y1502664D01*
X339776Y1502308D01*
X339090Y1501267D01*
X338734Y1499514D01*
X338734Y1498472D01*
X339090Y1496746D01*
X339776Y1495679D01*
X340817Y1495348D01*
X341528Y1495348D01*
X342570Y1495679D01*
X343256Y1496746D01*
X343612Y1498472D01*
X343612Y1499514D01*
X343256Y1501267D01*
X342570Y1502308D01*
X341528Y1502664D01*
G54D11*
X343256Y1501267D02*
X339090Y1496746D01*
G54D11*
X346761Y1495679D02*
X346406Y1496034D01*
X346050Y1495679D01*
X346406Y1495348D01*
X346761Y1495679D01*
G54D11*
X350240Y1501267D02*
X350952Y1501622D01*
X351993Y1502664D01*
X351993Y1495348D01*
G54D11*
X356514Y1500225D02*
X356514Y1496746D01*
X356870Y1495679D01*
X357556Y1495348D01*
X358622Y1495348D01*
X359308Y1495679D01*
X360350Y1496746D01*
G54D11*
X360350Y1500225D02*
X360350Y1495348D01*
G54D11*
X116815Y1499082D02*
X119913Y1499082D01*
X120929Y1499438D01*
X121285Y1499768D01*
X121615Y1500454D01*
X121615Y1501140D01*
X121285Y1501826D01*
X120929Y1502181D01*
X119913Y1502511D01*
X116815Y1502511D01*
X116815Y1495298D01*
G54D11*
X119228Y1499082D02*
X121615Y1495298D01*
G54D11*
X123672Y1502511D02*
X128498Y1495298D01*
G54D11*
X128498Y1502511D02*
X123672Y1495298D01*
G54D11*
X133299Y1502511D02*
X130912Y1502511D01*
X130912Y1495298D01*
X133299Y1495298D01*
X134340Y1495654D01*
X135026Y1496339D01*
X135382Y1497025D01*
X135712Y1498066D01*
X135712Y1499768D01*
X135382Y1500809D01*
X135026Y1501495D01*
X134340Y1502181D01*
X133299Y1502511D01*
G54D16*
X411175Y239090D02*
X416611Y239090D01*
X418440Y239699D01*
X419049Y240309D01*
X419658Y241529D01*
X419658Y243332D01*
X419049Y244551D01*
X418440Y245160D01*
X416611Y245744D01*
X411175Y245744D01*
X411175Y233045D01*
G54D16*
X423876Y245744D02*
X423876Y233045D01*
G54D16*
X432359Y245744D02*
X432359Y233045D01*
G54D16*
X423876Y239699D02*
X432359Y239699D01*
G54D16*
X435382Y245744D02*
X440233Y239699D01*
X440233Y233045D01*
G54D16*
X445058Y245744D02*
X440233Y239699D01*
G54D16*
X411175Y215899D02*
X416611Y215899D01*
X418440Y216509D01*
X419049Y217093D01*
X419658Y218313D01*
X419658Y219532D01*
X419049Y220726D01*
X418440Y221335D01*
X416611Y221945D01*
X411175Y221945D01*
X411175Y209245D01*
G54D16*
X415417Y215899D02*
X419658Y209245D01*
G54D16*
X428117Y221945D02*
X423876Y221945D01*
X423876Y209245D01*
X428117Y209245D01*
X429946Y209829D01*
X431140Y211048D01*
X431749Y212268D01*
X432359Y214071D01*
X432359Y217093D01*
X431749Y218922D01*
X431140Y220116D01*
X429946Y221335D01*
X428117Y221945D01*
G54D16*
X434772Y221945D02*
X439623Y215899D01*
X439623Y209245D01*
G54D16*
X444474Y221945D02*
X439623Y215899D01*
G54D10*
X612445Y204749D02*
X613258Y205156D01*
X614476Y206375D01*
X614476Y197840D01*
G54D10*
X624637Y205156D02*
X624230Y205968D01*
X623011Y206375D01*
X622198Y206375D01*
X620979Y205968D01*
X620166Y204749D01*
X619760Y202717D01*
X619760Y200685D01*
X620166Y199059D01*
X620979Y198246D01*
X622198Y197840D01*
X622604Y197840D01*
X623824Y198246D01*
X624637Y199059D01*
X625044Y200278D01*
X625044Y200685D01*
X624637Y201904D01*
X623824Y202717D01*
X622604Y203123D01*
X622198Y203123D01*
X620979Y202717D01*
X620166Y201904D01*
X619760Y200685D01*
G54D10*
X639674Y197840D02*
X639674Y206375D01*
X636422Y197840D01*
X633172Y206375D01*
X633172Y197840D01*
G54D10*
X642900Y206375D02*
X642900Y197840D01*
G54D10*
X648589Y206375D02*
X648589Y197840D01*
G54D10*
X642900Y202311D02*
X648589Y202311D01*
G54D10*
X651434Y203530D02*
X655904Y203530D01*
X651434Y197840D01*
X655904Y197840D01*
G54D10*
X411658Y521995D02*
X411658Y522427D01*
X412064Y523239D01*
X412496Y523646D01*
X413308Y524078D01*
X414960Y524078D01*
X415798Y523646D01*
X416204Y523239D01*
X416611Y522427D01*
X416611Y521589D01*
X416204Y520750D01*
X415366Y519531D01*
X411251Y515391D01*
X417042Y515391D01*
G54D10*
X419913Y521995D02*
X419913Y522427D01*
X420344Y523239D01*
X420751Y523646D01*
X421564Y524078D01*
X423240Y524078D01*
X424053Y523646D01*
X424459Y523239D01*
X424892Y522427D01*
X424892Y521589D01*
X424459Y520750D01*
X423647Y519531D01*
X419506Y515391D01*
X425298Y515391D01*
G54D10*
X428193Y521182D02*
X428193Y517042D01*
X428600Y515798D01*
X429438Y515391D01*
X430657Y515391D01*
X431495Y515798D01*
X432740Y517042D01*
G54D10*
X432740Y521182D02*
X432740Y515391D01*
G54D17*
X646100Y593877D02*
X643560Y594004D01*
X641020Y593877D01*
X638506Y593496D01*
X636042Y592912D01*
X633654Y592048D01*
X631368Y590981D01*
X629158Y589712D01*
X627126Y588213D01*
X625221Y586537D01*
X623494Y584682D01*
X621944Y582650D01*
X620624Y580517D01*
X619480Y578231D01*
X618592Y575869D01*
X617932Y573405D01*
X617500Y570916D01*
X617322Y568375D01*
X617372Y565835D01*
X617677Y563321D01*
X618236Y560857D01*
X619024Y558444D01*
X620014Y556107D01*
X621258Y553897D01*
X622706Y551815D01*
X624332Y549859D01*
X626160Y548106D01*
X628116Y546506D01*
X630250Y545109D01*
X632486Y543940D01*
X634848Y542975D01*
X637286Y542264D01*
X639775Y541782D01*
X642290Y541528D01*
X644830Y541528D01*
X647344Y541782D01*
X649834Y542264D01*
X652272Y542975D01*
X654609Y543940D01*
X656870Y545109D01*
X658978Y546506D01*
X660959Y548106D01*
X662788Y549859D01*
X664413Y551815D01*
X665861Y553897D01*
X667080Y556107D01*
X668096Y558444D01*
X668884Y560857D01*
X669442Y563321D01*
X669747Y565835D01*
X669798Y568375D01*
X669620Y570916D01*
X669188Y573405D01*
X668528Y575869D01*
X667614Y578231D01*
X666496Y580517D01*
X665150Y582650D01*
X663626Y584682D01*
X661898Y586537D01*
X659994Y588213D01*
X657936Y589712D01*
X655752Y590981D01*
X653466Y592048D01*
X651053Y592912D01*
X648589Y593496D01*
X646100Y593877D01*
G54D16*
X561188Y896416D02*
X559511Y894740D01*
X558673Y893038D01*
X559080Y891793D01*
X559918Y890930D01*
X561188Y890524D01*
X562458Y890930D01*
X564566Y892200D01*
X566242Y893038D01*
X567918Y893038D01*
X569189Y892631D01*
X570458Y891362D01*
X570865Y890092D01*
X570865Y889254D01*
X570027Y887577D01*
X568350Y885901D01*
X566674Y885037D01*
X565810Y885037D01*
X564566Y885469D01*
X563296Y886739D01*
X562864Y887983D01*
X562864Y889686D01*
X563728Y891362D01*
X564972Y893470D01*
X565404Y894740D01*
X564972Y895985D01*
X564134Y896823D01*
X562864Y897255D01*
X561188Y896416D01*
G54D16*
X587298Y904823D02*
X578460Y913663D01*
X583920Y901471D01*
X571703Y906932D01*
X580542Y898093D01*
G54D16*
X581812Y917042D02*
X590652Y908202D01*
G54D16*
X587705Y922934D02*
X596544Y914095D01*
G54D16*
X586029Y912825D02*
X591922Y918718D01*
G54D16*
X593598Y922934D02*
X598246Y927557D01*
X599490Y917042D01*
X604139Y921664D01*
G54D17*
X648234Y1536369D02*
X650748Y1536242D01*
X653288Y1536369D01*
X655802Y1536725D01*
X658266Y1537334D01*
X660654Y1538172D01*
X662966Y1539265D01*
X665150Y1540535D01*
X667182Y1542034D01*
X669086Y1543710D01*
X670814Y1545564D01*
X672363Y1547596D01*
X673710Y1549730D01*
X674827Y1552016D01*
X675716Y1554378D01*
X676376Y1556842D01*
X676808Y1559331D01*
X676986Y1561871D01*
X676936Y1564411D01*
X676631Y1566925D01*
X676072Y1569389D01*
X675310Y1571802D01*
X674294Y1574139D01*
X673049Y1576349D01*
X671602Y1578432D01*
X669976Y1580363D01*
X668172Y1582141D01*
X666191Y1583740D01*
X664058Y1585112D01*
X661822Y1586306D01*
X659460Y1587271D01*
X657047Y1587982D01*
X654558Y1588465D01*
X652018Y1588719D01*
X649478Y1588719D01*
X646964Y1588465D01*
X644474Y1587982D01*
X642036Y1587271D01*
X639699Y1586306D01*
X637438Y1585112D01*
X635330Y1583740D01*
X633349Y1582141D01*
X631546Y1580363D01*
X629895Y1578432D01*
X628447Y1576349D01*
X627228Y1574139D01*
X626212Y1571802D01*
X625424Y1569389D01*
X624891Y1566925D01*
X624586Y1564411D01*
X624510Y1561871D01*
X624688Y1559331D01*
X625120Y1556842D01*
X625780Y1554378D01*
X626694Y1552016D01*
X627812Y1549730D01*
X629158Y1547596D01*
X630682Y1545564D01*
X632409Y1543710D01*
X634314Y1542034D01*
X636372Y1540535D01*
X638556Y1539265D01*
X640868Y1538172D01*
X643255Y1537334D01*
X645719Y1536725D01*
X648234Y1536369D01*
G54D17*
X648234Y1472869D02*
X650748Y1472742D01*
X653288Y1472869D01*
X655802Y1473225D01*
X658266Y1473834D01*
X660654Y1474672D01*
X662966Y1475765D01*
X665150Y1477035D01*
X667182Y1478534D01*
X669086Y1480210D01*
X670814Y1482064D01*
X672363Y1484096D01*
X673710Y1486230D01*
X674827Y1488516D01*
X675716Y1490878D01*
X676376Y1493342D01*
X676808Y1495831D01*
X676986Y1498371D01*
X676936Y1500911D01*
X676631Y1503425D01*
X676072Y1505889D01*
X675310Y1508302D01*
X674294Y1510639D01*
X673049Y1512849D01*
X671602Y1514932D01*
X669976Y1516863D01*
X668172Y1518641D01*
X666191Y1520240D01*
X664058Y1521612D01*
X661822Y1522806D01*
X659460Y1523771D01*
X657047Y1524482D01*
X654558Y1524965D01*
X652018Y1525219D01*
X649478Y1525219D01*
X646964Y1524965D01*
X644474Y1524482D01*
X642036Y1523771D01*
X639699Y1522806D01*
X637438Y1521612D01*
X635330Y1520240D01*
X633349Y1518641D01*
X631546Y1516863D01*
X629895Y1514932D01*
X628447Y1512849D01*
X627228Y1510639D01*
X626212Y1508302D01*
X625424Y1505889D01*
X624891Y1503425D01*
X624586Y1500911D01*
X624510Y1498371D01*
X624688Y1495831D01*
X625120Y1493342D01*
X625780Y1490878D01*
X626694Y1488516D01*
X627812Y1486230D01*
X629158Y1484096D01*
X630682Y1482064D01*
X632409Y1480210D01*
X634314Y1478534D01*
X636372Y1477035D01*
X638556Y1475765D01*
X640868Y1474672D01*
X643255Y1473834D01*
X645719Y1473225D01*
X648234Y1472869D01*
G54D16*
X611403Y1653362D02*
X610210Y1654556D01*
X608406Y1655140D01*
X605993Y1655140D01*
X604215Y1654556D01*
X602996Y1653362D01*
X602996Y1652142D01*
X603606Y1650948D01*
X604215Y1650339D01*
X605409Y1649755D01*
X609016Y1648561D01*
X610210Y1647952D01*
X610794Y1647342D01*
X611403Y1646148D01*
X611403Y1644345D01*
X610210Y1643151D01*
X608406Y1642541D01*
X605993Y1642541D01*
X604215Y1643151D01*
X602996Y1644345D01*
G54D16*
X619810Y1655140D02*
X615594Y1655140D01*
X615594Y1642541D01*
X619810Y1642541D01*
X621614Y1643151D01*
X622808Y1644345D01*
X623392Y1645564D01*
X624002Y1647342D01*
X624002Y1650339D01*
X623392Y1652142D01*
X622808Y1653362D01*
X621614Y1654556D01*
X619810Y1655140D01*
G54D16*
X628193Y1652142D02*
X628193Y1652753D01*
X628802Y1653946D01*
X629412Y1654556D01*
X630606Y1655140D01*
X632994Y1655140D01*
X634212Y1654556D01*
X634796Y1653946D01*
X635406Y1652753D01*
X635406Y1651559D01*
X634796Y1650339D01*
X633603Y1648561D01*
X627608Y1642541D01*
X635990Y1642541D01*
G54D16*
X655802Y1642541D02*
X651002Y1655140D01*
X646202Y1642541D01*
G54D16*
X648004Y1646758D02*
X653999Y1646758D01*
G54D16*
X667207Y1652142D02*
X666598Y1653362D01*
X665404Y1654556D01*
X664210Y1655140D01*
X661797Y1655140D01*
X660603Y1654556D01*
X659410Y1653362D01*
X658800Y1652142D01*
X658190Y1650339D01*
X658190Y1647342D01*
X658800Y1645564D01*
X659410Y1644345D01*
X660603Y1643151D01*
X661797Y1642541D01*
X664210Y1642541D01*
X665404Y1643151D01*
X666598Y1644345D01*
X667207Y1645564D01*
G54D16*
X673811Y1655140D02*
X673811Y1642541D01*
G54D16*
X669595Y1655140D02*
X678002Y1655140D01*
G54D17*
X567995Y1676832D02*
X565455Y1676958D01*
X562915Y1676832D01*
X560400Y1676476D01*
X557962Y1675866D01*
X555548Y1675028D01*
X553263Y1673962D01*
X551078Y1672666D01*
X549021Y1671167D01*
X547116Y1669491D01*
X545389Y1667636D01*
X543840Y1665630D01*
X542518Y1663471D01*
X541401Y1661185D01*
X540486Y1658823D01*
X539826Y1656384D01*
X539394Y1653870D01*
X539216Y1651355D01*
X539268Y1648815D01*
X539572Y1646300D01*
X540131Y1643811D01*
X540918Y1641399D01*
X541934Y1639087D01*
X543154Y1636851D01*
X544602Y1634769D01*
X546227Y1632839D01*
X548056Y1631061D01*
X550037Y1629486D01*
X552145Y1628088D01*
X554406Y1626895D01*
X556743Y1625955D01*
X559181Y1625218D01*
X561670Y1624736D01*
X564184Y1624482D01*
X566725Y1624482D01*
X569240Y1624736D01*
X571729Y1625218D01*
X574167Y1625955D01*
X576530Y1626895D01*
X578764Y1628088D01*
X580872Y1629486D01*
X582854Y1631061D01*
X584682Y1632839D01*
X586308Y1634769D01*
X587756Y1636851D01*
X588976Y1639087D01*
X589992Y1641399D01*
X590778Y1643811D01*
X591338Y1646300D01*
X591642Y1648815D01*
X591693Y1651355D01*
X591516Y1653870D01*
X591084Y1656384D01*
X590423Y1658823D01*
X589508Y1661185D01*
X588391Y1663471D01*
X587070Y1665630D01*
X585520Y1667636D01*
X583794Y1669491D01*
X581888Y1671167D01*
X579831Y1672666D01*
X577646Y1673962D01*
X575361Y1675028D01*
X572974Y1675866D01*
X570510Y1676476D01*
X567995Y1676832D01*
G54D17*
X783132Y248082D02*
X780593Y248208D01*
X778078Y248082D01*
X775564Y247701D01*
X773100Y247091D01*
X770712Y246252D01*
X768401Y245185D01*
X766216Y243916D01*
X764159Y242417D01*
X762279Y240741D01*
X760552Y238886D01*
X759002Y236854D01*
X757656Y234696D01*
X756539Y232435D01*
X755650Y230048D01*
X754964Y227609D01*
X754558Y225120D01*
X754355Y222580D01*
X754431Y220040D01*
X754736Y217525D01*
X755269Y215061D01*
X756056Y212649D01*
X757072Y210312D01*
X758317Y208101D01*
X759740Y206019D01*
X761390Y204063D01*
X763194Y202311D01*
X765175Y200710D01*
X767308Y199313D01*
X769544Y198145D01*
X771881Y197180D01*
X774319Y196468D01*
X776808Y195961D01*
X779348Y195732D01*
X781863Y195732D01*
X784403Y195961D01*
X786892Y196468D01*
X789330Y197180D01*
X791668Y198145D01*
X793902Y199313D01*
X796036Y200710D01*
X798018Y202311D01*
X799820Y204063D01*
X801472Y206019D01*
X802894Y208101D01*
X804138Y210312D01*
X805154Y212649D01*
X805942Y215061D01*
X806476Y217525D01*
X806780Y220040D01*
X806856Y222580D01*
X806654Y225120D01*
X806247Y227609D01*
X805561Y230048D01*
X804672Y232435D01*
X803554Y234696D01*
X802208Y236854D01*
X800658Y238886D01*
X798932Y240741D01*
X797052Y242417D01*
X794994Y243916D01*
X792810Y245185D01*
X790499Y246252D01*
X788112Y247091D01*
X785648Y247701D01*
X783132Y248082D01*
G54D17*
X920572Y216864D02*
X920700Y219405D01*
X920572Y221919D01*
X920216Y224434D01*
X919607Y226898D01*
X918768Y229285D01*
X917702Y231597D01*
X916406Y233781D01*
X914934Y235839D01*
X913232Y237744D01*
X911377Y239471D01*
X909371Y240995D01*
X907212Y242341D01*
X904951Y243459D01*
X902564Y244373D01*
X900126Y245033D01*
X897610Y245465D01*
X895096Y245643D01*
X892556Y245567D01*
X890042Y245262D01*
X887552Y244729D01*
X885140Y243941D01*
X882828Y242925D01*
X880592Y241706D01*
X878510Y240258D01*
X876580Y238607D01*
X874802Y236804D01*
X873226Y234823D01*
X871830Y232714D01*
X870661Y230454D01*
X869696Y228117D01*
X868959Y225679D01*
X868476Y223190D01*
X868248Y220675D01*
X868248Y218135D01*
X868476Y215595D01*
X868959Y213106D01*
X869696Y210692D01*
X870661Y208330D01*
X871830Y206095D01*
X873226Y203961D01*
X874802Y201981D01*
X876580Y200177D01*
X878510Y198552D01*
X880592Y197104D01*
X882828Y195859D01*
X885140Y194843D01*
X887552Y194081D01*
X890042Y193522D01*
X892556Y193218D01*
X895096Y193166D01*
X897610Y193345D01*
X900126Y193776D01*
X902564Y194437D01*
X904951Y195326D01*
X907212Y196443D01*
X909371Y197789D01*
X911377Y199338D01*
X913232Y201066D01*
X914934Y202971D01*
X916406Y205003D01*
X917702Y207188D01*
X918768Y209499D01*
X919607Y211886D01*
X920216Y214350D01*
X920572Y216864D01*
G54D17*
X983082Y216864D02*
X983208Y219405D01*
X983082Y221919D01*
X982726Y224434D01*
X982116Y226898D01*
X981278Y229285D01*
X980186Y231597D01*
X978916Y233781D01*
X977417Y235839D01*
X975741Y237744D01*
X973887Y239471D01*
X971854Y240995D01*
X969721Y242341D01*
X967436Y243459D01*
X965073Y244373D01*
X962609Y245033D01*
X960120Y245465D01*
X957580Y245643D01*
X955066Y245567D01*
X952526Y245262D01*
X950062Y244729D01*
X947648Y243941D01*
X945312Y242925D01*
X943102Y241706D01*
X941020Y240258D01*
X939088Y238607D01*
X937310Y236804D01*
X935710Y234823D01*
X934339Y232714D01*
X933145Y230454D01*
X932206Y228117D01*
X931469Y225679D01*
X930986Y223190D01*
X930732Y220675D01*
X930732Y218135D01*
X930986Y215595D01*
X931469Y213106D01*
X932206Y210692D01*
X933145Y208330D01*
X934339Y206095D01*
X935710Y203961D01*
X937310Y201981D01*
X939088Y200177D01*
X941020Y198552D01*
X943102Y197104D01*
X945312Y195859D01*
X947648Y194843D01*
X950062Y194081D01*
X952526Y193522D01*
X955066Y193218D01*
X957580Y193166D01*
X960120Y193345D01*
X962609Y193776D01*
X965073Y194437D01*
X967436Y195326D01*
X969721Y196443D01*
X971854Y197789D01*
X973887Y199338D01*
X975741Y201066D01*
X977417Y202971D01*
X978916Y205003D01*
X980186Y207188D01*
X981278Y209499D01*
X982116Y211886D01*
X982726Y214350D01*
X983082Y216864D01*
G54D16*
X823011Y381177D02*
X829590Y381177D01*
X826008Y376402D01*
X827786Y376402D01*
X829006Y375793D01*
X829590Y375183D01*
X830199Y373405D01*
X830199Y372185D01*
X829590Y370407D01*
X828396Y369188D01*
X826592Y368604D01*
X824789Y368604D01*
X823011Y369188D01*
X822401Y369798D01*
X821792Y370992D01*
G54D16*
X835584Y369188D02*
X835000Y369798D01*
X834390Y369188D01*
X835000Y368604D01*
X835584Y369188D01*
G54D16*
X840994Y381177D02*
X847572Y381177D01*
X843992Y376402D01*
X845770Y376402D01*
X846988Y375793D01*
X847572Y375183D01*
X848182Y373405D01*
X848182Y372185D01*
X847572Y370407D01*
X846378Y369188D01*
X844576Y368604D01*
X842772Y368604D01*
X840994Y369188D01*
X840384Y369798D01*
X839775Y370992D01*
G54D16*
X850570Y381177D02*
X855370Y368604D01*
X860171Y381177D01*
G54D16*
X876350Y381177D02*
X870966Y381177D01*
X870966Y368604D01*
X876350Y368604D01*
X878154Y369188D01*
X878738Y369798D01*
X879348Y370992D01*
X879348Y372796D01*
X878738Y373990D01*
X878154Y374599D01*
X876350Y375183D01*
X878154Y375793D01*
X878738Y376402D01*
X879348Y377596D01*
X879348Y378790D01*
X878738Y379983D01*
X878154Y380593D01*
X876350Y381177D01*
G54D16*
X870966Y375183D02*
X876350Y375183D01*
G54D16*
X893140Y368604D02*
X893140Y381177D01*
X888340Y368604D01*
X883539Y381177D01*
X883539Y368604D01*
G54D16*
X906322Y378180D02*
X905714Y379399D01*
X904520Y380593D01*
X903326Y381177D01*
X900912Y381177D01*
X899719Y380593D01*
X898525Y379399D01*
X897916Y378180D01*
X897331Y376402D01*
X897331Y373405D01*
X897916Y371601D01*
X898525Y370407D01*
X899719Y369188D01*
X900912Y368604D01*
X903326Y368604D01*
X904520Y369188D01*
X905714Y370407D01*
X906322Y371601D01*
G54D10*
X712496Y209981D02*
X713334Y210413D01*
X714578Y211657D01*
X714578Y202921D01*
G54D10*
X719988Y211657D02*
X719988Y202921D01*
G54D10*
X725830Y211657D02*
X719988Y205816D01*
G54D10*
X722072Y207899D02*
X725830Y202921D01*
G54D10*
X944982Y367410D02*
X945820Y367817D01*
X947039Y369062D01*
X947039Y360400D01*
G54D10*
X955320Y369062D02*
X954481Y369062D01*
X953262Y368656D01*
X952424Y367410D01*
X952018Y365353D01*
X952018Y364108D01*
X952424Y362051D01*
X953262Y360806D01*
X954481Y360400D01*
X955320Y360400D01*
X956564Y360806D01*
X957377Y362051D01*
X957784Y364108D01*
X957784Y365353D01*
X957377Y367410D01*
X956564Y368656D01*
X955320Y369062D01*
G54D10*
X957377Y367410D02*
X952424Y362051D01*
G54D10*
X960679Y366166D02*
X960679Y362051D01*
X961110Y360806D01*
X961924Y360400D01*
X963168Y360400D01*
X964006Y360806D01*
X965226Y362051D01*
G54D10*
X965226Y366166D02*
X965226Y360400D01*
G54D16*
X1244880Y443103D02*
X1244880Y443687D01*
X1245489Y444881D01*
X1246074Y445465D01*
X1247267Y446074D01*
X1249654Y446074D01*
X1250848Y445465D01*
X1251432Y444881D01*
X1252042Y443687D01*
X1252042Y442493D01*
X1251432Y441299D01*
X1250239Y439521D01*
X1244296Y433578D01*
X1252626Y433578D01*
G54D16*
X1260958Y446074D02*
X1259764Y446074D01*
X1257986Y445465D01*
X1256792Y443687D01*
X1256208Y440715D01*
X1256208Y438937D01*
X1256792Y435940D01*
X1257986Y434162D01*
X1259764Y433578D01*
X1260958Y433578D01*
X1262736Y434162D01*
X1263930Y435940D01*
X1264539Y438937D01*
X1264539Y440715D01*
X1263930Y443687D01*
X1262736Y445465D01*
X1260958Y446074D01*
G54D16*
X1263930Y443687D02*
X1256792Y435940D01*
G54D16*
X1269289Y446074D02*
X1275842Y446074D01*
X1272260Y441299D01*
X1274064Y441299D01*
X1275258Y440715D01*
X1275842Y440106D01*
X1276426Y438328D01*
X1276426Y437134D01*
X1275842Y435356D01*
X1274648Y434162D01*
X1272870Y433578D01*
X1271092Y433578D01*
X1269289Y434162D01*
X1268704Y434772D01*
X1268095Y435940D01*
G54D16*
X1280617Y443103D02*
X1280617Y443687D01*
X1281202Y444881D01*
X1281786Y445465D01*
X1282980Y446074D01*
X1285367Y446074D01*
X1286560Y445465D01*
X1287145Y444881D01*
X1287754Y443687D01*
X1287754Y442493D01*
X1287145Y441299D01*
X1285951Y439521D01*
X1280008Y433578D01*
X1288338Y433578D01*
G54D10*
X1053668Y379806D02*
X1057326Y379806D01*
X1058545Y380212D01*
X1058952Y380619D01*
X1059358Y381431D01*
X1059358Y382244D01*
X1058952Y383057D01*
X1058545Y383464D01*
X1057326Y383870D01*
X1053668Y383870D01*
X1053668Y375335D01*
G54D10*
X1056513Y379806D02*
X1059358Y375335D01*
G54D10*
X1067486Y383870D02*
X1062202Y383870D01*
X1062202Y375335D01*
X1067486Y375335D01*
G54D10*
X1062202Y379806D02*
X1065454Y379806D01*
G54D10*
X1076426Y375335D02*
X1076426Y383870D01*
X1073176Y375335D01*
X1069924Y383870D01*
X1069924Y375335D01*
G54D10*
X1083335Y383870D02*
X1081710Y383870D01*
X1080897Y383464D01*
X1080084Y382651D01*
X1079678Y381838D01*
X1079272Y380619D01*
X1079272Y378586D01*
X1079678Y377367D01*
X1080084Y376554D01*
X1080897Y375741D01*
X1081710Y375335D01*
X1083335Y375335D01*
X1084148Y375741D01*
X1084961Y376554D01*
X1085368Y377367D01*
X1085774Y378586D01*
X1085774Y380619D01*
X1085368Y381838D01*
X1084961Y382651D01*
X1084148Y383464D01*
X1083335Y383870D01*
G54D10*
X1087400Y383870D02*
X1090650Y375335D01*
X1093902Y383870D01*
G54D10*
X1101217Y383870D02*
X1095934Y383870D01*
X1095934Y375335D01*
X1101217Y375335D01*
G54D10*
X1095934Y379806D02*
X1099185Y379806D01*
G54D10*
X1110564Y383870D02*
X1110564Y375335D01*
G54D10*
X1107720Y383870D02*
X1113409Y383870D01*
G54D10*
X1119098Y383870D02*
X1117473Y383870D01*
X1116660Y383464D01*
X1115847Y382651D01*
X1115441Y381838D01*
X1115035Y380619D01*
X1115035Y378586D01*
X1115441Y377367D01*
X1115847Y376554D01*
X1116660Y375741D01*
X1117473Y375335D01*
X1119098Y375335D01*
X1119912Y375741D01*
X1120724Y376554D01*
X1121105Y377367D01*
X1121512Y378586D01*
X1121512Y380619D01*
X1121105Y381838D01*
X1120724Y382651D01*
X1119912Y383464D01*
X1119098Y383870D01*
G54D10*
X1059358Y365582D02*
X1058952Y366395D01*
X1058138Y367207D01*
X1057326Y367614D01*
X1055700Y367614D01*
X1054888Y367207D01*
X1054074Y366395D01*
X1053668Y365582D01*
X1053262Y364362D01*
X1053262Y362330D01*
X1053668Y361111D01*
X1054074Y360299D01*
X1054888Y359486D01*
X1055700Y359080D01*
X1057326Y359080D01*
X1058138Y359486D01*
X1058952Y360299D01*
X1059358Y361111D01*
G54D10*
X1062202Y367614D02*
X1062202Y359080D01*
X1067080Y359080D01*
G54D10*
X1074395Y367614D02*
X1069111Y367614D01*
X1069111Y359080D01*
X1074395Y359080D01*
G54D10*
X1069111Y363550D02*
X1072362Y363550D01*
G54D10*
X1082116Y359080D02*
X1078865Y367614D01*
X1075614Y359080D01*
G54D10*
X1076833Y361924D02*
X1080897Y361924D01*
G54D10*
X1084148Y363550D02*
X1087806Y363550D01*
X1089025Y363956D01*
X1089431Y364362D01*
X1089838Y365175D01*
X1089838Y365988D01*
X1089431Y366801D01*
X1089025Y367207D01*
X1087806Y367614D01*
X1084148Y367614D01*
X1084148Y359080D01*
G54D10*
X1086993Y363550D02*
X1089838Y359080D01*
G54D10*
X1103655Y365582D02*
X1103249Y366395D01*
X1102436Y367207D01*
X1101624Y367614D01*
X1099998Y367614D01*
X1099185Y367207D01*
X1098372Y366395D01*
X1097966Y365582D01*
X1097560Y364362D01*
X1097560Y362330D01*
X1097966Y361111D01*
X1098372Y360299D01*
X1099185Y359486D01*
X1099998Y359080D01*
X1101624Y359080D01*
X1102436Y359486D01*
X1103249Y360299D01*
X1103655Y361111D01*
G54D10*
X1113002Y359080D02*
X1113002Y367614D01*
X1109751Y359080D01*
X1106500Y367614D01*
X1106500Y359080D01*
G54D10*
X1119912Y367614D02*
X1118286Y367614D01*
X1117473Y367207D01*
X1116660Y366395D01*
X1116254Y365582D01*
X1115847Y364362D01*
X1115847Y362330D01*
X1116254Y361111D01*
X1116660Y360299D01*
X1117473Y359486D01*
X1118286Y359080D01*
X1119912Y359080D01*
X1120724Y359486D01*
X1121512Y360299D01*
X1121918Y361111D01*
X1122324Y362330D01*
X1122324Y364362D01*
X1121918Y365582D01*
X1121512Y366395D01*
X1120724Y367207D01*
X1119912Y367614D01*
G54D10*
X1130452Y366395D02*
X1129640Y367207D01*
X1128420Y367614D01*
X1126794Y367614D01*
X1125576Y367207D01*
X1124763Y366395D01*
X1124763Y365582D01*
X1125170Y364769D01*
X1125576Y364362D01*
X1126388Y363956D01*
X1128826Y363143D01*
X1129640Y362737D01*
X1130046Y362330D01*
X1130452Y361517D01*
X1130452Y360299D01*
X1129640Y359486D01*
X1128420Y359080D01*
X1126794Y359080D01*
X1125576Y359486D01*
X1124763Y360299D01*
G54D11*
X1475740Y60909D02*
X1478864Y60909D01*
X1479931Y61264D01*
X1480286Y61620D01*
X1480616Y62306D01*
X1480616Y63017D01*
X1480286Y63703D01*
X1479931Y64059D01*
X1478864Y64414D01*
X1475740Y64414D01*
X1475740Y57074D01*
G54D11*
X1478178Y60909D02*
X1480616Y57074D01*
G54D11*
X1482725Y61976D02*
X1486560Y57074D01*
G54D11*
X1486560Y61976D02*
X1482725Y57074D01*
G54D11*
X1491462Y64414D02*
X1489024Y64414D01*
X1489024Y57074D01*
X1491462Y57074D01*
X1492504Y57429D01*
X1493215Y58114D01*
X1493571Y58826D01*
X1493901Y59867D01*
X1493901Y61620D01*
X1493571Y62662D01*
X1493215Y63373D01*
X1492504Y64059D01*
X1491462Y64414D01*
G54D16*
X1371956Y1588490D02*
X1371956Y1579498D01*
X1372565Y1577695D01*
X1373759Y1576476D01*
X1375562Y1575892D01*
X1376756Y1575892D01*
X1378560Y1576476D01*
X1379779Y1577695D01*
X1380363Y1579498D01*
X1380363Y1588490D01*
G54D16*
X1392987Y1586687D02*
X1391793Y1587906D01*
X1389990Y1588490D01*
X1387577Y1588490D01*
X1385773Y1587906D01*
X1384580Y1586687D01*
X1384580Y1585493D01*
X1385164Y1584299D01*
X1385773Y1583690D01*
X1386967Y1583080D01*
X1390574Y1581886D01*
X1391793Y1581276D01*
X1392378Y1580692D01*
X1392987Y1579498D01*
X1392987Y1577695D01*
X1391793Y1576476D01*
X1389990Y1575892D01*
X1387577Y1575892D01*
X1385773Y1576476D01*
X1384580Y1577695D01*
G54D16*
X1402588Y1588490D02*
X1397178Y1588490D01*
X1397178Y1575892D01*
X1402588Y1575892D01*
X1404391Y1576476D01*
X1405001Y1577086D01*
X1405610Y1578279D01*
X1405610Y1580083D01*
X1405001Y1581276D01*
X1404391Y1581886D01*
X1402588Y1582496D01*
X1404391Y1583080D01*
X1405001Y1583690D01*
X1405610Y1584884D01*
X1405610Y1586103D01*
X1405001Y1587296D01*
X1404391Y1587906D01*
X1402588Y1588490D01*
G54D16*
X1397178Y1582496D02*
X1402588Y1582496D01*
G54D16*
X1410411Y1588490D02*
X1417016Y1588490D01*
X1413408Y1583690D01*
X1415212Y1583690D01*
X1416406Y1583080D01*
X1417016Y1582496D01*
X1417625Y1580692D01*
X1417625Y1579498D01*
X1417016Y1577695D01*
X1415821Y1576476D01*
X1414018Y1575892D01*
X1412215Y1575892D01*
X1410411Y1576476D01*
X1409802Y1577086D01*
X1409192Y1578279D01*
G54D16*
X1421206Y1577086D02*
X1421816Y1576476D01*
X1421206Y1575892D01*
X1420622Y1576476D01*
X1421206Y1577086D01*
G54D16*
X1421816Y1576476D02*
X1421816Y1575282D01*
X1421206Y1574089D01*
X1420622Y1573478D01*
G54D16*
X1432026Y1575892D02*
X1432026Y1588490D01*
X1426032Y1580083D01*
X1435024Y1580083D01*
G54D11*
X1539164Y1577873D02*
X1539164Y1585163D01*
X1535684Y1580311D01*
X1540891Y1580311D01*
G54D11*
X1547139Y1582725D02*
X1550975Y1577873D01*
G54D11*
X1550975Y1582725D02*
X1547139Y1577873D01*
G54D11*
X1558264Y1585163D02*
X1562074Y1585163D01*
X1559992Y1582394D01*
X1561034Y1582394D01*
X1561719Y1582039D01*
X1562074Y1581683D01*
X1562430Y1580642D01*
X1562430Y1579956D01*
X1562074Y1578914D01*
X1561389Y1578229D01*
X1560347Y1577873D01*
X1559306Y1577873D01*
X1558264Y1578229D01*
X1557909Y1578558D01*
X1557554Y1579270D01*
G54D11*
X1565198Y1585163D02*
X1569009Y1585163D01*
X1566926Y1582394D01*
X1567968Y1582394D01*
X1568678Y1582039D01*
X1569009Y1581683D01*
X1569364Y1580642D01*
X1569364Y1579956D01*
X1569009Y1578914D01*
X1568323Y1578229D01*
X1567282Y1577873D01*
X1566240Y1577873D01*
X1565198Y1578229D01*
X1564843Y1578558D01*
X1564513Y1579270D01*
G54D11*
X1323264Y1577873D02*
X1323264Y1585163D01*
X1319784Y1580311D01*
X1324991Y1580311D01*
G54D11*
X1331240Y1582725D02*
X1335074Y1577873D01*
G54D11*
X1335074Y1582725D02*
X1331240Y1577873D01*
G54D11*
X1342364Y1585163D02*
X1346175Y1585163D01*
X1344092Y1582394D01*
X1345133Y1582394D01*
X1345819Y1582039D01*
X1346175Y1581683D01*
X1346530Y1580642D01*
X1346530Y1579956D01*
X1346175Y1578914D01*
X1345489Y1578229D01*
X1344448Y1577873D01*
X1343406Y1577873D01*
X1342364Y1578229D01*
X1342009Y1578558D01*
X1341653Y1579270D01*
G54D11*
X1349298Y1585163D02*
X1353109Y1585163D01*
X1351026Y1582394D01*
X1352068Y1582394D01*
X1352778Y1582039D01*
X1353109Y1581683D01*
X1353464Y1580642D01*
X1353464Y1579956D01*
X1353109Y1578914D01*
X1352423Y1578229D01*
X1351382Y1577873D01*
X1350340Y1577873D01*
X1349298Y1578229D01*
X1348943Y1578558D01*
X1348613Y1579270D01*
G54D16*
X29794Y171272D02*
X29794Y165887D01*
X30404Y164084D01*
X30988Y163474D01*
X32207Y162865D01*
X34011Y162865D01*
X35204Y163474D01*
X35814Y164084D01*
X36398Y165887D01*
X36398Y171272D01*
X23800Y171272D01*
G54D16*
X36398Y159867D02*
X23800Y156870D01*
X36398Y153847D01*
X23800Y150850D01*
X36398Y147853D01*
G54D16*
X30404Y144246D02*
X30404Y138836D01*
X30988Y137033D01*
X31598Y136449D01*
X32792Y135838D01*
X34011Y135838D01*
X35204Y136449D01*
X35814Y137033D01*
X36398Y138836D01*
X36398Y144246D01*
X23800Y144246D01*
G54D16*
X30404Y140030D02*
X23800Y135838D01*
G54D16*
X34595Y123825D02*
X35814Y125018D01*
X36398Y126821D01*
X36398Y129235D01*
X35814Y131038D01*
X34595Y132232D01*
X33401Y132232D01*
X32207Y131623D01*
X31598Y131038D01*
X30988Y129819D01*
X29794Y126212D01*
X29210Y125018D01*
X28600Y124434D01*
X27407Y123825D01*
X25603Y123825D01*
X24384Y125018D01*
X23800Y126821D01*
X23800Y129235D01*
X24384Y131038D01*
X25603Y132232D01*
G54D16*
X36398Y120828D02*
X23800Y117805D01*
X36398Y114808D01*
X23800Y111811D01*
X36398Y108813D01*
G54D16*
X106604Y180797D02*
X106604Y175386D01*
X107213Y173583D01*
X107823Y172974D01*
X109017Y172389D01*
X110236Y172389D01*
X111430Y172974D01*
X112039Y173583D01*
X112624Y175386D01*
X112624Y180797D01*
X100000Y180797D01*
G54D16*
X106604Y176580D02*
X100000Y172389D01*
G54D16*
X112624Y160349D02*
X112624Y168173D01*
X100000Y168173D01*
X100000Y160349D01*
G54D16*
X106604Y168173D02*
X106604Y163347D01*
G54D16*
X110820Y148920D02*
X112039Y150114D01*
X112624Y151917D01*
X112624Y154330D01*
X112039Y156134D01*
X110820Y157327D01*
X109626Y157327D01*
X108407Y156743D01*
X107823Y156134D01*
X107213Y154940D01*
X106020Y151333D01*
X105410Y150114D01*
X104800Y149529D01*
X103607Y148920D01*
X101803Y148920D01*
X100609Y150114D01*
X100000Y151917D01*
X100000Y154330D01*
X100609Y156134D01*
X101803Y157327D01*
G54D16*
X112624Y136880D02*
X112624Y144703D01*
X100000Y144703D01*
X100000Y136880D01*
G54D16*
X106604Y144703D02*
X106604Y139903D01*
G54D16*
X112624Y130860D02*
X100000Y130860D01*
G54D16*
X112624Y135077D02*
X112624Y126644D01*
G54D17*
X171221Y125120D02*
X173761Y124993D01*
X176302Y125120D01*
X178790Y125476D01*
X181254Y126085D01*
X183642Y126923D01*
X185954Y128015D01*
X188138Y129285D01*
X190196Y130784D01*
X192100Y132461D01*
X193828Y134315D01*
X195352Y136347D01*
X196698Y138481D01*
X197815Y140766D01*
X198730Y143129D01*
X199390Y145593D01*
X199822Y148082D01*
X200000Y150621D01*
X199949Y153136D01*
X199619Y155676D01*
X199086Y158140D01*
X198298Y160553D01*
X197282Y162890D01*
X196063Y165099D01*
X194615Y167182D01*
X192989Y169113D01*
X191160Y170891D01*
X189179Y172491D01*
X187071Y173862D01*
X184810Y175056D01*
X182474Y176022D01*
X180035Y176733D01*
X177546Y177216D01*
X175032Y177470D01*
X172492Y177470D01*
X169952Y177216D01*
X167462Y176733D01*
X165049Y176022D01*
X162687Y175056D01*
X160452Y173862D01*
X158318Y172491D01*
X156337Y170891D01*
X154534Y169113D01*
X152908Y167182D01*
X151460Y165099D01*
X150216Y162890D01*
X149199Y160553D01*
X148438Y158140D01*
X147879Y155676D01*
X147574Y153136D01*
X147523Y150621D01*
X147701Y148082D01*
X148132Y145593D01*
X148794Y143129D01*
X149682Y140766D01*
X150825Y138481D01*
X152146Y136347D01*
X153695Y134315D01*
X155423Y132461D01*
X157328Y130784D01*
X159360Y129285D01*
X161544Y128015D01*
X163856Y126923D01*
X166243Y126085D01*
X168707Y125476D01*
X171221Y125120D01*
G54D16*
X1382420Y1424025D02*
X1387830Y1424025D01*
X1389634Y1424635D01*
X1390218Y1425244D01*
X1390828Y1426438D01*
X1390828Y1428242D01*
X1390218Y1429436D01*
X1389634Y1430045D01*
X1387830Y1430655D01*
X1382420Y1430655D01*
X1382420Y1418030D01*
G54D16*
X1403452Y1427632D02*
X1402842Y1428852D01*
X1401648Y1430045D01*
X1400454Y1430655D01*
X1398042Y1430655D01*
X1396848Y1430045D01*
X1395628Y1428852D01*
X1395044Y1427632D01*
X1394434Y1425828D01*
X1394434Y1422832D01*
X1395044Y1421028D01*
X1395628Y1419835D01*
X1396848Y1418615D01*
X1398042Y1418030D01*
X1400454Y1418030D01*
X1401648Y1418615D01*
X1402842Y1419835D01*
X1403452Y1421028D01*
G54D16*
X1408862Y1428242D02*
X1410056Y1428852D01*
X1411859Y1430655D01*
X1411859Y1418030D01*
G54D16*
X1423898Y1430655D02*
X1422680Y1430655D01*
X1420876Y1430045D01*
X1419682Y1428242D01*
X1419072Y1425244D01*
X1419072Y1423441D01*
X1419682Y1420419D01*
X1420876Y1418615D01*
X1422680Y1418030D01*
X1423898Y1418030D01*
X1425702Y1418615D01*
X1426896Y1420419D01*
X1427506Y1423441D01*
X1427506Y1425244D01*
X1426896Y1428242D01*
X1425702Y1430045D01*
X1423898Y1430655D01*
G54D16*
X1426896Y1428242D02*
X1419682Y1420419D01*
G54D16*
X1435913Y1430655D02*
X1434719Y1430655D01*
X1432916Y1430045D01*
X1431696Y1428242D01*
X1431112Y1425244D01*
X1431112Y1423441D01*
X1431696Y1420419D01*
X1432916Y1418615D01*
X1434719Y1418030D01*
X1435913Y1418030D01*
X1437716Y1418615D01*
X1438936Y1420419D01*
X1439520Y1423441D01*
X1439520Y1425244D01*
X1438936Y1428242D01*
X1437716Y1430045D01*
X1435913Y1430655D01*
G54D16*
X1438936Y1428242D02*
X1431696Y1420419D01*
G54D16*
X1386611Y1406830D02*
X1382420Y1406830D01*
X1382420Y1394205D01*
X1386611Y1394205D01*
X1388415Y1394815D01*
X1389634Y1396009D01*
X1390218Y1397203D01*
X1390828Y1399006D01*
X1390828Y1402029D01*
X1390218Y1403832D01*
X1389634Y1405026D01*
X1388415Y1406220D01*
X1386611Y1406830D01*
G54D16*
X1395044Y1406830D02*
X1395044Y1394205D01*
G54D16*
X1409472Y1394205D02*
X1409472Y1406830D01*
X1404646Y1394205D01*
X1399845Y1406830D01*
X1399845Y1394205D01*
G54D16*
X1423898Y1394205D02*
X1423898Y1406830D01*
X1419072Y1394205D01*
X1414272Y1406830D01*
X1414272Y1394205D01*
G54D17*
X1332662Y1400429D02*
X1330122Y1400556D01*
X1327607Y1400429D01*
X1325092Y1400048D01*
X1322628Y1399464D01*
X1320242Y1398599D01*
X1317930Y1397533D01*
X1315746Y1396263D01*
X1313688Y1394764D01*
X1311783Y1393088D01*
X1310056Y1391234D01*
X1308532Y1389202D01*
X1307186Y1387043D01*
X1306068Y1384782D01*
X1305154Y1382420D01*
X1304493Y1379956D01*
X1304062Y1377467D01*
X1303884Y1374927D01*
X1303960Y1372387D01*
X1304264Y1369873D01*
X1304798Y1367409D01*
X1305585Y1364996D01*
X1306602Y1362659D01*
X1307820Y1360449D01*
X1309268Y1358366D01*
X1310920Y1356410D01*
X1312723Y1354657D01*
X1314704Y1353058D01*
X1316812Y1351660D01*
X1319072Y1350492D01*
X1321410Y1349527D01*
X1323848Y1348816D01*
X1326338Y1348333D01*
X1328852Y1348079D01*
X1331392Y1348079D01*
X1333932Y1348333D01*
X1336421Y1348816D01*
X1338834Y1349527D01*
X1341196Y1350492D01*
X1343431Y1351660D01*
X1345565Y1353058D01*
X1347546Y1354657D01*
X1349350Y1356410D01*
X1351000Y1358366D01*
X1352423Y1360449D01*
X1353668Y1362659D01*
X1354684Y1364996D01*
X1355471Y1367409D01*
X1356004Y1369873D01*
X1356310Y1372387D01*
X1356360Y1374927D01*
X1356182Y1377467D01*
X1355750Y1379956D01*
X1355090Y1382420D01*
X1354201Y1384782D01*
X1353084Y1387043D01*
X1351738Y1389202D01*
X1350188Y1391234D01*
X1348460Y1393088D01*
X1346556Y1394764D01*
X1344524Y1396263D01*
X1342339Y1397533D01*
X1340028Y1398599D01*
X1337640Y1399464D01*
X1335176Y1400048D01*
X1332662Y1400429D01*
G54D16*
X992810Y264439D02*
X992810Y253619D01*
G54D16*
X987400Y259029D02*
X998220Y259029D01*
G54D16*
X1009650Y266242D02*
X1003630Y266242D01*
X1003046Y260832D01*
X1003630Y261416D01*
X1005434Y262026D01*
X1007237Y262026D01*
X1009040Y261416D01*
X1010260Y260222D01*
X1010844Y258419D01*
X1010844Y257225D01*
X1010260Y255422D01*
X1009040Y254203D01*
X1007237Y253619D01*
X1005434Y253619D01*
X1003630Y254203D01*
X1003046Y254813D01*
X1002436Y256006D01*
G54D16*
X1013256Y266242D02*
X1018057Y253619D01*
X1022858Y266242D01*
G54D16*
X1033678Y264439D02*
X1032484Y265633D01*
X1030682Y266242D01*
X1028268Y266242D01*
X1026464Y265633D01*
X1025271Y264439D01*
X1025271Y263220D01*
X1025881Y262026D01*
X1026464Y261416D01*
X1027684Y260832D01*
X1031291Y259613D01*
X1032484Y259029D01*
X1033094Y258419D01*
X1033678Y257225D01*
X1033678Y255422D01*
X1032484Y254203D01*
X1030682Y253619D01*
X1028268Y253619D01*
X1026464Y254203D01*
X1025271Y255422D01*
G54D16*
X1043305Y266242D02*
X1037894Y266242D01*
X1037894Y253619D01*
X1043305Y253619D01*
X1045108Y254203D01*
X1045718Y254813D01*
X1046302Y256006D01*
X1046302Y257810D01*
X1045718Y259029D01*
X1045108Y259613D01*
X1043305Y260222D01*
X1045108Y260832D01*
X1045718Y261416D01*
X1046302Y262636D01*
X1046302Y263830D01*
X1045718Y265023D01*
X1045108Y265633D01*
X1043305Y266242D01*
G54D16*
X1037894Y260222D02*
X1043305Y260222D01*
G54D16*
X331750Y484352D02*
X332943Y484936D01*
X334746Y486739D01*
X334746Y474141D01*
G54D16*
X343738Y474751D02*
X343154Y475335D01*
X342544Y474751D01*
X343154Y474141D01*
X343738Y474751D01*
G54D16*
X353340Y486739D02*
X350926Y486739D01*
X349148Y486130D01*
X348539Y484936D01*
X348539Y483743D01*
X349148Y482549D01*
X350342Y481939D01*
X352730Y481355D01*
X354534Y480746D01*
X355727Y479552D01*
X356336Y478358D01*
X356336Y476554D01*
X355727Y475335D01*
X355142Y474751D01*
X353340Y474141D01*
X350926Y474141D01*
X349148Y474751D01*
X348539Y475335D01*
X347929Y476554D01*
X347929Y478358D01*
X348539Y479552D01*
X349732Y480746D01*
X351536Y481355D01*
X353924Y481939D01*
X355142Y482549D01*
X355727Y483743D01*
X355727Y484936D01*
X355142Y486130D01*
X353340Y486739D01*
G54D16*
X358724Y486739D02*
X363525Y474141D01*
X368326Y486739D01*
G54D16*
X379120Y480136D02*
X384506Y480136D01*
X386308Y480746D01*
X386918Y481355D01*
X387502Y482549D01*
X387502Y484352D01*
X386918Y485546D01*
X386308Y486130D01*
X384506Y486739D01*
X379120Y486739D01*
X379120Y474141D01*
G54D16*
X391694Y486739D02*
X391694Y474141D01*
G54D16*
X400100Y486739D02*
X400100Y474141D01*
G54D16*
X391694Y480746D02*
X400100Y480746D01*
G54D16*
X403098Y486739D02*
X407898Y480746D01*
X407898Y474141D01*
G54D16*
X412700Y486739D02*
X407898Y480746D01*
G54D10*
X629869Y1099388D02*
X629462Y1100226D01*
X628624Y1101039D01*
X627812Y1101445D01*
X626186Y1101445D01*
X625374Y1101039D01*
X624560Y1100226D01*
X624128Y1099388D01*
X623722Y1098168D01*
X623722Y1096136D01*
X624128Y1094892D01*
X624560Y1094079D01*
X625374Y1093266D01*
X626186Y1092860D01*
X627812Y1092860D01*
X628624Y1093266D01*
X629462Y1094079D01*
X629869Y1094892D01*
G54D10*
X636397Y1101445D02*
X634772Y1101445D01*
X633958Y1101039D01*
X633120Y1100226D01*
X632714Y1099388D01*
X632308Y1098168D01*
X632308Y1096136D01*
X632714Y1094892D01*
X633120Y1094079D01*
X633958Y1093266D01*
X634772Y1092860D01*
X636397Y1092860D01*
X637210Y1093266D01*
X638048Y1094079D01*
X638454Y1094892D01*
X638861Y1096136D01*
X638861Y1098168D01*
X638454Y1099388D01*
X638048Y1100226D01*
X637210Y1101039D01*
X636397Y1101445D01*
G54D10*
X647446Y1101445D02*
X647446Y1092860D01*
X641706Y1101445D01*
X641706Y1092860D01*
G54D10*
X656032Y1101445D02*
X650698Y1101445D01*
X650698Y1092860D01*
G54D10*
X650698Y1097356D02*
X653974Y1097356D01*
G54D10*
X663372Y1097356D02*
X667055Y1097356D01*
X668274Y1097762D01*
X668706Y1098168D01*
X669112Y1098981D01*
X669112Y1099819D01*
X668706Y1100632D01*
X668274Y1101039D01*
X667055Y1101445D01*
X663372Y1101445D01*
X663372Y1092860D01*
G54D10*
X666242Y1097356D02*
X669112Y1092860D01*
G54D10*
X675640Y1101445D02*
X674014Y1101445D01*
X673202Y1101039D01*
X672363Y1100226D01*
X671957Y1099388D01*
X671550Y1098168D01*
X671550Y1096136D01*
X671957Y1094892D01*
X672363Y1094079D01*
X673202Y1093266D01*
X674014Y1092860D01*
X675640Y1092860D01*
X676453Y1093266D01*
X677291Y1094079D01*
X677698Y1094892D01*
X678104Y1096136D01*
X678104Y1098168D01*
X677698Y1099388D01*
X677291Y1100226D01*
X676453Y1101039D01*
X675640Y1101445D01*
G54D10*
X687502Y1092860D02*
X687502Y1101445D01*
X684226Y1092860D01*
X680948Y1101445D01*
X680948Y1092860D01*
G54D17*
X1045591Y216864D02*
X1045718Y219405D01*
X1045591Y221919D01*
X1045210Y224434D01*
X1044600Y226898D01*
X1043762Y229285D01*
X1042695Y231597D01*
X1041400Y233781D01*
X1039927Y235839D01*
X1038250Y237744D01*
X1036371Y239471D01*
X1034364Y240995D01*
X1032205Y242341D01*
X1029944Y243459D01*
X1027557Y244373D01*
X1025119Y245033D01*
X1022630Y245465D01*
X1020090Y245643D01*
X1017550Y245567D01*
X1015034Y245262D01*
X1012571Y244729D01*
X1010158Y243941D01*
X1007822Y242925D01*
X1005611Y241706D01*
X1003528Y240258D01*
X1001572Y238607D01*
X999794Y236804D01*
X998220Y234823D01*
X996823Y232714D01*
X995654Y230454D01*
X994690Y228117D01*
X993978Y225679D01*
X993470Y223190D01*
X993242Y220675D01*
X993242Y218135D01*
X993470Y215595D01*
X993978Y213106D01*
X994690Y210692D01*
X995654Y208330D01*
X996823Y206095D01*
X998220Y203961D01*
X999794Y201981D01*
X1001572Y200177D01*
X1003528Y198552D01*
X1005611Y197104D01*
X1007822Y195859D01*
X1010158Y194843D01*
X1012571Y194081D01*
X1015034Y193522D01*
X1017550Y193218D01*
X1020090Y193166D01*
X1022630Y193345D01*
X1025119Y193776D01*
X1027557Y194437D01*
X1029944Y195326D01*
X1032205Y196443D01*
X1034364Y197789D01*
X1036371Y199338D01*
X1038250Y201066D01*
X1039927Y202971D01*
X1041400Y205003D01*
X1042695Y207188D01*
X1043762Y209499D01*
X1044600Y211886D01*
X1045210Y214350D01*
X1045591Y216864D01*
G54D16*
X952196Y671169D02*
X949782Y671169D01*
X948004Y670560D01*
X947395Y669366D01*
X947395Y668172D01*
X948004Y666978D01*
X949198Y666369D01*
X951586Y665785D01*
X953389Y665175D01*
X954583Y663981D01*
X955192Y662787D01*
X955192Y660984D01*
X954583Y659790D01*
X953974Y659180D01*
X952196Y658596D01*
X949782Y658596D01*
X948004Y659180D01*
X947395Y659790D01*
X946810Y660984D01*
X946810Y662787D01*
X947395Y663981D01*
X948588Y665175D01*
X950392Y665785D01*
X952779Y666369D01*
X953974Y666978D01*
X954583Y668172D01*
X954583Y669366D01*
X953974Y670560D01*
X952196Y671169D01*
G54D16*
X963574Y671169D02*
X962355Y671169D01*
X960577Y670560D01*
X959384Y668782D01*
X958774Y665785D01*
X958774Y663981D01*
X959384Y660984D01*
X960577Y659180D01*
X962355Y658596D01*
X963574Y658596D01*
X965352Y659180D01*
X966546Y660984D01*
X967156Y663981D01*
X967156Y665785D01*
X966546Y668782D01*
X965352Y670560D01*
X963574Y671169D01*
G54D16*
X966546Y668782D02*
X959384Y660984D01*
G54D16*
X976732Y658596D02*
X976732Y671169D01*
X970738Y662787D01*
X979728Y662787D01*
G54D16*
X988111Y671169D02*
X985724Y671169D01*
X983920Y670560D01*
X983310Y669366D01*
X983310Y668172D01*
X983920Y666978D01*
X985114Y666369D01*
X987502Y665785D01*
X989304Y665175D01*
X990498Y663981D01*
X991108Y662787D01*
X991108Y660984D01*
X990498Y659790D01*
X989914Y659180D01*
X988111Y658596D01*
X985724Y658596D01*
X983920Y659180D01*
X983310Y659790D01*
X982726Y660984D01*
X982726Y662787D01*
X983310Y663981D01*
X984529Y665175D01*
X986307Y665785D01*
X988720Y666369D01*
X989914Y666978D01*
X990498Y668172D01*
X990498Y669366D01*
X989914Y670560D01*
X988111Y671169D01*
G54D16*
X1002488Y669366D02*
X1001878Y670560D01*
X1000074Y671169D01*
X998880Y671169D01*
X997102Y670560D01*
X995883Y668782D01*
X995299Y665785D01*
X995299Y662787D01*
X995883Y660399D01*
X997102Y659180D01*
X998880Y658596D01*
X999490Y658596D01*
X1001293Y659180D01*
X1002488Y660399D01*
X1003071Y662177D01*
X1003071Y662787D01*
X1002488Y664591D01*
X1001293Y665785D01*
X999490Y666369D01*
X998880Y666369D01*
X997102Y665785D01*
X995883Y664591D01*
X995299Y662787D01*
G54D16*
X1023442Y668172D02*
X1022832Y669366D01*
X1021639Y670560D01*
X1020445Y671169D01*
X1018057Y671169D01*
X1016838Y670560D01*
X1015644Y669366D01*
X1015060Y668172D01*
X1014451Y666369D01*
X1014451Y663371D01*
X1015060Y661593D01*
X1015644Y660399D01*
X1016838Y659180D01*
X1018057Y658596D01*
X1020445Y658596D01*
X1021639Y659180D01*
X1022832Y660399D01*
X1023442Y661593D01*
G54D16*
X1027633Y664591D02*
X1033018Y664591D01*
X1034821Y665175D01*
X1035406Y665785D01*
X1036016Y666978D01*
X1036016Y668782D01*
X1035406Y669975D01*
X1034821Y670560D01*
X1033018Y671169D01*
X1027633Y671169D01*
X1027633Y658596D01*
G54D16*
X1040206Y671169D02*
X1040206Y662177D01*
X1040790Y660399D01*
X1041984Y659180D01*
X1043788Y658596D01*
X1044982Y658596D01*
X1046784Y659180D01*
X1047979Y660399D01*
X1048588Y662177D01*
X1048588Y671169D01*
G54D16*
X980186Y1126160D02*
X972388Y1126160D01*
X972388Y1113587D01*
X980186Y1113587D01*
G54D16*
X972388Y1120165D02*
X977188Y1120165D01*
G54D16*
X983768Y1119581D02*
X989152Y1119581D01*
X990956Y1120165D01*
X991540Y1120774D01*
X992150Y1121968D01*
X992150Y1123772D01*
X991540Y1124966D01*
X990956Y1125550D01*
X989152Y1126160D01*
X983768Y1126160D01*
X983768Y1113587D01*
G54D16*
X1001726Y1113587D02*
X1001726Y1126160D01*
X995731Y1117777D01*
X1004697Y1117777D01*
G54D16*
X1016686Y1123162D02*
X1016076Y1124356D01*
X1014882Y1125550D01*
X1013689Y1126160D01*
X1011301Y1126160D01*
X1010082Y1125550D01*
X1008888Y1124356D01*
X1008304Y1123162D01*
X1007694Y1121359D01*
X1007694Y1118387D01*
X1008304Y1116584D01*
X1008888Y1115390D01*
X1010082Y1114196D01*
X1011301Y1113587D01*
X1013689Y1113587D01*
X1014882Y1114196D01*
X1016076Y1115390D01*
X1016686Y1116584D01*
G54D16*
X1028649Y1126160D02*
X1020852Y1126160D01*
X1020852Y1113587D01*
X1028649Y1113587D01*
G54D16*
X1020852Y1120165D02*
X1025652Y1120165D01*
G54D16*
X1033424Y1123772D02*
X1034618Y1124356D01*
X1036422Y1126160D01*
X1036422Y1113587D01*
G54D16*
X1050772Y1126160D02*
X1044804Y1126160D01*
X1044194Y1120774D01*
X1044804Y1121359D01*
X1046582Y1121968D01*
X1048385Y1121968D01*
X1050188Y1121359D01*
X1051382Y1120165D01*
X1051966Y1118387D01*
X1051966Y1117168D01*
X1051382Y1115390D01*
X1050188Y1114196D01*
X1048385Y1113587D01*
X1046582Y1113587D01*
X1044804Y1114196D01*
X1044194Y1114781D01*
X1043610Y1115974D01*
G54D16*
X1063955Y1126160D02*
X1056158Y1126160D01*
X1056158Y1113587D01*
G54D16*
X1056158Y1120165D02*
X1060958Y1120165D01*
G54D16*
X1066927Y1123162D02*
X1066927Y1123772D01*
X1067536Y1124966D01*
X1068121Y1125550D01*
X1069340Y1126160D01*
X1071728Y1126160D01*
X1072922Y1125550D01*
X1073506Y1124966D01*
X1074116Y1123772D01*
X1074116Y1122578D01*
X1073506Y1121359D01*
X1072312Y1119581D01*
X1066343Y1113587D01*
X1074725Y1113587D01*
G54D16*
X1079500Y1126160D02*
X1086078Y1126160D01*
X1082497Y1121359D01*
X1084275Y1121359D01*
X1085494Y1120774D01*
X1086078Y1120165D01*
X1086688Y1118387D01*
X1086688Y1117168D01*
X1086078Y1115390D01*
X1084885Y1114196D01*
X1083082Y1113587D01*
X1081304Y1113587D01*
X1079500Y1114196D01*
X1078890Y1114781D01*
X1078306Y1115974D01*
G54D11*
X385648Y1502511D02*
X388391Y1499082D01*
X388391Y1495298D01*
G54D11*
X391160Y1502511D02*
X388391Y1499082D01*
G54D11*
X398374Y1495298D02*
X398374Y1502511D01*
X395630Y1495298D01*
X392862Y1502511D01*
X392862Y1495298D01*
G54D11*
X401472Y1502511D02*
X405232Y1502511D01*
X403174Y1499768D01*
X404216Y1499768D01*
X404902Y1499438D01*
X405232Y1499082D01*
X405588Y1498066D01*
X405588Y1497355D01*
X405232Y1496339D01*
X404546Y1495654D01*
X403530Y1495298D01*
X402488Y1495298D01*
X401472Y1495654D01*
X401116Y1495983D01*
X400786Y1496669D01*
G54D11*
X410744Y1502511D02*
X409372Y1502511D01*
X408330Y1502181D01*
X408000Y1501495D01*
X408000Y1500809D01*
X408330Y1500123D01*
X409016Y1499768D01*
X410388Y1499438D01*
X411429Y1499082D01*
X412115Y1498397D01*
X412470Y1497711D01*
X412470Y1496669D01*
X412115Y1495983D01*
X411784Y1495654D01*
X410744Y1495298D01*
X409372Y1495298D01*
X408330Y1495654D01*
X408000Y1495983D01*
X407645Y1496669D01*
X407645Y1497711D01*
X408000Y1498397D01*
X408686Y1499082D01*
X409702Y1499438D01*
X411099Y1499768D01*
X411784Y1500123D01*
X412115Y1500809D01*
X412115Y1501495D01*
X411784Y1502181D01*
X410744Y1502511D01*
G54D11*
X415544Y1501140D02*
X416256Y1501495D01*
X417271Y1502511D01*
X417271Y1495298D01*
G54D11*
X421742Y1500809D02*
X421742Y1501140D01*
X422098Y1501826D01*
X422428Y1502181D01*
X423114Y1502511D01*
X424485Y1502511D01*
X425170Y1502181D01*
X425526Y1501826D01*
X425856Y1501140D01*
X425856Y1500454D01*
X425526Y1499768D01*
X424840Y1498752D01*
X421412Y1495298D01*
X426212Y1495298D01*
G54D17*
X714908Y1603578D02*
X717423Y1603502D01*
X719938Y1603578D01*
X722427Y1603857D01*
X724916Y1604315D01*
X727354Y1604924D01*
X729742Y1605712D01*
X732054Y1606677D01*
X734288Y1607794D01*
X736448Y1609090D01*
X738530Y1610512D01*
X740486Y1612086D01*
X742315Y1613814D01*
X744042Y1615642D01*
X745617Y1617599D01*
X747040Y1619656D01*
X748335Y1621841D01*
X749452Y1624076D01*
X750418Y1626387D01*
X751205Y1628774D01*
X751814Y1631213D01*
X752272Y1633677D01*
X752526Y1636192D01*
X752627Y1638706D01*
X752526Y1641220D01*
X752272Y1643710D01*
X751814Y1646174D01*
X751205Y1648612D01*
X750418Y1651000D01*
X749452Y1653311D01*
X748335Y1655571D01*
X747040Y1657731D01*
X745617Y1659788D01*
X744042Y1661744D01*
X742315Y1663598D01*
X740486Y1665300D01*
X738530Y1666875D01*
X736448Y1668297D01*
X734288Y1669593D01*
X732054Y1670710D01*
X729742Y1671675D01*
X727354Y1672463D01*
X724916Y1673097D01*
X722427Y1673529D01*
X719938Y1673808D01*
X717423Y1673885D01*
X714908Y1673808D01*
X712420Y1673529D01*
X709956Y1673097D01*
X707517Y1672463D01*
X705130Y1671675D01*
X702818Y1670710D01*
X700557Y1669593D01*
X698398Y1668297D01*
X696341Y1666875D01*
X694385Y1665300D01*
X692531Y1663598D01*
X690829Y1661744D01*
X689254Y1659788D01*
X687832Y1657731D01*
X686536Y1655571D01*
X685419Y1653311D01*
X684454Y1651000D01*
X683666Y1648612D01*
X683032Y1646174D01*
X682600Y1643710D01*
X682320Y1641220D01*
X682244Y1638706D01*
X682320Y1636192D01*
X682600Y1633677D01*
X683032Y1631213D01*
X683666Y1628774D01*
X684454Y1626387D01*
X685419Y1624076D01*
X686536Y1621841D01*
X687832Y1619656D01*
X689254Y1617599D01*
X690829Y1615642D01*
X692531Y1613814D01*
X694385Y1612086D01*
X696341Y1610512D01*
X698398Y1609090D01*
X700557Y1607794D01*
X702818Y1606677D01*
X705130Y1605712D01*
X707517Y1604924D01*
X709956Y1604315D01*
X712420Y1603857D01*
X714908Y1603578D01*
G54D10*
X1547648Y149808D02*
X1547648Y144094D01*
G54D10*
X1547648Y148184D02*
X1548866Y149402D01*
X1549680Y149808D01*
X1550898Y149808D01*
X1551712Y149402D01*
X1552118Y148184D01*
X1552118Y144094D01*
G54D10*
X1552118Y148184D02*
X1553337Y149402D01*
X1554150Y149808D01*
X1555369Y149808D01*
X1556182Y149402D01*
X1556588Y148184D01*
X1556588Y144094D01*
G54D10*
X1559864Y152653D02*
X1559864Y144094D01*
G54D10*
X1564742Y152653D02*
X1564742Y144094D01*
G54D10*
X1561896Y152653D02*
X1567586Y152653D01*
G54D10*
X1569237Y152653D02*
X1574927Y144094D01*
G54D10*
X1574927Y152653D02*
X1569237Y144094D01*
G54D10*
X1577797Y147777D02*
X1585112Y147777D01*
G54D10*
X1592046Y144094D02*
X1592046Y152653D01*
X1587982Y146964D01*
X1594078Y146964D01*
G54D10*
X1599794Y152653D02*
X1598168Y152653D01*
X1596924Y152247D01*
X1596517Y151434D01*
X1596517Y150621D01*
X1596924Y149808D01*
X1597762Y149402D01*
X1599387Y148996D01*
X1600606Y148590D01*
X1601420Y147777D01*
X1601826Y146964D01*
X1601826Y145720D01*
X1601420Y144907D01*
X1601013Y144501D01*
X1599794Y144094D01*
X1598168Y144094D01*
X1596924Y144501D01*
X1596517Y144907D01*
X1596110Y145720D01*
X1596110Y146964D01*
X1596517Y147777D01*
X1597330Y148590D01*
X1598574Y148996D01*
X1600200Y149402D01*
X1601013Y149808D01*
X1601420Y150621D01*
X1601420Y151434D01*
X1601013Y152247D01*
X1599794Y152653D01*
G54D10*
X1609572Y151434D02*
X1609166Y152247D01*
X1607947Y152653D01*
X1607109Y152653D01*
X1605890Y152247D01*
X1605076Y151028D01*
X1604670Y148996D01*
X1604670Y146964D01*
X1605076Y145313D01*
X1605890Y144501D01*
X1607109Y144094D01*
X1607516Y144094D01*
X1608760Y144501D01*
X1609572Y145313D01*
X1609979Y146532D01*
X1609979Y146964D01*
X1609572Y148184D01*
X1608760Y148996D01*
X1607516Y149402D01*
X1607109Y149402D01*
X1605890Y148996D01*
X1605076Y148184D01*
X1604670Y146964D01*
G54D10*
X1547648Y132334D02*
X1551305Y132334D01*
X1552524Y132740D01*
X1552930Y133147D01*
X1553337Y133960D01*
X1553337Y134772D01*
X1552930Y135585D01*
X1552524Y135991D01*
X1551305Y136397D01*
X1547648Y136397D01*
X1547648Y127838D01*
G54D10*
X1550492Y132334D02*
X1553337Y127838D01*
G54D10*
X1556182Y132334D02*
X1555776Y131115D01*
X1560678Y131115D01*
X1560678Y131927D01*
X1560271Y132740D01*
X1559864Y133147D01*
X1559052Y133553D01*
X1557833Y133553D01*
X1556994Y133147D01*
X1556182Y132334D01*
G54D10*
X1555776Y131115D02*
X1555776Y130302D01*
X1556182Y129082D01*
X1556994Y128244D01*
X1557833Y127838D01*
X1559052Y127838D01*
X1559864Y128244D01*
X1560678Y129082D01*
G54D10*
X1562710Y133553D02*
X1565148Y127838D01*
X1567612Y133553D01*
G54D10*
X1570863Y128244D02*
X1570456Y128676D01*
X1570050Y128244D01*
X1570456Y127838D01*
X1570863Y128244D01*
G54D10*
X1579422Y134366D02*
X1579422Y134772D01*
X1579829Y135585D01*
X1580236Y135991D01*
X1581048Y136397D01*
X1582674Y136397D01*
X1583487Y135991D01*
X1583894Y135585D01*
X1584300Y134772D01*
X1584300Y133960D01*
X1583894Y133147D01*
X1583080Y131927D01*
X1579016Y127838D01*
X1584706Y127838D01*
G54D10*
X1595704Y138023D02*
X1592860Y138023D01*
X1592860Y124993D01*
X1595704Y124993D01*
G54D10*
X1598574Y131521D02*
X1605890Y131521D01*
G54D10*
X1612011Y136397D02*
X1611198Y136397D01*
X1609979Y135991D01*
X1609166Y134772D01*
X1608760Y132740D01*
X1608760Y131521D01*
X1609166Y129489D01*
X1609979Y128244D01*
X1611198Y127838D01*
X1612011Y127838D01*
X1613230Y128244D01*
X1614043Y129489D01*
X1614450Y131521D01*
X1614450Y132740D01*
X1614043Y134772D01*
X1613230Y135991D01*
X1612011Y136397D01*
G54D10*
X1614043Y134772D02*
X1609166Y129489D01*
G54D10*
X1620571Y136397D02*
X1618946Y136397D01*
X1617701Y135991D01*
X1617294Y135179D01*
X1617294Y134366D01*
X1617701Y133553D01*
X1618539Y133147D01*
X1620164Y132740D01*
X1621384Y132334D01*
X1622196Y131521D01*
X1622602Y130708D01*
X1622602Y129489D01*
X1622196Y128676D01*
X1621790Y128244D01*
X1620571Y127838D01*
X1618946Y127838D01*
X1617701Y128244D01*
X1617294Y128676D01*
X1616888Y129489D01*
X1616888Y130708D01*
X1617294Y131521D01*
X1618132Y132334D01*
X1619352Y132740D01*
X1620978Y133147D01*
X1621790Y133553D01*
X1622196Y134366D01*
X1622196Y135179D01*
X1621790Y135991D01*
X1620571Y136397D01*
G54D10*
X1626260Y128244D02*
X1625854Y128676D01*
X1625448Y128244D01*
X1625854Y127838D01*
X1626260Y128244D01*
G54D10*
X1632382Y136397D02*
X1631569Y136397D01*
X1630350Y135991D01*
X1629537Y134772D01*
X1629131Y132740D01*
X1629131Y131521D01*
X1629537Y129489D01*
X1630350Y128244D01*
X1631569Y127838D01*
X1632382Y127838D01*
X1633601Y128244D01*
X1634414Y129489D01*
X1634820Y131521D01*
X1634820Y132740D01*
X1634414Y134772D01*
X1633601Y135991D01*
X1632382Y136397D01*
G54D10*
X1634414Y134772D02*
X1629537Y129489D01*
G54D10*
X1637665Y134366D02*
X1637665Y134772D01*
X1638097Y135585D01*
X1638504Y135991D01*
X1639316Y136397D01*
X1640942Y136397D01*
X1641754Y135991D01*
X1642160Y135585D01*
X1642567Y134772D01*
X1642567Y133960D01*
X1642160Y133147D01*
X1641348Y131927D01*
X1637258Y127838D01*
X1642974Y127838D01*
G54D10*
X1646631Y128244D02*
X1646225Y128676D01*
X1645818Y128244D01*
X1646225Y127838D01*
X1646631Y128244D01*
G54D10*
X1649908Y134366D02*
X1649908Y134772D01*
X1650314Y135585D01*
X1650720Y135991D01*
X1651534Y136397D01*
X1653159Y136397D01*
X1653972Y135991D01*
X1654378Y135585D01*
X1654785Y134772D01*
X1654785Y133960D01*
X1654378Y133147D01*
X1653566Y131927D01*
X1649501Y127838D01*
X1655191Y127838D01*
G54D10*
X1660906Y136397D02*
X1660093Y136397D01*
X1658874Y135991D01*
X1658061Y134772D01*
X1657630Y132740D01*
X1657630Y131521D01*
X1658061Y129489D01*
X1658874Y128244D01*
X1660093Y127838D01*
X1660906Y127838D01*
X1662126Y128244D01*
X1662938Y129489D01*
X1663344Y131521D01*
X1663344Y132740D01*
X1662938Y134772D01*
X1662126Y135991D01*
X1660906Y136397D01*
G54D10*
X1662938Y134772D02*
X1658061Y129489D01*
G54D10*
X1666189Y134366D02*
X1666189Y134772D01*
X1666596Y135585D01*
X1667002Y135991D01*
X1667815Y136397D01*
X1669466Y136397D01*
X1670278Y135991D01*
X1670685Y135585D01*
X1671092Y134772D01*
X1671092Y133960D01*
X1670685Y133147D01*
X1669872Y131927D01*
X1665782Y127838D01*
X1671498Y127838D01*
G54D10*
X1678000Y127838D02*
X1678000Y136397D01*
X1673936Y130708D01*
X1680058Y130708D01*
G54D10*
X1682090Y138023D02*
X1684934Y138023D01*
X1684934Y124993D01*
X1682090Y124993D01*
G54D10*
X1293774Y427685D02*
X1291234Y427710D01*
X1288694Y427685D01*
X1286180Y427608D01*
X1283640Y427481D01*
X1281100Y427278D01*
X1278586Y427024D01*
X1276070Y426720D01*
X1273556Y426339D01*
X1271042Y425932D01*
X1268552Y425450D01*
X1266063Y424917D01*
X1263600Y424332D01*
X1261160Y423697D01*
X1258697Y422986D01*
X1256284Y422249D01*
X1253871Y421436D01*
X1251484Y420598D01*
X1249121Y419683D01*
X1246759Y418718D01*
X1244448Y417703D01*
X1242136Y416636D01*
X1239850Y415518D01*
X1237615Y414349D01*
X1235380Y413131D01*
X1233170Y411886D01*
X1231011Y410565D01*
X1228877Y409194D01*
X1226744Y407797D01*
X1224686Y406349D01*
X1222629Y404850D01*
X1220622Y403301D01*
X1218642Y401701D01*
X1216686Y400075D01*
X1214780Y398399D01*
X1212926Y396671D01*
X1211097Y394918D01*
X1209320Y393115D01*
X1207567Y391287D01*
X1205840Y389407D01*
X1204189Y387476D01*
X1202563Y385546D01*
X1200988Y383539D01*
X1199438Y381533D01*
X1197966Y379476D01*
X1196518Y377392D01*
X1195121Y375259D01*
X1193774Y373125D01*
X1192479Y370941D01*
X1191210Y368731D01*
X1190015Y366496D01*
X1188847Y364235D01*
X1187754Y361950D01*
X1186714Y359639D01*
X1185698Y357302D01*
X1184758Y354965D01*
X1183869Y352577D01*
X1183005Y350190D01*
X1182218Y347776D01*
X1181481Y345338D01*
X1180820Y342899D01*
X1180186Y340435D01*
X1179602Y337972D01*
X1179094Y335483D01*
X1178636Y332994D01*
X1178230Y330479D01*
X1177874Y327964D01*
X1177570Y325450D01*
X1177340Y322935D01*
X1177163Y320395D01*
X1177036Y317855D01*
X1176960Y315315D01*
X1176934Y312800D01*
X1176985Y310261D01*
X1177086Y307720D01*
X1177240Y305181D01*
X1177442Y302640D01*
X1177722Y300126D01*
X1178052Y297611D01*
X1178433Y295097D01*
X1178864Y292608D01*
X1179347Y290119D01*
X1179880Y287629D01*
X1180490Y285166D01*
X1181151Y282727D01*
X1181862Y280289D01*
X1182624Y277850D01*
X1183436Y275463D01*
X1184300Y273075D01*
X1185214Y270713D01*
X1186206Y268376D01*
X1187222Y266039D01*
X1188314Y263753D01*
X1189432Y261467D01*
X1190600Y259232D01*
X1191844Y256997D01*
X1193114Y254813D01*
X1194435Y252653D01*
X1195806Y250519D01*
X1197229Y248412D01*
X1198702Y246329D01*
X1200200Y244297D01*
X1201776Y242290D01*
X1203376Y240334D01*
X1205001Y238404D01*
X1206703Y236499D01*
X1208430Y234644D01*
X1210208Y232816D01*
X1212012Y231038D01*
X1213866Y229310D01*
X1215746Y227609D01*
X1217676Y225958D01*
X1219632Y224332D01*
X1221613Y222783D01*
X1223645Y221259D01*
X1225702Y219761D01*
X1227810Y218338D01*
X1229944Y216966D01*
X1232078Y215620D01*
X1234288Y214325D01*
X1236498Y213080D01*
X1238732Y211886D01*
X1240993Y210769D01*
X1243280Y209677D01*
X1245616Y208635D01*
X1247953Y207645D01*
X1250290Y206705D01*
X1252677Y205816D01*
X1255090Y205003D01*
X1257504Y204216D01*
X1259916Y203505D01*
X1262380Y202819D01*
X1264844Y202209D01*
X1267308Y201650D01*
X1269796Y201143D01*
X1272286Y200710D01*
X1274800Y200304D01*
X1277315Y199974D01*
X1279830Y199694D01*
X1282370Y199466D01*
X1284910Y199288D01*
X1287424Y199186D01*
X1289964Y199136D01*
X1292504Y199136D01*
X1295044Y199186D01*
X1297584Y199288D01*
X1300124Y199466D01*
X1302639Y199694D01*
X1305154Y199974D01*
X1307668Y200304D01*
X1310183Y200710D01*
X1312698Y201143D01*
X1315161Y201650D01*
X1317650Y202209D01*
X1320114Y202819D01*
X1322552Y203505D01*
X1324991Y204216D01*
X1327404Y205003D01*
X1329817Y205816D01*
X1332179Y206705D01*
X1334542Y207645D01*
X1336878Y208635D01*
X1339190Y209677D01*
X1341476Y210769D01*
X1343762Y211886D01*
X1345997Y213080D01*
X1348206Y214325D01*
X1350391Y215620D01*
X1352550Y216966D01*
X1354684Y218338D01*
X1356766Y219761D01*
X1358850Y221259D01*
X1360856Y222783D01*
X1362862Y224332D01*
X1364818Y225958D01*
X1366748Y227609D01*
X1368628Y229310D01*
X1370482Y231038D01*
X1372286Y232816D01*
X1374064Y234644D01*
X1375791Y236499D01*
X1377468Y238404D01*
X1379118Y240334D01*
X1380718Y242290D01*
X1382268Y244297D01*
X1383792Y246329D01*
X1385266Y248412D01*
X1386662Y250519D01*
X1388060Y252653D01*
X1389380Y254813D01*
X1390650Y256997D01*
X1391869Y259232D01*
X1393063Y261467D01*
X1394180Y263753D01*
X1395273Y266039D01*
X1396289Y268376D01*
X1397254Y270713D01*
X1398194Y273075D01*
X1399057Y275463D01*
X1399870Y277850D01*
X1400632Y280289D01*
X1401344Y282727D01*
X1402004Y285166D01*
X1402588Y287629D01*
X1403146Y290119D01*
X1403630Y292608D01*
X1404061Y295097D01*
X1404442Y297611D01*
X1404772Y300126D01*
X1405026Y302640D01*
X1405255Y305181D01*
X1405408Y307720D01*
X1405509Y310261D01*
X1405534Y312800D01*
X1405534Y315315D01*
X1405458Y317855D01*
X1405331Y320395D01*
X1405153Y322935D01*
X1404900Y325450D01*
X1404620Y327964D01*
X1404264Y330479D01*
X1403858Y332994D01*
X1403401Y335483D01*
X1402868Y337972D01*
X1402308Y340435D01*
X1401674Y342899D01*
X1400988Y345338D01*
X1400252Y347776D01*
X1399464Y350190D01*
X1398626Y352577D01*
X1397736Y354965D01*
X1396772Y357302D01*
X1395780Y359639D01*
X1394740Y361950D01*
X1393622Y364235D01*
X1392478Y366496D01*
X1391260Y368731D01*
X1390015Y370941D01*
X1388720Y373125D01*
X1387374Y375259D01*
X1385976Y377392D01*
X1384528Y379476D01*
X1383030Y381533D01*
X1381506Y383539D01*
X1379932Y385546D01*
X1378306Y387476D01*
X1376630Y389407D01*
X1374928Y391287D01*
X1373174Y393115D01*
X1371396Y394918D01*
X1369568Y396671D01*
X1367688Y398399D01*
X1365784Y400075D01*
X1363853Y401701D01*
X1361872Y403301D01*
X1359866Y404850D01*
X1357808Y406349D01*
X1355725Y407797D01*
X1353616Y409194D01*
X1351483Y410565D01*
X1349298Y411886D01*
X1347114Y413131D01*
X1344880Y414349D01*
X1342619Y415518D01*
X1340332Y416636D01*
X1338046Y417703D01*
X1335710Y418718D01*
X1333373Y419683D01*
X1330986Y420598D01*
X1328598Y421436D01*
X1326210Y422249D01*
X1323772Y422986D01*
X1321334Y423697D01*
X1318870Y424332D01*
X1316406Y424917D01*
X1313942Y425450D01*
X1311428Y425932D01*
X1308938Y426339D01*
X1306424Y426720D01*
X1303909Y427024D01*
X1301369Y427278D01*
X1298854Y427481D01*
X1296314Y427608D01*
X1293774Y427685D01*
G54D16*
X1587856Y1588490D02*
X1587856Y1579498D01*
X1588465Y1577695D01*
X1589659Y1576476D01*
X1591462Y1575892D01*
X1592656Y1575892D01*
X1594460Y1576476D01*
X1595679Y1577695D01*
X1596263Y1579498D01*
X1596263Y1588490D01*
G54D16*
X1608887Y1586687D02*
X1607693Y1587906D01*
X1605890Y1588490D01*
X1603476Y1588490D01*
X1601673Y1587906D01*
X1600480Y1586687D01*
X1600480Y1585493D01*
X1601064Y1584299D01*
X1601673Y1583690D01*
X1602867Y1583080D01*
X1606474Y1581886D01*
X1607693Y1581276D01*
X1608277Y1580692D01*
X1608887Y1579498D01*
X1608887Y1577695D01*
X1607693Y1576476D01*
X1605890Y1575892D01*
X1603476Y1575892D01*
X1601673Y1576476D01*
X1600480Y1577695D01*
G54D16*
X1618488Y1588490D02*
X1613078Y1588490D01*
X1613078Y1575892D01*
X1618488Y1575892D01*
X1620292Y1576476D01*
X1620901Y1577086D01*
X1621510Y1578279D01*
X1621510Y1580083D01*
X1620901Y1581276D01*
X1620292Y1581886D01*
X1618488Y1582496D01*
X1620292Y1583080D01*
X1620901Y1583690D01*
X1621510Y1584884D01*
X1621510Y1586103D01*
X1620901Y1587296D01*
X1620292Y1587906D01*
X1618488Y1588490D01*
G54D16*
X1613078Y1582496D02*
X1618488Y1582496D01*
G54D16*
X1626896Y1586103D02*
X1628114Y1586687D01*
X1629918Y1588490D01*
X1629918Y1575892D01*
G54D16*
X1637106Y1577086D02*
X1637716Y1576476D01*
X1637106Y1575892D01*
X1636522Y1576476D01*
X1637106Y1577086D01*
G54D16*
X1637716Y1576476D02*
X1637716Y1575282D01*
X1637106Y1574089D01*
X1636522Y1573478D01*
G54D16*
X1642516Y1585493D02*
X1642516Y1586103D01*
X1643126Y1587296D01*
X1643736Y1587906D01*
X1644930Y1588490D01*
X1647342Y1588490D01*
X1648536Y1587906D01*
X1649120Y1587296D01*
X1649730Y1586103D01*
X1649730Y1584884D01*
X1649120Y1583690D01*
X1647926Y1581886D01*
X1641932Y1575892D01*
X1650340Y1575892D01*
G54D18*
X972516Y794384D02*
X972516Y768121D01*
G54D18*
X972516Y786866D02*
X978128Y792505D01*
X981888Y794384D01*
X987502Y794384D01*
X991260Y792505D01*
X993140Y786866D01*
X993140Y768121D01*
G54D18*
X993140Y786866D02*
X998754Y792505D01*
X1002512Y794384D01*
X1008126Y794384D01*
X1011885Y792505D01*
X1013765Y786866D01*
X1013765Y768121D01*
G54D18*
X1028751Y807491D02*
X1028751Y768121D01*
G54D18*
X1051256Y807491D02*
X1051256Y768121D01*
G54D18*
X1038124Y807491D02*
X1064387Y807491D01*
G54D18*
X1071880Y807491D02*
X1098118Y768121D01*
G54D18*
X1098118Y807491D02*
X1071880Y768121D01*
G54D18*
X1111250Y784987D02*
X1145007Y784987D01*
G54D18*
X1176884Y768121D02*
X1176884Y807491D01*
X1158138Y781252D01*
X1186256Y781252D01*
G54D18*
X1212494Y807491D02*
X1205001Y807491D01*
X1199388Y805611D01*
X1197508Y801877D01*
X1197508Y798119D01*
X1199388Y794384D01*
X1203122Y792505D01*
X1210640Y790625D01*
X1216254Y788746D01*
X1220013Y784987D01*
X1221892Y781252D01*
X1221892Y775614D01*
X1220013Y771880D01*
X1218133Y770000D01*
X1212494Y768121D01*
X1205001Y768121D01*
X1199388Y770000D01*
X1197508Y771880D01*
X1195628Y775614D01*
X1195628Y781252D01*
X1197508Y784987D01*
X1201268Y788746D01*
X1206881Y790625D01*
X1214374Y792505D01*
X1218133Y794384D01*
X1220013Y798119D01*
X1220013Y801877D01*
X1218133Y805611D01*
X1212494Y807491D01*
G54D18*
X1257504Y801877D02*
X1255624Y805611D01*
X1250010Y807491D01*
X1246251Y807491D01*
X1240638Y805611D01*
X1236878Y799998D01*
X1234999Y790625D01*
X1234999Y781252D01*
X1236878Y773760D01*
X1240638Y770000D01*
X1246251Y768121D01*
X1248131Y768121D01*
X1253744Y770000D01*
X1257504Y773760D01*
X1259382Y779373D01*
X1259382Y781252D01*
X1257504Y786866D01*
X1253744Y790625D01*
X1248131Y792505D01*
X1246251Y792505D01*
X1240638Y790625D01*
X1236878Y786866D01*
X1234999Y781252D01*
G54D18*
X1296873Y788746D02*
X1313764Y788746D01*
X1319378Y790625D01*
X1321257Y792505D01*
X1323137Y796239D01*
X1323137Y799998D01*
X1321257Y803757D01*
X1319378Y805611D01*
X1313764Y807491D01*
X1296873Y807491D01*
X1296873Y768121D01*
G54D18*
X1310005Y788746D02*
X1323137Y768121D01*
G54D18*
X1336243Y798119D02*
X1336243Y799998D01*
X1338123Y803757D01*
X1340002Y805611D01*
X1343762Y807491D01*
X1351254Y807491D01*
X1355014Y805611D01*
X1356868Y803757D01*
X1358748Y799998D01*
X1358748Y796239D01*
X1356868Y792505D01*
X1353134Y786866D01*
X1334389Y768121D01*
X1360628Y768121D01*
G54D16*
X392582Y250392D02*
X392582Y240233D01*
X384962Y240233D01*
G54D16*
X369722Y240233D02*
X362102Y240233D01*
X362102Y250392D01*
G54D16*
X379882Y252933D02*
X374802Y252933D01*
G54D16*
X855091Y212877D02*
X855091Y202717D01*
X847471Y202717D01*
G54D16*
X832231Y202717D02*
X824611Y202717D01*
X824611Y212877D01*
G54D16*
X842391Y215417D02*
X837311Y215417D01*
G54D16*
X1339088Y1322222D02*
X1339088Y1332382D01*
X1346708Y1332382D01*
G54D16*
X1361948Y1332382D02*
X1369568Y1332382D01*
X1369568Y1322222D01*
G54D16*
X1351788Y1319682D02*
X1356868Y1319682D01*
G54D16*
X150088Y452882D02*
X150088Y442722D01*
X142469Y442722D01*
G54D16*
X127228Y442722D02*
X119609Y442722D01*
X119609Y452882D01*
G54D16*
X137388Y455422D02*
X132309Y455422D01*
G54D16*
X165608Y1584350D02*
X166878Y1584350D01*
G54D16*
X168148Y1583080D02*
X168148Y1586890D01*
X164338Y1586890D01*
X164338Y1583080D01*
X168148Y1583080D01*
G54D16*
X235458Y1422425D02*
X236728Y1422425D01*
G54D16*
X237998Y1421155D02*
X237998Y1424965D01*
X234188Y1424965D01*
X234188Y1421155D01*
X237998Y1421155D01*
G54D16*
X505994Y253492D02*
X503504Y256006D01*
G54D16*
X503504Y441503D02*
X503504Y253492D01*
X691515Y253492D01*
X691515Y441503D01*
X503504Y441503D01*
M02*
