%FSLAX34Y34*%
%MOMM*%
%LNSILK_BOTTOM*%
G71*
G01*
%ADD10C, 0.13*%
%ADD11C, 0.16*%
%ADD12C, 0.15*%
%ADD13C, 0.15*%
%ADD14C, 0.25*%
%ADD15C, 0.20*%
%LPD*%
G54D10*
X32512Y277494D02*
X37516Y277494D01*
G54D10*
X15011Y277494D02*
X20015Y277494D01*
G54D11*
X22885Y300964D02*
X22174Y301294D01*
X21133Y302361D01*
X21133Y294970D01*
G54D11*
X16561Y302361D02*
X16561Y294970D01*
G54D11*
X11608Y302361D02*
X16561Y297433D01*
G54D11*
X14783Y299186D02*
X11608Y294970D01*
G54D11*
X16739Y558089D02*
X16739Y561238D01*
X24079Y561238D01*
X24079Y558089D01*
X23749Y557047D01*
X23393Y556692D01*
X22682Y556336D01*
X21641Y556336D01*
X20955Y556692D01*
X20600Y557047D01*
X20244Y558089D01*
X19888Y557047D01*
X19558Y556692D01*
X18847Y556336D01*
X18136Y556336D01*
X17450Y556692D01*
X17094Y557047D01*
X16739Y558089D01*
G54D11*
X20244Y561238D02*
X20244Y558089D01*
G54D11*
X17806Y549707D02*
X17094Y550037D01*
X16739Y551104D01*
X16739Y551789D01*
X17094Y552830D01*
X18136Y553542D01*
X19888Y553897D01*
X21641Y553897D01*
X23038Y553542D01*
X23749Y552830D01*
X24079Y551789D01*
X24079Y551433D01*
X23749Y550393D01*
X23038Y549707D01*
X21996Y549351D01*
X21641Y549351D01*
X20600Y549707D01*
X19888Y550393D01*
X19558Y551433D01*
X19558Y551789D01*
X19888Y552830D01*
X20600Y553542D01*
X21641Y553897D01*
G54D11*
X16739Y544448D02*
X16739Y545159D01*
X17094Y546201D01*
X18136Y546912D01*
X19888Y547243D01*
X20955Y547243D01*
X22682Y546912D01*
X23749Y546201D01*
X24079Y545159D01*
X24079Y544448D01*
X23749Y543407D01*
X22682Y542696D01*
X20955Y542366D01*
X19888Y542366D01*
X18136Y542696D01*
X17094Y543407D01*
X16739Y544448D01*
G54D11*
X18136Y542696D02*
X22682Y546912D01*
G54D10*
X67513Y319989D02*
X72517Y319989D01*
G54D10*
X85014Y319989D02*
X90018Y319989D01*
G54D11*
X101067Y321487D02*
X97816Y321487D01*
X96723Y321843D01*
X96368Y322224D01*
X96012Y322935D01*
X96012Y323672D01*
X96368Y324383D01*
X96723Y324739D01*
X97816Y325094D01*
X101067Y325094D01*
X101067Y317525D01*
G54D11*
X98526Y321487D02*
X96012Y317525D01*
G54D11*
X56007Y323291D02*
X56362Y324027D01*
X57099Y324739D01*
X57810Y325094D01*
X59258Y325094D01*
X59969Y324739D01*
X60706Y324027D01*
X61062Y323291D01*
X61417Y322224D01*
X61417Y320420D01*
X61062Y319328D01*
X60706Y318617D01*
X59969Y317881D01*
X59258Y317525D01*
X57810Y317525D01*
X57099Y317881D01*
X56362Y318617D01*
X56007Y319328D01*
G54D10*
X67513Y427507D02*
X72517Y427507D01*
G54D10*
X85014Y427507D02*
X90018Y427507D01*
G54D11*
X56007Y430809D02*
X56362Y431520D01*
X57099Y432231D01*
X57810Y432612D01*
X59258Y432612D01*
X59969Y432231D01*
X60706Y431520D01*
X61062Y430809D01*
X61417Y429717D01*
X61417Y427914D01*
X61062Y426822D01*
X60706Y426110D01*
X59969Y425373D01*
X59258Y425017D01*
X57810Y425017D01*
X57099Y425373D01*
X56362Y426110D01*
X56007Y426822D01*
G54D11*
X101067Y429006D02*
X97816Y429006D01*
X96723Y429361D01*
X96368Y429717D01*
X96012Y430428D01*
X96012Y431164D01*
X96368Y431876D01*
X96723Y432231D01*
X97816Y432612D01*
X101067Y432612D01*
X101067Y425017D01*
G54D11*
X98526Y429006D02*
X96012Y425017D01*
G54D12*
X131318Y553110D02*
X105918Y553110D01*
X105918Y540410D01*
X80518Y540410D01*
X80518Y553110D01*
X55118Y553110D01*
X55118Y540410D01*
X29718Y540410D01*
G54D12*
X131318Y807110D02*
X105918Y807110D01*
X105918Y794410D01*
X80518Y794410D01*
X80518Y807110D01*
X55118Y807110D01*
X55118Y794410D01*
X29718Y794410D01*
G54D12*
X131318Y934110D02*
X105918Y934110D01*
X105918Y921410D01*
X80518Y921410D01*
X80518Y934110D01*
X55118Y934110D01*
X55118Y921410D01*
X29718Y921410D01*
G54D12*
X29718Y1048410D02*
X55118Y1048410D01*
X55118Y1061110D01*
X80518Y1061110D01*
X80518Y1048410D01*
X105918Y1048410D01*
X105918Y1061110D01*
X131318Y1061110D01*
G54D12*
X29718Y1175410D02*
X55118Y1175410D01*
X55118Y1188110D01*
X80518Y1188110D01*
X80518Y1175410D01*
X105918Y1175410D01*
X105918Y1188110D01*
X131318Y1188110D01*
G54D11*
X54762Y1320037D02*
X54762Y1323213D01*
X62154Y1323213D01*
X62154Y1320037D01*
X61824Y1318996D01*
X61468Y1318640D01*
X60757Y1318285D01*
X59690Y1318285D01*
X59004Y1318640D01*
X58649Y1318996D01*
X58293Y1320037D01*
X57938Y1318996D01*
X57582Y1318640D01*
X56871Y1318285D01*
X56185Y1318285D01*
X55474Y1318640D01*
X55118Y1318996D01*
X54762Y1320037D01*
G54D11*
X58293Y1323213D02*
X58293Y1320037D01*
G54D11*
X56185Y1315110D02*
X55829Y1314399D01*
X54762Y1313358D01*
X62154Y1313358D01*
G54D11*
X100330Y1306067D02*
X93116Y1308837D01*
X100330Y1311580D01*
G54D11*
X97917Y1310538D02*
X97917Y1307109D01*
G54D11*
X94818Y1304366D02*
X94488Y1304366D01*
X93802Y1304010D01*
X93447Y1303680D01*
X93116Y1302994D01*
X93116Y1301598D01*
X93447Y1300912D01*
X93802Y1300581D01*
X94488Y1300226D01*
X95174Y1300226D01*
X95860Y1300581D01*
X96876Y1301267D01*
X100330Y1304696D01*
X100330Y1299895D01*
G54D13*
X158852Y246710D02*
X158852Y256692D01*
G54D11*
X180010Y269367D02*
X179324Y269696D01*
X178282Y270738D01*
X178282Y263423D01*
G54D11*
X171323Y270738D02*
X172009Y270738D01*
X173050Y270408D01*
X173761Y269367D01*
X174092Y267614D01*
X174092Y266573D01*
X173761Y264820D01*
X173050Y263778D01*
X172009Y263423D01*
X171323Y263423D01*
X170282Y263778D01*
X169570Y264820D01*
X169214Y266573D01*
X169214Y267614D01*
X169570Y269367D01*
X170282Y270408D01*
X171323Y270738D01*
G54D11*
X169570Y269367D02*
X173761Y264820D01*
G54D11*
X166776Y268300D02*
X166776Y261010D01*
G54D11*
X166776Y267259D02*
X166091Y267970D01*
X165405Y268300D01*
X164338Y268300D01*
X163652Y267970D01*
X162966Y267259D01*
X162611Y266217D01*
X162611Y265531D01*
X162966Y264489D01*
X163652Y263778D01*
X164338Y263423D01*
X165405Y263423D01*
X166091Y263778D01*
X166776Y264489D01*
G54D11*
X155651Y270738D02*
X160172Y270738D01*
X160172Y263423D01*
G54D11*
X160172Y267259D02*
X157378Y267259D01*
G54D13*
X158852Y296697D02*
X158852Y306705D01*
G54D11*
X141605Y569493D02*
X134392Y572236D01*
X141605Y574979D01*
G54D11*
X139192Y573964D02*
X139192Y570509D01*
G54D11*
X134392Y563981D02*
X134392Y567410D01*
X137465Y567766D01*
X137135Y567410D01*
X136779Y566394D01*
X136779Y565353D01*
X137135Y564336D01*
X137820Y563651D01*
X138862Y563296D01*
X139548Y563296D01*
X140564Y563651D01*
X141250Y564336D01*
X141605Y565353D01*
X141605Y566394D01*
X141250Y567410D01*
X140919Y567766D01*
X140233Y568096D01*
G54D11*
X135407Y557098D02*
X136779Y556767D01*
X137820Y557098D01*
X138506Y557784D01*
X138862Y558825D01*
X138862Y559181D01*
X138506Y560196D01*
X137820Y560882D01*
X136779Y561238D01*
X136449Y561238D01*
X135407Y560882D01*
X134722Y560196D01*
X134392Y559181D01*
X134392Y558825D01*
X134722Y557784D01*
X135407Y557098D01*
G54D11*
X136779Y556767D02*
X138506Y556767D01*
X140233Y557098D01*
X141250Y557784D01*
X141605Y558825D01*
X141605Y559511D01*
X141250Y560552D01*
X140564Y560882D01*
G54D11*
X141605Y544093D02*
X134392Y546837D01*
X141605Y549580D01*
G54D11*
X139192Y548563D02*
X139192Y545109D01*
G54D11*
X135407Y538251D02*
X134722Y538581D01*
X134392Y539623D01*
X134392Y540309D01*
X134722Y541324D01*
X135763Y542010D01*
X137465Y542366D01*
X139192Y542366D01*
X140564Y542010D01*
X141250Y541324D01*
X141605Y540309D01*
X141605Y539953D01*
X141250Y538937D01*
X140564Y538251D01*
X139548Y537895D01*
X139192Y537895D01*
X138151Y538251D01*
X137465Y538937D01*
X137135Y539953D01*
X137135Y540309D01*
X137465Y541324D01*
X138151Y542010D01*
X139192Y542366D01*
G54D11*
X135763Y534797D02*
X135407Y534111D01*
X134392Y533095D01*
X141605Y533095D01*
G54D11*
X141605Y696493D02*
X134392Y699236D01*
X141605Y701979D01*
G54D11*
X139192Y700964D02*
X139192Y697509D01*
G54D11*
X141605Y691667D02*
X134392Y691667D01*
X139192Y695096D01*
X139192Y689940D01*
G54D11*
X135407Y684098D02*
X136779Y683767D01*
X137820Y684098D01*
X138506Y684784D01*
X138862Y685825D01*
X138862Y686181D01*
X138506Y687196D01*
X137820Y687882D01*
X136779Y688238D01*
X136449Y688238D01*
X135407Y687882D01*
X134722Y687196D01*
X134392Y686181D01*
X134392Y685825D01*
X134722Y684784D01*
X135407Y684098D01*
G54D11*
X136779Y683767D02*
X138506Y683767D01*
X140233Y684098D01*
X141250Y684784D01*
X141605Y685825D01*
X141605Y686511D01*
X141250Y687552D01*
X140564Y687882D01*
G54D11*
X141605Y950468D02*
X134392Y953236D01*
X141605Y955979D01*
G54D11*
X139192Y954938D02*
X139192Y951509D01*
G54D11*
X136093Y948766D02*
X135763Y948766D01*
X135077Y948410D01*
X134722Y948080D01*
X134392Y947394D01*
X134392Y945997D01*
X134722Y945311D01*
X135077Y944981D01*
X135763Y944625D01*
X136449Y944625D01*
X137135Y944981D01*
X138151Y945667D01*
X141605Y949096D01*
X141605Y944296D01*
G54D11*
X135407Y938098D02*
X136779Y937767D01*
X137820Y938098D01*
X138506Y938784D01*
X138862Y939825D01*
X138862Y940156D01*
X138506Y941196D01*
X137820Y941882D01*
X136779Y942238D01*
X136449Y942238D01*
X135407Y941882D01*
X134722Y941196D01*
X134392Y940156D01*
X134392Y939825D01*
X134722Y938784D01*
X135407Y938098D01*
G54D11*
X136779Y937767D02*
X138506Y937767D01*
X140233Y938098D01*
X141250Y938784D01*
X141605Y939825D01*
X141605Y940511D01*
X141250Y941552D01*
X140564Y941882D01*
G54D11*
X141605Y1077468D02*
X134392Y1080236D01*
X141605Y1082979D01*
G54D11*
X139192Y1081938D02*
X139192Y1078509D01*
G54D11*
X135763Y1075080D02*
X135407Y1074394D01*
X134392Y1073353D01*
X141605Y1073353D01*
G54D11*
X135407Y1065098D02*
X136779Y1064767D01*
X137820Y1065098D01*
X138506Y1065784D01*
X138862Y1066825D01*
X138862Y1067156D01*
X138506Y1068196D01*
X137820Y1068882D01*
X136779Y1069238D01*
X136449Y1069238D01*
X135407Y1068882D01*
X134722Y1068196D01*
X134392Y1067156D01*
X134392Y1066825D01*
X134722Y1065784D01*
X135407Y1065098D01*
G54D11*
X136779Y1064767D02*
X138506Y1064767D01*
X140233Y1065098D01*
X141250Y1065784D01*
X141605Y1066825D01*
X141605Y1067511D01*
X141250Y1068552D01*
X140564Y1068882D01*
G54D11*
X141605Y1302892D02*
X134392Y1305661D01*
X141605Y1308404D01*
G54D11*
X139192Y1307363D02*
X139192Y1303934D01*
G54D11*
X135763Y1300505D02*
X135407Y1299820D01*
X134392Y1298778D01*
X141605Y1298778D01*
G54D13*
X155956Y1371218D02*
X155956Y1381227D01*
G54D11*
X158852Y1445539D02*
X160248Y1445539D01*
X161316Y1445184D01*
X161646Y1444498D01*
X161646Y1443787D01*
X161316Y1443101D01*
X160604Y1442745D01*
X159207Y1442389D01*
X158166Y1442034D01*
X157455Y1441348D01*
X157099Y1440637D01*
X157099Y1439595D01*
X157455Y1438884D01*
X157810Y1438554D01*
X158852Y1438199D01*
X160248Y1438199D01*
X161316Y1438554D01*
X161646Y1438884D01*
X162002Y1439595D01*
X162002Y1440637D01*
X161646Y1441348D01*
X160960Y1442034D01*
X159918Y1442389D01*
X158496Y1442745D01*
X157810Y1443101D01*
X157455Y1443787D01*
X157455Y1444498D01*
X157810Y1445184D01*
X158852Y1445539D01*
G54D11*
X154661Y1443101D02*
X154661Y1435760D01*
G54D11*
X154661Y1442034D02*
X153950Y1442745D01*
X153264Y1443101D01*
X152197Y1443101D01*
X151511Y1442745D01*
X150800Y1442034D01*
X150470Y1440992D01*
X150470Y1440306D01*
X150800Y1439239D01*
X151511Y1438554D01*
X152197Y1438199D01*
X153264Y1438199D01*
X153950Y1438554D01*
X154661Y1439239D01*
G54D11*
X143459Y1445539D02*
X148006Y1445539D01*
X148006Y1438199D01*
G54D11*
X148006Y1442034D02*
X145212Y1442034D01*
G54D14*
X172593Y1492910D02*
X178943Y1492910D01*
G54D11*
X183160Y1466418D02*
X182474Y1466774D01*
X181407Y1467840D01*
X181407Y1460448D01*
G54D11*
X176835Y1467840D02*
X176835Y1460448D01*
G54D11*
X171882Y1467840D02*
X176835Y1462912D01*
G54D11*
X175057Y1464665D02*
X171882Y1460448D01*
G54D14*
X144018Y1492910D02*
X150368Y1492910D01*
G54D11*
X154584Y1466418D02*
X153899Y1466774D01*
X152832Y1467840D01*
X152832Y1460448D01*
G54D11*
X148260Y1467840D02*
X148260Y1460448D01*
G54D11*
X143307Y1467840D02*
X148260Y1462912D01*
G54D11*
X146482Y1464665D02*
X143307Y1460448D01*
G54D10*
X264998Y349986D02*
X264998Y345008D01*
G54D10*
X250012Y407491D02*
X245008Y407491D01*
G54D10*
X250012Y372491D02*
X245008Y372491D01*
G54D11*
X236017Y410793D02*
X236372Y411531D01*
X237084Y412242D01*
X237820Y412598D01*
X239268Y412598D01*
X239979Y412242D01*
X240690Y411531D01*
X241071Y410793D01*
X241427Y409727D01*
X241427Y407924D01*
X241071Y406832D01*
X240690Y406095D01*
X239979Y405384D01*
X239268Y405028D01*
X237820Y405028D01*
X237084Y405384D01*
X236372Y406095D01*
X236017Y406832D01*
G54D11*
X253518Y373304D02*
X253873Y374015D01*
X254584Y374751D01*
X255321Y375107D01*
X256768Y375107D01*
X257480Y374751D01*
X258191Y374015D01*
X258572Y373304D01*
X258928Y372212D01*
X258928Y370407D01*
X258572Y369341D01*
X258191Y368604D01*
X257480Y367893D01*
X256768Y367512D01*
X255321Y367512D01*
X254584Y367893D01*
X253873Y368604D01*
X253518Y369341D01*
G54D11*
X261341Y1380541D02*
X261696Y1381277D01*
X262408Y1381988D01*
X263144Y1382344D01*
X264592Y1382344D01*
X265303Y1381988D01*
X266014Y1381277D01*
X266395Y1380541D01*
X266751Y1379474D01*
X266751Y1377671D01*
X266395Y1376578D01*
X266014Y1375866D01*
X265303Y1375130D01*
X264592Y1374774D01*
X263144Y1374774D01*
X262408Y1375130D01*
X261696Y1375866D01*
X261341Y1376578D01*
G54D14*
X197993Y1492910D02*
X204343Y1492910D01*
G54D11*
X224434Y1494993D02*
X223748Y1495348D01*
X222682Y1496415D01*
X222682Y1489024D01*
G54D11*
X218110Y1496415D02*
X218110Y1489024D01*
G54D11*
X213157Y1496415D02*
X218110Y1491487D01*
G54D11*
X216332Y1493240D02*
X213157Y1489024D01*
G54D14*
X314732Y101041D02*
X314732Y106045D01*
G54D11*
X317196Y115087D02*
X313944Y115087D01*
X312852Y115442D01*
X312496Y115823D01*
X312140Y116534D01*
X312140Y117272D01*
X312496Y117983D01*
X312852Y118338D01*
X313944Y118694D01*
X317196Y118694D01*
X317196Y111125D01*
G54D11*
X314656Y115087D02*
X312140Y111125D01*
G54D10*
X300000Y347497D02*
X300000Y342493D01*
G54D11*
X301015Y338302D02*
X301371Y339013D01*
X302082Y339750D01*
X302819Y340106D01*
X304266Y340106D01*
X304978Y339750D01*
X305689Y339013D01*
X306070Y338302D01*
X306426Y337210D01*
X306426Y335407D01*
X306070Y334340D01*
X305689Y333603D01*
X304978Y332892D01*
X304266Y332537D01*
X302819Y332537D01*
X302082Y332892D01*
X301371Y333603D01*
X301015Y334340D01*
G54D10*
X272516Y405002D02*
X272516Y410007D01*
G54D10*
X317500Y402488D02*
X312496Y402488D01*
G54D10*
X294996Y392506D02*
X300000Y392506D01*
G54D11*
X286004Y393294D02*
X286360Y394030D01*
X287096Y394741D01*
X287807Y395097D01*
X289256Y395097D01*
X289966Y394741D01*
X290703Y394030D01*
X291058Y393294D01*
X291414Y392227D01*
X291414Y390423D01*
X291058Y389331D01*
X290703Y388594D01*
X289966Y387883D01*
X289256Y387527D01*
X287807Y387527D01*
X287096Y387883D01*
X286360Y388594D01*
X286004Y389331D01*
G54D11*
X321006Y405790D02*
X321361Y406526D01*
X322097Y407238D01*
X322808Y407593D01*
X324256Y407593D01*
X324968Y407238D01*
X325704Y406526D01*
X326060Y405790D01*
X326416Y404723D01*
X326416Y402920D01*
X326060Y401828D01*
X325704Y401117D01*
X324968Y400379D01*
X324256Y400024D01*
X322808Y400024D01*
X322097Y400379D01*
X321361Y401117D01*
X321006Y401828D01*
G54D10*
X339725Y434238D02*
X334721Y434238D01*
G54D15*
X339268Y664235D02*
X339268Y657885D01*
G54D15*
X339268Y638835D02*
X339268Y632485D01*
G54D15*
X339268Y740435D02*
X339268Y734085D01*
G54D15*
X339268Y765835D02*
X339268Y759485D01*
G54D10*
X273126Y1377873D02*
X283134Y1377873D01*
G54D15*
X383718Y651535D02*
X383718Y645185D01*
G54D15*
X383718Y676935D02*
X383718Y670585D01*
G54D15*
X383718Y778535D02*
X383718Y772185D01*
G54D15*
X383718Y753135D02*
X383718Y746785D01*
G54D10*
X393776Y1469949D02*
X403784Y1469949D01*
G54D11*
X381990Y1472615D02*
X382346Y1473352D01*
X383057Y1474063D01*
X383794Y1474418D01*
X385242Y1474418D01*
X385953Y1474063D01*
X386664Y1473352D01*
X387046Y1472615D01*
X387401Y1471549D01*
X387401Y1469745D01*
X387046Y1468653D01*
X386664Y1467942D01*
X385953Y1467205D01*
X385242Y1466849D01*
X383794Y1466849D01*
X383057Y1467205D01*
X382346Y1467942D01*
X381990Y1468653D01*
G54D15*
X427456Y633501D02*
X427456Y635507D01*
X425450Y635507D01*
X425450Y633501D01*
X427456Y633501D01*
G54D15*
X427456Y735101D02*
X427456Y737108D01*
X425450Y737108D01*
X425450Y735101D01*
X427456Y735101D01*
G54D13*
X520014Y152501D02*
X510007Y152501D01*
G54D13*
X552501Y152501D02*
X542493Y152501D01*
G54D10*
X525018Y270002D02*
X520014Y270002D01*
G54D11*
X528498Y273304D02*
X528878Y274015D01*
X529590Y274751D01*
X530301Y275107D01*
X531749Y275107D01*
X532486Y274751D01*
X533197Y274015D01*
X533552Y273304D01*
X533934Y272212D01*
X533934Y270408D01*
X533552Y269341D01*
X533197Y268604D01*
X532486Y267893D01*
X531749Y267513D01*
X530301Y267513D01*
X529590Y267893D01*
X528878Y268604D01*
X528498Y269341D01*
G54D10*
X529996Y327507D02*
X525018Y327507D01*
G54D11*
X533502Y330809D02*
X533857Y331520D01*
X534594Y332231D01*
X535305Y332612D01*
X536752Y332612D01*
X537490Y332231D01*
X538201Y331520D01*
X538556Y330809D01*
X538912Y329717D01*
X538912Y327914D01*
X538556Y326822D01*
X538201Y326111D01*
X537490Y325373D01*
X536752Y325018D01*
X535305Y325018D01*
X534594Y325373D01*
X533857Y326111D01*
X533502Y326822D01*
G54D10*
X529996Y377494D02*
X525018Y377494D01*
G54D10*
X520014Y414985D02*
X520014Y419989D01*
G54D11*
X518516Y408304D02*
X518871Y409016D01*
X519582Y409753D01*
X520319Y410108D01*
X521766Y410108D01*
X522478Y409753D01*
X523189Y409016D01*
X523570Y408304D01*
X523926Y407212D01*
X523926Y405409D01*
X523570Y404317D01*
X523189Y403606D01*
X522478Y402895D01*
X521766Y402513D01*
X520319Y402513D01*
X519582Y402895D01*
X518871Y403606D01*
X518516Y404317D01*
G54D11*
X533502Y380796D02*
X533857Y381533D01*
X534594Y382244D01*
X535305Y382599D01*
X536752Y382599D01*
X537490Y382244D01*
X538201Y381533D01*
X538556Y380796D01*
X538912Y379704D01*
X538912Y377901D01*
X538556Y376834D01*
X538201Y376097D01*
X537490Y375386D01*
X536752Y375030D01*
X535305Y375030D01*
X534594Y375386D01*
X533857Y376097D01*
X533502Y376834D01*
G54D10*
X542316Y412698D02*
X552323Y412698D01*
G54D10*
X562051Y1428673D02*
X572058Y1428673D01*
G54D10*
X552526Y1533449D02*
X562534Y1533449D01*
G54D11*
X540740Y1536115D02*
X541096Y1536852D01*
X541807Y1537563D01*
X542544Y1537918D01*
X543992Y1537918D01*
X544703Y1537563D01*
X545414Y1536852D01*
X545796Y1536115D01*
X546151Y1535049D01*
X546151Y1533245D01*
X545796Y1532153D01*
X545414Y1531442D01*
X544703Y1530705D01*
X543992Y1530349D01*
X542544Y1530349D01*
X541807Y1530705D01*
X541096Y1531442D01*
X540740Y1532153D01*
G54D11*
X636118Y127965D02*
X636118Y128295D01*
X635788Y129006D01*
X635432Y129337D01*
X634746Y129692D01*
X633349Y129692D01*
X632663Y129337D01*
X632308Y129006D01*
X631978Y128295D01*
X631978Y127609D01*
X632308Y126923D01*
X633018Y125882D01*
X636474Y122427D01*
X631622Y122427D01*
G54D11*
X625044Y127254D02*
X621233Y122427D01*
G54D11*
X621233Y127254D02*
X625044Y122427D01*
G54D11*
X613638Y128295D02*
X612928Y128651D01*
X611912Y129692D01*
X611912Y122427D01*
G54D11*
X604647Y129692D02*
X606018Y129692D01*
X607060Y129337D01*
X607390Y128651D01*
X607390Y127965D01*
X607060Y127254D01*
X606374Y126923D01*
X604978Y126568D01*
X603936Y126237D01*
X603250Y125526D01*
X602894Y124841D01*
X602894Y123799D01*
X603250Y123113D01*
X603606Y122758D01*
X604647Y122427D01*
X606018Y122427D01*
X607060Y122758D01*
X607390Y123113D01*
X607746Y123799D01*
X607746Y124841D01*
X607390Y125526D01*
X606704Y126237D01*
X605663Y126568D01*
X604292Y126923D01*
X603606Y127254D01*
X603250Y127965D01*
X603250Y128651D01*
X603606Y129337D01*
X604647Y129692D01*
G54D11*
X595986Y127254D02*
X595986Y119990D01*
G54D11*
X595986Y126237D02*
X595300Y126923D01*
X594588Y127254D01*
X593572Y127254D01*
X592861Y126923D01*
X592176Y126237D01*
X591820Y125197D01*
X591820Y124485D01*
X592176Y123469D01*
X592861Y122758D01*
X593572Y122427D01*
X594588Y122427D01*
X595300Y122758D01*
X595986Y123469D01*
G54D11*
X584911Y129692D02*
X589407Y129692D01*
X589407Y122427D01*
G54D11*
X589407Y126237D02*
X586638Y126237D01*
G54D13*
X635000Y152501D02*
X625018Y152501D01*
G54D13*
X599999Y152501D02*
X590016Y152501D01*
G54D10*
X622504Y280009D02*
X622504Y275005D01*
G54D10*
X587502Y270002D02*
X587502Y264998D01*
G54D11*
X586004Y278307D02*
X586359Y279019D01*
X587096Y279755D01*
X587807Y280111D01*
X589254Y280111D01*
X589992Y279755D01*
X590702Y279019D01*
X591058Y278307D01*
X591414Y277215D01*
X591414Y275412D01*
X591058Y274319D01*
X590702Y273608D01*
X589992Y272897D01*
X589254Y272516D01*
X587807Y272516D01*
X587096Y272897D01*
X586359Y273608D01*
X586004Y274319D01*
G54D10*
X577494Y414985D02*
X577494Y419989D01*
G54D10*
X625018Y414985D02*
X625018Y419989D01*
G54D11*
X623520Y408304D02*
X623875Y409016D01*
X624586Y409753D01*
X625322Y410108D01*
X626745Y410108D01*
X627482Y409753D01*
X628193Y409016D01*
X628574Y408304D01*
X628930Y407212D01*
X628930Y405409D01*
X628574Y404317D01*
X628193Y403606D01*
X627482Y402895D01*
X626745Y402513D01*
X625322Y402513D01*
X624586Y402895D01*
X623875Y403606D01*
X623520Y404317D01*
G54D10*
X657504Y280009D02*
X657504Y275005D01*
G54D10*
X680009Y267487D02*
X685012Y267487D01*
G54D11*
X671018Y265811D02*
X671373Y266522D01*
X672084Y267233D01*
X672820Y267614D01*
X674268Y267614D01*
X674980Y267233D01*
X675691Y266522D01*
X676072Y265811D01*
X676428Y264718D01*
X676428Y262915D01*
X676072Y261823D01*
X675691Y261112D01*
X674980Y260375D01*
X674268Y260020D01*
X672820Y260020D01*
X672084Y260375D01*
X671373Y261112D01*
X671018Y261823D01*
G54D10*
X664998Y332485D02*
X670002Y332485D01*
G54D11*
X656006Y335787D02*
X656361Y336524D01*
X657098Y337235D01*
X657810Y337591D01*
X659257Y337591D01*
X659968Y337235D01*
X660705Y336524D01*
X661060Y335787D01*
X661416Y334721D01*
X661416Y332917D01*
X661060Y331825D01*
X660705Y331114D01*
X659968Y330378D01*
X659257Y330022D01*
X657810Y330022D01*
X657098Y330378D01*
X656361Y331114D01*
X656006Y331825D01*
G54D10*
X664998Y367487D02*
X670002Y367487D01*
G54D10*
X672313Y412698D02*
X682320Y412698D01*
G54D10*
X655016Y422503D02*
X659994Y422503D01*
G54D10*
X662508Y1062507D02*
X667512Y1062507D01*
G54D10*
X705002Y1062507D02*
X710006Y1062507D01*
G54D11*
X718566Y1064006D02*
X715315Y1064006D01*
X714222Y1064361D01*
X713867Y1064717D01*
X713512Y1065428D01*
X713512Y1066164D01*
X713867Y1066876D01*
X714222Y1067231D01*
X715315Y1067612D01*
X718566Y1067612D01*
X718566Y1060017D01*
G54D11*
X716026Y1064006D02*
X713512Y1060017D01*
G54D11*
X670916Y1374190D02*
X671271Y1374927D01*
X671982Y1375639D01*
X672719Y1375994D01*
X674167Y1375994D01*
X674878Y1375639D01*
X675589Y1374927D01*
X675970Y1374190D01*
X676326Y1373123D01*
X676326Y1371320D01*
X675970Y1370228D01*
X675589Y1369517D01*
X674878Y1368781D01*
X674167Y1368425D01*
X672719Y1368425D01*
X671982Y1368781D01*
X671271Y1369517D01*
X670916Y1370228D01*
G54D10*
X859993Y877494D02*
X859993Y872489D01*
G54D11*
X855878Y867511D02*
X856234Y868248D01*
X856970Y868959D01*
X857682Y869340D01*
X859130Y869340D01*
X859866Y868959D01*
X860578Y868248D01*
X860933Y867511D01*
X861288Y866444D01*
X861288Y864641D01*
X860933Y863549D01*
X860578Y862838D01*
X859866Y862101D01*
X859130Y861746D01*
X857682Y861746D01*
X856970Y862101D01*
X856234Y862838D01*
X855878Y863549D01*
G54D11*
X816483Y1018133D02*
X813232Y1018133D01*
X812165Y1018489D01*
X811810Y1018845D01*
X811428Y1019556D01*
X811428Y1020292D01*
X811810Y1021003D01*
X812165Y1021384D01*
X813232Y1021740D01*
X816483Y1021740D01*
X816483Y1014145D01*
G54D11*
X813968Y1018133D02*
X811428Y1014145D01*
G54D10*
X859993Y1097508D02*
X859993Y1092505D01*
G54D11*
X843178Y1108811D02*
X843534Y1109547D01*
X844271Y1110259D01*
X844982Y1110640D01*
X846430Y1110640D01*
X847166Y1110259D01*
X847877Y1109547D01*
X848233Y1108811D01*
X848588Y1107744D01*
X848588Y1105941D01*
X848233Y1104849D01*
X847877Y1104138D01*
X847166Y1103401D01*
X846430Y1103046D01*
X844982Y1103046D01*
X844271Y1103401D01*
X843534Y1104138D01*
X843178Y1104849D01*
G54D13*
X899998Y172491D02*
X890016Y172491D01*
G54D11*
X946100Y180593D02*
X946100Y180949D01*
X945744Y181660D01*
X945388Y182016D01*
X944677Y182371D01*
X943280Y182371D01*
X942568Y182016D01*
X942213Y181660D01*
X941858Y180949D01*
X941858Y180238D01*
X942213Y179552D01*
X942924Y178485D01*
X946455Y174955D01*
X941527Y174955D01*
G54D11*
X939038Y182371D02*
X939038Y174955D01*
G54D11*
X934110Y182371D02*
X939038Y177418D01*
G54D11*
X937286Y179196D02*
X934110Y174955D01*
G54D15*
X945693Y454685D02*
X945693Y448335D01*
G54D11*
X943966Y466140D02*
X944322Y466877D01*
X945032Y467588D01*
X945769Y467944D01*
X947217Y467944D01*
X947928Y467588D01*
X948640Y466877D01*
X949020Y466140D01*
X949376Y465073D01*
X949376Y463270D01*
X949020Y462178D01*
X948640Y461467D01*
X947928Y460730D01*
X947217Y460375D01*
X945769Y460375D01*
X945032Y460730D01*
X944322Y461467D01*
X943966Y462178D01*
G54D15*
X921893Y468960D02*
X915543Y468960D01*
G54D15*
X925068Y499135D02*
X925068Y492785D01*
G54D15*
X947293Y483260D02*
X947293Y476910D01*
G54D11*
X905866Y455041D02*
X906221Y455752D01*
X906932Y456488D01*
X907669Y456844D01*
X909116Y456844D01*
X909828Y456488D01*
X910539Y455752D01*
X910920Y455041D01*
X911276Y453949D01*
X911276Y452145D01*
X910920Y451078D01*
X910539Y450341D01*
X909828Y449630D01*
X909116Y449249D01*
X907669Y449249D01*
X906932Y449630D01*
X906221Y450341D01*
X905866Y451078D01*
G54D11*
X926796Y507212D02*
X923544Y507212D01*
X922452Y507568D01*
X922096Y507923D01*
X921740Y508660D01*
X921740Y509371D01*
X922096Y510082D01*
X922452Y510464D01*
X923544Y510819D01*
X926796Y510819D01*
X926796Y503225D01*
G54D11*
X924256Y507212D02*
X921740Y503225D01*
G54D11*
X950595Y491337D02*
X947344Y491337D01*
X946277Y491693D01*
X945896Y492048D01*
X945540Y492785D01*
X945540Y493496D01*
X945896Y494207D01*
X946277Y494589D01*
X947344Y494944D01*
X950595Y494944D01*
X950595Y487350D01*
G54D11*
X948080Y491337D02*
X945540Y487350D01*
G54D15*
X952043Y581685D02*
X952043Y588035D01*
G54D10*
X924814Y540207D02*
X934822Y540207D01*
G54D15*
X955218Y549935D02*
X967918Y549935D01*
X967918Y530885D01*
X955218Y530885D01*
X955218Y549935D01*
G54D11*
X949020Y573887D02*
X945769Y573887D01*
X944677Y574243D01*
X944322Y574598D01*
X943966Y575335D01*
X943966Y576046D01*
X944322Y576757D01*
X944677Y577138D01*
X945769Y577494D01*
X949020Y577494D01*
X949020Y569899D01*
G54D11*
X946480Y573887D02*
X943966Y569899D01*
G54D11*
X939190Y542341D02*
X939546Y543077D01*
X940282Y543788D01*
X940994Y544144D01*
X942442Y544144D01*
X943178Y543788D01*
X943889Y543077D01*
X944245Y542341D01*
X944600Y541274D01*
X944600Y539470D01*
X944245Y538378D01*
X943889Y537667D01*
X943178Y536930D01*
X942442Y536575D01*
X940994Y536575D01*
X940282Y536930D01*
X939546Y537667D01*
X939190Y538378D01*
G54D15*
X932992Y600735D02*
X932992Y607085D01*
G54D10*
X915010Y957503D02*
X915010Y952500D01*
G54D10*
X925018Y937488D02*
X925018Y932510D01*
G54D10*
X947496Y934999D02*
X952500Y934999D01*
G54D11*
X921740Y945565D02*
X922096Y946302D01*
X922807Y947014D01*
X923544Y947369D01*
X924992Y947369D01*
X925703Y947014D01*
X926414Y946302D01*
X926796Y945565D01*
X927151Y944498D01*
X927151Y942695D01*
X926796Y941603D01*
X926414Y940892D01*
X925703Y940156D01*
X924992Y939800D01*
X923544Y939800D01*
X922807Y940156D01*
X922096Y940892D01*
X921740Y941603D01*
G54D10*
X902513Y994994D02*
X907516Y994994D01*
G54D10*
X945007Y997509D02*
X945007Y992505D01*
G54D10*
X915010Y1037488D02*
X915010Y1032509D01*
G54D10*
X935000Y1057503D02*
X935000Y1052499D01*
G54D13*
X1025017Y172491D02*
X1015010Y172491D01*
G54D11*
X1008608Y180593D02*
X1008608Y180949D01*
X1008253Y181660D01*
X1007898Y182016D01*
X1007186Y182371D01*
X1005789Y182371D01*
X1005078Y182016D01*
X1004722Y181660D01*
X1004366Y180949D01*
X1004366Y180238D01*
X1004722Y179552D01*
X1005434Y178485D01*
X1008938Y174955D01*
X1004011Y174955D01*
G54D11*
X1001548Y182371D02*
X1001548Y174955D01*
G54D11*
X996620Y182371D02*
X1001548Y177418D01*
G54D11*
X999794Y179196D02*
X996620Y174955D01*
G54D15*
X1018718Y454685D02*
X1018718Y448335D01*
G54D15*
X982218Y454685D02*
X982218Y448335D01*
G54D11*
X1016990Y466140D02*
X1017346Y466877D01*
X1018057Y467588D01*
X1018794Y467944D01*
X1020242Y467944D01*
X1020953Y467588D01*
X1021664Y466877D01*
X1022046Y466140D01*
X1022401Y465073D01*
X1022401Y463270D01*
X1022046Y462178D01*
X1021664Y461467D01*
X1020953Y460730D01*
X1020242Y460375D01*
X1018794Y460375D01*
X1018057Y460730D01*
X1017346Y461467D01*
X1016990Y462178D01*
G54D11*
X978890Y466140D02*
X979246Y466877D01*
X979958Y467588D01*
X980694Y467944D01*
X982142Y467944D01*
X982853Y467588D01*
X983564Y466877D01*
X983946Y466140D01*
X984301Y465073D01*
X984301Y463270D01*
X983946Y462178D01*
X983564Y461467D01*
X982853Y460730D01*
X982142Y460375D01*
X980694Y460375D01*
X979958Y460730D01*
X979246Y461467D01*
X978890Y462178D01*
G54D11*
X992810Y542442D02*
X992098Y542798D01*
X991058Y543839D01*
X991058Y536498D01*
G54D11*
X984072Y543839D02*
X984758Y543839D01*
X985824Y543483D01*
X986510Y542442D01*
X986866Y540690D01*
X986866Y539648D01*
X986510Y537895D01*
X985824Y536854D01*
X984758Y536498D01*
X984072Y536498D01*
X983006Y536854D01*
X982320Y537895D01*
X981964Y539648D01*
X981964Y540690D01*
X982320Y542442D01*
X983006Y543483D01*
X984072Y543839D01*
G54D11*
X982320Y542442D02*
X986510Y537895D01*
G54D11*
X979526Y541401D02*
X979526Y537895D01*
X979170Y536854D01*
X978459Y536498D01*
X977417Y536498D01*
X976732Y536854D01*
X975665Y537895D01*
G54D11*
X975665Y541401D02*
X975665Y536498D01*
G54D15*
X1015543Y600735D02*
X1015543Y607085D01*
G54D15*
X977443Y600735D02*
X977443Y607085D01*
G54D10*
X1007516Y954989D02*
X1012495Y954989D01*
G54D10*
X985012Y937488D02*
X985012Y932510D01*
G54D11*
X997940Y945565D02*
X998296Y946302D01*
X999008Y947014D01*
X999744Y947369D01*
X1001192Y947369D01*
X1001903Y947014D01*
X1002614Y946302D01*
X1002995Y945565D01*
X1003350Y944498D01*
X1003350Y942695D01*
X1002995Y941603D01*
X1002614Y940892D01*
X1001903Y940156D01*
X1001192Y939800D01*
X999744Y939800D01*
X999008Y940156D01*
X998296Y940892D01*
X997940Y941603D01*
G54D11*
X997940Y958265D02*
X998296Y959002D01*
X999008Y959713D01*
X999744Y960069D01*
X1001192Y960069D01*
X1001903Y959713D01*
X1002614Y959002D01*
X1002995Y958265D01*
X1003350Y957198D01*
X1003350Y955395D01*
X1002995Y954303D01*
X1002614Y953592D01*
X1001903Y952855D01*
X1001192Y952500D01*
X999744Y952500D01*
X999008Y952855D01*
X998296Y953592D01*
X997940Y954303D01*
G54D10*
X962508Y975004D02*
X967512Y975004D01*
G54D10*
X962508Y1015009D02*
X967512Y1015009D01*
G54D10*
X985012Y997509D02*
X985012Y992505D01*
G54D10*
X1005002Y1042491D02*
X1005002Y1037488D01*
G54D11*
X1001116Y1034466D02*
X1001471Y1035202D01*
X1002182Y1035913D01*
X1002919Y1036269D01*
X1004366Y1036269D01*
X1005078Y1035913D01*
X1005789Y1035202D01*
X1006170Y1034466D01*
X1006526Y1033399D01*
X1006526Y1031595D01*
X1006170Y1030503D01*
X1005789Y1029792D01*
X1005078Y1029055D01*
X1004366Y1028700D01*
X1002919Y1028700D01*
X1002182Y1029055D01*
X1001471Y1029792D01*
X1001116Y1030503D01*
G54D10*
X994994Y1057503D02*
X994994Y1052499D01*
G54D10*
X992302Y1177315D02*
X992302Y1187297D01*
G54D13*
X1087501Y172491D02*
X1077494Y172491D01*
G54D11*
X1067968Y174929D02*
X1067968Y182270D01*
X1071448Y177368D01*
X1066242Y177368D01*
G54D11*
X1063448Y175285D02*
X1063778Y175640D01*
X1064133Y175285D01*
X1063778Y174929D01*
X1063448Y175285D01*
G54D11*
X1059612Y174929D02*
X1056106Y182270D01*
X1061009Y182270D01*
G54D11*
X1053668Y182270D02*
X1053668Y174929D01*
G54D11*
X1048792Y182270D02*
X1053668Y177368D01*
G54D11*
X1051941Y179121D02*
X1048792Y174929D01*
G54D15*
X1063168Y454685D02*
X1063168Y448335D01*
G54D15*
X1067943Y481659D02*
X1074293Y481659D01*
G54D11*
X1058266Y485190D02*
X1058621Y485927D01*
X1059332Y486639D01*
X1060069Y486994D01*
X1061516Y486994D01*
X1062228Y486639D01*
X1062939Y485927D01*
X1063320Y485190D01*
X1063676Y484123D01*
X1063676Y482320D01*
X1063320Y481228D01*
X1062939Y480517D01*
X1062228Y479781D01*
X1061516Y479425D01*
X1060069Y479425D01*
X1059332Y479781D01*
X1058621Y480517D01*
X1058266Y481228D01*
G54D11*
X1055091Y466140D02*
X1055446Y466877D01*
X1056158Y467588D01*
X1056894Y467944D01*
X1058342Y467944D01*
X1059053Y467588D01*
X1059764Y466877D01*
X1060145Y466140D01*
X1060501Y465073D01*
X1060501Y463270D01*
X1060145Y462178D01*
X1059764Y461467D01*
X1059053Y460730D01*
X1058342Y460375D01*
X1056894Y460375D01*
X1056158Y460730D01*
X1055446Y461467D01*
X1055091Y462178D01*
G54D15*
X1066343Y557860D02*
X1072693Y557860D01*
G54D11*
X1055091Y561390D02*
X1055446Y562127D01*
X1056158Y562838D01*
X1056894Y563194D01*
X1058342Y563194D01*
X1059053Y562838D01*
X1059764Y562127D01*
X1060145Y561390D01*
X1060501Y560323D01*
X1060501Y558520D01*
X1060145Y557428D01*
X1059764Y556717D01*
X1059053Y555980D01*
X1058342Y555625D01*
X1056894Y555625D01*
X1056158Y555980D01*
X1055446Y556717D01*
X1055091Y557428D01*
G54D15*
X1066343Y594385D02*
X1072693Y594385D01*
G54D10*
X1070000Y877494D02*
X1070000Y872489D01*
G54D11*
X1068604Y867511D02*
X1068959Y868248D01*
X1069696Y868959D01*
X1070406Y869340D01*
X1071855Y869340D01*
X1072591Y868959D01*
X1073302Y868248D01*
X1073658Y867511D01*
X1074014Y866444D01*
X1074014Y864641D01*
X1073658Y863549D01*
X1073302Y862838D01*
X1072591Y862101D01*
X1071855Y861746D01*
X1070406Y861746D01*
X1069696Y862101D01*
X1068959Y862838D01*
X1068604Y863549D01*
G54D11*
X1060399Y998397D02*
X1059714Y998728D01*
X1058672Y999794D01*
X1058672Y992454D01*
G54D11*
X1051662Y999794D02*
X1052373Y999794D01*
X1053414Y999439D01*
X1054125Y998397D01*
X1054456Y996644D01*
X1054456Y995578D01*
X1054125Y993851D01*
X1053414Y992784D01*
X1052373Y992454D01*
X1051662Y992454D01*
X1050620Y992784D01*
X1049934Y993851D01*
X1049579Y995578D01*
X1049579Y996644D01*
X1049934Y998397D01*
X1050620Y999439D01*
X1051662Y999794D01*
G54D11*
X1049934Y998397D02*
X1054125Y993851D01*
G54D11*
X1047140Y999794D02*
X1047140Y992454D01*
G54D11*
X1042238Y999794D02*
X1047140Y994893D01*
G54D11*
X1045388Y996644D02*
X1042238Y992454D01*
G54D10*
X1070000Y1097508D02*
X1070000Y1092505D01*
G54D11*
X1087653Y1099286D02*
X1088009Y1100023D01*
X1088746Y1100734D01*
X1089457Y1101115D01*
X1090904Y1101115D01*
X1091642Y1100734D01*
X1092352Y1100023D01*
X1092708Y1099286D01*
X1093064Y1098220D01*
X1093064Y1096416D01*
X1092708Y1095323D01*
X1092352Y1094612D01*
X1091642Y1093876D01*
X1090904Y1093520D01*
X1089457Y1093520D01*
X1088746Y1093876D01*
X1088009Y1094612D01*
X1087653Y1095323D01*
G54D11*
X1205382Y220954D02*
X1204696Y221310D01*
X1203630Y222352D01*
X1203630Y214960D01*
G54D11*
X1199058Y222352D02*
X1199058Y214960D01*
G54D11*
X1194104Y222352D02*
X1199058Y217424D01*
G54D11*
X1197280Y219202D02*
X1194104Y214960D01*
G54D15*
X1357732Y1551076D02*
X1357732Y1553082D01*
X1355725Y1553082D01*
X1355725Y1551076D01*
X1357732Y1551076D01*
G54D15*
X1573632Y1551076D02*
X1573632Y1553082D01*
X1571625Y1553082D01*
X1571625Y1551076D01*
X1573632Y1551076D01*
G54D11*
X16739Y532688D02*
X16739Y535838D01*
X24079Y535838D01*
X24079Y532688D01*
X23749Y531647D01*
X23393Y531291D01*
X22682Y530935D01*
X21641Y530935D01*
X20955Y531291D01*
X20600Y531647D01*
X20244Y532688D01*
X19888Y531647D01*
X19558Y531291D01*
X18847Y530935D01*
X18136Y530935D01*
X17450Y531291D01*
X17094Y531647D01*
X16739Y532688D01*
G54D11*
X20244Y535838D02*
X20244Y532688D01*
G54D11*
X17806Y524306D02*
X17094Y524636D01*
X16739Y525703D01*
X16739Y526389D01*
X17094Y527431D01*
X18136Y528142D01*
X19888Y528498D01*
X21641Y528498D01*
X23038Y528142D01*
X23749Y527431D01*
X24079Y526389D01*
X24079Y526034D01*
X23749Y524992D01*
X23038Y524306D01*
X21996Y523950D01*
X21641Y523950D01*
X20600Y524306D01*
X19888Y524992D01*
X19558Y526034D01*
X19558Y526389D01*
X19888Y527431D01*
X20600Y528142D01*
X21641Y528498D01*
G54D11*
X18491Y521513D02*
X18136Y521513D01*
X17450Y521157D01*
X17094Y520801D01*
X16739Y520115D01*
X16739Y518693D01*
X17094Y518007D01*
X17450Y517651D01*
X18136Y517296D01*
X18847Y517296D01*
X19558Y517651D01*
X20600Y518363D01*
X24079Y521843D01*
X24079Y516966D01*
G54D11*
X64364Y526339D02*
X64364Y529463D01*
X71704Y529463D01*
X71704Y526339D01*
X71348Y525272D01*
X71018Y524942D01*
X70307Y524586D01*
X69266Y524586D01*
X68554Y524942D01*
X68224Y525272D01*
X67869Y526339D01*
X67513Y525272D01*
X67158Y524942D01*
X66472Y524586D01*
X65761Y524586D01*
X65075Y524942D01*
X64719Y525272D01*
X64364Y526339D01*
G54D11*
X67869Y529463D02*
X67869Y526339D01*
G54D11*
X65430Y517931D02*
X64719Y518287D01*
X64364Y519328D01*
X64364Y520039D01*
X64719Y521080D01*
X65761Y521792D01*
X67513Y522147D01*
X69266Y522147D01*
X70663Y521792D01*
X71348Y521080D01*
X71704Y520039D01*
X71704Y519683D01*
X71348Y518643D01*
X70663Y517931D01*
X69622Y517601D01*
X69266Y517601D01*
X68224Y517931D01*
X67513Y518643D01*
X67158Y519683D01*
X67158Y520039D01*
X67513Y521080D01*
X68224Y521792D01*
X69266Y522147D01*
G54D11*
X65761Y514451D02*
X65430Y513740D01*
X64364Y512698D01*
X71704Y512698D01*
G54D11*
X97155Y512317D02*
X89941Y515087D01*
X97155Y517830D01*
G54D11*
X94742Y516788D02*
X94742Y513359D01*
G54D11*
X90957Y506476D02*
X90272Y506831D01*
X89941Y507848D01*
X89941Y508559D01*
X90272Y509574D01*
X91313Y510260D01*
X93015Y510616D01*
X94742Y510616D01*
X96114Y510260D01*
X96800Y509574D01*
X97155Y508559D01*
X97155Y508203D01*
X96800Y507162D01*
X96114Y506476D01*
X95098Y506145D01*
X94742Y506145D01*
X93700Y506476D01*
X93015Y507162D01*
X92685Y508203D01*
X92685Y508559D01*
X93015Y509574D01*
X93700Y510260D01*
X94742Y510616D01*
G54D11*
X91643Y503733D02*
X91313Y503733D01*
X90627Y503402D01*
X90272Y503047D01*
X89941Y502361D01*
X89941Y500990D01*
X90272Y500304D01*
X90627Y499948D01*
X91313Y499618D01*
X91999Y499618D01*
X92685Y499948D01*
X93700Y500634D01*
X97155Y504088D01*
X97155Y499262D01*
G54D11*
X180010Y288416D02*
X179324Y288747D01*
X178282Y289788D01*
X178282Y282473D01*
G54D11*
X171298Y289788D02*
X172009Y289788D01*
X173050Y289458D01*
X173736Y288416D01*
X174092Y286664D01*
X174092Y285623D01*
X173736Y283870D01*
X173050Y282828D01*
X172009Y282473D01*
X171298Y282473D01*
X170256Y282828D01*
X169570Y283870D01*
X169214Y285623D01*
X169214Y286664D01*
X169570Y288416D01*
X170256Y289458D01*
X171298Y289788D01*
G54D11*
X169570Y288416D02*
X173736Y283870D01*
G54D11*
X166776Y287349D02*
X166776Y280060D01*
G54D11*
X166776Y286309D02*
X166091Y287020D01*
X165380Y287349D01*
X164338Y287349D01*
X163652Y287020D01*
X162941Y286309D01*
X162611Y285267D01*
X162611Y284581D01*
X162941Y283540D01*
X163652Y282828D01*
X164338Y282473D01*
X165380Y282473D01*
X166091Y282828D01*
X166776Y283540D01*
G54D11*
X155626Y289788D02*
X160172Y289788D01*
X160172Y282473D01*
G54D11*
X160172Y286309D02*
X157378Y286309D01*
G54D11*
X141605Y823468D02*
X134392Y826236D01*
X141605Y828979D01*
G54D11*
X139192Y827938D02*
X139192Y824509D01*
G54D11*
X134392Y821410D02*
X134392Y817625D01*
X137135Y819708D01*
X137135Y818667D01*
X137465Y817981D01*
X137820Y817625D01*
X138862Y817296D01*
X139548Y817296D01*
X140564Y817625D01*
X141250Y818311D01*
X141605Y819353D01*
X141605Y820394D01*
X141250Y821410D01*
X140919Y821766D01*
X140233Y822096D01*
G54D11*
X135407Y811098D02*
X136779Y810767D01*
X137820Y811098D01*
X138506Y811784D01*
X138862Y812825D01*
X138862Y813156D01*
X138506Y814196D01*
X137820Y814882D01*
X136779Y815238D01*
X136449Y815238D01*
X135407Y814882D01*
X134722Y814196D01*
X134392Y813156D01*
X134392Y812825D01*
X134722Y811784D01*
X135407Y811098D01*
G54D11*
X136779Y810767D02*
X138506Y810767D01*
X140233Y811098D01*
X141250Y811784D01*
X141605Y812825D01*
X141605Y813511D01*
X141250Y814552D01*
X140564Y814882D01*
G54D11*
X141605Y1201293D02*
X134392Y1204061D01*
X141605Y1206804D01*
G54D11*
X139192Y1205763D02*
X139192Y1202334D01*
G54D11*
X135407Y1195807D02*
X136779Y1195451D01*
X137820Y1195807D01*
X138506Y1196492D01*
X138862Y1197533D01*
X138862Y1197864D01*
X138506Y1198905D01*
X137820Y1199591D01*
X136779Y1199921D01*
X136449Y1199921D01*
X135407Y1199591D01*
X134722Y1198905D01*
X134392Y1197864D01*
X134392Y1197533D01*
X134722Y1196492D01*
X135407Y1195807D01*
G54D11*
X136779Y1195451D02*
X138506Y1195451D01*
X140233Y1195807D01*
X141250Y1196492D01*
X141605Y1197533D01*
X141605Y1198219D01*
X141250Y1199236D01*
X140564Y1199591D01*
G54D11*
X158852Y1362989D02*
X160248Y1362989D01*
X161316Y1362634D01*
X161646Y1361948D01*
X161646Y1361236D01*
X161316Y1360550D01*
X160604Y1360195D01*
X159207Y1359839D01*
X158166Y1359484D01*
X157455Y1358798D01*
X157099Y1358086D01*
X157099Y1357046D01*
X157455Y1356335D01*
X157810Y1356004D01*
X158852Y1355649D01*
X160248Y1355649D01*
X161316Y1356004D01*
X161646Y1356335D01*
X162002Y1357046D01*
X162002Y1358086D01*
X161646Y1358798D01*
X160960Y1359484D01*
X159918Y1359839D01*
X158496Y1360195D01*
X157810Y1360550D01*
X157455Y1361236D01*
X157455Y1361948D01*
X157810Y1362634D01*
X158852Y1362989D01*
G54D11*
X154661Y1360550D02*
X154661Y1353210D01*
G54D11*
X154661Y1359484D02*
X153950Y1360195D01*
X153264Y1360550D01*
X152197Y1360550D01*
X151511Y1360195D01*
X150800Y1359484D01*
X150470Y1358442D01*
X150470Y1357757D01*
X150800Y1356690D01*
X151511Y1356004D01*
X152197Y1355649D01*
X153264Y1355649D01*
X153950Y1356004D01*
X154661Y1356690D01*
G54D11*
X143459Y1362989D02*
X148006Y1362989D01*
X148006Y1355649D01*
G54D11*
X148006Y1359484D02*
X145212Y1359484D01*
G54D13*
X155956Y1421231D02*
X155956Y1431214D01*
G54D11*
X261010Y358292D02*
X261366Y359028D01*
X262102Y359739D01*
X262814Y360095D01*
X264262Y360095D01*
X264973Y359739D01*
X265709Y359028D01*
X266065Y358292D01*
X266420Y357225D01*
X266420Y355422D01*
X266065Y354330D01*
X265709Y353619D01*
X264973Y352881D01*
X264262Y352526D01*
X262814Y352526D01*
X262102Y352881D01*
X261366Y353619D01*
X261010Y354330D01*
G54D10*
X292506Y370001D02*
X292506Y359994D01*
G54D11*
X550266Y1431341D02*
X550621Y1432077D01*
X551332Y1432788D01*
X552069Y1433144D01*
X553516Y1433144D01*
X554228Y1432788D01*
X554939Y1432077D01*
X555320Y1431341D01*
X555676Y1430274D01*
X555676Y1428470D01*
X555320Y1427378D01*
X554939Y1426667D01*
X554228Y1425930D01*
X553516Y1425575D01*
X552069Y1425575D01*
X551332Y1425930D01*
X550621Y1426667D01*
X550266Y1427378D01*
G54D11*
X621004Y288289D02*
X621360Y289026D01*
X622097Y289737D01*
X622808Y290093D01*
X624256Y290093D01*
X624967Y289737D01*
X625704Y289026D01*
X626060Y288289D01*
X626415Y287223D01*
X626415Y285419D01*
X626060Y284327D01*
X625704Y283616D01*
X624967Y282880D01*
X624256Y282524D01*
X622808Y282524D01*
X622097Y282880D01*
X621360Y283616D01*
X621004Y284327D01*
G54D11*
X656006Y288289D02*
X656361Y289026D01*
X657098Y289737D01*
X657810Y290093D01*
X659257Y290093D01*
X659968Y289737D01*
X660705Y289026D01*
X661060Y288289D01*
X661416Y287223D01*
X661416Y285419D01*
X661060Y284327D01*
X660705Y283616D01*
X659968Y282880D01*
X659257Y282524D01*
X657810Y282524D01*
X657098Y282880D01*
X656361Y283616D01*
X656006Y284327D01*
G54D14*
X712343Y1277010D02*
X718693Y1277010D01*
G54D10*
X673506Y1363776D02*
X673506Y1353769D01*
G54D11*
X703885Y1279042D02*
X703199Y1279372D01*
X702132Y1280439D01*
X702132Y1273098D01*
G54D11*
X695147Y1280439D02*
X695858Y1280439D01*
X696900Y1280083D01*
X697586Y1279042D01*
X697941Y1277289D01*
X697941Y1276248D01*
X697586Y1274496D01*
X696900Y1273454D01*
X695858Y1273098D01*
X695147Y1273098D01*
X694106Y1273454D01*
X693395Y1274496D01*
X693064Y1276248D01*
X693064Y1277289D01*
X693395Y1279042D01*
X694106Y1280083D01*
X695147Y1280439D01*
G54D11*
X693395Y1279042D02*
X697586Y1274496D01*
G54D11*
X690600Y1280439D02*
X690600Y1273098D01*
G54D11*
X685724Y1280439D02*
X690600Y1275537D01*
G54D11*
X688874Y1277289D02*
X685724Y1273098D01*
G54D14*
X763143Y1277010D02*
X769493Y1277010D01*
G54D11*
X792784Y1279042D02*
X792099Y1279372D01*
X791032Y1280439D01*
X791032Y1273098D01*
G54D11*
X784047Y1280439D02*
X784758Y1280439D01*
X785800Y1280083D01*
X786486Y1279042D01*
X786841Y1277289D01*
X786841Y1276248D01*
X786486Y1274496D01*
X785800Y1273454D01*
X784758Y1273098D01*
X784047Y1273098D01*
X783006Y1273454D01*
X782294Y1274496D01*
X781964Y1276248D01*
X781964Y1277289D01*
X782294Y1279042D01*
X783006Y1280083D01*
X784047Y1280439D01*
G54D11*
X782294Y1279042D02*
X786486Y1274496D01*
G54D11*
X779500Y1280439D02*
X779500Y1273098D01*
G54D11*
X774624Y1280439D02*
X779500Y1275537D01*
G54D11*
X777774Y1277289D02*
X774624Y1273098D01*
G54D14*
X813943Y1277010D02*
X820293Y1277010D01*
G54D11*
X837209Y1279093D02*
X836524Y1279449D01*
X835457Y1280516D01*
X835457Y1273124D01*
G54D11*
X830885Y1280516D02*
X830885Y1273124D01*
G54D11*
X825957Y1280516D02*
X830885Y1275588D01*
G54D11*
X829107Y1277340D02*
X825957Y1273124D01*
G54D11*
X921740Y593140D02*
X922096Y593877D01*
X922807Y594588D01*
X923544Y594944D01*
X924992Y594944D01*
X925703Y594588D01*
X926414Y593877D01*
X926796Y593140D01*
X927151Y592073D01*
X927151Y590270D01*
X926796Y589178D01*
X926414Y588467D01*
X925703Y587730D01*
X924992Y587375D01*
X923544Y587375D01*
X922807Y587730D01*
X922096Y588467D01*
X921740Y589178D01*
G54D10*
X905002Y972490D02*
X905002Y967485D01*
G54D11*
X937616Y1047166D02*
X937971Y1047902D01*
X938682Y1048613D01*
X939419Y1048969D01*
X940866Y1048969D01*
X941578Y1048613D01*
X942289Y1047902D01*
X942670Y1047166D01*
X943026Y1046099D01*
X943026Y1044296D01*
X942670Y1043203D01*
X942289Y1042491D01*
X941578Y1041755D01*
X940866Y1041399D01*
X939419Y1041399D01*
X938682Y1041755D01*
X937971Y1042491D01*
X937616Y1043203D01*
G54D11*
X912216Y1047166D02*
X912572Y1047902D01*
X913282Y1048613D01*
X914019Y1048969D01*
X915467Y1048969D01*
X916178Y1048613D01*
X916890Y1047902D01*
X917270Y1047166D01*
X917626Y1046099D01*
X917626Y1044296D01*
X917270Y1043203D01*
X916890Y1042491D01*
X916178Y1041755D01*
X915467Y1041399D01*
X914019Y1041399D01*
X913282Y1041755D01*
X912572Y1042491D01*
X912216Y1043203D01*
G54D11*
X921740Y974140D02*
X922096Y974877D01*
X922807Y975588D01*
X923544Y975944D01*
X924992Y975944D01*
X925703Y975588D01*
X926414Y974877D01*
X926796Y974140D01*
X927151Y973073D01*
X927151Y971270D01*
X926796Y970178D01*
X926414Y969467D01*
X925703Y968730D01*
X924992Y968375D01*
X923544Y968375D01*
X922807Y968730D01*
X922096Y969467D01*
X921740Y970178D01*
G54D11*
X985240Y593140D02*
X985596Y593877D01*
X986307Y594588D01*
X987044Y594944D01*
X988492Y594944D01*
X989203Y594588D01*
X989914Y593877D01*
X990296Y593140D01*
X990651Y592073D01*
X990651Y590270D01*
X990296Y589178D01*
X989914Y588467D01*
X989203Y587730D01*
X988492Y587375D01*
X987044Y587375D01*
X986307Y587730D01*
X985596Y588467D01*
X985240Y589178D01*
G54D11*
X1013816Y593140D02*
X1014172Y593877D01*
X1014882Y594588D01*
X1015619Y594944D01*
X1017067Y594944D01*
X1017778Y594588D01*
X1018490Y593877D01*
X1018870Y593140D01*
X1019226Y592073D01*
X1019226Y590270D01*
X1018870Y589178D01*
X1018490Y588467D01*
X1017778Y587730D01*
X1017067Y587375D01*
X1015619Y587375D01*
X1014882Y587730D01*
X1014172Y588467D01*
X1013816Y589178D01*
G54D11*
X982066Y1047166D02*
X982422Y1047902D01*
X983132Y1048613D01*
X983869Y1048969D01*
X985317Y1048969D01*
X986028Y1048613D01*
X986740Y1047902D01*
X987120Y1047166D01*
X987476Y1046099D01*
X987476Y1044296D01*
X987120Y1043203D01*
X986740Y1042491D01*
X986028Y1041755D01*
X985317Y1041399D01*
X983869Y1041399D01*
X983132Y1041755D01*
X982422Y1042491D01*
X982066Y1043203D01*
G54D11*
X988416Y1196390D02*
X988771Y1197127D01*
X989482Y1197838D01*
X990219Y1198194D01*
X991667Y1198194D01*
X992378Y1197838D01*
X993089Y1197127D01*
X993470Y1196390D01*
X993826Y1195323D01*
X993826Y1193520D01*
X993470Y1192428D01*
X993089Y1191717D01*
X992378Y1190980D01*
X991667Y1190625D01*
X990219Y1190625D01*
X989482Y1190980D01*
X988771Y1191717D01*
X988416Y1192428D01*
G54D11*
X1055091Y596315D02*
X1055446Y597052D01*
X1056158Y597764D01*
X1056894Y598119D01*
X1058342Y598119D01*
X1059053Y597764D01*
X1059764Y597052D01*
X1060145Y596315D01*
X1060501Y595248D01*
X1060501Y593445D01*
X1060145Y592353D01*
X1059764Y591642D01*
X1059053Y590906D01*
X1058342Y590550D01*
X1056894Y590550D01*
X1056158Y590906D01*
X1055446Y591642D01*
X1055091Y592353D01*
G54D12*
X29718Y1340993D02*
X131318Y1340993D01*
X131318Y493267D01*
X29718Y493267D01*
X29718Y1340993D01*
G54D11*
X52883Y280949D02*
X52197Y281304D01*
X51130Y282371D01*
X51130Y274955D01*
G54D11*
X46558Y282371D02*
X46558Y274955D01*
G54D11*
X41605Y282371D02*
X46558Y277419D01*
G54D11*
X44780Y279197D02*
X41605Y274955D01*
G54D11*
X290398Y380873D02*
X289712Y381228D01*
X288671Y382295D01*
X288671Y374955D01*
G54D11*
X284124Y380542D02*
X284124Y380873D01*
X283768Y381584D01*
X283413Y381940D01*
X282728Y382295D01*
X281330Y382295D01*
X280619Y381940D01*
X280264Y381584D01*
X279934Y380873D01*
X279934Y380187D01*
X280264Y379476D01*
X280975Y378434D01*
X284480Y374955D01*
X279578Y374955D01*
G54D11*
X277139Y382295D02*
X277139Y374955D01*
G54D11*
X272238Y382295D02*
X277139Y377392D01*
G54D11*
X275387Y379145D02*
X272238Y374955D01*
G54D11*
X268504Y400786D02*
X268859Y401523D01*
X269596Y402234D01*
X270307Y402615D01*
X271754Y402615D01*
X272491Y402234D01*
X273202Y401523D01*
X273558Y400786D01*
X273914Y399720D01*
X273914Y397916D01*
X273558Y396823D01*
X273202Y396112D01*
X272491Y395376D01*
X271754Y395020D01*
X270307Y395020D01*
X269596Y395376D01*
X268859Y396112D01*
X268504Y396823D01*
G54D10*
X652298Y297306D02*
X652298Y307314D01*
G54D11*
X653542Y320218D02*
X653542Y312547D01*
X649173Y312547D01*
G54D11*
X576021Y408304D02*
X576377Y409016D01*
X577088Y409753D01*
X577824Y410108D01*
X579247Y410108D01*
X579984Y409753D01*
X580695Y409016D01*
X581050Y408304D01*
X581431Y407212D01*
X581431Y405409D01*
X581050Y404317D01*
X580695Y403606D01*
X579984Y402895D01*
X579247Y402513D01*
X577824Y402513D01*
X577088Y402895D01*
X576377Y403606D01*
X576021Y404317D01*
G54D11*
X645998Y425805D02*
X646380Y426516D01*
X647090Y427253D01*
X647802Y427608D01*
X649250Y427608D01*
X649986Y427253D01*
X650698Y426516D01*
X651053Y425805D01*
X651434Y424713D01*
X651434Y422910D01*
X651053Y421817D01*
X650698Y421106D01*
X649986Y420395D01*
X649250Y420014D01*
X647802Y420014D01*
X647090Y420395D01*
X646380Y421106D01*
X645998Y421817D01*
G54D11*
X666115Y395528D02*
X666115Y395858D01*
X665760Y396570D01*
X665404Y396925D01*
X664718Y397256D01*
X663321Y397256D01*
X662610Y396925D01*
X662280Y396570D01*
X661924Y395858D01*
X661924Y395172D01*
X662280Y394461D01*
X662966Y393421D01*
X666470Y389940D01*
X661568Y389940D01*
G54D11*
X658444Y390296D02*
X658774Y390626D01*
X659130Y390296D01*
X658774Y389940D01*
X658444Y390296D01*
G54D11*
X655650Y395528D02*
X655650Y395858D01*
X655294Y396570D01*
X654939Y396925D01*
X654254Y397256D01*
X652856Y397256D01*
X652170Y396925D01*
X651815Y396570D01*
X651460Y395858D01*
X651460Y395172D01*
X651815Y394461D01*
X652500Y393421D01*
X656006Y389940D01*
X651104Y389940D01*
G54D11*
X648665Y394817D02*
X648665Y391337D01*
X648310Y390296D01*
X647624Y389940D01*
X646582Y389940D01*
X645871Y390296D01*
X644830Y391337D01*
G54D11*
X644830Y394817D02*
X644830Y389940D01*
G54D11*
X578612Y395528D02*
X578612Y395858D01*
X578256Y396570D01*
X577901Y396925D01*
X577215Y397256D01*
X575818Y397256D01*
X575132Y396925D01*
X574776Y396570D01*
X574421Y395858D01*
X574421Y395172D01*
X574776Y394461D01*
X575462Y393421D01*
X578968Y389940D01*
X574066Y389940D01*
G54D11*
X570941Y390296D02*
X571296Y390626D01*
X571627Y390296D01*
X571296Y389940D01*
X570941Y390296D01*
G54D11*
X568147Y395528D02*
X568147Y395858D01*
X567792Y396570D01*
X567436Y396925D01*
X566750Y397256D01*
X565353Y397256D01*
X564667Y396925D01*
X564312Y396570D01*
X563956Y395858D01*
X563956Y395172D01*
X564312Y394461D01*
X564998Y393421D01*
X568502Y389940D01*
X563600Y389940D01*
G54D11*
X561162Y394817D02*
X561162Y391337D01*
X560832Y390296D01*
X560121Y389940D01*
X559080Y389940D01*
X558368Y390296D01*
X557326Y391337D01*
G54D11*
X557326Y394817D02*
X557326Y389940D01*
G54D11*
X651002Y1065809D02*
X651358Y1066520D01*
X652094Y1067231D01*
X652806Y1067612D01*
X654254Y1067612D01*
X654990Y1067231D01*
X655701Y1066520D01*
X656056Y1065809D01*
X656412Y1064717D01*
X656412Y1062914D01*
X656056Y1061822D01*
X655701Y1061110D01*
X654990Y1060373D01*
X654254Y1060017D01*
X652806Y1060017D01*
X652094Y1060373D01*
X651358Y1061110D01*
X651002Y1061822D01*
G54D13*
X962508Y172491D02*
X952500Y172491D01*
G54D11*
X882904Y180949D02*
X882193Y181305D01*
X881126Y182371D01*
X881126Y174955D01*
G54D11*
X876554Y182371D02*
X876554Y174955D01*
G54D11*
X871626Y182371D02*
X876554Y177418D01*
G54D11*
X874776Y179196D02*
X871626Y174955D01*
G54D15*
X955218Y537235D02*
X967918Y537235D01*
G54D11*
X900404Y998397D02*
X899719Y998728D01*
X898652Y999794D01*
X898652Y992454D01*
G54D11*
X891667Y999794D02*
X892378Y999794D01*
X893420Y999439D01*
X894106Y998397D01*
X894461Y996644D01*
X894461Y995578D01*
X894106Y993851D01*
X893420Y992784D01*
X892378Y992454D01*
X891667Y992454D01*
X890626Y992784D01*
X889914Y993851D01*
X889584Y995578D01*
X889584Y996644D01*
X889914Y998397D01*
X890626Y999439D01*
X891667Y999794D01*
G54D11*
X889914Y998397D02*
X894106Y993851D01*
G54D11*
X887120Y999794D02*
X887120Y992454D01*
G54D11*
X882244Y999794D02*
X887120Y994893D01*
G54D11*
X885394Y996644D02*
X882244Y992454D01*
G54D10*
X802513Y1017498D02*
X807516Y1017498D01*
G54D13*
X1187501Y219989D02*
X1177493Y219989D01*
G54D10*
X1032510Y1005001D02*
X1037514Y1005001D01*
G54D11*
X348284Y435737D02*
X345034Y435737D01*
X343967Y436118D01*
X343612Y436473D01*
X343230Y437184D01*
X343230Y437921D01*
X343612Y438632D01*
X343967Y438988D01*
X345034Y439343D01*
X348284Y439343D01*
X348284Y431774D01*
G54D11*
X345770Y435737D02*
X343230Y431774D01*
G54D11*
X503631Y137972D02*
X503631Y138302D01*
X503276Y139014D01*
X502920Y139344D01*
X502234Y139700D01*
X500838Y139700D01*
X500152Y139344D01*
X499822Y139014D01*
X499466Y138302D01*
X499466Y137616D01*
X499822Y136931D01*
X500507Y135890D01*
X503962Y132409D01*
X499110Y132409D01*
G54D11*
X492532Y137261D02*
X488722Y132409D01*
G54D11*
X488722Y137261D02*
X492532Y132409D01*
G54D11*
X479018Y139700D02*
X480416Y139700D01*
X481457Y139344D01*
X481787Y138658D01*
X481787Y137972D01*
X481457Y137261D01*
X480771Y136931D01*
X479374Y136576D01*
X478333Y136220D01*
X477647Y135534D01*
X477292Y134848D01*
X477292Y133807D01*
X477647Y133121D01*
X477978Y132765D01*
X479018Y132409D01*
X480416Y132409D01*
X481457Y132765D01*
X481787Y133121D01*
X482142Y133807D01*
X482142Y134848D01*
X481787Y135534D01*
X481102Y136220D01*
X480060Y136576D01*
X478688Y136931D01*
X477978Y137261D01*
X477647Y137972D01*
X477647Y138658D01*
X477978Y139344D01*
X479018Y139700D01*
G54D11*
X470383Y137261D02*
X470383Y129997D01*
G54D11*
X470383Y136220D02*
X469672Y136931D01*
X468986Y137261D01*
X467944Y137261D01*
X467258Y136931D01*
X466572Y136220D01*
X466217Y135204D01*
X466217Y134493D01*
X466572Y133451D01*
X467258Y132765D01*
X467944Y132409D01*
X468986Y132409D01*
X469672Y132765D01*
X470383Y133451D01*
G54D11*
X459282Y139700D02*
X463778Y139700D01*
X463778Y132409D01*
G54D11*
X463778Y136220D02*
X461010Y136220D01*
M02*
